<svg version="1.1" xmlns="http://www.w3.org/2000/svg" viewBox="0 0 707.017838709979 352.57048936043617" width="2121.0535161299367" height="1057.7114680813086">
  <!-- svg-source:excalidraw -->
  
  <defs>
    <style class="style-fonts">
      @font-face {
        font-family: "Virgil";
        src: url("https://excalidraw.com/Virgil.woff2");
      }
      @font-face {
        font-family: "Cascadia";
        src: url("https://excalidraw.com/Cascadia.woff2");
      }
    </style>
    
  </defs>
  <g transform="translate(479.14997250645854 169.1090227379825) rotate(0 17.86458396911621 10)"><text x="0" y="0" font-family="Virgil, Segoe UI Emoji" font-size="16px" fill="#1e1e1e" text-anchor="start" style="white-space: pre;" direction="ltr" dominant-baseline="text-before-edge">:not(</text></g><g transform="translate(641.4008220204122 169.77652944774331) rotate(0 2.6979167461395264 10)"><text x="0" y="0" font-family="Virgil, Segoe UI Emoji" font-size="16px" fill="#1e1e1e" text-anchor="start" style="white-space: pre;" direction="ltr" dominant-baseline="text-before-edge">)</text></g><g transform="translate(277.2080520959661 11.376213632555391) rotate(0 8.71875 22.5)"><text x="0" y="0" font-family="Virgil, Segoe UI Emoji" font-size="36px" fill="#000000" text-anchor="start" style="white-space: pre;" direction="ltr" dominant-baseline="text-before-edge">&gt;</text></g><g stroke-linecap="round" transform="translate(199.62458067430202 84.48928574690808) rotate(0 35.433744160497156 21.6075173836374)"><path d="M1.13 -0.47 L71.74 0.28 L69.85 41.29 L0.51 45.21" stroke="none" stroke-width="0" fill="#ffec99"></path><path d="M0.35 1.05 C20.87 -0.17, 41.65 -0.66, 72.06 0.25 M0.39 0.58 C20.98 0.32, 42.93 -0.49, 71.26 0.98 M69.02 1.45 C70.96 11.28, 71.36 22.81, 71.75 44.19 M71.78 0.38 C71.65 10.17, 70.38 18.38, 70.19 43.97 M70.68 43.81 C47.01 41.18, 25.4 42.52, 1.17 43.23 M70.91 43.9 C49.53 43.39, 29.56 43.33, 0.01 42.41 M0.38 41.49 C0.28 28.2, -0.44 14.04, -0.45 0.02 M0.26 42.56 C0.38 33.18, 1.11 24.2, -0.98 0.19" stroke="transparent" stroke-width="1" fill="none"></path></g><g stroke-linecap="round" transform="translate(207.29428248145564 89.77406672213192) rotate(0 28 16)"><path d="M0 0 L56 0 L56 32 L0 32" stroke="none" stroke-width="0" fill="#ffffff"></path><path d="M0 0 C13.6 0, 27.2 0, 56 0 M0 0 C16.01 0, 32.02 0, 56 0 M56 0 C56 6.81, 56 13.61, 56 32 M56 0 C56 6.53, 56 13.07, 56 32 M56 32 C40.47 32, 24.93 32, 0 32 M56 32 C38.9 32, 21.8 32, 0 32 M0 32 C0 20.84, 0 9.69, 0 0 M0 32 C0 22.16, 0 12.32, 0 0" stroke="transparent" stroke-width="1" fill="none"></path></g><g transform="translate(213.11719851233943 95.77406672213192) rotate(0 22.17708396911621 10)"><text x="22.17708396911621" y="0" font-family="Virgil, Segoe UI Emoji" font-size="16px" fill="#000000" text-anchor="middle" style="white-space: pre;" direction="ltr" dominant-baseline="text-before-edge">#main</text></g><g transform="translate(278.7594100593682 84.56651446262322) rotate(0 8.71875 22.5)"><text x="0" y="0" font-family="Virgil, Segoe UI Emoji" font-size="36px" fill="#000000" text-anchor="start" style="white-space: pre;" direction="ltr" dominant-baseline="text-before-edge">&gt;</text></g><g transform="translate(278.6111393734167 157.94924626393708) rotate(0 8.71875 22.5)"><text x="0" y="0" font-family="Virgil, Segoe UI Emoji" font-size="36px" fill="#000000" text-anchor="start" style="white-space: pre;" direction="ltr" dominant-baseline="text-before-edge">&gt;</text></g><g transform="translate(281.2302380500804 228.18851582718082) rotate(0 11.083333015441895 22.49999999999997)"><text x="0" y="0" font-family="Virgil, Segoe UI Emoji" font-size="36px" fill="#000000" text-anchor="start" style="white-space: pre;" direction="ltr" dominant-baseline="text-before-edge">=</text></g><g transform="translate(281.2302380500804 297.57048936043617) rotate(0 8.71875 22.5)"><text x="0" y="0" font-family="Virgil, Segoe UI Emoji" font-size="36px" fill="#000000" text-anchor="start" style="white-space: pre;" direction="ltr" dominant-baseline="text-before-edge">&gt;</text></g><g stroke-linecap="round" transform="translate(101.86080946921913 157.68080707725096) rotate(0 41.41258215348806 21.6075173836374)"><path d="M1.58 -1.51 L84.49 -0.66 L83.61 43 L-0.97 43.87" stroke="none" stroke-width="0" fill="#b2f2bb"></path><path d="M0.45 1.68 C26.87 0.84, 58.05 -1.08, 84.27 -1.75 M0.38 0.09 C18.1 0.53, 34.92 -0.67, 83.5 -0.96 M83.82 -1.55 C81.05 15.56, 84.5 34.02, 81.45 42.76 M81.89 -0.83 C82.69 13.14, 82.96 25.05, 83.23 43.27 M83.11 43.63 C57.79 42.75, 30.82 43.04, -0.16 44.19 M82.13 42.98 C55.45 43.09, 30.01 42.5, -0.68 43.29 M-1.23 44.85 C-0.1 27.18, 0.67 16.2, -0.47 0.87 M0.25 44.21 C-0.09 28.74, 1.21 15.76, 0.36 0.06" stroke="transparent" stroke-width="1" fill="none"></path></g><g stroke-linecap="round" transform="translate(109.53051127637139 162.9655880524748) rotate(0 34.5 15.5)"><path d="M0 0 L69 0 L69 31 L0 31" stroke="none" stroke-width="0" fill="#ffffff"></path><path d="M0 0 C20.28 0, 40.56 0, 69 0 M0 0 C19.94 0, 39.87 0, 69 0 M69 0 C69 10.81, 69 21.62, 69 31 M69 0 C69 6.28, 69 12.55, 69 31 M69 31 C52.29 31, 35.58 31, 0 31 M69 31 C47.44 31, 25.88 31, 0 31 M0 31 C0 21.45, 0 11.89, 0 0 M0 31 C0 24.68, 0 18.37, 0 0" stroke="transparent" stroke-width="1" fill="none"></path></g><g transform="translate(130.39509429181328 168.4655880524748) rotate(0 13.635416984558105 10)"><text x="13.635416984558105" y="0" font-family="Virgil, Segoe UI Emoji" font-size="16px" fill="#000000" text-anchor="middle" style="white-space: pre;" direction="ltr" dominant-baseline="text-before-edge">.link</text></g><g stroke-linecap="round" transform="translate(189.61520865904504 158.12218803056942) rotate(0 41.412582153488074 21.6075173836374)"><path d="M-0.97 0.65 L83.12 -0.09 L84.71 43.33 L-1.95 45.05" stroke="none" stroke-width="0" fill="#b2f2bb"></path><path d="M1.44 -1.75 C26.26 1.92, 55.99 1.22, 83.01 1.76 M0.67 -0.96 C29.41 1.01, 57.49 1.13, 82.05 -0.97 M81.45 -0.45 C82.96 10.62, 81.2 18.17, 81.17 42.68 M83.23 0.05 C82.87 16.17, 82.25 31.11, 83.03 43.3 M82.66 44.19 C58.31 41.62, 33.29 41.95, -0.47 41.28 M82.14 43.29 C60.12 41.88, 36.98 41.92, 0.82 43.03 M-0.47 44.09 C0.2 33.47, -2.01 26.27, 1.99 -0.62 M0.36 43.27 C0.36 33.39, 0.4 24.75, 0.39 -0.11" stroke="transparent" stroke-width="1" fill="none"></path></g><g stroke-linecap="round" transform="translate(197.2849104661973 163.40696900579326) rotate(0 34.5 15.5)"><path d="M0 0 L69 0 L69 31 L0 31" stroke="none" stroke-width="0" fill="#ffffff"></path><path d="M0 0 C16.81 0, 33.61 0, 69 0 M0 0 C15.45 0, 30.89 0, 69 0 M69 0 C69 9.58, 69 19.16, 69 31 M69 0 C69 9.08, 69 18.16, 69 31 M69 31 C47.25 31, 25.51 31, 0 31 M69 31 C53.97 31, 38.94 31, 0 31 M0 31 C0 19.95, 0 8.89, 0 0 M0 31 C0 22.69, 0 14.38, 0 0" stroke="transparent" stroke-width="1" fill="none"></path></g><g transform="translate(209.5557444353135 168.90696900579326) rotate(0 22.22916603088379 10)"><text x="22.22916603088379" y="0" font-family="Virgil, Segoe UI Emoji" font-size="16px" fill="#000000" text-anchor="middle" style="white-space: pre;" direction="ltr" dominant-baseline="text-before-edge">:hover</text></g><g stroke-linecap="round" transform="translate(304.8717022076529 157.0176139973605) rotate(0 41.412582153488074 21.6075173836374)"><path d="M-1.95 1.83 L84.36 -0.92 L82.01 44 L1.47 41.39" stroke="none" stroke-width="0" fill="#b2f2bb"></path><path d="M0.18 1.76 C31.75 0.66, 60.21 1.03, 80.91 1.83 M-0.77 -0.97 C27.35 0.34, 56.15 -1.1, 82.6 -0.09 M81.17 -0.53 C83.57 14.26, 82.26 29.3, 82.93 43.3 M83.03 0.08 C82.58 15.1, 82.73 31.74, 83.31 43.4 M82.35 41.28 C64.66 42.65, 45.77 41.28, 0.15 43.73 M83.64 43.03 C62.42 42.9, 44.54 42.47, 0.44 43.35 M1.99 42.59 C-1.39 34.43, -0.22 22.41, 0.12 1.58 M0.39 43.11 C-0.85 33.83, -0.21 23.76, 0.94 0.06" stroke="transparent" stroke-width="1" fill="none"></path></g><g stroke-linecap="round" transform="translate(312.5414040148047 162.30239497258435) rotate(0 34.5 15.5)"><path d="M0 0 L69 0 L69 31 L0 31" stroke="none" stroke-width="0" fill="#ffffff"></path><path d="M0 0 C23.3 0, 46.59 0, 69 0 M0 0 C24.14 0, 48.27 0, 69 0 M69 0 C69 6.39, 69 12.79, 69 31 M69 0 C69 9.74, 69 19.47, 69 31 M69 31 C53.1 31, 37.2 31, 0 31 M69 31 C52.55 31, 36.1 31, 0 31 M0 31 C0 20.92, 0 10.83, 0 0 M0 31 C0 22.72, 0 14.44, 0 0" stroke="transparent" stroke-width="1" fill="none"></path></g><g transform="translate(319.8643200456885 167.80239497258435) rotate(0 27.17708396911621 10)"><text x="27.17708396911621" y="0" font-family="Virgil, Segoe UI Emoji" font-size="16px" fill="#000000" text-anchor="middle" style="white-space: pre;" direction="ltr" dominant-baseline="text-before-edge">.footer</text></g><g transform="translate(399.76361157907456 165.14500602367252) rotate(0 4.854166507720947 12.5)"><text x="0" y="0" font-family="Virgil, Segoe UI Emoji" font-size="20px" fill="#1e1e1e" text-anchor="start" style="white-space: pre;" direction="ltr" dominant-baseline="text-before-edge">&gt;</text></g><g stroke-linecap="round" transform="translate(394.5968359333741 159.59291409496723) rotate(0 10.665991998423351 17.56820057172078)"><path d="M0.77 0.97 C8.83 -1.74, 13.72 -1.56, 22.85 0.18 M0.3 -0.98 C4 -0.81, 9.61 0.6, 21.34 -0.07 M22.7 -1.16 C21.63 12.37, 21.51 23.93, 19.71 35.44 M20.47 0.12 C20.81 10.02, 20.54 20.28, 21.34 34.32 M20.02 35.3 C15.15 36.82, 11.06 33.23, 0.39 36.27 M20.82 34.17 C15.69 36.16, 9.22 34.26, 0.99 34.82 M-1.51 36.8 C-0.68 24.1, -0.24 10.52, 0.65 0.3 M-0.98 36.05 C0.44 24.29, -0.74 14.75, 0.74 -0.91" stroke="#1e1e1e" stroke-width="1" fill="none"></path></g><g stroke-linecap="round" transform="translate(422.7541155193311 155.55359728305052) rotate(0 23.94346520889553 21.6075173836374)"><path d="M-0.58 -0.69 L48.18 0.13 L49.21 42.89 L0.64 41.62" stroke="none" stroke-width="0" fill="#a5d8ff"></path><path d="M1 -1.55 C16.81 -1.59, 39.01 -0.05, 46.52 -0.45 M-0.94 -0.83 C13.65 1.05, 27.84 0.4, 48.29 0.05 M48.17 0.41 C48.34 13.16, 46.56 26.6, 47.72 44.19 M47.19 -0.24 C46.55 13.55, 47.52 26.74, 47.21 43.29 M46.65 44.85 C31.92 41.29, 17.09 44.39, -0.47 44.09 M48.14 44.21 C32.54 41.85, 18.81 42.43, 0.36 43.27 M-0.66 44 C0.11 25.86, 0.98 10.75, -0.09 1.89 M0.77 42.76 C0.02 30.39, 1.16 15.87, -0.96 -0.86" stroke="transparent" stroke-width="1" fill="none"></path></g><g stroke-linecap="round" transform="translate(431.84986768930673 161.97745380251035) rotate(0 15.5 15.5)"><path d="M0 0 L31 0 L31 31 L0 31" stroke="none" stroke-width="0" fill="#ffffff"></path><path d="M0 0 C10.81 0, 21.62 0, 31 0 M0 0 C6.28 0, 12.55 0, 31 0 M31 0 C31 7.51, 31 15.01, 31 31 M31 0 C31 9.69, 31 19.37, 31 31 M31 31 C21.45 31, 11.89 31, 0 31 M31 31 C24.68 31, 18.37 31, 0 31 M0 31 C0 19.13, 0 7.25, 0 0 M0 31 C0 18.86, 0 6.72, 0 0" stroke="transparent" stroke-width="1" fill="none"></path></g><g transform="translate(442.03736768930673 167.47745380251035) rotate(0 5.3125 10)"><text x="5.3125" y="0" font-family="Virgil, Segoe UI Emoji" font-size="16px" fill="#000000" text-anchor="middle" style="white-space: pre;" direction="ltr" dominant-baseline="text-before-edge">a</text></g><g stroke-linecap="round" transform="translate(524.9395134328068 157.74962235451574) rotate(0 51.78347028940942 21.6075173836374)"><path d="M0.64 -1.6 L102.91 1.74 L104.71 44.69 L1.86 42.47" stroke="none" stroke-width="0" fill="#b2f2bb"></path><path d="M-1.37 -0.45 C23.84 0.5, 46.1 -1.97, 101.91 -0.53 M0.4 0.05 C37.15 0.75, 73.64 0.21, 103.77 0.08 M103.4 0.97 C103.6 11.26, 103.47 24.58, 103.09 41.28 M102.89 0.07 C103.83 11.33, 103.65 23.35, 104.38 43.03 M103.1 44.09 C82.94 42.78, 59.83 44.31, 1.99 42.59 M103.93 43.27 C82.63 42.13, 60.94 42.55, 0.39 43.11 M-0.09 45.1 C-0.02 30.41, 1.69 23.04, -0.92 -0.81 M-0.96 42.35 C-0.61 28.22, -0.17 13.97, 0.66 -0.16" stroke="transparent" stroke-width="1" fill="none"></path></g><g stroke-linecap="round" transform="translate(532.6092152399596 163.03440332973958) rotate(0 44 15)"><path d="M0 0 L88 0 L88 30 L0 30" stroke="none" stroke-width="0" fill="#ffffff"></path><path d="M0 0 C27.2 0, 54.4 0, 88 0 M0 0 C25.78 0, 51.55 0, 88 0 M88 0 C88 9.46, 88 18.91, 88 30 M88 0 C88 6.54, 88 13.07, 88 30 M88 30 C56.62 30, 25.24 30, 0 30 M88 30 C64.42 30, 40.83 30, 0 30 M0 30 C0 20.56, 0 11.11, 0 0 M0 30 C0 23.74, 0 17.47, 0 0" stroke="transparent" stroke-width="1" fill="none"></path></g><g transform="translate(538.869633178192 168.03440332973958) rotate(0 37.73958206176758 10)"><text x="37.73958206176758" y="0" font-family="Virgil, Segoe UI Emoji" font-size="16px" fill="#000000" text-anchor="middle" style="white-space: pre;" direction="ltr" dominant-baseline="text-before-edge">:last-child</text></g><g stroke-linecap="round" transform="translate(474.7579223635279 161.05693080927722) rotate(0 22.326254893228565 17.56820057172078)"><path d="M-1.65 -0.53 C15.88 0.43, 29.29 1.23, 44.76 0.08 M0.21 0.08 C16.44 -0.87, 33.03 -0.14, 45.14 0.19 M44.18 -1.93 C44.24 7.53, 43.05 13.66, 44.8 35.65 M45.47 -0.19 C43.7 8.43, 45.25 16.25, 45.09 35.28 M46.65 34.51 C31.72 37.23, 21.76 35.98, 0.12 36.72 M45.04 35.03 C34.14 35.32, 24.74 34.95, 0.94 35.19 M-0.92 34.32 C0.46 29.5, -2.15 18.98, -1.72 -0.58 M0.66 34.97 C0.27 25.01, -0.38 17.35, 0.57 0.74" stroke="#1e1e1e" stroke-width="1" fill="none"></path></g><g stroke-linecap="round" transform="translate(633.3096982589731 160.59291409496723) rotate(0 11.375 17.56820057172078)"><path d="M1.17 0.02 C4.55 0.87, 9.49 0.14, 24.11 -1.16 M0.01 -0.81 C7.3 -0.1, 14.78 0.17, 21.89 0.12 M22.3 0.02 C21.02 6.74, 22.82 16.71, 21.44 35.3 M21.77 0.19 C23.6 8.14, 23.47 16.89, 22.24 34.17 M20.95 37.12 C14.71 35.79, 8.07 36.65, -1.51 36.8 M22.26 35.46 C16.82 35.07, 11.54 35.17, -0.98 36.05 M0.78 36.61 C-1.66 19.97, -1.56 8.08, -0.69 0.29 M0.32 34.34 C-0.56 25.24, 0.34 14.35, 0.93 -0.37" stroke="#1e1e1e" stroke-width="1" fill="none"></path></g><g stroke-linecap="round" transform="translate(10 158.93715749288162) rotate(0 41.41258215348806 21.6075173836374)"><path d="M-0.54 -0.74 L81.59 0.85 L81.8 43.29 L-1.97 44.51" stroke="none" stroke-width="0" fill="#b2f2bb"></path><path d="M-0.14 0.81 C22.74 0.08, 46.64 -1.16, 83.11 0.41 M0.15 -0.08 C26 0.86, 50.17 0.8, 82.13 -0.24 M81.18 -1.36 C82.88 9.3, 81.42 17.75, 81.59 44.85 M83.39 -0.23 C82.84 12.29, 81.89 23.33, 83.08 44.21 M82.18 43.94 C60.67 45.62, 36.77 45.7, -0.66 44 M82.97 43.17 C59.81 43.54, 33.94 44.4, 0.77 42.76 M-1.82 41.29 C-1.89 31.43, -0.86 21.09, 0.13 1.33 M-0.33 44.08 C0.43 31.7, 0.79 18.33, 0.52 -0.01" stroke="transparent" stroke-width="1" fill="none"></path></g><g stroke-linecap="round" transform="translate(17.66970180715225 164.22193846810546) rotate(0 34.5 15.5)"><path d="M0 0 L69 0 L69 31 L0 31" stroke="none" stroke-width="0" fill="#ffffff"></path><path d="M0 0 C20.75 0, 41.51 0, 69 0 M0 0 C15.12 0, 30.23 0, 69 0 M69 0 C69 9.32, 69 18.65, 69 31 M69 0 C69 9.9, 69 19.8, 69 31 M69 31 C41.45 31, 13.9 31, 0 31 M69 31 C46.05 31, 23.1 31, 0 31 M0 31 C0 19.41, 0 7.83, 0 0 M0 31 C0 24.18, 0 17.35, 0 0" stroke="transparent" stroke-width="1" fill="none"></path></g><g transform="translate(24.99261783803604 169.72193846810546) rotate(0 27.17708396911621 10)"><text x="27.17708396911621" y="0" font-family="Virgil, Segoe UI Emoji" font-size="16px" fill="#000000" text-anchor="middle" style="white-space: pre;" direction="ltr" dominant-baseline="text-before-edge">.footer</text></g><g stroke-linecap="round" transform="translate(189.29875922202064 11.451811815562905) rotate(0 41.412582153488074 21.6075173836374)"><path d="M-1.97 1.29 L84.26 1.3 L84.54 42 L0.09 45.01" stroke="none" stroke-width="0" fill="#b2f2bb"></path><path d="M0.28 0.41 C25.36 0.49, 48.77 0.78, 82.66 0.97 M-0.7 -0.24 C25.45 -0.33, 52.83 -0.92, 82.14 0.07 M81.59 1.63 C82.16 12.11, 82.93 29.28, 82.36 44.09 M83.08 1 C82.29 12.67, 83.6 26.82, 83.19 43.27 M82.17 44 C51.22 42.93, 20.69 44.2, -0.09 45.1 M83.59 42.76 C57.09 44.36, 32.9 43.06, -0.96 42.35 M0.13 44.54 C-0.18 32.13, -1.45 19.12, 1.74 1.14 M0.52 43.21 C-0.67 26.7, -1.02 11.34, -0.51 0.04" stroke="transparent" stroke-width="1" fill="none"></path></g><g stroke-linecap="round" transform="translate(196.9684610291729 16.736592790786744) rotate(0 34.5 15.5)"><path d="M0 0 L69 0 L69 31 L0 31" stroke="none" stroke-width="0" fill="#ffffff"></path><path d="M0 0 C16.71 0, 33.42 0, 69 0 M0 0 C21.56 0, 43.12 0, 69 0 M69 0 C69 9.55, 69 19.11, 69 31 M69 0 C69 6.32, 69 12.63, 69 31 M69 31 C42.57 31, 16.14 31, 0 31 M69 31 C41.98 31, 14.96 31, 0 31 M0 31 C0 21.25, 0 11.5, 0 0 M0 31 C0 22.86, 0 14.71, 0 0" stroke="transparent" stroke-width="1" fill="none"></path></g><g transform="translate(203.5622110291729 22.236592790786744) rotate(0 27.90625 10)"><text x="27.90625" y="0" font-family="Virgil, Segoe UI Emoji" font-size="16px" fill="#000000" text-anchor="middle" style="white-space: pre;" direction="ltr" dominant-baseline="text-before-edge">.button</text></g><g stroke-linecap="round" transform="translate(306.9428914404551 10) rotate(0 40.2763481339783 21.6075173836374)"><path d="M0.09 1.8 L82.49 1.11 L78.97 44.95 L-1.98 43.52" stroke="none" stroke-width="0" fill="#a5d8ff"></path><path d="M-0.16 0.97 C24.59 -1.85, 48.67 -1.51, 80.08 -1.93 M-0.68 0.07 C22.59 0.01, 44.75 0.05, 81.37 -0.19 M80.08 0.87 C80.92 7.71, 78.71 17.95, 82.55 42.59 M80.92 0.06 C81.77 8.31, 81.81 17.8, 80.94 43.11 M80.47 45.1 C60.43 41.38, 41.9 44.87, -0.92 42.4 M79.59 42.35 C52.95 42.13, 26.07 42.54, 0.66 43.05 M1.74 44.35 C1.82 30.73, -0.4 15.56, -0.02 -0.54 M-0.51 43.25 C-0.72 32.49, 0.98 21.12, 0.86 -0.61" stroke="transparent" stroke-width="1" fill="none"></path></g><g stroke-linecap="round" transform="translate(316.03864361043077 16.423856519459832) rotate(0 31.5 15.5)"><path d="M0 0 L63 0 L63 31 L0 31" stroke="none" stroke-width="0" fill="#ffffff"></path><path d="M0 0 C19.86 0, 39.71 0, 63 0 M0 0 C13.73 0, 27.45 0, 63 0 M63 0 C63 11.05, 63 22.11, 63 31 M63 0 C63 8.31, 63 16.62, 63 31 M63 31 C43.17 31, 23.33 31, 0 31 M63 31 C49.85 31, 36.69 31, 0 31 M0 31 C0 22.72, 0 14.43, 0 0 M0 31 C0 20.38, 0 9.76, 0 0" stroke="transparent" stroke-width="1" fill="none"></path></g><g transform="translate(321.81989361043077 21.923856519459832) rotate(0 25.71875 10)"><text x="25.71875" y="0" font-family="Virgil, Segoe UI Emoji" font-size="16px" fill="#000000" text-anchor="middle" style="white-space: pre;" direction="ltr" dominant-baseline="text-before-edge">button</text></g><g stroke-linecap="round" transform="translate(389.16690792533325 83.33153170033154) rotate(0 41.412582153488074 21.6075173836374)"><path d="M-1.98 0.31 L82.93 0.56 L81.34 41.93 L-0.93 42.2" stroke="none" stroke-width="0" fill="#b2f2bb"></path><path d="M-0.47 -1.93 C17.25 0.59, 33.77 -0.78, 82.97 0.51 M0.82 -0.19 C18.44 0.7, 39.42 0.28, 83.26 0.14 M84.82 -0.62 C80.61 12.75, 81.77 22.26, 82.94 44.8 M83.22 -0.11 C82.7 10.03, 83.33 19.37, 83.77 43.27 M81.91 42.4 C66.84 45.33, 47.46 41.93, -1.72 42.64 M83.49 43.05 C61.16 42.47, 38.53 44.13, 0.57 43.95 M-0.02 42.67 C-0.58 25.01, 1.01 8.24, 0.08 -1.97 M0.86 42.61 C-0.27 28.36, 0.66 12.26, -0.79 0.87" stroke="transparent" stroke-width="1" fill="none"></path></g><g stroke-linecap="round" transform="translate(396.8366097324855 88.61631267555538) rotate(0 34.5 15.5)"><path d="M0 0 L69 0 L69 31 L0 31" stroke="none" stroke-width="0" fill="#ffffff"></path><path d="M0 0 C15.9 0, 31.8 0, 69 0 M0 0 C16.45 0, 32.9 0, 69 0 M69 0 C69 10.08, 69 20.17, 69 31 M69 0 C69 8.28, 69 16.56, 69 31 M69 31 C43 31, 16.99 31, 0 31 M69 31 C47.87 31, 26.73 31, 0 31 M0 31 C0 20.1, 0 9.21, 0 0 M0 31 C0 19.69, 0 8.38, 0 0" stroke="transparent" stroke-width="1" fill="none"></path></g><g transform="translate(403.4303597324855 94.11631267555538) rotate(0 27.90625 10)"><text x="27.90625" y="0" font-family="Virgil, Segoe UI Emoji" font-size="16px" fill="#000000" text-anchor="middle" style="white-space: pre;" direction="ltr" dominant-baseline="text-before-edge">.button</text></g><g stroke-linecap="round" transform="translate(311.9768576370874 83.33153170033165) rotate(0 34.277489260006945 21.6075173836374)"><path d="M-0.93 -1.02 L67.76 -1.06 L70 44.23 L1.06 45.1" stroke="none" stroke-width="0" fill="#b2f2bb"></path><path d="M0.15 0.51 C19.31 0.63, 40.01 2.1, 68.18 -1.96 M0.44 0.14 C21.39 -0.8, 44.05 1.16, 68.24 -0.9 M68.67 1.58 C66.91 18.91, 67.76 35.29, 68.34 42.24 M69.5 0.06 C67.64 15.29, 69.39 28.29, 68.15 43.61 M66.83 42.64 C42.24 42.85, 17.44 43.88, -0.33 43.85 M69.12 43.95 C54.39 43.44, 38.88 43.8, -0.27 42.85 M0.08 41.25 C1.11 34.34, 1.11 24.32, -1.21 0.09 M-0.79 44.08 C-1.41 26.53, -0.36 9.81, -0.74 -0.64" stroke="transparent" stroke-width="1" fill="none"></path></g><g stroke-linecap="round" transform="translate(319.64655944423964 88.61631267555549) rotate(0 25 15.5)"><path d="M0 0 L50 0 L50 31 L0 31" stroke="none" stroke-width="0" fill="#ffffff"></path><path d="M0 0 C11.6 0, 23.19 0, 50 0 M0 0 C13.83 0, 27.65 0, 50 0 M50 0 C50 10.43, 50 20.85, 50 31 M50 0 C50 9.16, 50 18.33, 50 31 M50 31 C39.82 31, 29.63 31, 0 31 M50 31 C30.66 31, 11.32 31, 0 31 M0 31 C0 23.29, 0 15.59, 0 0 M0 31 C0 19.98, 0 8.96, 0 0" stroke="transparent" stroke-width="1" fill="none"></path></g><g transform="translate(325.69864341335585 94.11631267555549) rotate(0 18.94791603088379 10)"><text x="18.94791603088379" y="0" font-family="Virgil, Segoe UI Emoji" font-size="16px" fill="#000000" text-anchor="middle" style="white-space: pre;" direction="ltr" dominant-baseline="text-before-edge">.form</text></g><g stroke-linecap="round" transform="translate(158.04784126041977 295.92836244694405) rotate(0 56.887221664760176 21.6075173836374)"><path d="M1.06 1.89 L113.34 -0.06 L114.08 43.93 L-1.99 43.54" stroke="none" stroke-width="0" fill="#ffc9c9"></path><path d="M-0.38 -1.96 C35.45 0.2, 69.65 -0.05, 114.05 -1.02 M-0.31 -0.9 C24.17 -1.45, 46.72 -1.08, 114.56 -0.75 M113.56 -0.97 C114.28 16.85, 113.54 34.99, 113.89 41.26 M113.37 0.39 C114.84 16.01, 113.14 32.99, 113.49 42.87 M113.45 43.85 C76.39 43.31, 43.94 45.11, 1.47 45.07 M113.5 42.85 C83.27 43.63, 53.48 43.24, -0.98 43.86 M-1.21 43.3 C1.52 29.09, 0.83 9.52, 1.74 -1.98 M-0.74 42.57 C-0.49 29.07, -0.42 15.42, 0.72 0.51" stroke="transparent" stroke-width="1" fill="none"></path></g><g stroke-linecap="round" transform="translate(165.7175430675734 301.2131434221679) rotate(0 50 16)"><path d="M0 0 L100 0 L100 32 L0 32" stroke="none" stroke-width="0" fill="#ffffff"></path><path d="M0 0 C38.16 0, 76.33 0, 100 0 M0 0 C39.97 0, 79.93 0, 100 0 M100 0 C100 10.85, 100 21.7, 100 32 M100 0 C100 8.13, 100 16.26, 100 32 M100 32 C63.37 32, 26.73 32, 0 32 M100 32 C70.09 32, 40.18 32, 0 32 M0 32 C0 19.65, 0 7.31, 0 0 M0 32 C0 21.51, 0 11.02, 0 0" stroke="transparent" stroke-width="1" fill="none"></path></g><g transform="translate(176.76962512934097 307.2131434221679) rotate(0 38.94791793823242 10)"><text x="38.94791793823242" y="0" font-family="Virgil, Segoe UI Emoji" font-size="16px" fill="#000000" text-anchor="middle" style="white-space: pre;" direction="ltr" dominant-baseline="text-before-edge">!important</text></g><g stroke-linecap="round" transform="translate(307.43336935429704 295.71895914785756) rotate(0 41.412582153488074 21.6075173836374)"><path d="M-1.99 0.33 L81.19 -1.1 L82.39 43.23 L-0.13 43.37" stroke="none" stroke-width="0" fill="#b2f2bb"></path><path d="M0.28 -1.02 C27.61 0.14, 61.06 -0.98, 81.02 1.99 M0.79 -0.75 C23.03 -0.38, 44.78 -0.16, 82.34 0.33 M82.94 -1.95 C84.64 15.14, 81.89 26.4, 83.61 44.69 M82.54 -0.35 C82.55 9.09, 83.07 17.88, 83.14 42.42 M84.3 45.07 C59.95 44.72, 38.54 43.15, -0.74 41.98 M81.84 43.86 C55.16 43.9, 26.93 42.64, 0.04 44.11 M1.74 41.23 C0.07 26.18, 0.32 7.45, -1.28 -0.93 M0.72 43.72 C0.7 33.39, -0.04 21.65, 0.15 0.36" stroke="transparent" stroke-width="1" fill="none"></path></g><g stroke-linecap="round" transform="translate(315.10307116144884 301.0037401230814) rotate(0 34.5 15)"><path d="M0 0 L69 0 L69 30 L0 30" stroke="none" stroke-width="0" fill="#ffffff"></path><path d="M0 0 C23.72 0, 47.43 0, 69 0 M0 0 C21.1 0, 42.21 0, 69 0 M69 0 C69 11.83, 69 23.67, 69 30 M69 0 C69 6.42, 69 12.84, 69 30 M69 30 C44.37 30, 19.74 30, 0 30 M69 30 C48.03 30, 27.06 30, 0 30 M0 30 C0 23.38, 0 16.76, 0 0 M0 30 C0 22.58, 0 15.17, 0 0" stroke="transparent" stroke-width="1" fill="none"></path></g><g transform="translate(320.2697371923326 306.0037401230814) rotate(0 29.33333396911621 10)"><text x="29.33333396911621" y="0" font-family="Virgil, Segoe UI Emoji" font-size="16px" fill="#000000" text-anchor="middle" style="white-space: pre;" direction="ltr" dominant-baseline="text-before-edge">.xdesign</text></g><g stroke-linecap="round" transform="translate(467.02599797759683 296.9040404104708) rotate(0 66.38302318303988 21.6075173836374)"><path d="M-0.13 0.16 L131.98 0.14 L131.47 41.74 L-1.79 42.32" stroke="none" stroke-width="0" fill="#b2f2bb"></path><path d="M-1.8 1.99 C42.55 1.14, 86.5 1.99, 131.26 1.66 M-0.49 0.33 C35.6 0.1, 71.85 0.2, 131.79 0.92 M133.55 1.47 C130.74 14.36, 130.85 32, 132.07 43.51 M133.09 -0.8 C132.73 14.1, 133.62 27.21, 133.69 42.84 M132.03 41.98 C86.95 41.83, 39.51 40.89, 1.29 44.64 M132.81 44.11 C85.3 42.97, 35.11 43.28, -0.99 43.37 M-1.28 42.29 C-1.14 29.22, -1.18 18.27, 1.02 1.06 M0.15 43.57 C-0.9 26.34, -0.73 8.58, -0.22 0.01" stroke="transparent" stroke-width="1" fill="none"></path></g><g stroke-linecap="round" transform="translate(474.69569978475045 302.18882138569467) rotate(0 60 16)"><path d="M0 0 L120 0 L120 32 L0 32" stroke="none" stroke-width="0" fill="#ffffff"></path><path d="M0 0 C32.27 0, 64.54 0, 120 0 M0 0 C34.71 0, 69.42 0, 120 0 M120 0 C120 8.3, 120 16.6, 120 32 M120 0 C120 9.07, 120 18.15, 120 32 M120 32 C87.24 32, 54.48 32, 0 32 M120 32 C91.27 32, 62.54 32, 0 32 M0 32 C0 24.78, 0 17.55, 0 0 M0 32 C0 22.49, 0 12.99, 0 0" stroke="transparent" stroke-width="1" fill="none"></path></g><g transform="translate(480.685281846518 308.18882138569467) rotate(0 54.01041793823242 10)"><text x="54.01041793823242" y="0" font-family="Virgil, Segoe UI Emoji" font-size="16px" fill="#000000" text-anchor="middle" style="white-space: pre;" direction="ltr" dominant-baseline="text-before-edge">[type="radio"]</text></g><g stroke-linecap="round" transform="translate(398.19055006209726 296.90222339982466) rotate(0 31.315103782828913 21.6075173836374)"><path d="M-1.79 -0.9 L62.56 0.3 L64.6 41.82 L1.86 41.27" stroke="none" stroke-width="0" fill="#a5d8ff"></path><path d="M-1.51 1.66 C20.41 0.29, 41.92 -1.47, 63.28 0.3 M-0.98 0.92 C19.28 -0.5, 36.62 0.35, 63.37 -0.91 M61.94 0.29 C62.38 10.13, 61.93 18.24, 61.03 42.56 M63.56 -0.37 C63.39 16.7, 62.61 33.06, 62.01 43.64 M63.92 44.64 C48.35 44.32, 30.28 42.69, 1.8 45.15 M61.64 43.37 C40.42 44.04, 17.35 43.12, -0.46 42.71 M1.02 44.28 C2.11 31.55, 0.17 21.05, 0.72 -1.99 M-0.22 43.22 C0.29 29.63, -0.04 15.95, -0.65 -0.74" stroke="transparent" stroke-width="1" fill="none"></path></g><g stroke-linecap="round" transform="translate(407.2863022320729 303.3260799192845) rotate(0 24 15.5)"><path d="M0 0 L48 0 L48 31 L0 31" stroke="none" stroke-width="0" fill="#ffffff"></path><path d="M0 0 C18.19 0, 36.39 0, 48 0 M0 0 C14.68 0, 29.36 0, 48 0 M48 0 C48 8.41, 48 16.81, 48 31 M48 0 C48 11.58, 48 23.17, 48 31 M48 31 C38.32 31, 28.64 31, 0 31 M48 31 C29.44 31, 10.87 31, 0 31 M0 31 C0 19.46, 0 7.92, 0 0 M0 31 C0 23.41, 0 15.82, 0 0" stroke="transparent" stroke-width="1" fill="none"></path></g><g transform="translate(412.8592182629567 308.8260799192845) rotate(0 18.42708396911621 10)"><text x="18.42708396911621" y="0" font-family="Virgil, Segoe UI Emoji" font-size="16px" fill="#000000" text-anchor="middle" style="white-space: pre;" direction="ltr" dominant-baseline="text-before-edge">input</text></g><g stroke-linecap="round" transform="translate(604.200059707698 297.8240087124548) rotate(0 46.40888950114049 21.6075173836374)"><path d="M1.86 -1.95 L90.99 1.61 L90.83 43.87 L-1.32 41.59" stroke="none" stroke-width="0" fill="#b2f2bb"></path><path d="M0.65 0.3 C31.39 2.34, 63.07 -1.5, 94.65 1.54 M0.74 -0.91 C22.62 -1.22, 46.88 -0.71, 92.96 0.06 M91.22 -0.66 C94.48 16.97, 94.22 33.52, 92.07 44.25 M92.2 0.43 C92.19 12.96, 91.72 26.5, 93.53 43.86 M94.61 45.15 C58.12 41.67, 22.93 41.27, 0.31 43.32 M92.36 42.71 C61.99 42.09, 32.68 43.13, 0.53 44.16 M0.72 41.23 C0.34 29.54, -1.09 18.71, 0.01 -0.13 M-0.65 42.48 C-0.73 29.46, 0.13 16.75, 0.98 -0.7" stroke="transparent" stroke-width="1" fill="none"></path></g><g stroke-linecap="round" transform="translate(611.8697615148516 303.10878968767867) rotate(0 38.5 16)"><path d="M0 0 L77 0 L77 32 L0 32" stroke="none" stroke-width="0" fill="#ffffff"></path><path d="M0 0 C19.35 0, 38.7 0, 77 0 M0 0 C26.11 0, 52.22 0, 77 0 M77 0 C77 10.62, 77 21.24, 77 32 M77 0 C77 8.42, 77 16.84, 77 32 M77 32 C53.57 32, 30.14 32, 0 32 M77 32 C58.84 32, 40.68 32, 0 32 M0 32 C0 21.91, 0 11.81, 0 0 M0 32 C0 22.18, 0 12.36, 0 0" stroke="transparent" stroke-width="1" fill="none"></path></g><g transform="translate(617.2343435766192 309.10878968767867) rotate(0 33.13541793823242 10)"><text x="33.13541793823242" y="0" font-family="Virgil, Segoe UI Emoji" font-size="16px" fill="#000000" text-anchor="middle" style="white-space: pre;" direction="ltr" dominant-baseline="text-before-edge">.disabled</text></g><g stroke-linecap="round" transform="translate(191.5707086362146 226.87962420582858) rotate(0 41.412582153488074 21.60751738363743)"><path d="M-1.32 -1.62 L81.96 -0.75 L84.43 43.65 L-0.84 44.48" stroke="none" stroke-width="0" fill="#b2f2bb"></path><path d="M1.83 1.54 C31.75 0, 66.12 2.28, 81 -1.93 M0.15 0.06 C18.38 0.12, 35.76 -0.51, 82.5 0.87 M82.08 1.03 C83.13 14.89, 82.41 29.62, 83.68 42.19 M83.54 0.65 C83.26 12.53, 82.44 27.17, 83.79 43.77 M83.14 43.32 C65.1 40.91, 44.98 41.47, -1.02 42.42 M83.36 44.16 C62.14 43.61, 42.03 43.99, -0.99 43.38 M0.01 43.09 C0.4 33, 0.38 23.06, -1.47 -1.79 M0.98 42.52 C0.95 31.21, -0.9 21.97, -0.99 0.33" stroke="transparent" stroke-width="1" fill="none"></path></g><g stroke-linecap="round" transform="translate(199.24041044336684 232.16440518105242) rotate(0 34.5 15.500000000000028)"><path d="M0 0 L69 0 L69 31 L0 31" stroke="none" stroke-width="0" fill="#ffffff"></path><path d="M0 0 C13.97 0, 27.94 0, 69 0 M0 0 C18.32 0, 36.63 0, 69 0 M69 0 C69 12.18, 69 24.35, 69 31 M69 0 C69 11.3, 69 22.6, 69 31 M69 31 C55.15 31, 41.29 31, 0 31 M69 31 C44.79 31, 20.59 31, 0 31 M0 31 C0 22.38, 0 13.76, 0 0 M0 31 C0 21.24, 0 11.49, 0 0" stroke="transparent" stroke-width="1" fill="none"></path></g><g transform="translate(220.10499345880874 237.66440518105242) rotate(0 13.635416984558105 10)"><text x="13.635416984558105" y="0" font-family="Virgil, Segoe UI Emoji" font-size="16px" fill="#000000" text-anchor="middle" style="white-space: pre;" direction="ltr" dominant-baseline="text-before-edge">.link</text></g><g stroke-linecap="round" transform="translate(308.4719125610085 226.87962420582846) rotate(0 41.412582153488074 21.60751738363743)"><path d="M-0.84 1.26 L84.08 -1.39 L84.12 43.61 L-1.82 44.2" stroke="none" stroke-width="0" fill="#b2f2bb"></path><path d="M-1.82 -1.93 C19.76 -1.19, 42.28 -0.32, 82.95 1.33 M-0.33 0.87 C24.06 1.4, 47.9 0.29, 83.34 -0.01 M83.68 -1.03 C82.74 9.83, 83.96 25.02, 84.12 44.93 M83.79 0.56 C82.05 11.21, 81.85 20.85, 82.88 43.49 M81.81 42.42 C63.07 44.28, 46.45 43.9, 1.89 42.78 M81.83 43.38 C57.4 42.96, 33.39 43.52, -0.06 43.29 M-1.47 41.42 C-0.93 31.87, 0.27 22.64, -1.4 1.86 M-0.99 43.54 C-0.26 33.65, -0.04 25.34, 0.8 0.22" stroke="transparent" stroke-width="1" fill="none"></path></g><g stroke-linecap="round" transform="translate(316.1416143681603 232.1644051810523) rotate(0 34.5 15.499999999999972)"><path d="M0 0 L69 0 L69 31 L0 31" stroke="none" stroke-width="0" fill="#ffffff"></path><path d="M0 0 C25.79 0, 51.57 0, 69 0 M0 0 C15.19 0, 30.38 0, 69 0 M69 0 C69 7.39, 69 14.79, 69 31 M69 0 C69 12.08, 69 24.16, 69 31 M69 31 C51.49 31, 33.99 31, 0 31 M69 31 C45.82 31, 22.65 31, 0 31 M0 31 C0 23.71, 0 16.42, 0 0 M0 31 C0 19.2, 0 7.41, 0 0" stroke="transparent" stroke-width="1" fill="none"></path></g><g transform="translate(322.46453039904407 237.6644051810523) rotate(0 28.17708396911621 10)"><text x="28.17708396911621" y="0" font-family="Virgil, Segoe UI Emoji" font-size="16px" fill="#000000" text-anchor="middle" style="white-space: pre;" direction="ltr" dominant-baseline="text-before-edge">.navbar</text></g><g transform="translate(402.79402340421154 235.68000069368725) rotate(0 4.854166507720947 12.5)"><text x="0" y="0" font-family="Virgil, Segoe UI Emoji" font-size="20px" fill="#1e1e1e" text-anchor="start" style="white-space: pre;" direction="ltr" dominant-baseline="text-before-edge">&gt;</text></g><g stroke-linecap="round" transform="translate(397.6272477585111 230.12790876498184) rotate(0 10.665991998423351 17.56820057172078)"><path d="M-0.33 0.64 C5.11 -0.8, 15.15 1, 22.81 1.86 M-0.27 -0.37 C4.99 0.43, 10.7 0.04, 20.35 0.65 M20.12 0.09 C23.35 14.99, 22.67 24.52, 23.07 33.15 M20.59 -0.64 C20.89 10.58, 20.95 21.64, 22.05 35.64 M21.27 35.45 C14.52 33.1, 6.59 33.45, -1.1 34.7 M20.94 35.21 C14.27 34.42, 7.6 34.71, -0.03 35.28 M-1.95 33.3 C1.86 19.15, 0.9 5.82, -1.62 -0.87 M-0.42 35.77 C0.35 25.22, 0.36 16.9, -0.91 0.49" stroke="#1e1e1e" stroke-width="1" fill="none"></path></g><g stroke-linecap="round" transform="translate(424.9344180889192 228.63092248395265) rotate(0 23.94346520889553 21.60751738363743)"><path d="M1.12 -1.05 L46.52 0.27 L48.93 44.38 L0.29 45.05" stroke="none" stroke-width="0" fill="#d0bfff"></path><path d="M-1.6 -0.66 C19.28 0.99, 36.56 1.7, 47.14 1.03 M-0.62 0.43 C13.81 0.22, 27.66 0.82, 48.6 0.65 M49.68 1.93 C48.74 15.09, 49.36 31.36, 48.2 43.32 M47.42 -0.51 C47.17 13.64, 48.29 28.84, 48.42 44.16 M48.6 41.23 C34.88 41.65, 20.11 42.85, 0.01 43.09 M47.24 42.48 C32.24 42.8, 18.36 43.4, 0.98 42.52 M1.61 41.23 C1.07 24.91, -1.2 8.37, -0.75 1.6 M0.63 42.52 C0.83 29.5, -0.73 15.89, -0.05 -0.68" stroke="transparent" stroke-width="1" fill="none"></path></g><g stroke-linecap="round" transform="translate(434.0301702588953 235.05477900341248) rotate(0 15.5 15.500000000000028)"><path d="M0 0 L31 0 L31 31 L0 31" stroke="none" stroke-width="0" fill="#ffffff"></path><path d="M0 0 C10.29 0, 20.58 0, 31 0 M0 0 C8.16 0, 16.32 0, 31 0 M31 0 C31 9.43, 31 18.87, 31 31 M31 0 C31 7.31, 31 14.62, 31 31 M31 31 C21.22 31, 11.44 31, 0 31 M31 31 C21.49 31, 11.97 31, 0 31 M0 31 C0 24.54, 0 18.08, 0 0 M0 31 C0 19.75, 0 8.49, 0 0" stroke="transparent" stroke-width="1" fill="none"></path></g><g transform="translate(445.41558676661623 240.55477900341248) rotate(0 4.114583492279053 10)"><text x="4.114583492279053" y="0" font-family="Virgil, Segoe UI Emoji" font-size="16px" fill="#000000" text-anchor="middle" style="white-space: pre;" direction="ltr" dominant-baseline="text-before-edge">*</text></g><g transform="translate(601.3142977645974 105.79770781473417) rotate(0 36.92708206176758 10)"><text x="36.92708206176758" y="0" font-family="Virgil, Segoe UI Emoji" font-size="16px" fill="#1e1e1e" text-anchor="middle" style="white-space: pre;" direction="ltr" dominant-baseline="text-before-edge">No weight</text></g><g stroke-linecap="round"><g transform="translate(488.05863311865494 144.36652151045655) rotate(0 -41.389914312903926 5.703348392217606)"><path d="M0.62 -0.01 C-10.15 0.47, -49.46 0.52, -63.47 2.43 C-77.47 4.33, -80.1 10, -83.4 11.42" stroke="#1e1e1e" stroke-width="1.5" fill="none" stroke-dasharray="8 9"></path></g><g transform="translate(488.05863311865494 144.36652151045655) rotate(0 -41.389914312903926 5.703348392217606)"><path d="M-77.41 2.45 C-80.17 5.53, -81.69 9.05, -83.36 10.38" stroke="#1e1e1e" stroke-width="1.5" fill="none"></path></g><g transform="translate(488.05863311865494 144.36652151045655) rotate(0 -41.389914312903926 5.703348392217606)"><path d="M-73.23 8.34 C-77.62 9.13, -80.78 10.33, -83.36 10.38" stroke="#1e1e1e" stroke-width="1.5" fill="none"></path></g></g><mask></mask><g stroke-linecap="round"><g transform="translate(491.50278800098874 146.0885989516231) rotate(0 67.53230117718863 -8.242832344361318)"><path d="M-0.32 -0.44 C13.04 -1.6, 58.15 -4.35, 80.77 -6.95 C103.39 -9.55, 126.38 -14.65, 135.39 -16.04" stroke="#1e1e1e" stroke-width="1.5" fill="none" stroke-dasharray="8 9"></path></g></g><mask></mask><g stroke-linecap="round"><g transform="translate(583.3469181965442 136.33016011834525) rotate(0 -39.418875939674024 10.114572344079193)"><path d="M-0.74 0.51 C-9.49 2.03, -39.96 5.46, -52.85 8.66 C-65.75 11.86, -74.23 17.87, -78.1 19.72" stroke="#1e1e1e" stroke-width="1.5" fill="none" stroke-dasharray="8 9"></path></g><g transform="translate(583.3469181965442 136.33016011834525) rotate(0 -39.418875939674024 10.114572344079193)"><path d="M-68.72 8.96 C-71.68 11.03, -73.27 16.05, -77.23 20.87" stroke="#1e1e1e" stroke-width="1.5" fill="none"></path></g><g transform="translate(583.3469181965442 136.33016011834525) rotate(0 -39.418875939674024 10.114572344079193)"><path d="M-64.31 16.98 C-68.44 16.83, -71.24 19.66, -77.23 20.87" stroke="#1e1e1e" stroke-width="1.5" fill="none"></path></g></g><mask></mask><g stroke-linecap="round"><g transform="translate(516.5936914812665 232.19270618418045) rotate(0 -21.322124866231462 8.245228927493883)"><path d="M-0.62 0.05 C-4.49 0.18, -17.07 -1.48, -23.97 1.31 C-30.88 4.11, -39.05 14.48, -42.03 16.81" stroke="#1e1e1e" stroke-width="1.5" fill="none" stroke-dasharray="8 9"></path></g><g transform="translate(516.5936914812665 232.19270618418045) rotate(0 -21.322124866231462 8.245228927493883)"><path d="M-36.53 4.11 C-37.01 8.97, -38.31 11.88, -42.8 16.87" stroke="#1e1e1e" stroke-width="1.5" fill="none"></path></g><g transform="translate(516.5936914812665 232.19270618418045) rotate(0 -21.322124866231462 8.245228927493883)"><path d="M-30.44 10.29 C-32.4 13.65, -35.15 15.09, -42.8 16.87" stroke="#1e1e1e" stroke-width="1.5" fill="none"></path></g></g><mask></mask><g transform="translate(522.5368487141985 221.37949008851206) rotate(0 36.92708206176758 10)"><text x="0" y="0" font-family="Virgil, Segoe UI Emoji" font-size="16px" fill="#1e1e1e" text-anchor="start" style="white-space: pre;" direction="ltr" dominant-baseline="text-before-edge">No weight</text></g></svg>