<svg version="1.1" xmlns="http://www.w3.org/2000/svg" viewBox="0 0 901 810.4321948173009" width="2703" height="2431.2965844519026">
  <!-- svg-source:excalidraw -->
  
  <defs>
    <style class="style-fonts">
      @font-face {
        font-family: "Virgil";
        src: url("https://excalidraw.com/Virgil.woff2");
      }
      @font-face {
        font-family: "Cascadia";
        src: url("https://excalidraw.com/Cascadia.woff2");
      }
    </style>
    
  </defs>
  <rect x="0" y="0" width="901" height="810.4321948173009" fill="#ffffff"></rect><g stroke-linecap="round" transform="translate(29 97.60393700567079) rotate(0 49.5 45.5)"><path d="M0 0 C0 0, 0 0, 0 0 M0 0 C0 0, 0 0, 0 0 M-0.26 6.4 C0.07 5.06, 2.45 3.28, 4.99 0.36 M-0.26 6.4 C1.76 4.1, 3.72 2.09, 4.99 0.36 M0.13 12.04 C4.3 7.47, 9.37 1.67, 10.63 -0.03 M0.13 12.04 C3.16 8.65, 5.32 5.89, 10.63 -0.03 M-0.13 18.44 C2.22 12.71, 7.02 11.91, 15.62 0.33 M-0.13 18.44 C4.62 13.65, 10.16 7.24, 15.62 0.33 M0.27 24.08 C6.28 18.17, 12.98 10.86, 21.26 -0.07 M0.27 24.08 C6.77 17.11, 11.87 10.09, 21.26 -0.07 M0 30.48 C9.61 21.95, 15.37 14.39, 26.25 0.29 M0 30.48 C5.16 23.89, 10.01 19.01, 26.25 0.29 M-0.26 36.88 C5.86 30.59, 12.64 20.83, 31.89 -0.1 M-0.26 36.88 C10.54 24.69, 22.45 10.33, 31.89 -0.1 M0.14 42.52 C11.04 32.7, 17.73 21.24, 36.88 0.26 M0.14 42.52 C12.36 28.67, 23.35 16.22, 36.88 0.26 M-0.12 48.92 C11.27 38.27, 21.9 25.16, 42.52 -0.14 M-0.12 48.92 C16.25 29.53, 31.68 11.36, 42.52 -0.14 M0.27 54.56 C9.84 42.07, 19.12 29.16, 47.51 0.22 M0.27 54.56 C15.77 36.04, 32.15 18.7, 47.51 0.22 M0.01 60.96 C15.39 45.33, 28.74 27.16, 53.15 -0.17 M0.01 60.96 C10.98 46.99, 22.76 34.71, 53.15 -0.17 M-0.25 67.36 C16.07 49.46, 28.77 32.1, 58.14 0.19 M-0.25 67.36 C17.95 45.92, 36.55 23.63, 58.14 0.19 M0.14 73 C14.89 55.46, 25.35 41.88, 63.78 -0.21 M0.14 73 C22 48.26, 42.92 25.05, 63.78 -0.21 M-0.12 79.4 C26.95 47.75, 51.64 20.78, 68.77 0.15 M-0.12 79.4 C22.51 53.11, 45.07 27.51, 68.77 0.15 M0.28 85.04 C28.16 50.76, 60.45 15.88, 74.41 -0.24 M0.28 85.04 C26.54 52.68, 54.5 22.23, 74.41 -0.24 M0.01 91.44 C30.12 53.38, 61.43 17.27, 79.4 0.12 M0.01 91.44 C18.51 72.73, 35.77 53.21, 79.4 0.12 M5.66 91.04 C33.59 59.31, 59.88 24.86, 85.04 -0.28 M5.66 91.04 C34.58 57.2, 64.63 23.2, 85.04 -0.28 M10.64 91.4 C38.9 57.39, 65.58 24.94, 90.03 0.08 M10.64 91.4 C27.11 72.79, 42.64 54.71, 90.03 0.08 M16.29 91.01 C33.29 69.18, 51.84 51.44, 95.67 -0.31 M16.29 91.01 C44.19 60.19, 73.07 27.5, 95.67 -0.31 M21.27 91.37 C44.59 60.63, 68.61 32.16, 100 0.8 M21.27 91.37 C46.73 64.73, 69.19 36.69, 100 0.8 M26.92 90.97 C55.85 61.13, 82.37 28.69, 99.74 7.2 M26.92 90.97 C51.13 62.58, 74.59 33.95, 99.74 7.2 M31.9 91.34 C52.8 64.32, 79.46 38.55, 100.13 12.85 M31.9 91.34 C53.5 66.26, 75.44 40.75, 100.13 12.85 M37.55 90.94 C60.03 62.22, 86.35 38.5, 99.87 19.24 M37.55 90.94 C56.61 68.23, 76.02 47.6, 99.87 19.24 M42.53 91.3 C59.13 71.96, 77.28 50.86, 100.27 24.89 M42.53 91.3 C57.91 74.72, 72.32 56.18, 100.27 24.89 M48.18 90.91 C61.64 76.57, 73.42 64.45, 100.01 31.28 M48.18 90.91 C60.72 76.04, 74.76 58.93, 100.01 31.28 M53.16 91.27 C70.47 75.34, 83.94 55.04, 99.75 37.68 M53.16 91.27 C66.81 76.69, 80.14 61.44, 99.75 37.68 M58.81 90.87 C71.23 74.96, 84.75 61.47, 100.14 43.32 M58.81 90.87 C73.2 73.12, 88.78 54.63, 100.14 43.32 M63.8 91.23 C74.63 81.2, 84.1 67.61, 99.88 49.72 M63.8 91.23 C75.95 75.47, 91.32 60.75, 99.88 49.72 M69.44 90.84 C78.17 83.62, 87.3 71.15, 100.27 55.37 M69.44 90.84 C82.03 76.81, 92.33 62.59, 100.27 55.37 M74.43 91.2 C82.19 80.84, 90.04 75.48, 100.01 61.76 M74.43 91.2 C81.82 84.07, 88.42 75.28, 100.01 61.76 M79.41 91.56 C83.22 83.76, 92.18 76.95, 99.75 68.16 M79.41 91.56 C84.44 85.14, 90.77 79.49, 99.75 68.16 M85.06 91.16 C90.21 86.61, 92.96 79.31, 100.14 73.8 M85.06 91.16 C89.78 85.76, 94.3 80.16, 100.14 73.8 M90.04 91.52 C94.68 86.96, 98.77 81.82, 99.88 80.2 M90.04 91.52 C93.45 87.45, 97.12 84.19, 99.88 80.2 M95.69 91.13 C96.37 90.1, 98.25 88.37, 100.28 85.85 M95.69 91.13 C96.6 89.94, 97.9 88.48, 100.28 85.85" stroke="#40c057" stroke-width="0.5" fill="none"></path><path d="M0 0 C27.06 -1.71, 51.04 -1.64, 99 0 M0 0 C23.94 -1, 47.54 -0.36, 99 0 M99 0 C98.47 32.66, 99.69 67.8, 99 91 M99 0 C97.86 29.1, 98.82 56.21, 99 91 M99 91 C65.29 90.64, 35.57 88.93, 0 91 M99 91 C64.86 90.88, 28.97 92.3, 0 91 M0 91 C-1.74 56.37, 0.66 24.54, 0 0 M0 91 C0.14 63.56, 0.88 34.76, 0 0" stroke="#000000" stroke-width="1" fill="none"></path></g><g stroke-linecap="round" transform="translate(146.5 98.10393700567079) rotate(0 49.5 45.5)"><path d="M0 0 C0 0, 0 0, 0 0 M0 0 C0 0, 0 0, 0 0 M-0.26 6.4 C2.19 3.67, 4.23 1.36, 4.99 0.36 M-0.26 6.4 C1.56 4.55, 3.76 2.01, 4.99 0.36 M0.13 12.04 C4.09 7.64, 4.36 6.42, 10.63 -0.03 M0.13 12.04 C3.17 8.36, 6.1 3.61, 10.63 -0.03 M-0.13 18.44 C4.29 15.06, 8.6 9.24, 15.62 0.33 M-0.13 18.44 C3.43 14.78, 6.69 10.01, 15.62 0.33 M0.27 24.08 C5.96 18.63, 9.46 14.14, 21.26 -0.07 M0.27 24.08 C4.41 18.51, 8.65 13.31, 21.26 -0.07 M0 30.48 C7.81 22.48, 14.68 11.8, 26.25 0.29 M0 30.48 C5.38 24.47, 11.27 15.94, 26.25 0.29 M-0.26 36.88 C8.74 24.95, 20.43 16.28, 31.89 -0.1 M-0.26 36.88 C7.71 27.37, 14.59 17.96, 31.89 -0.1 M0.14 42.52 C13.55 25.33, 27.36 10.54, 36.88 0.26 M0.14 42.52 C12.3 28.83, 24.08 13.83, 36.88 0.26 M-0.12 48.92 C17.13 30.19, 33.65 10.73, 42.52 -0.14 M-0.12 48.92 C14.87 31.01, 30.06 13.66, 42.52 -0.14 M0.27 54.56 C10.53 39.34, 24.73 27.34, 47.51 0.22 M0.27 54.56 C14.11 39.7, 25.99 24.98, 47.51 0.22 M0.01 60.96 C10.43 47.23, 20.22 34.56, 53.15 -0.17 M0.01 60.96 C16.59 42.49, 32.8 23.15, 53.15 -0.17 M-0.25 67.36 C9.53 53.24, 23.73 41.42, 58.14 0.19 M-0.25 67.36 C21.43 41.66, 41.68 18.89, 58.14 0.19 M0.14 73 C19.41 49.54, 43.46 22.6, 63.78 -0.21 M0.14 73 C25.15 45.22, 50.01 15.74, 63.78 -0.21 M-0.12 79.4 C19.44 57.72, 40.67 33.08, 68.77 0.15 M-0.12 79.4 C21.98 54.3, 45.93 27.39, 68.77 0.15 M0.28 85.04 C27.49 54.71, 53.39 27.21, 74.41 -0.24 M0.28 85.04 C23.99 59.12, 47.97 32.14, 74.41 -0.24 M0.01 91.44 C30.59 54.38, 61.44 19.23, 79.4 0.12 M0.01 91.44 C19.78 69.25, 38.93 46.37, 79.4 0.12 M5.66 91.04 C36.28 52.62, 69.84 16.67, 85.04 -0.28 M5.66 91.04 C35.51 57.25, 65.32 23.53, 85.04 -0.28 M10.64 91.4 C40.11 55.11, 70.28 20.72, 90.03 0.08 M10.64 91.4 C27.58 71.57, 44.15 52.52, 90.03 0.08 M16.29 91.01 C40.76 65.27, 64.38 36.91, 95.67 -0.31 M16.29 91.01 C35.69 69.37, 54.24 48.08, 95.67 -0.31 M21.27 91.37 C49.8 56.24, 80.54 22.8, 99.35 1.56 M21.27 91.37 C44.43 62.83, 69.9 33.86, 99.35 1.56 M26.92 90.97 C44.47 70.25, 62 51.58, 99.08 7.96 M26.92 90.97 C53.71 58.64, 82.29 28.17, 99.08 7.96 M31.9 91.34 C52.89 70.63, 69.79 49.29, 99.48 13.6 M31.9 91.34 C57.96 61.29, 85.8 29.78, 99.48 13.6 M37.55 90.94 C54.95 75.23, 69.49 54.82, 99.22 20 M37.55 90.94 C53.95 73.33, 70.6 54.32, 99.22 20 M42.53 91.3 C64.28 66.58, 86.8 40.89, 98.96 26.4 M42.53 91.3 C59.19 70.83, 74.99 52.04, 98.96 26.4 M48.18 90.91 C67.73 70.84, 83.92 49.61, 99.35 32.04 M48.18 90.91 C64.9 70.81, 81.84 51.9, 99.35 32.04 M53.16 91.27 C66.1 74.24, 78.61 61.11, 99.09 38.44 M53.16 91.27 C66.01 77.15, 78.48 61.67, 99.09 38.44 M58.81 90.87 C67.1 81.77, 77.15 73.74, 99.48 44.08 M58.81 90.87 C74.76 71.79, 90.19 54.56, 99.48 44.08 M63.8 91.23 C74.02 78.67, 85.57 69.38, 99.22 50.48 M63.8 91.23 C77.32 77.94, 88.06 62.73, 99.22 50.48 M69.44 90.84 C78.47 80.54, 85.54 75.5, 98.96 56.88 M69.44 90.84 C76.54 80.75, 85.17 72.1, 98.96 56.88 M74.43 91.2 C83.98 82.68, 92.18 70.61, 99.36 62.52 M74.43 91.2 C82.12 82.23, 89.57 73.54, 99.36 62.52 M79.41 91.56 C88.3 81.98, 92.46 76.02, 99.09 68.92 M79.41 91.56 C87.63 83.38, 94.74 74.58, 99.09 68.92 M85.06 91.16 C88.11 84.87, 94.09 82.77, 99.49 74.56 M85.06 91.16 C89.98 85.35, 97.01 79.11, 99.49 74.56 M90.04 91.52 C94.49 86.81, 97.64 84.27, 99.23 80.96 M90.04 91.52 C93.32 88.61, 95.49 84.81, 99.23 80.96 M95.69 91.13 C96.79 90, 97.25 89.12, 98.97 87.35 M95.69 91.13 C96.61 90.01, 97.86 88.45, 98.97 87.35" stroke="#40c057" stroke-width="0.5" fill="none"></path><path d="M0 0 C36.46 -0.49, 70.21 0.56, 99 0 M0 0 C36.72 0.64, 73.08 1.15, 99 0 M99 0 C98.39 29.56, 98.64 57.88, 99 91 M99 0 C98.42 31.34, 98.5 63.33, 99 91 M99 91 C72.25 89.1, 45.33 92.69, 0 91 M99 91 C65.51 91.53, 33.82 90.73, 0 91 M0 91 C1.54 64.77, 0.95 34.55, 0 0 M0 91 C0.73 60.38, 1.15 29.78, 0 0" stroke="#000000" stroke-width="1" fill="none"></path></g><g stroke-linecap="round" transform="translate(430.5 100.10393700567079) rotate(0 49.5 45.5)"><path d="M0 0 C0 0, 0 0, 0 0 M0 0 C0 0, 0 0, 0 0 M-0.26 6.4 C1.89 3.97, 3.26 2.81, 4.99 0.36 M-0.26 6.4 C1.62 4.43, 2.71 2.72, 4.99 0.36 M0.13 12.04 C2.38 8.69, 6.34 5.84, 10.63 -0.03 M0.13 12.04 C2.31 8.01, 5.5 5.03, 10.63 -0.03 M-0.13 18.44 C3.57 14.64, 4.66 10.2, 15.62 0.33 M-0.13 18.44 C5.94 10.86, 11.71 3.96, 15.62 0.33 M0.27 24.08 C6.77 17.18, 12.33 9.46, 21.26 -0.07 M0.27 24.08 C5.6 17.08, 11.26 12.61, 21.26 -0.07 M0 30.48 C6.58 21.28, 15.47 10.61, 26.25 0.29 M0 30.48 C5.8 22.07, 13.19 14.91, 26.25 0.29 M-0.26 36.88 C13.05 25.09, 22.73 8.71, 31.89 -0.1 M-0.26 36.88 C11.23 22.02, 24.85 9.88, 31.89 -0.1 M0.14 42.52 C11.86 29.11, 23.8 17.53, 36.88 0.26 M0.14 42.52 C8.97 31.18, 19.79 21.15, 36.88 0.26 M-0.12 48.92 C17.19 29.84, 33.02 12.21, 42.52 -0.14 M-0.12 48.92 C9.41 37.63, 19.84 25.43, 42.52 -0.14 M0.27 54.56 C13.63 40.68, 24.87 26.56, 47.51 0.22 M0.27 54.56 C9.94 42.67, 19.67 31.2, 47.51 0.22 M0.01 60.96 C16 40.22, 35.48 19.49, 53.15 -0.17 M0.01 60.96 C11.12 47.37, 21.93 35.15, 53.15 -0.17 M-0.25 67.36 C15.72 51.56, 31.77 33.41, 58.14 0.19 M-0.25 67.36 C17.14 47.63, 36.82 26.22, 58.14 0.19 M0.14 73 C16.24 54.59, 32.35 39.7, 63.78 -0.21 M0.14 73 C18.48 51.47, 35.73 31.45, 63.78 -0.21 M-0.12 79.4 C14.87 62.33, 28.99 45.67, 68.77 0.15 M-0.12 79.4 C22.83 53.74, 43.81 28.4, 68.77 0.15 M0.28 85.04 C23.24 60.87, 44.13 33.47, 74.41 -0.24 M0.28 85.04 C16.57 66.91, 31.98 48.9, 74.41 -0.24 M0.01 91.44 C16.93 70.46, 35.53 52.48, 79.4 0.12 M0.01 91.44 C28.47 58.13, 57.79 24.79, 79.4 0.12 M5.66 91.04 C34.59 58.99, 61.85 27.06, 85.04 -0.28 M5.66 91.04 C32.8 60.37, 59.64 30.14, 85.04 -0.28 M10.64 91.4 C28.88 69.15, 48.83 47.6, 90.03 0.08 M10.64 91.4 C26.58 72.96, 44.05 53.35, 90.03 0.08 M16.29 91.01 C33.66 70.74, 48.01 51.21, 95.67 -0.31 M16.29 91.01 C47.73 55.04, 79.91 17.69, 95.67 -0.31 M21.27 91.37 C38.27 71.79, 54.87 56.37, 99.35 1.56 M21.27 91.37 C52.27 56.03, 80.92 22.91, 99.35 1.56 M26.92 90.97 C52.33 63.44, 78.28 34.26, 99.08 7.96 M26.92 90.97 C51.01 65.46, 73.56 37.07, 99.08 7.96 M31.9 91.34 C49.91 70.29, 69.52 48.16, 99.48 13.6 M31.9 91.34 C60.26 59.36, 86.03 27.84, 99.48 13.6 M37.55 90.94 C50.3 74.74, 62.46 59.61, 99.22 20 M37.55 90.94 C51.27 75.48, 65.58 59, 99.22 20 M42.53 91.3 C64.4 66.71, 87.57 41.27, 98.96 26.4 M42.53 91.3 C62.09 68.03, 83.94 45.28, 98.96 26.4 M48.18 90.91 C61.29 75.28, 76.83 56.32, 99.35 32.04 M48.18 90.91 C68.21 68.03, 87.51 46.92, 99.35 32.04 M53.16 91.27 C69.66 72.58, 86.3 53.63, 99.09 38.44 M53.16 91.27 C69.98 71.41, 85.72 51.8, 99.09 38.44 M58.81 90.87 C69.9 81.65, 79.97 67.9, 99.48 44.08 M58.81 90.87 C71.03 76.8, 83.62 62.92, 99.48 44.08 M63.8 91.23 C78.51 78, 91.19 58.97, 99.22 50.48 M63.8 91.23 C73.18 78.69, 83.31 67.79, 99.22 50.48 M69.44 90.84 C82.18 79.62, 91.27 66.92, 98.96 56.88 M69.44 90.84 C77.22 82.03, 85.56 73.65, 98.96 56.88 M74.43 91.2 C79.44 84.8, 85.82 78.94, 99.36 62.52 M74.43 91.2 C84 80.26, 94.64 67.61, 99.36 62.52 M79.41 91.56 C83.04 86.46, 89.97 80.54, 99.09 68.92 M79.41 91.56 C85.2 85.19, 91 78.25, 99.09 68.92 M85.06 91.16 C90.58 87.13, 96.42 79.9, 99.49 74.56 M85.06 91.16 C91.07 86.02, 95.95 80.18, 99.49 74.56 M90.04 91.52 C93.32 89.26, 95.71 85.44, 99.23 80.96 M90.04 91.52 C92.14 88.55, 94.78 85.16, 99.23 80.96 M95.69 91.13 C96.62 89.81, 98.03 88.14, 98.97 87.35 M95.69 91.13 C96.89 89.56, 98.07 88.38, 98.97 87.35" stroke="#40c057" stroke-width="0.5" fill="none"></path><path d="M0 0 C22.99 0.53, 49.78 1.38, 99 0 M0 0 C26.91 0.51, 52.61 -0.92, 99 0 M99 0 C99.19 21.5, 99.94 42.86, 99 91 M99 0 C99.37 34.98, 98.9 69.03, 99 91 M99 91 C70.92 91.84, 41.46 91.32, 0 91 M99 91 C74.49 92.14, 48.56 91.18, 0 91 M0 91 C-0.14 65.63, 0.46 41.3, 0 0 M0 91 C0.48 56.33, -0.19 20.74, 0 0" stroke="#000000" stroke-width="1" fill="none"></path></g><g stroke-linecap="round"><g transform="translate(264 146.6039370056708) rotate(0 72.44302062258544 -0.9772145018097547)"><path d="M0 0.1 C24.19 -0.23, 120.89 -1.71, 145.07 -2.05 M-0.18 0.02 C24 -0.28, 120.78 -1.52, 144.98 -1.89" stroke="#2f9e44" stroke-width="4" fill="none"></path></g></g><mask></mask><g stroke-linecap="round"><g transform="translate(555.5 148.6039370056708) rotate(0 72.49918565555072 -1.1255635223684735)"><path d="M0.07 -0.05 C24.25 -0.4, 120.91 -1.65, 145.08 -1.96 M-0.08 -0.21 C24.08 -0.61, 120.81 -1.88, 145 -2.2" stroke="#2f9e44" stroke-width="4" fill="none"></path></g></g><mask></mask><g stroke-linecap="round" transform="translate(10 77.60393700567079) rotate(0 440.5 65)"><path d="M0 0 C302.74 -1.32, 605.65 -1.71, 881 0 M0 0 C208.87 0.11, 417.5 0.26, 881 0 M881 0 C881.47 28.97, 882.17 56.53, 881 130 M881 0 C880 28.47, 881.8 56.25, 881 130 M881 130 C563.18 128.75, 243.92 128.21, 0 130 M881 130 C686.69 131.5, 491.58 131.62, 0 130 M0 130 C-0.25 95.36, 0.7 57.41, 0 0 M0 130 C0.49 78.84, 0.8 27.47, 0 0" stroke="black" stroke-width="1" fill="none"></path></g><g transform="translate(720 132.6039370056708) rotate(0 78 13)"><text x="0" y="0" font-family="Virgil, Segoe UI Emoji" font-size="20px" fill="black" text-anchor="start" style="white-space: pre;" direction="ltr" dominant-baseline="text-before-edge">Unwrapped text</text></g><g stroke-linecap="round" transform="translate(219.68662920404677 348.90951663155545) rotate(0 49.39308855291574 45.401727861771064)"><path d="M0 0 C0 0, 0 0, 0 0 M0 0 C0 0, 0 0, 0 0 M-0.26 6.4 C1.82 4.11, 4.36 1.21, 4.99 0.36 M-0.26 6.4 C1.25 4.7, 2.33 3.32, 4.99 0.36 M0.13 12.04 C1.54 7.96, 4.93 7.84, 10.63 -0.03 M0.13 12.04 C3.25 8.98, 6.99 4.64, 10.63 -0.03 M-0.13 18.44 C4.4 14.18, 9.63 8.56, 15.62 0.33 M-0.13 18.44 C4.94 13.1, 8.58 7.77, 15.62 0.33 M0.27 24.08 C8.27 17.34, 12.49 11.55, 21.26 -0.07 M0.27 24.08 C4.35 18.71, 8.13 15.07, 21.26 -0.07 M0 30.48 C4.83 25.62, 10.37 17.28, 26.25 0.29 M0 30.48 C8.76 20.68, 18.56 8.74, 26.25 0.29 M-0.26 36.88 C9.53 28.32, 15.15 18.08, 31.89 -0.1 M-0.26 36.88 C10.51 24.71, 20.05 13.92, 31.89 -0.1 M0.14 42.52 C10.09 33.56, 19.28 22.09, 36.88 0.26 M0.14 42.52 C14.27 25.73, 27.48 10.12, 36.88 0.26 M-0.12 48.92 C8.45 37.57, 16.72 25.81, 42.52 -0.14 M-0.12 48.92 C13.86 32.12, 28.74 16.52, 42.52 -0.14 M0.27 54.56 C14.02 40.73, 25.76 24.43, 47.51 0.22 M0.27 54.56 C9.95 42.05, 20.47 31.22, 47.51 0.22 M0.01 60.96 C14.92 44.59, 26.24 28.81, 53.15 -0.17 M0.01 60.96 C16.59 41.46, 33.54 21.08, 53.15 -0.17 M-0.25 67.36 C13.41 51.16, 22.73 38.89, 58.14 0.19 M-0.25 67.36 C19.85 44.65, 39.06 23.42, 58.14 0.19 M0.14 73 C25.21 43.62, 47.93 18.92, 63.78 -0.21 M0.14 73 C21.02 48.72, 41.85 25.13, 63.78 -0.21 M-0.12 79.4 C25.66 47.54, 55.86 15.06, 68.77 0.15 M-0.12 79.4 C24.24 49.27, 50.27 21.03, 68.77 0.15 M0.28 85.04 C28.3 49.4, 57.55 15.66, 74.41 -0.24 M0.28 85.04 C17.61 67.61, 33.73 49.4, 74.41 -0.24 M0.01 91.44 C27.95 59.71, 54.24 25.26, 79.4 0.12 M0.01 91.44 C28.93 57.6, 58.99 23.6, 79.4 0.12 M5.66 91.04 C33.92 57.03, 60.59 24.58, 85.04 -0.28 M5.66 91.04 C22.12 72.43, 37.66 54.35, 85.04 -0.28 M10.64 91.4 C27.64 69.58, 46.19 51.84, 90.03 0.08 M10.64 91.4 C38.55 60.58, 67.43 27.9, 90.03 0.08 M16.29 91.01 C39.8 60.02, 64.03 31.32, 95.67 -0.31 M16.29 91.01 C41.94 64.14, 64.61 35.87, 95.67 -0.31 M21.27 91.37 C52.21 59.3, 80.68 24.62, 99.35 1.56 M21.27 91.37 C47.21 60.91, 72.43 30.26, 99.35 1.56 M26.92 90.97 C49.1 62.43, 77.1 35.13, 99.08 7.96 M26.92 90.97 C49.79 64.4, 73.01 37.42, 99.08 7.96 M31.9 91.34 C56.15 60.63, 84.2 34.91, 98.82 14.35 M31.9 91.34 C52.4 67.02, 73.23 44.76, 98.82 14.35 M37.55 90.94 C55.35 70.15, 74.73 47.64, 99.22 20 M37.55 90.94 C53.91 73.19, 69.34 53.47, 99.22 20 M42.53 91.3 C57.05 75.73, 69.87 62.4, 98.96 26.4 M42.53 91.3 C56.25 75.04, 71.49 56.55, 98.96 26.4 M48.18 90.91 C66.99 73.28, 81.95 51.27, 99.35 32.04 M48.18 90.91 C63.13 74.83, 77.78 58.06, 99.35 32.04 M53.16 91.27 C67.05 73.73, 82.02 58.56, 99.09 38.44 M53.16 91.27 C69.19 71.54, 86.46 51.1, 99.09 38.44 M58.81 90.87 C70.74 79.58, 81.31 64.73, 98.83 44.83 M58.81 90.87 C72.39 73.4, 89.22 57, 98.83 44.83 M63.8 91.23 C73.73 82.69, 84.03 68.87, 99.22 50.48 M63.8 91.23 C78.12 75.17, 90.2 58.92, 99.22 50.48 M69.44 90.84 C78.38 79.11, 87.39 72.42, 98.96 56.88 M69.44 90.84 C77.9 82.47, 85.58 72.44, 98.96 56.88 M74.43 91.2 C79.44 81.96, 89.64 73.72, 99.36 62.52 M74.43 91.2 C80.68 83.33, 88.23 76.28, 99.36 62.52 M80.07 90.8 C86.39 84.88, 90.33 76.22, 99.09 68.92 M80.07 90.8 C86.06 83.87, 91.88 76.78, 99.09 68.92 M85.06 91.16 C91.49 84.78, 97.2 77.62, 98.83 75.31 M85.06 91.16 C89.82 85.47, 94.94 80.87, 98.83 75.31 M90.7 90.77 C91.97 88.85, 95.47 85.64, 99.23 80.96 M90.7 90.77 C92.4 88.56, 94.81 85.85, 99.23 80.96 M95.69 91.13 C96.83 90.23, 97.94 89.25, 98.97 87.35 M95.69 91.13 C96.58 89.68, 98.01 88.6, 98.97 87.35" stroke="#40c057" stroke-width="0.5" fill="none"></path><path d="M0 0 C35.4 -1.33, 73.29 0.03, 98.79 0 M0 0 C29.87 0.37, 61.51 -0.78, 98.79 0 M98.79 0 C97.12 29.24, 99.42 56.89, 98.79 90.8 M98.79 0 C100.2 31.43, 99.06 64.73, 98.79 90.8 M98.79 90.8 C60.24 90.29, 25.68 92.51, 0 90.8 M98.79 90.8 C67.83 92.13, 37.79 91.68, 0 90.8 M0 90.8 C1.08 54.89, -1.51 19.74, 0 0 M0 90.8 C-1.63 59.02, -1.82 27.82, 0 0" stroke="#000000" stroke-width="1" fill="none"></path></g><g stroke-linecap="round"><g transform="translate(222.68014972240553 577.9138362859834) rotate(0 72.31085236261401 -0.9912958777808285)"><path d="M-0.08 0 C24.03 -0.32, 120.59 -1.66, 144.71 -1.98 M0.15 -0.13 C24.24 -0.41, 120.54 -1.44, 144.6 -1.78" stroke="#2f9e44" stroke-width="4" fill="none"></path></g></g><mask></mask><g stroke-linecap="round" transform="translate(219.68662920404677 450.6892142557457) rotate(0 49.39308855291574 45.401727861771064)"><path d="M0 0 C0 0, 0 0, 0 0 M0 0 C0 0, 0 0, 0 0 M-0.26 6.4 C0.86 4.72, 2.84 3.3, 4.99 0.36 M-0.26 6.4 C0.83 4.38, 2.42 2.89, 4.99 0.36 M0.13 12.04 C2.67 9.5, 3.12 6.45, 10.63 -0.03 M0.13 12.04 C4.15 6.95, 7.93 2.39, 10.63 -0.03 M-0.13 18.44 C4.65 13.56, 8.44 7.87, 15.62 0.33 M-0.13 18.44 C3.86 12.95, 8.16 10.04, 15.62 0.33 M0.27 24.08 C5.16 16.86, 12.36 8.12, 21.26 -0.07 M0.27 24.08 C4.72 17.21, 10.82 11.54, 21.26 -0.07 M0 30.48 C11.07 21.21, 18.55 7.38, 26.25 0.29 M0 30.48 C9.26 18.18, 20.63 8.62, 26.25 0.29 M-0.26 36.88 C10.04 25.08, 20.54 15.16, 31.89 -0.1 M-0.26 36.88 C7.4 26.91, 17.04 18.24, 31.89 -0.1 M0.14 42.52 C15.27 26.01, 28.87 10.94, 36.88 0.26 M0.14 42.52 C8.24 32.82, 17.27 22.24, 36.88 0.26 M-0.12 48.92 C11.99 36.38, 22.04 23.63, 42.52 -0.14 M-0.12 48.92 C8.58 38.17, 17.3 27.86, 42.52 -0.14 M0.27 54.56 C14.3 36.04, 31.82 17.56, 47.51 0.22 M0.27 54.56 C10.11 42.42, 19.65 31.66, 47.51 0.22 M0.01 60.96 C14.58 46.7, 29.27 30.1, 53.15 -0.17 M0.01 60.96 C15.76 43.1, 33.79 23.59, 53.15 -0.17 M-0.25 67.36 C14.57 50.38, 29.45 36.91, 58.14 0.19 M-0.25 67.36 C16.63 47.57, 32.4 29.27, 58.14 0.19 M0.14 73 C14.04 57.21, 27.07 41.8, 63.78 -0.21 M0.14 73 C21.41 49.27, 40.76 25.82, 63.78 -0.21 M-0.12 79.4 C21.32 56.99, 40.65 31.39, 68.77 0.15 M-0.12 79.4 C15.09 62.52, 29.41 45.76, 68.77 0.15 M0.28 85.04 C15.96 65.38, 33.37 48.78, 74.41 -0.24 M0.28 85.04 C26.88 53.97, 54.3 22.82, 74.41 -0.24 M0.01 91.44 C28.95 59.38, 56.21 27.45, 79.4 0.12 M0.01 91.44 C27.16 60.77, 53.99 30.54, 79.4 0.12 M5.66 91.04 C23.89 68.79, 43.84 47.24, 85.04 -0.28 M5.66 91.04 C21.6 72.6, 39.07 52.99, 85.04 -0.28 M10.64 91.4 C28.02 71.13, 42.37 51.61, 90.03 0.08 M10.64 91.4 C42.08 55.44, 74.26 18.08, 90.03 0.08 M16.29 91.01 C33.57 71.13, 50.44 55.39, 95.67 -0.31 M16.29 91.01 C47.79 55.09, 76.95 21.39, 95.67 -0.31 M21.27 91.37 C48.71 61.49, 76.71 29.96, 99.35 1.56 M21.27 91.37 C47.3 63.69, 71.76 33.11, 99.35 1.56 M26.92 90.97 C46.12 68.5, 66.96 44.94, 99.08 7.96 M26.92 90.97 C57.15 56.85, 84.75 23.21, 99.08 7.96 M31.9 91.34 C45.72 73.81, 58.99 57.41, 98.82 14.35 M31.9 91.34 C46.79 74.52, 62.24 56.73, 98.82 14.35 M37.55 90.94 C61.53 63.92, 86.77 36.08, 99.22 20 M37.55 90.94 C58.99 65.51, 82.74 40.57, 99.22 20 M42.53 91.3 C57.07 73.96, 74.08 53.31, 98.96 26.4 M42.53 91.3 C64.6 66.14, 85.92 42.71, 98.96 26.4 M48.18 90.91 C66.59 70.05, 85.15 48.89, 99.35 32.04 M48.18 90.91 C66.89 68.79, 84.56 46.97, 99.35 32.04 M53.16 91.27 C65.52 80.59, 76.84 65.41, 99.09 38.44 M53.16 91.27 C67 75.39, 81.19 59.66, 99.09 38.44 M58.81 90.87 C75.24 75.67, 89.64 54.66, 98.83 44.83 M58.81 90.87 C69.47 76.77, 80.92 64.34, 98.83 44.83 M63.8 91.23 C78.74 77.46, 90.1 62.15, 99.22 50.48 M63.8 91.23 C73.14 80.73, 83 70.6, 99.22 50.48 M69.44 90.84 C75.48 83.21, 82.88 76.16, 98.96 56.88 M69.44 90.84 C80.84 77.8, 93.3 63.04, 98.96 56.88 M74.43 91.2 C79.2 84.76, 87.33 77.45, 99.36 62.52 M74.43 91.2 C81.75 83, 89.12 74.25, 99.36 62.52 M80.07 90.8 C87.15 85.04, 94.53 76.04, 99.09 68.92 M80.07 90.8 C87.7 83.81, 94.17 76.14, 99.09 68.92 M85.06 91.16 C89.93 87.71, 93.54 82.03, 98.83 75.31 M85.06 91.16 C88.23 86.7, 92.19 81.65, 98.83 75.31 M90.7 90.77 C93.13 87.34, 96.79 83, 99.23 80.96 M90.7 90.77 C93.84 86.7, 96.9 83.62, 99.23 80.96 M95.69 91.13 C96.93 90.37, 97.54 88.27, 98.97 87.35 M95.69 91.13 C96.35 90.17, 97.06 89.19, 98.97 87.35" stroke="#40c057" stroke-width="0.5" fill="none"></path><path d="M0 0 C24.35 -0.86, 49.23 -1.74, 98.79 0 M0 0 C38.16 0.34, 75.62 -0.54, 98.79 0 M98.79 0 C100.08 28.44, 99.72 54.61, 98.79 90.8 M98.79 0 C99.05 23.33, 98.37 45.53, 98.79 90.8 M98.79 90.8 C72.24 90.91, 46.06 91.25, 0 90.8 M98.79 90.8 C61.11 92.21, 21.79 92.24, 0 90.8 M0 90.8 C1.2 64.18, 1.69 32.14, 0 0 M0 90.8 C0.43 66.56, 0.69 44.72, 0 0" stroke="#000000" stroke-width="1" fill="none"></path></g><g stroke-linecap="round" transform="translate(198.2330654891441 338.4321948173009) rotate(0 235.4902807775378 231)"><path d="M0 0 C147.67 0.05, 295.23 0.91, 470.98 0 M0 0 C126.64 -0.46, 253.47 0.05, 470.98 0 M470.98 0 C472.38 96.76, 471.66 191.9, 470.98 462 M470.98 0 C472.6 183.41, 472.43 367.75, 470.98 462 M470.98 462 C291.36 461.1, 111.81 461.76, 0 462 M470.98 462 C307.81 464.43, 144.43 463.85, 0 462 M0 462 C-0.32 291.19, -1.37 120.88, 0 0 M0 462 C0.81 336.05, 0.42 209.51, 0 0" stroke="black" stroke-width="1" fill="none"></path></g><g stroke-linecap="round" transform="translate(216.19418859929533 559.9527131758322) rotate(0 78.82937365010798 17.961123110151163)"><path d="M0 0 C41.99 0.46, 82.82 0.51, 157.66 0 M157.66 0 C157.6 11.09, 157.09 22.14, 157.66 35.92 M157.66 35.92 C96.32 35.9, 36.08 36.64, 0 35.92 M0 35.92 C-0.18 24.76, 0.48 13.19, 0 0" stroke="black" stroke-width="1.5" fill="none" stroke-dasharray="8 9"></path></g><g stroke-linecap="round" transform="translate(218.68878903126074 612.3393222471062) rotate(0 49.39308855291574 45.401727861771064)"><path d="M0 0 C0 0, 0 0, 0 0 M0 0 C0 0, 0 0, 0 0 M-0.26 6.4 C1.67 3.68, 2.56 1.99, 4.99 0.36 M-0.26 6.4 C1.29 5.04, 2.32 3.17, 4.99 0.36 M0.13 12.04 C3.53 8.56, 5.04 4.6, 10.63 -0.03 M0.13 12.04 C3.34 8.16, 6.94 3.91, 10.63 -0.03 M-0.13 18.44 C4.51 11.46, 9.99 5.12, 15.62 0.33 M-0.13 18.44 C6.68 10.65, 12.15 4, 15.62 0.33 M0.27 24.08 C7.98 15.59, 10.81 10.58, 21.26 -0.07 M0.27 24.08 C5.17 18.58, 11.77 11.25, 21.26 -0.07 M0 30.48 C6.09 20.93, 12.08 15.59, 26.25 0.29 M0 30.48 C9.74 18.54, 20.7 6.71, 26.25 0.29 M-0.26 36.88 C12.19 22.47, 22.19 12.02, 31.89 -0.1 M-0.26 36.88 C10.73 24.63, 21.47 11.7, 31.89 -0.1 M0.14 42.52 C11.46 27.66, 24.16 14.87, 36.88 0.26 M0.14 42.52 C9.18 31.9, 19.76 20.14, 36.88 0.26 M-0.12 48.92 C12.26 33.54, 25.28 17.75, 42.52 -0.14 M-0.12 48.92 C13.75 31.54, 28.23 15.89, 42.52 -0.14 M0.27 54.56 C11.88 40.92, 22.21 26.8, 47.51 0.22 M0.27 54.56 C15.93 37.07, 32.62 19.49, 47.51 0.22 M0.01 60.96 C15.07 39.55, 35.88 22.43, 53.15 -0.17 M0.01 60.96 C21.1 38.52, 40.27 15.94, 53.15 -0.17 M-0.25 67.36 C22.35 44.07, 41.63 18.02, 58.14 0.19 M-0.25 67.36 C20.95 44.66, 40.37 21.49, 58.14 0.19 M0.14 73 C18.63 55.69, 33.42 35, 63.78 -0.21 M0.14 73 C12.7 58.36, 26.65 42.79, 63.78 -0.21 M-0.12 79.4 C16.67 62.68, 31.99 44.16, 68.77 0.15 M-0.12 79.4 C15.29 60.96, 31.36 43.22, 68.77 0.15 M0.28 85.04 C30.22 52.26, 58.3 20.21, 74.41 -0.24 M0.28 85.04 C24.14 57.07, 49.44 28.17, 74.41 -0.24 M0.01 91.44 C15.97 73.87, 31.85 55.83, 79.4 0.12 M0.01 91.44 C23.79 63.46, 48.24 36.11, 79.4 0.12 M5.66 91.04 C32.24 58.43, 61.02 28.92, 85.04 -0.28 M5.66 91.04 C29.84 64.65, 52.25 36.9, 85.04 -0.28 M10.64 91.4 C30.36 69.13, 50.14 48.09, 90.03 0.08 M10.64 91.4 C31.88 67.32, 53.48 42.84, 90.03 0.08 M16.29 91.01 C47.52 56.32, 77.35 17.3, 95.67 -0.31 M16.29 91.01 C44.28 58.24, 73.57 25.85, 95.67 -0.31 M21.27 91.37 C46.41 62.53, 75.18 31.13, 100 0.8 M21.27 91.37 C39.27 70.59, 56.78 51, 100 0.8 M26.92 90.97 C46.19 72.11, 62.03 48.63, 99.74 7.2 M26.92 90.97 C45.41 71.18, 61.08 51.33, 99.74 7.2 M31.9 91.34 C51.6 71.32, 68.85 52.62, 100.13 12.85 M31.9 91.34 C48.54 72.15, 65.17 53.43, 100.13 12.85 M37.55 90.94 C60.22 61.1, 85.96 35.58, 99.87 19.24 M37.55 90.94 C61.88 62.88, 85.55 36.29, 99.87 19.24 M42.53 91.3 C53.94 76.59, 67.41 60.55, 99.61 25.64 M42.53 91.3 C63.9 65.04, 87.51 38.91, 99.61 25.64 M48.18 90.91 C66.85 70.89, 82.57 48.53, 100.01 31.28 M48.18 90.91 C62.37 75.94, 76.86 60.41, 100.01 31.28 M53.16 91.27 C63.71 76.41, 77.92 62.22, 99.75 37.68 M53.16 91.27 C68.18 73.93, 85.09 55.6, 99.75 37.68 M58.81 90.87 C68.84 79.62, 75.08 69.46, 100.14 43.32 M58.81 90.87 C71.3 75.52, 86.7 58.57, 100.14 43.32 M63.8 91.23 C76.4 74.89, 91.95 59.86, 99.88 49.72 M63.8 91.23 C76.06 78.19, 86.33 65.87, 99.88 49.72 M69.44 90.84 C79.91 78.32, 90.79 67.92, 99.62 56.12 M69.44 90.84 C75.43 82.49, 83.06 75.97, 99.62 56.12 M74.43 91.2 C82.22 83.46, 88.76 75.64, 100.01 61.76 M74.43 91.2 C82.19 81.8, 92.14 72.47, 100.01 61.76 M80.07 90.8 C86.77 86.29, 92.6 79.6, 99.75 68.16 M80.07 90.8 C86.6 83.04, 94.69 74.74, 99.75 68.16 M85.06 91.16 C91.06 84.51, 94.58 79.34, 100.14 73.8 M85.06 91.16 C88.29 86.67, 92.05 83.17, 100.14 73.8 M90.7 90.77 C93.45 88.38, 93.66 85.92, 99.88 80.2 M90.7 90.77 C94.11 87.35, 97.66 83.07, 99.88 80.2 M95.69 91.13 C96.67 89.93, 97.28 88.79, 99.62 86.6 M95.69 91.13 C96.85 89.87, 97.72 89.26, 99.62 86.6" stroke="#40c057" stroke-width="0.5" fill="none"></path><path d="M0 0 C21.04 0.31, 43.4 -0.63, 98.79 0 M0 0 C20.33 0.22, 43.37 0.04, 98.79 0 M98.79 0 C100.33 34.32, 98.73 65.8, 98.79 90.8 M98.79 0 C99.35 20.18, 98.17 40.54, 98.79 90.8 M98.79 90.8 C71.89 93.33, 45.02 92, 0 90.8 M98.79 90.8 C60.25 90.94, 21.34 91.18, 0 90.8 M0 90.8 C-0.15 69.36, -1.4 49.25, 0 0 M0 90.8 C1.51 57.29, 1.69 24.3, 0 0" stroke="#000000" stroke-width="1" fill="none"></path></g><g stroke-linecap="round"><g transform="translate(229.66503093190863 758.5229075602814) rotate(0 72.26122739439859 -1.0591165977775177)"><path d="M0.04 0.01 C24.14 -0.34, 120.54 -1.8, 144.65 -2.12 M-0.13 -0.12 C23.95 -0.45, 120.4 -1.65, 144.51 -2" stroke="#2f9e44" stroke-width="4" fill="none"></path></g></g><mask></mask><g transform="translate(416.76006332931684 744.5531451412747) rotate(0 77.83153347732184 12.971922246220288)"><text x="0" y="0" font-family="Virgil, Segoe UI Emoji" font-size="19.95680345572354px" fill="black" text-anchor="start" style="white-space: pre;" direction="ltr" dominant-baseline="text-before-edge">Unwrapped text</text></g><g stroke-linecap="round" transform="translate(216.19418859929533 722.600661339979) rotate(0 188.59179265658747 31.93088552915765)"><path d="M0 0 C104.54 -0.97, 208.98 1.2, 377.18 0 M377.18 0 C376.53 23.22, 379.06 42.87, 377.18 63.86 M377.18 63.86 C262.14 64.2, 146.24 62.78, 0 63.86 M0 63.86 C1.24 42.98, 2.09 22.12, 0 0" stroke="black" stroke-width="1.5" fill="none" stroke-dasharray="8 9"></path></g><g stroke-linecap="round" transform="translate(415.7622231565306 738.5661041045577) rotate(0 78.82937365010798 17.961123110151163)"><path d="M0 0 C46.64 0.94, 92.88 0.79, 157.66 0 M157.66 0 C158.04 9.26, 157.64 17.86, 157.66 35.92 M157.66 35.92 C114.99 36.1, 72.43 36.19, 0 35.92 M0 35.92 C0.52 22.42, 0.13 8.38, 0 0" stroke="black" stroke-width="1.5" fill="none" stroke-dasharray="1.5 7"></path></g><g transform="translate(139.21342737571103 249.04902582882193) rotate(0 83.5 13)"><text x="0" y="0" font-family="Virgil, Segoe UI Emoji" font-size="20px" fill="black" text-anchor="start" style="white-space: pre;" direction="ltr" dominant-baseline="text-before-edge">Block-level boxes</text></g><g transform="translate(401.952246410764 28.66572487534779) rotate(0 83.5 13)"><text x="0" y="0" font-family="Virgil, Segoe UI Emoji" font-size="20px" fill="black" text-anchor="start" style="white-space: pre;" direction="ltr" dominant-baseline="text-before-edge">Inline-level boxes</text></g><g stroke-linecap="round"><g transform="translate(467.1852774156182 61.66572487534779) rotate(0 -68.29544831876262 40.7763757261317)"><path d="M-0.63 1.17 C-12.32 8.64, -46.67 31.13, -69.42 44.27 C-92.17 57.4, -125.76 73.8, -137.11 79.99 M1.24 0.74 C-10.59 7.87, -46.72 28.91, -69.9 42.25 C-93.08 55.6, -126.57 74.66, -137.84 80.81" stroke="black" stroke-width="1" fill="none"></path></g><g transform="translate(467.1852774156182 61.66572487534779) rotate(0 -68.29544831876262 40.7763757261317)"><path d="M-118.22 58.11 C-123.46 67.7, -132.16 74.55, -137.84 80.81 M-118.22 58.11 C-121.8 63.32, -127.3 68.64, -137.84 80.81" stroke="black" stroke-width="1" fill="none"></path></g><g transform="translate(467.1852774156182 61.66572487534779) rotate(0 -68.29544831876262 40.7763757261317)"><path d="M-108.22 76.03 C-116.99 79.09, -129.31 79.46, -137.84 80.81 M-108.22 76.03 C-113.95 77.32, -121.67 78.68, -137.84 80.81" stroke="black" stroke-width="1" fill="none"></path></g></g><mask></mask><g stroke-linecap="round"><g transform="translate(494.8640452911036 63.66572487534779) rotate(0 63.343868330792475 38.852425177740834)"><path d="M0.89 0.21 C10.74 6.69, 37.51 27.03, 58.49 40.07 C79.47 53.1, 115.18 72.1, 126.79 78.43 M-0.1 -0.73 C9.66 6.38, 36.59 28.26, 57.58 41.1 C78.57 53.95, 113.96 69.99, 125.84 76.35" stroke="black" stroke-width="1" fill="none"></path></g><g transform="translate(494.8640452911036 63.66572487534779) rotate(0 63.343868330792475 38.852425177740834)"><path d="M96.03 72.95 C103.8 73.7, 109.25 73.83, 125.84 76.35 M96.03 72.95 C105.88 74.49, 116.21 76.15, 125.84 76.35" stroke="black" stroke-width="1" fill="none"></path></g><g transform="translate(494.8640452911036 63.66572487534779) rotate(0 63.343868330792475 38.852425177740834)"><path d="M105.19 54.58 C110.87 59.95, 114.05 64.64, 125.84 76.35 M105.19 54.58 C112.07 62.4, 119.28 70.32, 125.84 76.35" stroke="black" stroke-width="1" fill="none"></path></g></g><mask></mask><g stroke-linecap="round"><g transform="translate(212.6878741802168 239.04902582882193) rotate(0 -68.51171611858229 -22.973821477996346)"><path d="M0.03 -0.36 C-9.84 -1.89, -36.06 -1.39, -58.89 -9.06 C-81.72 -16.73, -123.85 -40.19, -136.95 -46.39 M-0.51 0.44 C-10.48 -1.22, -36.56 -2.05, -59.32 -9.77 C-82.08 -17.49, -124.03 -39.64, -137.05 -45.86" stroke="black" stroke-width="1" fill="none"></path></g><g transform="translate(212.6878741802168 239.04902582882193) rotate(0 -68.51171611858229 -22.973821477996346)"><path d="M-107.24 -42.48 C-119.07 -43.98, -129.21 -44.31, -137.05 -45.86 M-107.24 -42.48 C-116.6 -43.09, -125.58 -44.34, -137.05 -45.86" stroke="black" stroke-width="1" fill="none"></path></g><g transform="translate(212.6878741802168 239.04902582882193) rotate(0 -68.51171611858229 -22.973821477996346)"><path d="M-116.4 -24.11 C-124.81 -32.49, -131.52 -39.69, -137.05 -45.86 M-116.4 -24.11 C-122.88 -30.46, -129 -37.43, -137.05 -45.86" stroke="black" stroke-width="1" fill="none"></path></g></g><mask></mask><g stroke-linecap="round"><g transform="translate(222.81002934372395 238.04902582882193) rotate(0 -10.611248408528127 -22.467022003865978)"><path d="M-0.06 0.09 C-1.96 -2.64, -7.81 -9.11, -11.36 -16.56 C-14.91 -24.02, -19.69 -39.99, -21.34 -44.66 M0.29 -0.05 C-1.62 -2.73, -7.8 -8.79, -11.44 -16.28 C-15.07 -23.78, -19.87 -40.25, -21.52 -45.02" stroke="black" stroke-width="1" fill="none"></path></g><g transform="translate(222.81002934372395 238.04902582882193) rotate(0 -10.611248408528127 -22.467022003865978)"><path d="M-12.39 -33.25 C-15.04 -36.61, -17.93 -40.58, -21.52 -45.02 M-12.39 -33.25 C-15.41 -37.18, -18.47 -41.13, -21.52 -45.02" stroke="black" stroke-width="1" fill="none"></path></g><g transform="translate(222.81002934372395 238.04902582882193) rotate(0 -10.611248408528127 -22.467022003865978)"><path d="M-22.09 -30.14 C-21.76 -34.45, -21.68 -39.36, -21.52 -45.02 M-22.09 -30.14 C-21.8 -35.15, -21.54 -40.16, -21.52 -45.02" stroke="black" stroke-width="1" fill="none"></path></g></g><mask></mask><g stroke-linecap="round"><g transform="translate(243.90107561636637 237.04902582882193) rotate(0 92.52710113148112 -21.372248124371133)"><path d="M0.32 0.05 C12.95 -0.81, 44.89 2.04, 75.68 -5 C106.46 -12.04, 166.76 -35.98, 185.04 -42.22 M0.01 -0.27 C12.59 -1.26, 44.51 1.49, 75.3 -5.6 C106.09 -12.69, 166.39 -36.54, 184.76 -42.79" stroke="black" stroke-width="1" fill="none"></path></g><g transform="translate(243.90107561636637 237.04902582882193) rotate(0 92.52710113148112 -21.372248124371133)"><path d="M161.79 -23.49 C168.07 -29.05, 174.51 -34.16, 184.76 -42.79 M161.79 -23.49 C171.1 -30.74, 179.84 -38.28, 184.76 -42.79" stroke="black" stroke-width="1" fill="none"></path></g><g transform="translate(243.90107561636637 237.04902582882193) rotate(0 92.52710113148112 -21.372248124371133)"><path d="M154.76 -42.77 C162.97 -43.12, 171.32 -43.01, 184.76 -42.79 M154.76 -42.77 C166.86 -42.49, 178.35 -42.48, 184.76 -42.79" stroke="black" stroke-width="1" fill="none"></path></g></g><mask></mask><g stroke-linecap="round"><g transform="translate(441.8714992396233 229.6039370056708) rotate(0 1.3514455305440833 50.04517786935378)"><path d="M-0.05 0.06 C0.38 16.75, 2.27 83.46, 2.76 100.13 M0.2 -0.04 C0.6 16.61, 2.19 83.29, 2.62 99.93" stroke="black" stroke-width="4" fill="none"></path></g><g transform="translate(441.8714992396233 229.6039370056708) rotate(0 1.3514455305440833 50.04517786935378)"><path d="M-8.33 72 C-4.02 82.63, 0.32 93.52, 2.62 99.93 M-8.33 72 C-4.45 81.81, -0.67 91.31, 2.62 99.93" stroke="black" stroke-width="4" fill="none"></path></g><g transform="translate(441.8714992396233 229.6039370056708) rotate(0 1.3514455305440833 50.04517786935378)"><path d="M12.18 71.49 C8.66 82.3, 5.15 93.39, 2.62 99.93 M12.18 71.49 C8.96 81.51, 5.62 91.18, 2.62 99.93" stroke="black" stroke-width="4" fill="none"></path></g></g><mask></mask><g transform="translate(70.80898564305585 10) rotate(0 126.10416412353516 13)"><text x="0" y="0" font-family="Virgil, Segoe UI Emoji" font-size="20px" fill="black" text-anchor="start" style="white-space: pre;" direction="ltr" dominant-baseline="text-before-edge">Block Formatting Context</text></g><g stroke-linecap="round"><g transform="translate(192.28236266448744 41) rotate(0 6.067741679898404 14.372308011830478)"><path d="M0.1 0.08 C2.14 4.85, 10.2 23.99, 12.2 28.77 M-0.06 -0.03 C1.97 4.77, 10.14 23.79, 12.15 28.55" stroke="black" stroke-width="1" fill="none"></path></g><g transform="translate(192.28236266448744 41) rotate(0 6.067741679898404 14.372308011830478)"><path d="M1.55 17.22 C4.68 20.66, 7.79 23.68, 12.15 28.55 M1.55 17.22 C5.85 21.78, 10.1 26.31, 12.15 28.55" stroke="black" stroke-width="1" fill="none"></path></g><g transform="translate(192.28236266448744 41) rotate(0 6.067741679898404 14.372308011830478)"><path d="M11.31 13.05 C11.7 17.68, 12.06 21.87, 12.15 28.55 M11.31 13.05 C11.74 19.27, 12.11 25.45, 12.15 28.55" stroke="black" stroke-width="1" fill="none"></path></g></g><mask></mask><g transform="translate(400.14422773667025 481.27828698902647) rotate(0 124.03125 13.25)"><text x="0" y="0" font-family="Virgil, Segoe UI Emoji" font-size="20px" fill="black" text-anchor="start" style="white-space: pre;" direction="ltr" dominant-baseline="text-before-edge">Anonymous block-level box</text></g><g transform="translate(514.8385931617361 630.4570745521659) rotate(0 68.58333587646484 26)"><text x="68.58333587646484" y="0" font-family="Virgil, Segoe UI Emoji" font-size="20px" fill="black" text-anchor="middle" style="white-space: pre;" direction="ltr" dominant-baseline="text-before-edge">Anonymous</text><text x="68.58333587646484" y="26" font-family="Virgil, Segoe UI Emoji" font-size="20px" fill="black" text-anchor="middle" style="white-space: pre;" direction="ltr" dominant-baseline="text-before-edge">inline-level box</text></g><g stroke-linecap="round"><g transform="translate(461.3143011100585 511.7244326119232) rotate(0 -41.965382207401035 23.68444468092187)"><path d="M-0.36 -0.21 C-7.07 4.75, -25.86 22.19, -39.73 30.15 C-53.6 38.12, -76.28 44.55, -83.57 47.58" stroke="black" stroke-width="1.5" fill="none" stroke-dasharray="8 9"></path></g><g transform="translate(461.3143011100585 511.7244326119232) rotate(0 -41.965382207401035 23.68444468092187)"><path d="M-65.28 32.41 C-72.92 37.57, -80.08 44.09, -83.57 47.58" stroke="black" stroke-width="1.5" fill="none"></path></g><g transform="translate(461.3143011100585 511.7244326119232) rotate(0 -41.965382207401035 23.68444468092187)"><path d="M-59.81 47.72 C-69.68 46.75, -79.02 47.16, -83.57 47.58" stroke="black" stroke-width="1.5" fill="none"></path></g></g><mask></mask><g stroke-linecap="round"><g transform="translate(573.8214045152856 683.784784475175) rotate(0 -38.17634393693868 25.844237457483075)"><path d="M-0.49 -1.08 C-7.69 2.73, -31.75 13.54, -44.31 22.51 C-56.87 31.48, -70.92 47.85, -75.86 52.76" stroke="black" stroke-width="1.5" fill="none" stroke-dasharray="1.5 7"></path></g><g transform="translate(573.8214045152856 683.784784475175) rotate(0 -38.17634393693868 25.844237457483075)"><path d="M-67.22 32.77 C-70.87 36.59, -69.64 39.08, -75.86 52.76" stroke="black" stroke-width="1.5" fill="none" stroke-dasharray="1.5 5"></path></g><g transform="translate(573.8214045152856 683.784784475175) rotate(0 -38.17634393693868 25.844237457483075)"><path d="M-56.39 43 C-62.26 44.65, -63.29 45.02, -75.86 52.76" stroke="black" stroke-width="1.5" fill="none" stroke-dasharray="1.5 5"></path></g></g><mask></mask><g stroke-linecap="round"><g transform="translate(463.24703082958376 512.7755387740169) rotate(0 -29.962653089638252 104.75289084215828)"><path d="M0.02 0.15 C-8.15 19.86, -38.04 82.81, -48.03 117.68 C-58.03 152.55, -57.84 193.99, -59.95 209.36" stroke="black" stroke-width="1.5" fill="none" stroke-dasharray="8 9"></path></g><g transform="translate(463.24703082958376 512.7755387740169) rotate(0 -29.962653089638252 104.75289084215828)"><path d="M-67.91 180.43 C-64.76 190.65, -60.7 202.62, -59.95 209.36" stroke="black" stroke-width="1.5" fill="none"></path></g><g transform="translate(463.24703082958376 512.7755387740169) rotate(0 -29.962653089638252 104.75289084215828)"><path d="M-47.45 182.08 C-52.12 191.67, -55.89 203.01, -59.95 209.36" stroke="black" stroke-width="1.5" fill="none"></path></g></g><mask></mask></svg>