<svg version="1.1" xmlns="http://www.w3.org/2000/svg" viewBox="0 0 279.22141171085195 198.40648553804283" width="837.6642351325559" height="595.2194566141285">
  <!-- svg-source:excalidraw -->
  
  <defs>
    <style class="style-fonts">
      @font-face {
        font-family: "Virgil";
        src: url("https://excalidraw.com/Virgil.woff2");
      }
      @font-face {
        font-family: "Cascadia";
        src: url("https://excalidraw.com/Cascadia.woff2");
      }
    </style>
    
  </defs>
  <rect x="0" y="0" width="279.22141171085195" height="198.40648553804283" fill="#ffffff"></rect><g stroke-linecap="round" transform="translate(10 10) rotate(0 129.61070585542598 89.20324276902141)"><path d="M0 0 C0 0, 0 0, 0 0 M0 0 C0 0, 0 0, 0 0 M-0.26 6.4 C1.61 4.72, 4.15 2.21, 4.99 0.36 M-0.26 6.4 C1.16 5.53, 1.82 3.78, 4.99 0.36 M0.13 12.04 C5.34 6.34, 7.67 3.24, 10.63 -0.03 M0.13 12.04 C3.49 7.04, 7.33 3.41, 10.63 -0.03 M-0.13 18.44 C5.23 13.55, 6.89 10.7, 15.62 0.33 M-0.13 18.44 C3.55 14.65, 7.25 10.38, 15.62 0.33 M0.27 24.08 C8.39 16.97, 13.75 5.17, 21.26 -0.07 M0.27 24.08 C5.36 17.66, 10.85 11.14, 21.26 -0.07 M0 30.48 C8.09 19.48, 17.79 10.45, 26.25 0.29 M0 30.48 C7.29 24.01, 12.58 15.06, 26.25 0.29 M-0.26 36.88 C11.09 23.04, 23.4 11.3, 31.89 -0.1 M-0.26 36.88 C10.78 24.44, 21.48 10.54, 31.89 -0.1 M0.14 42.52 C10.07 31.6, 22.79 15.05, 36.88 0.26 M0.14 42.52 C10.5 28.63, 22.47 16.01, 36.88 0.26 M-0.12 48.92 C16.96 31.12, 33.33 12.16, 42.52 -0.14 M-0.12 48.92 C16.07 30.56, 32.39 9.99, 42.52 -0.14 M0.27 54.56 C13.81 38.06, 25.47 24.75, 47.51 0.22 M0.27 54.56 C15.46 37.1, 29.73 19.24, 47.51 0.22 M0.01 60.96 C19.04 39.66, 35.47 21.05, 53.15 -0.17 M0.01 60.96 C11.71 47.36, 22.04 35.92, 53.15 -0.17 M-0.25 67.36 C15.99 47.28, 34.6 28.67, 58.14 0.19 M-0.25 67.36 C15.1 48.95, 29.17 32.09, 58.14 0.19 M0.14 73 C24.78 46.61, 46.81 18.68, 63.78 -0.21 M0.14 73 C15.85 53.69, 33.94 33.78, 63.78 -0.21 M-0.12 79.4 C18.76 56.74, 37.67 36.81, 68.77 0.15 M-0.12 79.4 C23.13 51.29, 46.08 25.67, 68.77 0.15 M0.28 85.04 C24.32 56.71, 47.74 30.28, 74.41 -0.24 M0.28 85.04 C29.67 52.34, 58.83 18.89, 74.41 -0.24 M0.01 91.44 C24.34 63.1, 48.94 34.26, 79.4 0.12 M0.01 91.44 C24.27 64.07, 47.5 37.5, 79.4 0.12 M-0.25 97.84 C32.22 58.32, 67.96 19.64, 85.04 -0.28 M-0.25 97.84 C27.36 67.11, 51.95 36.78, 85.04 -0.28 M0.15 103.48 C28.72 69.73, 59.71 34.97, 90.03 0.08 M0.15 103.48 C24.74 75.32, 47.43 47.79, 90.03 0.08 M-0.11 109.88 C38.39 67.17, 76.14 23.88, 95.67 -0.31 M-0.11 109.88 C23.86 80.48, 49.57 53.29, 95.67 -0.31 M0.28 115.52 C21.37 92.21, 44.82 68.15, 100.66 0.05 M0.28 115.52 C34.53 78.85, 67.01 39.53, 100.66 0.05 M0.02 121.92 C25.21 90.14, 50.65 64.25, 106.3 -0.34 M0.02 121.92 C42.11 74.93, 83.46 26.99, 106.3 -0.34 M-0.24 128.32 C39.13 85.04, 73.93 43.4, 111.29 0.02 M-0.24 128.32 C38.55 82.41, 78.47 38.04, 111.29 0.02 M0.15 133.96 C26.48 101.63, 52.13 73.53, 116.27 0.38 M0.15 133.96 C22.61 105.04, 47.91 77.99, 116.27 0.38 M-0.11 140.36 C47.44 89.38, 90.48 37.47, 121.92 -0.02 M-0.11 140.36 C41.09 92.17, 83.48 43.73, 121.92 -0.02 M0.29 146 C24.82 115.28, 52.85 86.73, 126.91 0.34 M0.29 146 C35.43 107.98, 71.52 66.82, 126.91 0.34 M0.02 152.4 C40.64 104.37, 85.73 54.6, 132.55 -0.05 M0.02 152.4 C41.66 102.92, 85.26 54.68, 132.55 -0.05 M-0.24 158.8 C50.84 101.53, 99.2 40.57, 137.54 0.31 M-0.24 158.8 C46.37 107.28, 91.39 53.57, 137.54 0.31 M0.16 164.44 C40.45 115.15, 81.7 70.8, 143.18 -0.09 M0.16 164.44 C30.54 129.4, 60.35 94.87, 143.18 -0.09 M-0.1 170.84 C47.17 118.16, 92.96 61.9, 148.17 0.27 M-0.1 170.84 C57.53 103.93, 115.81 37.61, 148.17 0.27 M0.29 176.48 C41.4 129.08, 79.97 84.71, 153.81 -0.12 M0.29 176.48 C58.36 112.2, 113.73 47.7, 153.81 -0.12 M2 180.61 C55.05 122.28, 107.88 59.24, 158.8 0.24 M2 180.61 C32.9 143.3, 65.21 107.5, 158.8 0.24 M7.64 180.22 C68.41 110.91, 127.95 43.47, 164.44 -0.16 M7.64 180.22 C47.21 135.01, 87.42 88.4, 164.44 -0.16 M12.63 180.58 C64.63 120.15, 116.14 60.22, 169.43 0.2 M12.63 180.58 C46.84 140.69, 84.12 98.18, 169.43 0.2 M18.27 180.18 C54.64 135.46, 93.44 94.14, 175.07 -0.19 M18.27 180.18 C73.42 115.63, 130.2 50.51, 175.07 -0.19 M23.26 180.54 C76 119.41, 127.94 62.8, 180.06 0.17 M23.26 180.54 C65.61 132.94, 107.7 84.44, 180.06 0.17 M28.9 180.15 C62.55 142.89, 92.74 105.57, 185.7 -0.23 M28.9 180.15 C73.08 127.15, 118.64 75.27, 185.7 -0.23 M33.89 180.51 C87.63 118.65, 141.15 56.66, 190.69 0.13 M33.89 180.51 C96.05 111.09, 156.58 41.32, 190.69 0.13 M39.53 180.11 C81.29 131.49, 125.17 79.96, 196.33 -0.26 M39.53 180.11 C78.63 133.29, 119.15 86.77, 196.33 -0.26 M44.52 180.47 C90.77 126.48, 136.14 74.01, 201.32 0.1 M44.52 180.47 C80.02 137.69, 114.78 97.17, 201.32 0.1 M50.16 180.08 C85.53 139.44, 121.74 98.92, 206.96 -0.3 M50.16 180.08 C111.06 109.03, 174.99 37.32, 206.96 -0.3 M55.15 180.44 C109.61 119, 159.67 59.51, 211.95 0.06 M55.15 180.44 C102.9 124.93, 150.41 70.62, 211.95 0.06 M60.79 180.05 C106.65 125.57, 152.79 74.62, 217.59 -0.33 M60.79 180.05 C103.86 130.25, 145.05 80.71, 217.59 -0.33 M65.78 180.41 C114.35 125.12, 159.51 72.53, 222.58 0.03 M65.78 180.41 C109.32 130.3, 154.8 79.62, 222.58 0.03 M71.42 180.01 C110.8 135.2, 151.61 87.97, 228.22 -0.36 M71.42 180.01 C126.18 118.47, 180.69 58, 228.22 -0.36 M76.41 180.37 C114.5 134.55, 156.17 91.59, 233.21 0 M76.41 180.37 C125.41 123.56, 175.3 67.14, 233.21 0 M82.05 179.98 C141.97 113.36, 198.38 46.49, 238.19 0.36 M82.05 179.98 C128.76 126.96, 174.75 72.19, 238.19 0.36 M87.04 180.34 C140.7 117.66, 195.64 55.55, 243.84 -0.04 M87.04 180.34 C133.93 126.32, 180.64 72.13, 243.84 -0.04 M92.02 180.7 C126.52 140.62, 160.03 103.8, 248.82 0.32 M92.02 180.7 C148.77 115.64, 203.06 50.79, 248.82 0.32 M97.67 180.3 C153.06 116.44, 209.46 54.88, 254.47 -0.07 M97.67 180.3 C133.42 139.33, 168.8 99.3, 254.47 -0.07 M102.66 180.66 C145.13 130.22, 188.46 82.23, 259.45 0.29 M102.66 180.66 C154.68 121.97, 206.05 63.05, 259.45 0.29 M108.3 180.27 C162.5 117.92, 213.67 61.06, 259.19 6.68 M108.3 180.27 C140.54 143.62, 173.68 105.38, 259.19 6.68 M113.29 180.63 C164.88 120.73, 215.94 60.97, 259.59 12.33 M113.29 180.63 C164.41 122.09, 215.06 63.38, 259.59 12.33 M118.93 180.23 C148.1 144.48, 177.94 112.53, 259.32 18.73 M118.93 180.23 C160.71 130.27, 203.57 81.31, 259.32 18.73 M123.92 180.59 C170.06 130.61, 212.8 79.12, 259.72 24.37 M123.92 180.59 C175.94 118.88, 228.88 59, 259.72 24.37 M129.56 180.2 C171.83 130.67, 217.92 79.42, 259.46 30.77 M129.56 180.2 C161.93 140.91, 196.31 103.22, 259.46 30.77 M134.55 180.56 C162.46 148.84, 194.3 112.36, 259.2 37.16 M134.55 180.56 C173.86 137.71, 211.29 94.5, 259.2 37.16 M140.19 180.16 C178.11 136.09, 218.75 89.69, 259.59 42.81 M140.19 180.16 C176.96 138.52, 213.86 95.03, 259.59 42.81 M145.18 180.52 C190.2 129.71, 232.8 83.25, 259.33 49.21 M145.18 180.52 C169.44 152.82, 192.28 126.18, 259.33 49.21 M150.82 180.13 C182.93 143.05, 214.74 106.5, 259.72 54.85 M150.82 180.13 C182.23 142.77, 216.02 106.08, 259.72 54.85 M155.81 180.49 C194.9 134.55, 234.75 91.82, 259.46 61.25 M155.81 180.49 C186.06 146.56, 215.4 112.37, 259.46 61.25 M161.45 180.1 C195.78 141.24, 230.59 103.76, 259.2 67.64 M161.45 180.1 C188.92 148.67, 216.8 116.41, 259.2 67.64 M166.44 180.46 C201.17 140.28, 236.43 102.47, 259.6 73.29 M166.44 180.46 C202 140.81, 238.38 98.23, 259.6 73.29 M172.08 180.06 C199.46 147.76, 227.5 116.11, 259.33 79.68 M172.08 180.06 C198.37 147.57, 226.2 115.43, 259.33 79.68 M177.07 180.42 C209.33 143.35, 242.89 107.29, 259.73 85.33 M177.07 180.42 C197.33 158.44, 214.69 135.83, 259.73 85.33 M182.71 180.03 C200.22 159.83, 213.95 143.02, 259.47 91.73 M182.71 180.03 C206.92 151.61, 231.98 124.46, 259.47 91.73 M187.7 180.39 C214.64 150.85, 241.81 119.25, 259.21 98.12 M187.7 180.39 C215.21 147.75, 243.93 117.2, 259.21 98.12 M193.34 179.99 C207.24 166.24, 220.34 147.66, 259.6 103.77 M193.34 179.99 C216.96 154.37, 240.38 125.67, 259.6 103.77 M198.33 180.35 C211.81 164.56, 226.94 147.24, 259.34 110.16 M198.33 180.35 C219 156.07, 239.94 132.84, 259.34 110.16 M203.31 180.71 C213.23 167.06, 225.21 154.33, 259.73 115.81 M203.31 180.71 C223.96 155.96, 247.62 130.36, 259.73 115.81 M208.96 180.32 C221.49 164.17, 234.24 149.61, 259.47 122.2 M208.96 180.32 C227.56 157.24, 246.41 135.91, 259.47 122.2 M213.94 180.68 C227.07 165.76, 242.83 146.18, 259.21 128.6 M213.94 180.68 C227.66 164.05, 243.39 146.28, 259.21 128.6 M219.59 180.28 C235.2 163.47, 247.95 146.19, 259.61 134.25 M219.59 180.28 C231.76 166.93, 245.01 152.17, 259.61 134.25 M224.57 180.64 C238.49 166.91, 249.17 151.85, 259.34 140.64 M224.57 180.64 C236.81 167.5, 248.27 152.33, 259.34 140.64 M230.22 180.25 C239.5 168.53, 248.5 159.91, 259.74 146.29 M230.22 180.25 C240.32 167.48, 251.05 155.28, 259.74 146.29 M235.2 180.61 C242.65 170.27, 250.45 165.13, 259.48 152.68 M235.2 180.61 C239.95 175.28, 244.94 168.09, 259.48 152.68 M240.85 180.21 C245.31 174.7, 246.67 170.42, 259.22 159.08 M240.85 180.21 C246.84 175.15, 251.21 169.11, 259.22 159.08 M245.83 180.57 C249.21 174.6, 256.68 168.93, 259.61 164.73 M245.83 180.57 C249.38 174.34, 255.29 170.65, 259.61 164.73 M251.48 180.18 C253.77 177.87, 253.81 176.72, 259.35 171.12 M251.48 180.18 C253.67 177.89, 255.38 176.3, 259.35 171.12 M256.46 180.54 C257.42 179.24, 259.02 177.19, 259.74 176.77 M256.46 180.54 C257.42 179.41, 258.42 178.4, 259.74 176.77 M-0.03 178.38 C-0.03 178.38, -0.03 178.38, -0.03 178.38 M-0.03 178.38 C-0.03 178.38, -0.03 178.38, -0.03 178.38 M6.36 178.64 C4.16 176.75, 2.32 175.53, 0.33 173.39 M6.36 178.64 C4.57 176.78, 2.14 175.45, 0.33 173.39 M12.01 178.24 C9.96 176.47, 6.47 175.44, -0.07 167.75 M12.01 178.24 C9.77 176.38, 5.45 172.88, -0.07 167.75 M18.4 178.51 C13.02 174.72, 7.92 170.46, 0.29 162.76 M18.4 178.51 C15.54 174.69, 10.56 172.86, 0.29 162.76 M24.05 178.11 C20.02 174.94, 15.97 169.28, -0.1 157.12 M24.05 178.11 C16.55 172.79, 9.82 165.77, -0.1 157.12 M30.45 178.37 C23.75 172.03, 17.57 165.7, 0.26 152.13 M30.45 178.37 C17.8 168.3, 7.04 157.29, 0.26 152.13 M36.84 178.63 C30.61 173.12, 21.46 164.21, -0.14 146.49 M36.84 178.63 C28.48 170.59, 17.5 162.57, -0.14 146.49 M42.49 178.24 C30.22 167.68, 19.38 156.1, 0.22 141.5 M42.49 178.24 C27.18 164.93, 13.22 153.99, 0.22 141.5 M48.88 178.5 C29.88 162.91, 14.7 146.82, -0.17 135.86 M48.88 178.5 C32.89 164.11, 17.62 152.3, -0.17 135.86 M54.53 178.11 C35.69 159.47, 13.03 142.45, 0.19 130.87 M54.53 178.11 C35.7 160.82, 15.5 143.99, 0.19 130.87 M60.92 178.37 C45.58 162.8, 31.47 152.85, -0.21 125.23 M60.92 178.37 C40.06 160.29, 16.83 140.69, -0.21 125.23 M67.32 178.63 C50.59 165.5, 35.19 151.8, 0.15 120.24 M67.32 178.63 C53.12 166, 37.35 153.92, 0.15 120.24 M72.97 178.23 C51.37 160.84, 31.24 144.27, -0.24 114.6 M72.97 178.23 C57.95 165.88, 41.24 150.91, -0.24 114.6 M79.36 178.5 C51.55 154.36, 27.69 132.35, 0.12 109.61 M79.36 178.5 C54.6 156.54, 28.87 133.55, 0.12 109.61 M85.01 178.1 C60.02 158.3, 34.83 136.94, -0.28 103.97 M85.01 178.1 C52.84 150.36, 19.71 122.55, -0.28 103.97 M91.4 178.36 C55.02 148.02, 22.85 116.12, 0.08 98.98 M91.4 178.36 C54.24 147.78, 18.66 114.91, 0.08 98.98 M97.8 178.62 C70.2 154.1, 42.9 129.52, -0.31 93.34 M97.8 178.62 C66.83 152.43, 36.97 127.34, -0.31 93.34 M103.45 178.23 C64.99 144.59, 25.93 109.01, 0.05 88.35 M103.45 178.23 C69.65 149.92, 36.27 120.17, 0.05 88.35 M109.84 178.49 C70.74 147.21, 33.97 115.33, -0.34 82.71 M109.84 178.49 C78.06 150.77, 45.7 122.6, -0.34 82.71 M115.49 178.1 C72.2 139.22, 29.56 104.86, 0.02 77.72 M115.49 178.1 C73.97 142.43, 33.78 104.95, 0.02 77.72 M121.88 178.36 C84.33 145.3, 47.59 110.42, 0.38 72.73 M121.88 178.36 C96.32 155.06, 71.12 133.5, 0.38 72.73 M128.28 178.62 C94.27 151.88, 61.38 123.28, -0.02 67.09 M128.28 178.62 C87.38 144.28, 47.82 109.74, -0.02 67.09 M133.92 178.22 C91.4 141.22, 51.11 103.89, 0.34 62.1 M133.92 178.22 C83.76 134.52, 34.3 90.48, 0.34 62.1 M140.32 178.49 C104.89 150.95, 73.18 121.86, -0.05 56.46 M140.32 178.49 C92.38 136.33, 45.71 94.79, -0.05 56.46 M145.97 178.09 C111.4 147.68, 79.1 119.05, 0.31 51.47 M145.97 178.09 C106.65 144.01, 66.66 110.74, 0.31 51.47 M152.36 178.35 C97.14 129.84, 39.42 79.95, -0.09 45.83 M152.36 178.35 C93.96 128.2, 37.4 77.57, -0.09 45.83 M158.76 178.61 C95.48 124.59, 32.33 68.09, 0.27 40.84 M158.76 178.61 C122.18 146.48, 84.46 113.01, 0.27 40.84 M164.4 178.22 C108.51 127.4, 52.49 78.38, -0.12 35.2 M164.4 178.22 C119.6 139.01, 74.18 98.03, -0.12 35.2 M170.8 178.48 C113.89 127.73, 55.39 79.97, 0.24 30.21 M170.8 178.48 C106.67 122.87, 44.58 68.91, 0.24 30.21 M176.45 178.09 C107.95 118.17, 40.41 57.56, -0.16 24.57 M176.45 178.09 C120.27 129.22, 64.25 82.22, -0.16 24.57 M182.84 178.35 C139.9 141.04, 95.76 102.13, 0.2 19.58 M182.84 178.35 C143.54 141.88, 102.25 106.18, 0.2 19.58 M189.24 178.61 C128.17 124.74, 66.89 71.03, -0.19 13.94 M189.24 178.61 C142.94 136.48, 95.71 97.38, -0.19 13.94 M194.88 178.21 C149.81 139.02, 101.07 98.93, 0.17 8.95 M194.88 178.21 C134.18 125.27, 73.16 72.53, 0.17 8.95 M201.28 178.48 C140.65 125.96, 85.14 78.09, -0.23 3.31 M201.28 178.48 C151.35 135.45, 100.12 89.98, -0.23 3.31 M206.92 178.08 C135.3 113.65, 60.69 50.74, 1.64 -0.37 M206.92 178.08 C126.1 109.03, 45.29 38.37, 1.64 -0.37 M213.32 178.34 C161 131.7, 108.88 86.23, 8.04 -0.11 M213.32 178.34 C166.87 139.1, 120.51 98.34, 8.04 -0.11 M219.72 178.6 C142.37 107.62, 60.82 39.05, 13.68 -0.5 M219.72 178.6 C177.93 141.76, 135.68 104.32, 13.68 -0.5 M225.36 178.21 C161.56 124.24, 100.14 71.89, 20.08 -0.24 M225.36 178.21 C171.08 133.07, 118.72 87.33, 20.08 -0.24 M231.76 178.47 C157.9 112.37, 82.15 47.24, 26.48 0.02 M231.76 178.47 C162.11 120.03, 93.77 60.74, 26.48 0.02 M238.16 178.73 C170.82 119.49, 104.78 63.18, 32.12 -0.37 M238.16 178.73 C167.31 117.81, 97.44 55.74, 32.12 -0.37 M243.8 178.34 C178.3 119.56, 109.06 59.97, 38.52 -0.11 M243.8 178.34 C177.35 122.93, 113.46 66.51, 38.52 -0.11 M250.2 178.6 C182.85 121.2, 114.43 60.68, 44.16 -0.5 M250.2 178.6 C187.24 126.28, 126.19 73.37, 44.16 -0.5 M255.84 178.21 C185.15 113.9, 113.29 54.1, 50.56 -0.24 M255.84 178.21 C184.38 116.67, 112.01 53.57, 50.56 -0.24 M259.98 176.5 C185.1 111.22, 110.15 47.33, 56.96 0.02 M259.98 176.5 C210.71 134.05, 162.82 92.58, 56.96 0.02 M259.58 170.86 C204.77 120.5, 147.84 75.43, 62.6 -0.38 M259.58 170.86 C218.34 134.75, 176.87 99.42, 62.6 -0.38 M259.94 165.87 C188.48 104, 117.29 43.08, 69 -0.11 M259.94 165.87 C205.66 118.21, 149.04 70.01, 69 -0.11 M259.55 160.23 C215.37 122.48, 170.35 83.16, 74.64 -0.51 M259.55 160.23 C205.35 111.34, 150.98 65.3, 74.64 -0.51 M259.91 155.24 C203.26 106.94, 145.74 58.34, 81.04 -0.25 M259.91 155.24 C209.36 111.38, 157.37 68.23, 81.04 -0.25 M259.51 149.6 C202.97 101.38, 144.25 49.11, 87.44 0.01 M259.51 149.6 C193.31 91.27, 127.31 34.95, 87.44 0.01 M259.87 144.61 C215.4 102.98, 168.64 60.82, 93.08 -0.38 M259.87 144.61 C216.82 108.2, 173.83 70.05, 93.08 -0.38 M259.48 138.96 C213.5 99.24, 166.77 57.56, 99.48 -0.12 M259.48 138.96 C208.85 95.47, 159.85 52.11, 99.48 -0.12 M259.84 133.98 C203.28 84.96, 148.94 33.65, 105.12 -0.51 M259.84 133.98 C204.39 85.97, 146.08 36.12, 105.12 -0.51 M260.2 128.99 C223.03 98.14, 185.01 66.25, 111.52 -0.25 M260.2 128.99 C220.11 93.84, 180.45 58.16, 111.52 -0.25 M259.8 123.35 C204.44 75.46, 149.51 26.85, 117.92 0.01 M259.8 123.35 C208.47 76.71, 156.05 33.33, 117.92 0.01 M260.16 118.36 C206.12 71.33, 151.23 25.39, 123.56 -0.39 M260.16 118.36 C220.22 82.96, 178.63 48.17, 123.56 -0.39 M259.77 112.72 C209.71 68.21, 158.08 25.97, 129.96 -0.12 M259.77 112.72 C220.8 76.25, 180.1 41.82, 129.96 -0.12 M260.13 107.73 C228 80.31, 191.03 50.27, 135.6 -0.52 M260.13 107.73 C233.73 84.27, 206.15 63.1, 135.6 -0.52 M259.73 102.09 C222.09 69.65, 186.94 36.23, 142 -0.26 M259.73 102.09 C225.51 73.71, 191.9 45.04, 142 -0.26 M260.1 97.1 C225.01 66.86, 185.57 34.58, 148.4 0 M260.1 97.1 C229.54 71.01, 199.01 44.63, 148.4 0 M259.7 91.46 C222.93 62.4, 187.91 30.09, 154.04 -0.39 M259.7 91.46 C231.51 68.22, 205.44 43.25, 154.04 -0.39 M260.06 86.47 C225.37 57.94, 194.13 30.51, 160.44 -0.13 M260.06 86.47 C230.78 61.22, 202.46 35.89, 160.44 -0.13 M259.67 80.83 C230.48 52.62, 199.35 26.62, 166.08 -0.52 M259.67 80.83 C239.58 62.74, 219.41 44.58, 166.08 -0.52 M260.03 75.84 C227.16 47.48, 199.87 21.58, 172.48 -0.26 M260.03 75.84 C230.32 49.34, 199.23 23.1, 172.48 -0.26 M259.63 70.2 C243.82 56.1, 224.73 41.69, 178.88 0 M259.63 70.2 C236.8 50.68, 216.08 31.06, 178.88 0 M259.99 65.21 C231.03 37.4, 200.57 12.69, 184.52 -0.4 M259.99 65.21 C237.82 45.23, 217.21 26.49, 184.52 -0.4 M259.6 59.57 C245.87 45.47, 231.2 33.42, 190.92 -0.13 M259.6 59.57 C238.6 40.77, 215.95 22.69, 190.92 -0.13 M259.96 54.58 C235.56 34.16, 212.54 14.61, 196.56 -0.53 M259.96 54.58 C245.99 42.22, 233.65 30.18, 196.56 -0.53 M259.56 48.94 C241.58 32.33, 220.68 14.75, 202.96 -0.27 M259.56 48.94 C240.09 32.07, 219.37 14.31, 202.96 -0.27 M259.92 43.95 C242.22 28.84, 224.46 11.98, 209.36 -0.01 M259.92 43.95 C242.04 28.84, 223.48 12.14, 209.36 -0.01 M259.53 38.31 C243.38 22.55, 227.73 10.3, 215 -0.4 M259.53 38.31 C251.04 30.07, 240.77 22.44, 215 -0.4 M259.89 33.32 C251.82 27.46, 242.52 19.62, 221.4 -0.14 M259.89 33.32 C250.57 25.92, 241.99 17.31, 221.4 -0.14 M259.49 27.68 C252.48 18.71, 243.86 13.9, 227.04 -0.53 M259.49 27.68 C252.35 22.74, 244.99 15.64, 227.04 -0.53 M259.85 22.69 C249.56 15.49, 243.87 5.98, 233.44 -0.27 M259.85 22.69 C250.84 15.28, 243.06 8.87, 233.44 -0.27 M259.46 17.05 C254.72 11.7, 244.61 6.2, 239.84 -0.01 M259.46 17.05 C254.23 11.73, 248.64 6.51, 239.84 -0.01 M259.82 12.06 C254.16 7.53, 247.78 4.34, 245.48 -0.41 M259.82 12.06 C255.75 7.37, 249.85 2.94, 245.48 -0.41 M260.18 7.07 C258.83 5.29, 254.79 4.37, 251.88 -0.14 M260.18 7.07 C257.6 4.89, 255.78 2.61, 251.88 -0.14 M259.78 1.43 C259 0.79, 258.36 0.33, 257.52 -0.54 M259.78 1.43 C258.96 0.83, 258.18 -0.06, 257.52 -0.54" stroke="#b2f2bb" stroke-width="0.5" fill="none"></path><path d="M0 0 C87.12 2.59, 169.96 0.23, 259.22 0 M0 0 C74.9 0.29, 150.46 -0.21, 259.22 0 M259.22 0 C259.58 63.7, 257.83 123.74, 259.22 178.41 M259.22 0 C261.53 53.47, 261.27 105.39, 259.22 178.41 M259.22 178.41 C170.6 179.44, 79.92 179.73, 0 178.41 M259.22 178.41 C169.45 177.09, 80.91 177.95, 0 178.41 M0 178.41 C-0.75 116.84, 0.08 57.16, 0 0 M0 178.41 C0.95 137.4, 0.86 95.45, 0 0" stroke="#1e1e1e" stroke-width="1" fill="none"></path></g><g stroke-linecap="round" transform="translate(22.56326060089441 23.895445810066576) rotate(0 111.37483359149431 16.805921181325232)"><path d="M0 0 C64.93 -0.01, 129.53 -0.14, 222.75 0 M222.75 0 C222.94 8.77, 222.95 16.83, 222.75 33.61 M222.75 33.61 C145.37 33.02, 67.95 33.52, 0 33.61 M0 33.61 C0.1 22.11, -0.09 11.25, 0 0" stroke="#1e1e1e" stroke-width="1.5" fill="none" stroke-dasharray="8 9"></path></g><g stroke-linecap="round" transform="translate(25.148114394283596 116.63036405604234) rotate(0 111.37483359149431 30.193688902041984)"><path d="M0 0 C85.76 -0.62, 168.85 -0.93, 222.75 0 M222.75 0 C223.49 17.22, 223.85 38.73, 222.75 60.39 M222.75 60.39 C169.79 60.44, 120.01 60.22, 0 60.39 M0 60.39 C-0.32 44.05, 1.4 27.65, 0 0" stroke="#1e1e1e" stroke-width="1.5" fill="none" stroke-dasharray="8 9"></path></g><g stroke-linecap="round"><g transform="translate(32.81772098271949 36.87113721815308) rotate(0 76.0539144985396 -1.709076730304261)"><path d="M0 0 C58.75 -1.33, 117.8 -2.7, 152.11 -3.42" stroke="#1e1e1e" stroke-width="1.5" fill="none" stroke-dasharray="1.5 7"></path></g></g><mask></mask><g stroke-linecap="round"><g transform="translate(32.81772098271949 50.67098125150005) rotate(0 45.29053335306298 0.00934922322527143)"><path d="M0 0 C32.75 0.02, 65.5 0.03, 90.58 0" stroke="#1e1e1e" stroke-width="1.5" fill="none" stroke-dasharray="1.5 7"></path></g></g><mask></mask><g stroke-linecap="round"><g transform="translate(35.1177286543919 130.58782402019378) rotate(0 27.060381563150827 -0.5696922434347584)"><path d="M0 0 C18.64 -0.33, 36.9 -0.67, 54.12 -1.14" stroke="#1e1e1e" stroke-width="1.5" fill="none" stroke-dasharray="1.5 7"></path></g></g><mask></mask><g stroke-linecap="round"><g transform="translate(36.82680538469623 145.39982234949738) rotate(0 72.3509149162137 -0.04373518562512402)"><path d="M0 0 C47.17 0.07, 94.96 -0.25, 144.7 0" stroke="#1e1e1e" stroke-width="1.5" fill="none" stroke-dasharray="1.5 7"></path></g></g><mask></mask><g stroke-linecap="round"><g transform="translate(37.39649762813116 165.9087431131485) rotate(0 54.120763126301654 -1.424230608586896)"><path d="M0 0 C35.74 -1.22, 71.1 -2.09, 108.24 -2.85" stroke="#1e1e1e" stroke-width="1.5" fill="none" stroke-dasharray="1.5 7"></path></g></g><mask></mask><g stroke-linecap="round" transform="translate(23.246958316995432 63.52751151082052) rotate(0 111.3748335914943 22.511586664256953)"><path d="M0 0 C88.14 0.14, 178.04 0.46, 222.75 0 M222.75 0 C223.56 13.71, 223.44 27.9, 222.75 45.02 M222.75 45.02 C151.26 45.32, 78.56 45.59, 0 45.02 M0 45.02 C0.16 32.46, -0.14 21.42, 0 0" stroke="#1e1e1e" stroke-width="1.5" fill="none" stroke-dasharray="8 9"></path></g><g transform="translate(111.58012587760595 76.03909817507747) rotate(0 23.04166603088379 10)"><text x="23.04166603088379" y="0" font-family="Virgil, Segoe UI Emoji" font-size="16px" fill="#1e1e1e" text-anchor="middle" style="white-space: pre;" direction="ltr" dominant-baseline="text-before-edge">Image</text></g></svg>