<svg  version="1.1" xmlns="http://www.w3.org/2000/svg" viewBox="0 0 271.6782918536963 140.7968708634889" width="815.0348755610889" height="422.3906125904667">
  <!-- svg-source:excalidraw -->

  <g stroke-linecap="round" transform="translate(10 10) rotate(0 125.83914592684815 60.39843543174444)"><path d="M0 0 C0 0, 0 0, 0 0 M0 0 C0 0, 0 0, 0 0 M-0.96 5.73 C1.5 3.69, 3.91 1.31, 4.76 -0.26 M-0.42 6.48 C1.12 5.39, 1.57 4.13, 5.22 0.21 M0.94 12.48 C1.69 9.02, 3.07 7.25, 11.07 -0.62 M-0.24 12.45 C2.15 8.71, 4.59 5.69, 10.38 0.56 M1.31 20.14 C3.73 13.3, 5.33 10.82, 15.45 1.71 M-1.06 18.87 C4.41 14.27, 8.07 8.93, 15.04 -0.03 M-0.76 23.87 C5.96 18.98, 9.74 13.91, 23.01 -0.1 M0.73 24.4 C6.32 18.58, 11.88 12.4, 20.77 -0.7 M0.41 29.37 C9.59 21.69, 16.46 9.1, 28.04 -0.07 M0.15 31.34 C4.07 24.22, 9.48 18.91, 26.69 -0.54 M-0.2 36.94 C6.84 27.4, 12.98 21.79, 32.6 -0.87 M-1.17 36.11 C5.69 29.37, 12.91 21.24, 32.85 -0.5 M-1.85 40.58 C11.38 30.28, 22.27 17.68, 37.54 -1.1 M0.35 42.66 C8.83 32.45, 16.44 24.12, 37.28 0.88 M0.12 49.11 C17.37 28.75, 32.1 9.22, 41.93 -0.51 M0.72 48.89 C13.11 32.19, 27.48 17.7, 42.65 0.53 M1.12 53.69 C18.74 34.7, 32.84 13.7, 46.02 0.83 M0.32 54.38 C17.49 34.82, 34.81 14.97, 47.46 0.99 M-1.77 60.69 C14.27 46.82, 27.91 30.19, 54.66 1.32 M-0.9 60.59 C17.26 40.65, 33.62 21.67, 52.65 -0.54 M0.97 67.19 C12.35 49.57, 30.91 31.15, 56.25 -1.3 M0.56 66.63 C23.6 42.5, 44.72 16.08, 58.79 -0.08 M1.54 74.07 C22.85 45.83, 48.29 17.81, 62.19 0.77 M0.19 73.64 C12.56 57.92, 26.94 42.09, 64.71 0.22 M-0.98 81.08 C21.09 52.64, 41.11 28.64, 69.76 -1.71 M-1.07 80.14 C27.03 47.73, 56.36 17.21, 68.69 0.16 M0.18 84.37 C14.93 67.61, 29.1 49.69, 73.64 -0.27 M0.14 84.84 C21.82 57.82, 45.28 31.09, 75.09 0.6 M0.37 91.38 C20.76 68.18, 43.26 43.86, 80.76 0.13 M-0.26 91.77 C30.22 54.32, 62.68 18.05, 79.51 -0.45 M0.35 98.28 C23.48 67.84, 51.06 39.51, 85.83 -0.11 M-0.71 97.11 C33.24 60.56, 65.4 22.72, 85.45 -0.74 M-1.53 105.16 C32.17 67.12, 64.31 26.14, 90.2 1.57 M-0.68 102.5 C33.53 63.9, 66.66 26.19, 89.46 0.3 M0.93 109 C30.34 74.31, 60.52 37.4, 97.33 0.73 M-0.13 109.45 C28.4 76.93, 58.94 41.87, 95.82 -1.3 M0.5 115.27 C24.2 86.81, 44.83 61.32, 99.73 -1.28 M0.4 115.13 C21.17 91.64, 40.67 66.98, 101.66 -0.02 M0.2 122.01 C38.63 77.81, 78.86 29.77, 106.4 1.5 M1.67 121.74 C23.34 94.58, 48.62 66.43, 105.63 0.29 M6.61 120.31 C47.47 71.68, 88.96 28.42, 109.75 0.46 M6.33 121.32 C43.14 78.87, 80.25 35.92, 111.09 0.5 M12.35 121.01 C42.6 83.89, 74.92 45.84, 116.38 -0.02 M11.57 121.66 C32.44 97.44, 53.01 71.7, 116.06 0.02 M17.4 122.67 C52.22 84.69, 83.35 44.82, 121.33 -1.53 M15.64 120.6 C53.24 79.13, 90.41 36.5, 121.66 -0.84 M21.27 122.37 C42.14 98.88, 64.48 73.36, 128.28 -0.52 M22.31 120.11 C56.25 78.87, 90.85 39.15, 127.61 0.48 M27.96 122.59 C52.11 90.06, 79.03 61.36, 134.32 1.21 M26.98 121.42 C63.34 77.69, 100.06 37.07, 133.15 -0.4 M31.4 119.93 C64.34 84.17, 94.31 49.83, 138.89 -0.64 M32.36 121.07 C60.86 90.03, 89.75 56.5, 137.25 0.35 M36.35 120.03 C69.96 82.61, 106.81 45.27, 141.23 -0.08 M36.62 122.04 C75.12 80.1, 112.24 35.89, 142.23 0.81 M43.9 122.3 C69.16 94.7, 90.33 64.76, 149.34 1.99 M43.07 121.83 C70.69 89.75, 98.08 56.7, 147.96 0.45 M48.34 122.76 C71.27 93.22, 95.21 68.85, 153.34 -1.4 M48.27 121.57 C86.5 76.14, 126.29 29.64, 153.47 0.16 M54.65 122.86 C78.23 97.06, 101.75 69.22, 158.49 -0.47 M53.71 120.08 C91.47 77.97, 127.29 36.2, 159.13 -0.56 M59.41 120.3 C82.04 94.78, 104.48 65.94, 162.6 0.07 M57.97 121 C89.44 87.03, 121.02 50.82, 164.31 0.38 M64.25 121.79 C98.15 85.08, 130.9 43.93, 168.94 -0.09 M64.4 120.85 C100.73 77.51, 136.91 34.61, 169.53 0.85 M68.78 121.96 C95.37 90.5, 122.08 61.37, 175.72 -0.1 M69.21 122.16 C113.28 71.55, 154.89 23.06, 174.1 0.54 M76.02 120.06 C101.28 87.33, 131.38 54.89, 180.99 0.87 M75.19 121.53 C103.28 89.65, 131.53 58.13, 180.32 0.07 M81.37 122.85 C107.89 87.97, 134.92 56.75, 184.1 0.45 M79.83 120.76 C106.73 90.69, 133.81 61.5, 185.09 -0.92 M85.34 122.14 C119.46 81.37, 155.69 38.81, 190.65 -0.1 M84.34 121.64 C116.87 84.7, 149.13 47.73, 190.08 -0.66 M89.82 121.84 C119.87 86.56, 147.88 53.65, 197.88 0.87 M91.07 121.34 C131.67 74.42, 170.49 28.95, 195.39 -1.19 M96.28 123.06 C121.72 92.14, 149.32 59.23, 199.66 0.28 M95.97 120.76 C119.28 94.45, 141.86 67.17, 201.73 0.77 M100.51 119.6 C131.97 82.28, 166.15 46.57, 207.9 -0.92 M100.57 120.33 C127.98 91, 153.46 62.36, 206.02 -0.12 M107.65 122.85 C130.28 94.55, 154.91 66.77, 213.49 1.09 M107.14 122.14 C125.84 96.67, 147.43 71.17, 211.62 -0.69 M111.52 120.55 C139.37 89.12, 166.65 56.48, 215.74 -2.22 M111.35 121 C137.83 90.1, 165.21 60.81, 217.9 -1.19 M117.64 121.61 C160.08 71.57, 202.19 26.69, 223.31 -0.84 M117.44 120.59 C156.23 75.22, 196.48 29.05, 222.47 -0.2 M122.64 122.93 C144.34 95.5, 170.4 66.82, 227.67 -1.53 M122.84 120.49 C154.34 84.75, 186.36 47.71, 228.81 -0.53 M129.18 122.2 C160.73 83.98, 193.28 45.22, 232.02 -0.87 M127.35 122.32 C160.41 85.48, 191.81 48.66, 232.41 -0.09 M133.4 120.72 C175.8 71.36, 215.22 23.04, 240.06 0.17 M133.82 120.79 C164.41 84.81, 195.13 47.72, 237.79 0.87 M139.88 120.25 C172.97 83.74, 208.54 40.95, 244.23 -0.6 M137.26 121.86 C166.95 88.28, 196.1 52.38, 243.94 -0.82 M145.04 121.73 C180.38 79.89, 213.92 40.1, 247.93 -1.59 M143.51 121.76 C167.42 94.2, 189.45 68.86, 248.74 1.08 M148.11 122.2 C188.84 78.96, 225.98 32.1, 254.96 -0.33 M148.42 121.14 C174.1 92.34, 200.42 63.62, 253.65 1.53 M154.52 121.51 C185.06 83.55, 218.7 50.65, 253.17 6.58 M154.49 120.11 C176.61 97.36, 196.24 73.92, 253.55 7.61 M158.92 123.24 C192.07 82.68, 223.76 46.58, 254.4 12.98 M160 120.41 C183.94 94.68, 207.75 66.06, 253.96 14.28 M164.52 121.41 C197.58 84.55, 230.63 46.18, 253.59 20.53 M165.73 120.41 C196.62 86.21, 226.72 52.12, 252.26 19.03 M170.1 121.37 C201.01 85.17, 233.88 49.84, 253.5 24.5 M170.05 121.3 C188.55 99.47, 208.4 77.1, 253.73 25.97 M177.42 122.55 C194.41 98.56, 215.17 75.74, 254.98 30.85 M175.6 120.1 C194.59 101.14, 211.86 79.09, 254 32.2 M182.16 119.35 C207.07 93.14, 230.78 62.49, 251.74 35.77 M180.49 121.81 C195.83 104.84, 209.26 87.58, 253.04 37.59 M185.35 119.85 C204.04 99.1, 222.98 77.81, 253.28 42.49 M186.87 120.47 C202.16 104.81, 216.47 86.39, 254.28 44.93 M192.32 122.73 C211.98 95.83, 232.37 71.54, 251.69 48.86 M192.17 121.27 C207.12 103.73, 222.56 85.23, 252.68 49.73 M195.48 120.75 C213.28 102.34, 229.84 85.06, 251.82 56.4 M197.03 122.42 C207.27 108.26, 220.56 94.54, 253.12 56.6 M200.53 121.85 C216.06 105.51, 226.65 94.08, 251.57 61.36 M201.8 121.4 C222.33 98.41, 240.46 76.69, 253.84 62.58 M206.69 120.21 C218.7 108.93, 229.92 95.7, 253.97 69.06 M207.92 122.45 C224.22 102.31, 242.46 81.41, 252.79 68.72 M211.45 121.81 C225.73 104.47, 236.33 93.14, 251.39 72.9 M212.99 121.26 C223.19 109.33, 232.68 97.35, 253.08 73.45 M219.57 123.24 C228.99 111.12, 238.5 97.93, 251.79 79.49 M216.83 122.19 C229.57 109.84, 239.24 96.84, 253.41 80.9 M224.45 120.51 C234.32 106.89, 246.21 92.31, 253.5 88.14 M223.24 120.28 C230.86 112.35, 238.99 103.86, 254.06 86.75 M229.12 119.87 C234.12 111.5, 243.1 104.81, 252.12 91.74 M228.08 122.37 C236.39 114.03, 242.19 106.08, 254.04 92.35 M235.64 122.62 C240.24 113.37, 246.97 107.63, 251.33 100.27 M232.95 121.23 C240.24 111.82, 248.84 104.96, 253.13 98.52 M238.06 119.92 C240.25 120.09, 246.8 116.55, 253.13 105.89 M239.37 120.58 C243.83 115.13, 248.09 110.17, 254.26 103.92 M244.07 121.43 C248.2 118.52, 250.49 113.87, 253.67 110.46 M244.44 121.21 C247.11 118.25, 248.19 116.64, 253.03 110.71 M249.89 121.94 C250.1 120.47, 251.28 119.58, 253.53 116.91 M249.29 121.72 C250.44 120.64, 251.32 119.66, 253.18 117.21 M-0.19 120.63 C-0.19 120.63, -0.19 120.63, -0.19 120.63 M-0.19 120.63 C-0.19 120.63, -0.19 120.63, -0.19 120.63 M5.96 120.49 C4.69 118.28, 0.96 116.39, -0.62 115.3 M6.12 121.01 C4.48 119.31, 2.8 117.91, 0.08 115.45 M10.52 119.57 C9 117.99, 6.9 116.19, -1.52 109.16 M11.31 120.4 C8.22 117.98, 5.22 115.05, -0.53 109.3 M17.5 120.79 C14.69 116.6, 9.07 111.63, -0.55 106.25 M18.01 120.49 C14.21 118.28, 10.76 114.38, 0.27 105.97 M25.65 120.02 C21.02 117.25, 13.78 111.3, -0.8 100.23 M25.6 121.66 C19.55 116.04, 14.02 111.28, -0.98 99.27 M28.83 122.18 C18.57 111.68, 7.77 101.17, 1.36 95.76 M30.84 120.78 C20.18 111.47, 8.66 102.38, -0.51 93.81 M35.82 122.55 C24.96 111.04, 14.96 101.73, 0.83 88.57 M37.05 121.54 C28.48 113.67, 19.79 105.55, 0.38 89.41 M42.86 118.79 C32.45 111.94, 23.58 102.75, 1.7 85.3 M42.14 120.93 C30.25 109.45, 15.69 98.36, -0.37 84.3 M47.87 118.95 C33.93 109.71, 23.27 97.29, 1.42 79.09 M49.01 120.6 C35.63 110.18, 22.37 98.24, -0.16 78.96 M55.37 121.76 C35.52 105.71, 17.19 87.91, 0.99 73.62 M55.71 121.34 C34.37 104.22, 14.22 86.27, 0.65 73.44 M58.93 121.35 C44.66 106.2, 25.1 91.8, 1.11 66.7 M60.1 121.16 C37.38 99.43, 11.69 78.42, 0.16 67.22 M65.6 122.07 C47.62 101.3, 25.94 85.65, 0.44 62.29 M67.51 120.31 C50.17 105.64, 31.89 91.73, -0.63 62.56 M70.84 120.69 C51.13 99.74, 26.33 80.9, 0.47 58.75 M71.85 120.85 C48.71 100.16, 25.2 80.86, 0.26 57 M78.74 120.45 C46.35 93.98, 18.36 67.94, -0.01 53.63 M79.11 120.95 C53.01 97.26, 24.49 73.92, 0.5 51.39 M84.92 121.32 C61.33 100.71, 41.14 82.99, -0.45 46.4 M86.41 120.38 C60.71 100.51, 35.41 77.91, 1.14 46.99 M92.99 118.73 C67.55 101.46, 44.33 80.86, 0.32 40.75 M91.74 121.59 C68.89 99.72, 44.98 80.34, -0.33 40.97 M96.97 120.41 C68.48 94.9, 40 71.3, 0.37 34.56 M98.58 121.78 C59.86 86.67, 21.31 53.39, -0.49 36.72 M102.23 118.55 C69.97 93.14, 38.13 64.86, 0.8 29.54 M104.03 121.4 C64.86 86.97, 27.78 53.4, 0.37 30.73 M107.72 121.9 C74.13 87.6, 38.78 58.97, 1.93 25.25 M109.29 121.47 C86.01 99.68, 60.76 76.43, -0.31 24.92 M114.84 119.97 C87.6 96.27, 55.03 71.14, 1.52 20.68 M115.73 120.09 C91.69 100.24, 68.09 79.68, -1 19.47 M121.91 119.83 C87.2 89.18, 54.19 63.64, -1.07 16.3 M121.62 120.53 C90.43 95.34, 59.74 67.42, -0.62 15.18 M128.64 120.87 C80.09 82.09, 34.98 42.45, 1.31 7.63 M127.75 120.25 C98.91 94.56, 68.37 68.27, -0.17 10.32 M134.99 121.03 C103.61 95.23, 75.48 69.76, -0.19 3.3 M134.56 120.43 C97.96 89.48, 62.16 59.44, 0.7 4.95 M141.44 118.87 C103.07 87.54, 68.47 58.14, 0.46 -0.72 M139.62 120.29 C105.25 90.13, 72 62.17, 0.8 -1.56 M147.86 119.78 C110.6 87.1, 76.51 59.8, 7.49 -0.46 M146.71 120.63 C107.04 86.28, 68.67 52.95, 7.91 0.43 M154 118.74 C114.05 89.84, 80.46 55.52, 11.79 -2.17 M151.52 120.83 C99.23 75.98, 48.34 30.09, 13.53 -0.13 M157.9 121.14 C122.26 90.96, 85.13 57.76, 18.33 0.85 M158.3 120.99 C121.84 91.04, 85.92 59.94, 19.41 0.49 M164.82 118.99 C123.73 84.33, 81.03 49.75, 22.95 -2.76 M164.02 120.35 C125.1 88.47, 89.63 55.61, 24.66 -0.99 M169.46 118.95 C127.12 85.79, 87.16 46.32, 32.64 -0.41 M170.75 120.71 C114.68 72.28, 61.52 25.95, 31.18 -0.45 M176.87 122.6 C132.05 80.19, 86.14 41.63, 36.4 -1.26 M177.85 120.85 C129.04 78.14, 80.55 35.98, 36.78 -0.92 M180.87 119.17 C150.97 93.34, 116.36 62.71, 41.72 -1.52 M182.59 120.68 C152.76 94.08, 121.82 66.6, 42.88 -1.5 M188.55 120.36 C136.36 75.5, 83.69 29.14, 49.02 0.39 M189.84 120.21 C144.21 79.67, 97.91 39.76, 49.13 -1.29 M195.15 118.54 C146.58 82.12, 105.19 40.65, 56.58 0.02 M195.22 121.15 C153.4 85.07, 112.07 46.79, 55.58 -0.91 M200.27 120.8 C160.53 83.1, 116.61 45.53, 62.71 -1.02 M200.5 121.15 C158.01 83.58, 114.41 44.98, 61.09 -1.13 M206.81 119.22 C157.82 75.85, 106.54 31.99, 66.72 1.15 M206.73 121.39 C158.17 79.24, 110.02 38.2, 67.47 -0.42 M213.4 121.58 C161.23 74.3, 107.27 26.25, 75.32 -2.55 M213.95 121.58 C176.25 87.39, 138.57 53.06, 74.16 -0.8 M220.83 120.21 C190.56 91.59, 158.89 68.18, 79.1 0.62 M219.81 120.06 C179.48 85.09, 138.73 48.82, 79.88 -0.88 M225.77 120.8 C174.85 75.73, 125.87 34.91, 87.42 -0.52 M226.48 120.93 C171 73.95, 114.42 26.38, 85.77 -0.28 M231.15 119.23 C194.09 90.73, 157.82 58.6, 92.64 0.94 M231.31 120.14 C202.62 94.78, 172.7 70.38, 92.8 -1.32 M238.67 120.35 C183.71 74.94, 132.28 28.71, 97.04 0.24 M238.5 120.53 C193.95 81.42, 150.06 44.57, 98.95 0.48 M243.68 120.17 C201.13 82.18, 153.69 43.19, 105.24 -0.27 M244.22 121.33 C212.68 93.38, 182.69 65.6, 104.84 -0.54 M251.39 119.91 C210.98 86.67, 174.02 55.38, 110.68 -2.33 M250.06 120.53 C208.78 85.5, 169.52 50.65, 110.4 -0.11 M252.78 117.68 C202.96 76.49, 149.85 30.42, 116.51 0.41 M253.14 117.71 C203.59 76.29, 153.61 32.53, 117.01 -1.51 M251.85 113.04 C216.38 82.37, 181.23 50.1, 121.83 -1.52 M254.55 113.06 C222.82 86.04, 190.98 57.16, 121.94 -0.29 M252.27 108.63 C227.39 84.74, 201.41 63.6, 130.55 -1.19 M254.29 108.12 C213.18 73.82, 172.13 38.2, 128.47 0.32 M252.55 104.24 C218.87 72.23, 184.12 40.44, 133.91 -2.51 M253.6 102.28 C220.77 72.78, 185.05 42.29, 134.55 -0.6 M252.01 97.76 C213.02 58.58, 170.81 22.31, 142.89 -1.41 M253.15 96.87 C216.78 67.94, 181.25 35.64, 140.5 -0.59 M254.94 91.14 C231.57 70, 206.71 51.29, 147.11 0.33 M254.46 91.54 C231.26 70.52, 207.5 50.36, 146.09 -0.24 M252.8 88.05 C227.54 65.82, 201.4 40.87, 151.06 1.18 M254.26 87.08 C233 69.22, 212.93 50.65, 152.02 -0.96 M252.41 79.86 C229.84 61.66, 205.19 43.81, 161.04 -1.96 M253.98 81.77 C231.22 63.07, 208.82 43.97, 159.05 -1.37 M254.14 75.27 C221.15 47.39, 185.32 16.13, 165.55 1.09 M254.07 76.24 C219.41 46.28, 187.02 18.06, 165.62 -0.32 M252.08 70.32 C223.63 45.89, 197.5 21.61, 169.8 -1.52 M253.44 71.77 C221.9 43.83, 189.31 15.49, 170.58 -0.77 M252.25 65.97 C231.8 47.58, 209.88 28.84, 176.57 0.64 M253.89 65.19 C234.5 48.36, 214.11 32.16, 177.26 -1.33 M252.78 62.19 C241.06 48.9, 225.99 33.25, 184.47 0.27 M253.49 61.18 C229.67 40.32, 204.86 18.53, 183.96 -0.89 M254.08 55.49 C235.4 36.56, 216.95 21.16, 188.8 0.59 M252.96 55.13 C240.24 43.28, 226.26 32.17, 190.04 -0.14 M255.06 48.96 C236.26 38.09, 221.92 25.5, 196.07 0.14 M253.15 49.51 C237.74 37.4, 222.75 23.5, 194.61 -1.48 M252.04 46.58 C236.44 27.7, 218.31 13.58, 200.38 -0.5 M254.13 45.31 C241.9 33.92, 230.12 24.04, 202.2 0.01 M255.2 39.88 C243.74 26.74, 228.68 17.68, 206.37 -0.4 M252.87 39.14 C241.42 29.91, 231.41 19.83, 207.86 -1.92 M255.01 32.83 C243.88 22.43, 232.03 14.33, 213.43 -0.31 M253.9 33.31 C244.2 25.1, 232.78 17.17, 214.62 -0.32 M255.17 29.98 C242.19 17.57, 229.62 7.54, 218.6 -0.38 M253.46 28.29 C242.61 18.28, 231.73 10.06, 220.65 0.41 M254.83 24.57 C245.02 18.96, 238.02 11.72, 225.03 -1.4 M253.92 24.09 C247.64 18.01, 239.78 11.64, 226.84 -0.36 M252.71 18.08 C246.93 10.04, 238.23 7.46, 232.43 -0.03 M253.14 18.06 C246.3 12.67, 241.86 7.02, 231.57 -1.47 M253.33 12.26 C248.82 7.07, 241.68 2.54, 237.97 -0.56 M252.96 12.28 C247.83 8.4, 243.91 3.65, 238.76 -1.45 M254.51 8.14 C250.25 5.94, 248.19 3.26, 243.27 0.42 M252.88 7.31 C251.16 4.92, 249.22 3.32, 244.37 -0.99 M253.65 2 C252.65 0.87, 251.89 0.31, 250.93 -0.75 M253.98 2.15 C253.09 1.65, 252.42 1.05, 250.71 -0.22" stroke="#a5d8ff" stroke-width="0.5" fill="none"></path><path d="M0.75 -0.95 C73.72 2.11, 142.86 3.04, 251.5 -0.28 M-0.27 0.76 C51.11 -0.54, 104.21 -0.67, 251.67 -0.58 M250.06 -0.72 C254.05 46.2, 252.01 91.51, 251.19 121.59 M252.56 -0.03 C250.61 29.1, 250.05 58.47, 251.46 121.1 M251.81 122.36 C194.72 123.48, 138.75 123.44, 0.19 120.98 M251.97 120.1 C191.72 122.29, 129.41 122.03, 0.44 121.42 M1.72 119.18 C-0.71 96.11, 0.5 69.72, 1.97 0.21 M0.73 120.17 C0.32 74.04, -0.62 27.24, 0.03 0.08" stroke="#1e1e1e" stroke-width="1" fill="none"></path></g><g stroke-linecap="round" transform="translate(25.63293706453868 22.98525259428972) rotate(0 110.45170553426863 46.847351530370034)"><path d="M-1.66 1.26 L218.99 0.95 L219.23 92.58 L-1.64 95.41" stroke="none" stroke-width="0" fill="#ffffff"></path><path d="M-1.65 1.55 C53.22 -0.92, 105.18 -1.84, 221.63 -0.57 M0.79 0.2 C86.92 -1.37, 174.55 -0.23, 221.3 -0.7 M220.5 -0.08 C221.19 25.53, 220.52 48.23, 219.71 95.46 M220.02 -0.02 C220.39 28.14, 219.84 55.25, 221.63 93.78 M220.23 94.91 C133.61 95.29, 44.92 95.94, 0.66 94.32 M220.12 94.17 C174 96.02, 125.36 95.79, 0.06 94.44 M1.1 92.68 C2.02 73.37, 1.74 52.95, -0.4 1.47 M-0.43 93.04 C-0.46 71.58, -0.7 49.93, -0.72 -0.54" stroke="transparent" stroke-width="1" fill="none"></path></g><g transform="translate(204.91092671799953 22.096213109565) rotate(0 18.60416603088379 12.5)"><text x="0" y="0" font-family="Virgil, Segoe UI Emoji" font-size="20px" fill="#000000" text-anchor="start" style="white-space: pre;" direction="ltr" dominant-baseline="text-before-edge">CSS</text></g><g transform="translate(33.44329917841907 34.15977597461455) rotate(0 80.36458587646484 40)"><text x="0" y="0" font-family="Virgil, Segoe UI Emoji" font-size="16px" fill="#1971c2" text-anchor="start" style="white-space: pre;" direction="ltr" dominant-baseline="text-before-edge">  {                 </text><text x="0" y="20" font-family="Virgil, Segoe UI Emoji" font-size="16px" fill="#1971c2" text-anchor="start" style="white-space: pre;" direction="ltr" dominant-baseline="text-before-edge"></text><text x="0" y="40" font-family="Virgil, Segoe UI Emoji" font-size="16px" fill="#1971c2" text-anchor="start" style="white-space: pre;" direction="ltr" dominant-baseline="text-before-edge"></text><text x="0" y="60" font-family="Virgil, Segoe UI Emoji" font-size="16px" fill="#1971c2" text-anchor="start" style="white-space: pre;" direction="ltr" dominant-baseline="text-before-edge">}</text></g><g transform="translate(33.20828293072668 31.686938925933873) rotate(0 6.09375 10)"><text x="0" y="0" font-family="Virgil, Segoe UI Emoji" font-size="16px" fill="#846358" text-anchor="start" style="white-space: pre;" direction="ltr" dominant-baseline="text-before-edge">h1</text></g><g transform="translate(32.65152713374161 53.244819791970926) rotate(0 44.677082061767564 30)"><text x="0" y="0" font-family="Virgil, Segoe UI Emoji" font-size="16px" fill="#e03131" text-anchor="start" style="white-space: pre;" direction="ltr" dominant-baseline="text-before-edge">  color: </text><text x="0" y="20" font-family="Virgil, Segoe UI Emoji" font-size="16px" fill="#e03131" text-anchor="start" style="white-space: pre;" direction="ltr" dominant-baseline="text-before-edge">  font-size:</text><text x="0" y="40" font-family="Virgil, Segoe UI Emoji" font-size="16px" fill="#e03131" text-anchor="start" style="white-space: pre;" direction="ltr" dominant-baseline="text-before-edge"></text></g><g transform="translate(94.55625524708285 52.29361322026078) rotate(0 37 20)"><text x="0" y="0" font-family="Virgil, Segoe UI Emoji" font-size="16px" fill="#2f9e44" text-anchor="start" style="white-space: pre;" direction="ltr" dominant-baseline="text-before-edge">red;</text><text x="0" y="20" font-family="Virgil, Segoe UI Emoji" font-size="16px" fill="#2f9e44" text-anchor="start" style="white-space: pre;" direction="ltr" dominant-baseline="text-before-edge">    40px;</text></g></svg>
