<svg version="1.1" xmlns="http://www.w3.org/2000/svg" viewBox="0 0 678.9683888267064 404.66034509824595" width="2036.905166480119" height="1213.981035294738">
  <!-- svg-source:excalidraw -->
  
  <defs>
    <style class="style-fonts">
      @font-face {
        font-family: "Virgil";
        src: url("https://excalidraw.com/Virgil.woff2");
      }
      @font-face {
        font-family: "Cascadia";
        src: url("https://excalidraw.com/Cascadia.woff2");
      }
    </style>
    
  </defs>
  <g stroke-linecap="round" transform="translate(126.20525951402601 175.67070414115977) rotate(0 62.79042477701438 29.466025933135267)"><path d="M0 0 C0 0, 0 0, 0 0 M0 0 C0 0, 0 0, 0 0 M-0.26 6.4 C1.45 4.42, 3.17 2.45, 4.99 0.36 M-0.26 6.4 C1.71 4.13, 3.68 1.87, 4.99 0.36 M0.13 12.04 C3.67 7.98, 7.2 3.91, 10.63 -0.03 M0.13 12.04 C2.68 9.11, 5.23 6.18, 10.63 -0.03 M-0.13 18.44 C5.72 11.71, 11.57 4.98, 15.62 0.33 M-0.13 18.44 C5.82 11.6, 11.77 4.76, 15.62 0.33 M0.27 24.08 C6.66 16.72, 13.06 9.37, 21.26 -0.07 M0.27 24.08 C7.45 15.82, 14.63 7.55, 21.26 -0.07 M0 30.48 C6.03 23.55, 12.06 16.61, 26.25 0.29 M0 30.48 C5.5 24.16, 10.99 17.84, 26.25 0.29 M-0.26 36.88 C11.66 23.17, 23.58 9.46, 31.89 -0.1 M-0.26 36.88 C9.55 25.59, 19.36 14.31, 31.89 -0.1 M0.14 42.52 C10.86 30.19, 21.58 17.85, 36.88 0.26 M0.14 42.52 C9.26 32.02, 18.39 21.52, 36.88 0.26 M-0.12 48.92 C8.66 38.81, 17.45 28.7, 42.52 -0.14 M-0.12 48.92 C12.32 34.6, 24.76 20.29, 42.52 -0.14 M0.27 54.56 C18.45 33.64, 36.64 12.73, 47.51 0.22 M0.27 54.56 C17.38 34.88, 34.48 15.2, 47.51 0.22 M1.32 59.45 C15.21 43.47, 29.1 27.5, 53.15 -0.17 M1.32 59.45 C11.76 47.44, 22.2 35.43, 53.15 -0.17 M6.31 59.81 C20.4 43.6, 34.48 27.4, 58.14 0.19 M6.31 59.81 C17.03 47.47, 27.76 35.13, 58.14 0.19 M11.3 60.17 C27.03 42.07, 42.76 23.98, 63.78 -0.21 M11.3 60.17 C30.84 37.68, 50.39 15.2, 63.78 -0.21 M16.94 59.78 C35.13 38.84, 53.33 17.91, 68.77 0.15 M16.94 59.78 C33.95 40.2, 50.96 20.63, 68.77 0.15 M21.93 60.14 C34.02 46.22, 46.12 32.3, 74.41 -0.24 M21.93 60.14 C36.74 43.09, 51.56 26.05, 74.41 -0.24 M27.57 59.74 C46.09 38.43, 64.62 17.12, 79.4 0.12 M27.57 59.74 C41.07 44.21, 54.58 28.67, 79.4 0.12 M32.56 60.1 C47.01 43.48, 61.46 26.85, 85.04 -0.28 M32.56 60.1 C45.55 45.15, 58.55 30.2, 85.04 -0.28 M38.2 59.71 C51.75 44.12, 65.29 28.54, 90.03 0.08 M38.2 59.71 C49.98 46.15, 61.77 32.59, 90.03 0.08 M43.19 60.07 C55.54 45.85, 67.9 31.64, 95.67 -0.31 M43.19 60.07 C60.18 40.51, 77.18 20.96, 95.67 -0.31 M48.83 59.67 C67.98 37.64, 87.14 15.61, 100.66 0.05 M48.83 59.67 C61.34 45.28, 73.86 30.88, 100.66 0.05 M53.82 60.03 C74.68 36.03, 95.55 12.02, 106.3 -0.34 M53.82 60.03 C64.62 47.61, 75.42 35.18, 106.3 -0.34 M59.46 59.64 C71.09 46.26, 82.71 32.89, 111.29 0.02 M59.46 59.64 C70.05 47.45, 80.64 35.27, 111.29 0.02 M64.45 60 C76.62 45.99, 88.79 31.99, 116.27 0.38 M64.45 60 C81.4 40.5, 98.35 21, 116.27 0.38 M70.09 59.6 C85.85 41.47, 101.61 23.34, 121.92 -0.02 M70.09 59.6 C80.81 47.27, 91.53 34.94, 121.92 -0.02 M75.08 59.96 C90.74 41.94, 106.4 23.93, 126.25 1.1 M75.08 59.96 C93.52 38.74, 111.97 17.53, 126.25 1.1 M80.72 59.57 C95.57 42.49, 110.41 25.41, 126.64 6.74 M80.72 59.57 C91.23 47.48, 101.73 35.39, 126.64 6.74 M85.71 59.93 C100.19 43.27, 114.67 26.61, 126.38 13.14 M85.71 59.93 C98.63 45.06, 111.56 30.19, 126.38 13.14 M91.35 59.53 C103.11 46, 114.88 32.47, 126.78 18.78 M91.35 59.53 C99.82 49.79, 108.29 40.05, 126.78 18.78 M96.34 59.89 C102.84 52.41, 109.34 44.93, 126.52 25.18 M96.34 59.89 C103.88 51.21, 111.43 42.53, 126.52 25.18 M101.98 59.5 C107.24 53.45, 112.5 47.4, 126.25 31.57 M101.98 59.5 C109.15 51.25, 116.32 43, 126.25 31.57 M106.97 59.86 C112.89 53.04, 118.82 46.23, 126.65 37.22 M106.97 59.86 C113.8 52, 120.63 44.14, 126.65 37.22 M112.61 59.46 C118.11 53.14, 123.61 46.81, 126.39 43.62 M112.61 59.46 C115.99 55.58, 119.37 51.69, 126.39 43.62 M117.6 59.82 C120.49 56.49, 123.39 53.16, 126.78 49.26 M117.6 59.82 C119.78 57.31, 121.97 54.79, 126.78 49.26 M122.58 60.18 C123.91 58.66, 125.24 57.13, 126.52 55.66 M122.58 60.18 C123.47 59.17, 124.35 58.16, 126.52 55.66 M0.25 59.15 C0.25 59.15, 0.25 59.15, 0.25 59.15 M0.25 59.15 C0.25 59.15, 0.25 59.15, 0.25 59.15 M5.9 58.76 C4.53 57.57, 3.16 56.38, -0.14 53.51 M5.9 58.76 C3.74 56.88, 1.58 55.01, -0.14 53.51 M12.3 59.02 C7.82 55.13, 3.35 51.24, 0.22 48.52 M12.3 59.02 C8.51 55.73, 4.73 52.45, 0.22 48.52 M17.94 58.63 C12.59 53.98, 7.25 49.33, -0.17 42.88 M17.94 58.63 C13.24 54.54, 8.54 50.45, -0.17 42.88 M24.34 58.89 C15.97 51.62, 7.61 44.35, 0.19 37.89 M24.34 58.89 C18.29 53.63, 12.24 48.37, 0.19 37.89 M30.73 59.15 C21.15 50.82, 11.56 42.48, -0.21 32.25 M30.73 59.15 C20.42 50.18, 10.11 41.22, -0.21 32.25 M36.38 58.75 C24.76 48.66, 13.15 38.56, 0.15 27.26 M36.38 58.75 C25.93 49.67, 15.47 40.58, 0.15 27.26 M42.77 59.02 C31.07 48.84, 19.36 38.66, -0.24 21.62 M42.77 59.02 C31.11 48.87, 19.44 38.73, -0.24 21.62 M48.42 58.62 C32.68 44.94, 16.95 31.27, 0.12 16.63 M48.42 58.62 C31.44 43.86, 14.47 29.11, 0.12 16.63 M54.82 58.88 C37.19 43.56, 19.56 28.23, -0.28 10.99 M54.82 58.88 C35.27 41.89, 15.73 24.9, -0.28 10.99 M61.21 59.14 C44.09 44.26, 26.97 29.38, 0.08 6 M61.21 59.14 C48.82 48.37, 36.42 37.59, 0.08 6 M66.86 58.75 C51.6 45.49, 36.35 32.23, -0.31 0.36 M66.86 58.75 C43.07 38.07, 19.28 17.39, -0.31 0.36 M73.25 59.01 C52.85 41.27, 32.44 23.53, 2.31 -2.66 M73.25 59.01 C48.79 37.74, 24.32 16.47, 2.31 -2.66 M78.9 58.62 C57.63 40.13, 36.36 21.64, 8.71 -2.4 M78.9 58.62 C62.82 44.64, 46.75 30.67, 8.71 -2.4 M85.3 58.88 C61.27 37.99, 37.24 17.1, 14.35 -2.79 M85.3 58.88 C62.64 39.18, 39.98 19.49, 14.35 -2.79 M91.69 59.14 C70.87 41.04, 50.06 22.94, 20.75 -2.53 M91.69 59.14 C75.52 45.08, 59.35 31.03, 20.75 -2.53 M97.34 58.74 C82.5 45.84, 67.66 32.95, 26.39 -2.93 M97.34 58.74 C82.67 45.99, 68 33.24, 26.39 -2.93 M103.73 59.01 C83.88 41.75, 64.03 24.49, 32.79 -2.66 M103.73 59.01 C76.18 35.05, 48.62 11.09, 32.79 -2.66 M109.38 58.61 C84.03 36.58, 58.69 14.55, 39.19 -2.4 M109.38 58.61 C86.44 38.67, 63.5 18.74, 39.19 -2.4 M115.77 58.87 C88.84 35.46, 61.91 12.05, 44.83 -2.8 M115.77 58.87 C98.94 44.24, 82.1 29.6, 44.83 -2.8 M122.17 59.13 C104.97 44.18, 87.78 29.23, 51.23 -2.54 M122.17 59.13 C98.19 38.28, 74.2 17.43, 51.23 -2.54 M126.31 57.43 C109.21 42.57, 92.11 27.7, 56.87 -2.93 M126.31 57.43 C106.15 39.91, 86 22.39, 56.87 -2.93 M126.67 52.44 C102.13 31.11, 77.6 9.79, 63.27 -2.67 M126.67 52.44 C105.21 33.79, 83.75 15.13, 63.27 -2.67 M126.27 46.8 C105.39 28.64, 84.5 10.49, 69.67 -2.41 M126.27 46.8 C106.35 29.48, 86.42 12.16, 69.67 -2.41 M126.63 41.81 C110.49 27.78, 94.35 13.74, 75.31 -2.8 M126.63 41.81 C107.91 25.53, 89.19 9.26, 75.31 -2.8 M126.99 36.82 C110.09 22.13, 93.2 7.45, 81.71 -2.54 M126.99 36.82 C117.19 28.3, 107.38 19.78, 81.71 -2.54 M126.6 31.18 C117.53 23.3, 108.47 15.42, 87.35 -2.94 M126.6 31.18 C115.1 21.18, 103.6 11.19, 87.35 -2.94 M126.96 26.19 C116.33 16.96, 105.71 7.72, 93.75 -2.67 M126.96 26.19 C114.78 15.61, 102.6 5.02, 93.75 -2.67 M126.56 20.55 C117.91 13.02, 109.25 5.5, 100.15 -2.41 M126.56 20.55 C117.64 12.79, 108.71 5.03, 100.15 -2.41 M126.92 15.56 C122.56 11.77, 118.2 7.98, 105.79 -2.81 M126.92 15.56 C121.12 10.52, 115.31 5.47, 105.79 -2.81 M126.53 9.92 C122.48 6.4, 118.42 2.87, 112.19 -2.55 M126.53 9.92 C121.46 5.51, 116.38 1.1, 112.19 -2.55 M126.89 4.93 C124.48 2.84, 122.07 0.75, 117.83 -2.94 M126.89 4.93 C124.16 2.56, 121.43 0.19, 117.83 -2.94" stroke="#ffec99" stroke-width="0.5" fill="none"></path><path d="M0 0 C49.64 0, 99.27 0, 125.58 0 M0 0 C38.59 0, 77.18 0, 125.58 0 M125.58 0 C125.58 17.26, 125.58 34.52, 125.58 58.93 M125.58 0 C125.58 22.98, 125.58 45.96, 125.58 58.93 M125.58 58.93 C83.09 58.93, 40.59 58.93, 0 58.93 M125.58 58.93 C89.44 58.93, 53.3 58.93, 0 58.93 M0 58.93 C0 44.78, 0 30.62, 0 0 M0 58.93 C0 46.4, 0 33.87, 0 0" stroke="transparent" stroke-width="1" fill="none"></path></g><g stroke-linecap="round" transform="translate(11.616255602859042 82.50197545116345) rotate(0 226.06183000261677 29.466025933135313)"><path d="M0 0 C0 0, 0 0, 0 0 M0 0 C0 0, 0 0, 0 0 M-0.26 6.4 C1.4 4.48, 3.07 2.57, 4.99 0.36 M-0.26 6.4 C1.49 4.38, 3.24 2.37, 4.99 0.36 M0.13 12.04 C2.58 9.23, 5.03 6.41, 10.63 -0.03 M0.13 12.04 C2.52 9.3, 4.9 6.55, 10.63 -0.03 M-0.13 18.44 C3.35 14.44, 6.82 10.45, 15.62 0.33 M-0.13 18.44 C4.99 12.55, 10.11 6.66, 15.62 0.33 M0.27 24.08 C4.52 19.19, 8.77 14.3, 21.26 -0.07 M0.27 24.08 C5.66 17.87, 11.06 11.66, 21.26 -0.07 M0 30.48 C10.13 18.84, 20.25 7.19, 26.25 0.29 M0 30.48 C7.95 21.34, 15.89 12.2, 26.25 0.29 M-0.26 36.88 C11.63 23.21, 23.51 9.53, 31.89 -0.1 M-0.26 36.88 C10.39 24.64, 21.03 12.39, 31.89 -0.1 M0.14 42.52 C13.23 27.46, 26.32 12.4, 36.88 0.26 M0.14 42.52 C9.02 32.3, 17.91 22.08, 36.88 0.26 M-0.12 48.92 C10.93 36.21, 21.98 23.5, 42.52 -0.14 M-0.12 48.92 C12.93 33.9, 25.98 18.89, 42.52 -0.14 M0.27 54.56 C15.03 37.58, 29.79 20.6, 47.51 0.22 M0.27 54.56 C10.03 43.34, 19.78 32.11, 47.51 0.22 M1.32 59.45 C21.08 36.72, 40.84 13.99, 53.15 -0.17 M1.32 59.45 C20.94 36.88, 40.55 14.32, 53.15 -0.17 M6.31 59.81 C25.49 37.75, 44.66 15.69, 58.14 0.19 M6.31 59.81 C19.27 44.9, 32.24 29.98, 58.14 0.19 M11.3 60.17 C28.74 40.1, 46.19 20.03, 63.78 -0.21 M11.3 60.17 C31.43 37.01, 51.55 13.86, 63.78 -0.21 M16.94 59.78 C31.49 43.04, 46.04 26.3, 68.77 0.15 M16.94 59.78 C33.26 41, 49.58 22.22, 68.77 0.15 M21.93 60.14 C37.41 42.33, 52.89 24.52, 74.41 -0.24 M21.93 60.14 C37.44 42.29, 52.95 24.45, 74.41 -0.24 M27.57 59.74 C44.8 39.92, 62.03 20.1, 79.4 0.12 M27.57 59.74 C44.79 39.93, 62.01 20.12, 79.4 0.12 M32.56 60.1 C50.25 39.75, 67.94 19.39, 85.04 -0.28 M32.56 60.1 C49.77 40.3, 66.98 20.5, 85.04 -0.28 M38.2 59.71 C51.1 44.87, 64 30.03, 90.03 0.08 M38.2 59.71 C54.92 40.47, 71.64 21.24, 90.03 0.08 M43.19 60.07 C59.61 41.17, 76.04 22.27, 95.67 -0.31 M43.19 60.07 C55.43 45.98, 67.67 31.9, 95.67 -0.31 M48.83 59.67 C63.84 42.4, 78.85 25.14, 100.66 0.05 M48.83 59.67 C64.14 42.06, 79.45 24.45, 100.66 0.05 M53.82 60.03 C72.86 38.13, 91.9 16.22, 106.3 -0.34 M53.82 60.03 C64.47 47.78, 75.11 35.53, 106.3 -0.34 M59.46 59.64 C77.61 38.75, 95.77 17.87, 111.29 0.02 M59.46 59.64 C77.56 38.82, 95.66 18, 111.29 0.02 M64.45 60 C75.46 47.33, 86.48 34.66, 116.27 0.38 M64.45 60 C83.49 38.08, 102.54 16.17, 116.27 0.38 M70.09 59.6 C83.69 43.96, 97.28 28.32, 121.92 -0.02 M70.09 59.6 C89.35 37.44, 108.62 15.28, 121.92 -0.02 M75.08 59.96 C89.29 43.62, 103.5 27.27, 126.91 0.34 M75.08 59.96 C90.46 42.27, 105.84 24.58, 126.91 0.34 M80.72 59.57 C95.92 42.08, 111.13 24.59, 132.55 -0.05 M80.72 59.57 C98.32 39.32, 115.92 19.08, 132.55 -0.05 M85.71 59.93 C103.62 39.32, 121.54 18.71, 137.54 0.31 M85.71 59.93 C101.22 42.08, 116.74 24.23, 137.54 0.31 M91.35 59.53 C104.13 44.83, 116.91 30.13, 143.18 -0.09 M91.35 59.53 C102.67 46.51, 114 33.48, 143.18 -0.09 M96.34 59.89 C112.45 41.36, 128.56 22.83, 148.17 0.27 M96.34 59.89 C113.08 40.63, 129.82 21.37, 148.17 0.27 M101.98 59.5 C120.72 37.95, 139.45 16.39, 153.81 -0.12 M101.98 59.5 C115.63 43.8, 129.28 28.1, 153.81 -0.12 M106.97 59.86 C119.38 45.58, 131.8 31.3, 158.8 0.24 M106.97 59.86 C120.17 44.67, 133.37 29.49, 158.8 0.24 M112.61 59.46 C123.66 46.75, 134.72 34.04, 164.44 -0.16 M112.61 59.46 C129.09 40.51, 145.57 21.55, 164.44 -0.16 M117.6 59.82 C132.5 42.68, 147.4 25.54, 169.43 0.2 M117.6 59.82 C129.01 46.69, 140.43 33.56, 169.43 0.2 M122.58 60.18 C133.77 47.32, 144.95 34.45, 175.07 -0.19 M122.58 60.18 C139.13 41.15, 155.68 22.11, 175.07 -0.19 M128.23 59.79 C148.77 36.16, 169.31 12.53, 180.06 0.17 M128.23 59.79 C142.98 42.82, 157.73 25.85, 180.06 0.17 M133.21 60.15 C149.39 41.54, 165.56 22.93, 185.7 -0.23 M133.21 60.15 C153.02 37.36, 172.83 14.58, 185.7 -0.23 M138.86 59.76 C159.26 36.28, 179.67 12.8, 190.69 0.13 M138.86 59.76 C157.09 38.78, 175.32 17.8, 190.69 0.13 M143.84 60.12 C158.62 43.11, 173.4 26.11, 196.33 -0.26 M143.84 60.12 C160.39 41.08, 176.93 22.05, 196.33 -0.26 M149.49 59.72 C164.68 42.24, 179.88 24.76, 201.32 0.1 M149.49 59.72 C163.22 43.92, 176.95 28.13, 201.32 0.1 M154.47 60.08 C167.72 44.85, 180.96 29.61, 206.96 -0.3 M154.47 60.08 C171.74 40.22, 189 20.36, 206.96 -0.3 M160.12 59.69 C180.55 36.18, 200.99 12.67, 211.95 0.06 M160.12 59.69 C175.99 41.43, 191.86 23.17, 211.95 0.06 M165.1 60.05 C184.8 37.38, 204.5 14.72, 217.59 -0.33 M165.1 60.05 C181.26 41.47, 197.41 22.89, 217.59 -0.33 M170.75 59.65 C190.56 36.86, 210.37 14.07, 222.58 0.03 M170.75 59.65 C186.13 41.96, 201.51 24.26, 222.58 0.03 M175.73 60.01 C193.66 39.39, 211.59 18.77, 228.22 -0.36 M175.73 60.01 C193.05 40.1, 210.36 20.18, 228.22 -0.36 M181.38 59.62 C193.23 45.98, 205.08 32.35, 233.21 0 M181.38 59.62 C196.77 41.91, 212.16 24.2, 233.21 0 M186.36 59.98 C200.76 43.42, 215.16 26.86, 238.19 0.36 M186.36 59.98 C205.16 38.36, 223.95 16.74, 238.19 0.36 M192.01 59.58 C207.08 42.25, 222.14 24.92, 243.84 -0.04 M192.01 59.58 C207.87 41.33, 223.74 23.08, 243.84 -0.04 M196.99 59.94 C209.78 45.23, 222.57 30.52, 248.82 0.32 M196.99 59.94 C215.77 38.34, 234.56 16.73, 248.82 0.32 M202.64 59.55 C213.61 46.93, 224.58 34.31, 254.47 -0.07 M202.64 59.55 C221.43 37.93, 240.22 16.32, 254.47 -0.07 M207.62 59.91 C225.62 39.21, 243.62 18.5, 259.45 0.29 M207.62 59.91 C227.04 37.58, 246.45 15.25, 259.45 0.29 M213.27 59.51 C224.7 46.36, 236.14 33.2, 265.1 -0.11 M213.27 59.51 C225.9 44.98, 238.54 30.44, 265.1 -0.11 M218.25 59.87 C229.34 47.12, 240.42 34.37, 270.08 0.25 M218.25 59.87 C230.37 45.94, 242.48 32.01, 270.08 0.25 M223.9 59.48 C235.97 45.6, 248.04 31.71, 275.73 -0.14 M223.9 59.48 C242.89 37.64, 261.87 15.79, 275.73 -0.14 M228.88 59.84 C245.32 40.93, 261.76 22.02, 280.71 0.22 M228.88 59.84 C242.53 44.14, 256.18 28.44, 280.71 0.22 M234.53 59.45 C252.63 38.62, 270.73 17.8, 286.36 -0.18 M234.53 59.45 C249.34 42.4, 264.16 25.36, 286.36 -0.18 M239.51 59.81 C253.18 44.08, 266.86 28.35, 291.34 0.18 M239.51 59.81 C259 37.38, 278.5 14.96, 291.34 0.18 M244.5 60.17 C263.23 38.62, 281.97 17.07, 296.99 -0.21 M244.5 60.17 C265.34 36.2, 286.17 12.23, 296.99 -0.21 M250.14 59.77 C265.49 42.12, 280.83 24.47, 301.97 0.15 M250.14 59.77 C269.51 37.5, 288.87 15.22, 301.97 0.15 M255.13 60.13 C267.13 46.32, 279.14 32.52, 307.62 -0.25 M255.13 60.13 C267.38 46.04, 279.63 31.95, 307.62 -0.25 M260.77 59.74 C281.11 36.34, 301.44 12.95, 312.6 0.11 M260.77 59.74 C273.56 45.03, 286.35 30.32, 312.6 0.11 M265.76 60.1 C277.49 46.6, 289.22 33.11, 318.25 -0.28 M265.76 60.1 C285.07 37.89, 304.37 15.68, 318.25 -0.28 M271.4 59.7 C290.43 37.82, 309.45 15.93, 323.23 0.08 M271.4 59.7 C285.67 43.3, 299.93 26.89, 323.23 0.08 M276.39 60.06 C296.65 36.75, 316.91 13.45, 328.88 -0.31 M276.39 60.06 C292.78 41.21, 309.16 22.37, 328.88 -0.31 M282.04 59.67 C301.24 37.58, 320.44 15.49, 333.86 0.05 M282.04 59.67 C299.03 40.12, 316.02 20.57, 333.86 0.05 M287.02 60.03 C299.99 45.1, 312.97 30.18, 339.51 -0.35 M287.02 60.03 C298.43 46.9, 309.84 33.78, 339.51 -0.35 M292.67 59.63 C312.82 36.45, 332.97 13.27, 344.49 0.01 M292.67 59.63 C311.46 38.01, 330.26 16.38, 344.49 0.01 M297.65 59.99 C314.42 40.71, 331.19 21.42, 349.48 0.37 M297.65 59.99 C317 37.74, 336.35 15.48, 349.48 0.37 M303.3 59.6 C321.13 39.08, 338.97 18.56, 355.12 -0.02 M303.3 59.6 C320.23 40.12, 337.16 20.64, 355.12 -0.02 M308.28 59.96 C319.56 46.98, 330.84 34, 360.11 0.34 M308.28 59.96 C324.3 41.53, 340.32 23.1, 360.11 0.34 M313.93 59.56 C334.38 36.04, 354.83 12.51, 365.75 -0.06 M313.93 59.56 C327.19 44.3, 340.46 29.04, 365.75 -0.06 M318.91 59.92 C335.4 40.95, 351.9 21.98, 370.74 0.3 M318.91 59.92 C334.09 42.47, 349.26 25.01, 370.74 0.3 M324.56 59.53 C336.69 45.57, 348.83 31.61, 376.38 -0.09 M324.56 59.53 C344.02 37.14, 363.48 14.75, 376.38 -0.09 M329.54 59.89 C345.07 42.03, 360.6 24.16, 381.37 0.27 M329.54 59.89 C341.54 46.09, 353.54 32.29, 381.37 0.27 M335.19 59.5 C355.54 36.08, 375.9 12.65, 387.01 -0.13 M335.19 59.5 C355.9 35.67, 376.61 11.84, 387.01 -0.13 M340.17 59.86 C351.69 46.6, 363.22 33.35, 392 0.23 M340.17 59.86 C359.43 37.71, 378.68 15.56, 392 0.23 M345.82 59.46 C363.25 39.4, 380.69 19.34, 397.64 -0.16 M345.82 59.46 C357.82 45.66, 369.82 31.85, 397.64 -0.16 M350.8 59.82 C362.86 45.95, 374.92 32.08, 402.63 0.2 M350.8 59.82 C371.43 36.09, 392.06 12.36, 402.63 0.2 M355.79 60.18 C375.05 38.03, 394.3 15.88, 408.27 -0.2 M355.79 60.18 C369.62 44.27, 383.45 28.36, 408.27 -0.2 M361.43 59.79 C375.06 44.11, 388.69 28.43, 413.26 0.16 M361.43 59.79 C378.82 39.79, 396.21 19.78, 413.26 0.16 M366.42 60.15 C383.32 40.71, 400.21 21.27, 418.9 -0.23 M366.42 60.15 C380.95 43.43, 395.49 26.71, 418.9 -0.23 M372.06 59.75 C389.24 39.99, 406.42 20.23, 423.89 0.13 M372.06 59.75 C384.87 45.01, 397.69 30.28, 423.89 0.13 M377.05 60.11 C391.5 43.49, 405.94 26.88, 429.53 -0.26 M377.05 60.11 C395.01 39.45, 412.98 18.78, 429.53 -0.26 M382.69 59.72 C395.25 45.27, 407.81 30.82, 434.52 0.1 M382.69 59.72 C400.09 39.7, 417.49 19.69, 434.52 0.1 M387.68 60.08 C400.09 45.8, 412.5 31.52, 440.16 -0.3 M387.68 60.08 C404.42 40.82, 421.16 21.56, 440.16 -0.3 M393.32 59.68 C408.13 42.65, 422.93 25.62, 445.15 0.06 M393.32 59.68 C405.89 45.23, 418.45 30.77, 445.15 0.06 M398.31 60.04 C411.5 44.87, 424.68 29.71, 450.79 -0.33 M398.31 60.04 C416.98 38.57, 435.64 17.1, 450.79 -0.33 M403.95 59.65 C421 40.04, 438.05 20.42, 454.47 1.54 M403.95 59.65 C421.54 39.42, 439.12 19.19, 454.47 1.54 M408.94 60.01 C422.57 44.33, 436.19 28.66, 454.21 7.93 M408.94 60.01 C426.59 39.71, 444.24 19.4, 454.21 7.93 M414.58 59.61 C428.75 43.32, 442.91 27.02, 453.95 14.33 M414.58 59.61 C425.3 47.28, 436.02 34.96, 453.95 14.33 M419.57 59.97 C426.64 51.84, 433.71 43.71, 454.34 19.97 M419.57 59.97 C428.21 50.04, 436.84 40.1, 454.34 19.97 M425.21 59.58 C433.89 49.59, 442.57 39.61, 454.08 26.37 M425.21 59.58 C436 47.17, 446.79 34.76, 454.08 26.37 M430.2 59.94 C437.76 51.24, 445.32 42.55, 454.47 32.02 M430.2 59.94 C438.62 50.25, 447.04 40.57, 454.47 32.02 M435.84 59.54 C443.08 51.22, 450.31 42.9, 454.21 38.41 M435.84 59.54 C440.44 54.26, 445.03 48.97, 454.21 38.41 M440.83 59.9 C443.65 56.66, 446.47 53.42, 453.95 44.81 M440.83 59.9 C445.95 54.02, 451.07 48.13, 453.95 44.81 M446.47 59.51 C448.51 57.16, 450.55 54.82, 454.35 50.45 M446.47 59.51 C448.35 57.35, 450.23 55.19, 454.35 50.45 M0.25 59.15 C0.25 59.15, 0.25 59.15, 0.25 59.15 M0.25 59.15 C0.25 59.15, 0.25 59.15, 0.25 59.15 M5.9 58.76 C4.68 57.7, 3.46 56.64, -0.14 53.51 M5.9 58.76 C4 57.11, 2.1 55.46, -0.14 53.51 M12.3 59.02 C8.14 55.41, 3.99 51.8, 0.22 48.52 M12.3 59.02 C7.76 55.08, 3.22 51.13, 0.22 48.52 M17.94 58.63 C12.24 53.67, 6.54 48.72, -0.17 42.88 M17.94 58.63 C10.81 52.43, 3.69 46.24, -0.17 42.88 M24.34 58.89 C18.82 54.09, 13.3 49.3, 0.19 37.89 M24.34 58.89 C17.74 53.16, 11.15 47.42, 0.19 37.89 M30.73 59.15 C19.15 49.08, 7.57 39.01, -0.21 32.25 M30.73 59.15 C23.65 52.99, 16.57 46.83, -0.21 32.25 M36.38 58.75 C28.24 51.68, 20.1 44.61, 0.15 27.26 M36.38 58.75 C28.23 51.67, 20.08 44.59, 0.15 27.26 M42.77 59.02 C27.95 46.13, 13.12 33.24, -0.24 21.62 M42.77 59.02 C29.25 47.26, 15.73 35.5, -0.24 21.62 M48.42 58.62 C38.67 50.15, 28.92 41.67, 0.12 16.63 M48.42 58.62 C34.82 46.8, 21.22 34.97, 0.12 16.63 M54.82 58.88 C39.65 45.7, 24.49 32.52, -0.28 10.99 M54.82 58.88 C33.78 40.6, 12.74 22.31, -0.28 10.99 M61.21 59.14 C45.02 45.07, 28.83 30.99, 0.08 6 M61.21 59.14 C37.84 38.83, 14.48 18.52, 0.08 6 M66.86 58.75 C53.34 47, 39.82 35.24, -0.31 0.36 M66.86 58.75 C46.54 41.09, 26.22 23.42, -0.31 0.36 M73.25 59.01 C55.19 43.3, 37.12 27.6, 2.31 -2.66 M73.25 59.01 C55.15 43.27, 37.05 27.54, 2.31 -2.66 M78.9 58.62 C61.75 43.71, 44.6 28.8, 8.71 -2.4 M78.9 58.62 C51.76 35.02, 24.62 11.43, 8.71 -2.4 M85.3 58.88 C67.69 43.58, 50.09 28.28, 14.35 -2.79 M85.3 58.88 C62.76 39.29, 40.23 19.7, 14.35 -2.79 M91.69 59.14 C69.58 39.92, 47.47 20.7, 20.75 -2.53 M91.69 59.14 C71.57 41.64, 51.44 24.15, 20.75 -2.53 M97.34 58.74 C79.04 42.84, 60.74 26.93, 26.39 -2.93 M97.34 58.74 C70.66 35.56, 43.99 12.37, 26.39 -2.93 M103.73 59.01 C75.61 34.56, 47.48 10.11, 32.79 -2.66 M103.73 59.01 C83.73 41.62, 63.73 24.23, 32.79 -2.66 M109.38 58.61 C86.02 38.31, 62.66 18, 39.19 -2.4 M109.38 58.61 C86.52 38.74, 63.66 18.87, 39.19 -2.4 M115.77 58.87 C96.06 41.73, 76.34 24.6, 44.83 -2.8 M115.77 58.87 C100.95 45.99, 86.13 33.11, 44.83 -2.8 M122.17 59.13 C103.91 43.26, 85.65 27.38, 51.23 -2.54 M122.17 59.13 C104.35 43.64, 86.52 28.15, 51.23 -2.54 M127.82 58.74 C112.13 45.1, 96.44 31.46, 56.87 -2.93 M127.82 58.74 C104.33 38.32, 80.84 17.9, 56.87 -2.93 M134.21 59 C116.31 43.44, 98.41 27.88, 63.27 -2.67 M134.21 59 C111.07 38.88, 87.93 18.77, 63.27 -2.67 M139.86 58.61 C120.4 41.69, 100.95 24.78, 69.67 -2.41 M139.86 58.61 C122.02 43.1, 104.18 27.59, 69.67 -2.41 M146.25 58.87 C126.81 41.97, 107.37 25.06, 75.31 -2.8 M146.25 58.87 C124.04 39.55, 101.82 20.24, 75.31 -2.8 M152.65 59.13 C125.48 35.51, 98.3 11.88, 81.71 -2.54 M152.65 59.13 C136.86 45.4, 121.06 31.67, 81.71 -2.54 M158.29 58.73 C135.94 39.3, 113.59 19.87, 87.35 -2.94 M158.29 58.73 C139.58 42.46, 120.86 26.19, 87.35 -2.94 M164.69 59 C146.13 42.86, 127.57 26.73, 93.75 -2.67 M164.69 59 C149.06 45.4, 133.42 31.81, 93.75 -2.67 M171.09 59.26 C149.54 40.52, 127.99 21.79, 100.15 -2.41 M171.09 59.26 C155.55 45.75, 140.02 32.25, 100.15 -2.41 M176.73 58.86 C153.9 39.02, 131.07 19.17, 105.79 -2.81 M176.73 58.86 C157.57 42.21, 138.41 25.55, 105.79 -2.81 M183.13 59.12 C168.62 46.51, 154.12 33.9, 112.19 -2.55 M183.13 59.12 C161.25 40.11, 139.37 21.09, 112.19 -2.55 M188.77 58.73 C163.35 36.63, 137.92 14.52, 117.83 -2.94 M188.77 58.73 C165.11 38.16, 141.44 17.58, 117.83 -2.94 M195.17 58.99 C172.65 39.41, 150.13 19.83, 124.23 -2.68 M195.17 58.99 C177.37 43.52, 159.57 28.04, 124.23 -2.68 M201.57 59.25 C183.68 43.7, 165.79 28.15, 130.63 -2.42 M201.57 59.25 C186.54 46.19, 171.51 33.12, 130.63 -2.42 M207.21 58.86 C180.33 35.49, 153.45 12.12, 136.27 -2.81 M207.21 58.86 C189.15 43.16, 171.1 27.46, 136.27 -2.81 M213.61 59.12 C194.48 42.49, 175.35 25.86, 142.67 -2.55 M213.61 59.12 C196.25 44.02, 178.88 28.93, 142.67 -2.55 M219.25 58.72 C200.74 42.63, 182.22 26.53, 148.31 -2.94 M219.25 58.72 C196.82 39.22, 174.38 19.72, 148.31 -2.94 M225.65 58.99 C199.85 36.56, 174.06 14.13, 154.71 -2.68 M225.65 58.99 C210.65 45.95, 195.66 32.91, 154.71 -2.68 M232.05 59.25 C212.77 42.49, 193.48 25.72, 161.11 -2.42 M232.05 59.25 C209.2 39.39, 186.35 19.53, 161.11 -2.42 M237.69 58.85 C218.36 42.04, 199.02 25.23, 166.75 -2.82 M237.69 58.85 C221.39 44.68, 205.08 30.5, 166.75 -2.82 M244.09 59.11 C225.98 43.37, 207.87 27.62, 173.15 -2.56 M244.09 59.11 C219.46 37.71, 194.84 16.3, 173.15 -2.56 M249.73 58.72 C234.06 45.09, 218.38 31.47, 178.79 -2.95 M249.73 58.72 C231.48 42.85, 213.23 26.99, 178.79 -2.95 M256.13 58.98 C235.45 41, 214.77 23.03, 185.19 -2.69 M256.13 58.98 C230.9 37.05, 205.67 15.12, 185.19 -2.69 M262.53 59.24 C246.98 45.72, 231.42 32.2, 191.59 -2.43 M262.53 59.24 C234.87 35.2, 207.21 11.16, 191.59 -2.43 M268.17 58.85 C240.06 34.41, 211.95 9.97, 197.23 -2.82 M268.17 58.85 C246.83 40.3, 225.49 21.75, 197.23 -2.82 M274.57 59.11 C248.76 36.68, 222.96 14.24, 203.63 -2.56 M274.57 59.11 C248.82 36.73, 223.08 14.35, 203.63 -2.56 M280.21 58.72 C264.5 45.06, 248.8 31.41, 209.27 -2.95 M280.21 58.72 C264.25 44.84, 248.29 30.97, 209.27 -2.95 M286.61 58.98 C262.72 38.21, 238.82 17.43, 215.67 -2.69 M286.61 58.98 C268.82 43.51, 251.03 28.05, 215.67 -2.69 M293.01 59.24 C267.84 37.36, 242.67 15.48, 222.07 -2.43 M293.01 59.24 C267.5 37.07, 242 14.9, 222.07 -2.43 M298.65 58.84 C276.9 39.93, 255.14 21.02, 227.71 -2.83 M298.65 58.84 C272.63 36.22, 246.61 13.61, 227.71 -2.83 M305.05 59.1 C289.44 45.54, 273.84 31.97, 234.11 -2.56 M305.05 59.1 C289.1 45.24, 273.15 31.37, 234.11 -2.56 M310.69 58.71 C294.56 44.68, 278.42 30.65, 239.75 -2.96 M310.69 58.71 C284.91 36.29, 259.12 13.88, 239.75 -2.96 M317.09 58.97 C290.37 35.74, 263.64 12.51, 246.15 -2.7 M317.09 58.97 C293.64 38.59, 270.2 18.21, 246.15 -2.7 M323.49 59.23 C299.41 38.31, 275.34 17.38, 252.55 -2.44 M323.49 59.23 C299.91 38.74, 276.33 18.24, 252.55 -2.44 M329.13 58.84 C313.49 45.24, 297.84 31.64, 258.19 -2.83 M329.13 58.84 C309.62 41.88, 290.12 24.92, 258.19 -2.83 M335.53 59.1 C316.49 42.55, 297.46 26, 264.59 -2.57 M335.53 59.1 C313.96 40.35, 292.39 21.6, 264.59 -2.57 M341.17 58.71 C321.1 41.25, 301.02 23.8, 270.23 -2.96 M341.17 58.71 C323.72 43.54, 306.28 28.37, 270.23 -2.96 M347.57 58.97 C324.41 38.84, 301.25 18.7, 276.63 -2.7 M347.57 58.97 C322.87 37.5, 298.17 16.02, 276.63 -2.7 M353.97 59.23 C330.45 38.78, 306.93 18.34, 283.02 -2.44 M353.97 59.23 C331.26 39.49, 308.56 19.75, 283.02 -2.44 M359.61 58.83 C344.6 45.79, 329.59 32.74, 288.67 -2.84 M359.61 58.83 C340.21 41.97, 320.82 25.11, 288.67 -2.84 M366.01 59.1 C346.89 42.47, 327.76 25.85, 295.07 -2.57 M366.01 59.1 C340.25 36.7, 314.49 14.31, 295.07 -2.57 M371.65 58.7 C349.83 39.73, 328.01 20.76, 300.71 -2.97 M371.65 58.7 C348.41 38.5, 325.17 18.29, 300.71 -2.97 M378.05 58.96 C361.28 44.39, 344.51 29.81, 307.11 -2.71 M378.05 58.96 C354.65 38.62, 331.25 18.28, 307.11 -2.71 M384.45 59.22 C357.18 35.52, 329.92 11.82, 313.5 -2.45 M384.45 59.22 C363.33 40.87, 342.22 22.52, 313.5 -2.45 M390.09 58.83 C368.29 39.88, 346.5 20.93, 319.15 -2.84 M390.09 58.83 C364.25 36.37, 338.42 13.91, 319.15 -2.84 M396.49 59.09 C375.38 40.75, 354.28 22.4, 325.55 -2.58 M396.49 59.09 C381.64 46.19, 366.8 33.28, 325.55 -2.58 M402.13 58.7 C374.22 34.44, 346.31 10.17, 331.19 -2.97 M402.13 58.7 C380.91 40.25, 359.7 21.81, 331.19 -2.97 M408.53 58.96 C388.05 41.15, 367.56 23.35, 337.59 -2.71 M408.53 58.96 C392.39 44.93, 376.25 30.89, 337.59 -2.71 M414.93 59.22 C390.67 38.13, 366.41 17.04, 343.98 -2.45 M414.93 59.22 C389.64 37.24, 364.35 15.25, 343.98 -2.45 M420.57 58.82 C400.3 41.2, 380.03 23.58, 349.63 -2.85 M420.57 58.82 C395.28 36.84, 369.99 14.86, 349.63 -2.85 M426.97 59.09 C410.22 44.53, 393.48 29.97, 356.02 -2.58 M426.97 59.09 C409.41 43.83, 391.86 28.57, 356.02 -2.58 M432.61 58.69 C418.28 46.24, 403.96 33.78, 361.67 -2.98 M432.61 58.69 C408.55 37.77, 384.48 16.86, 361.67 -2.98 M439.01 58.95 C418.1 40.78, 397.2 22.61, 368.07 -2.72 M439.01 58.95 C419.7 42.17, 400.4 25.39, 368.07 -2.72 M445.41 59.21 C428.6 44.6, 411.78 29.99, 374.46 -2.46 M445.41 59.21 C420.02 37.15, 394.64 15.08, 374.46 -2.46 M451.05 58.82 C424.61 35.83, 398.16 12.85, 380.11 -2.85 M451.05 58.82 C435.46 45.27, 419.88 31.72, 380.11 -2.85 M454.43 56.46 C428.88 34.25, 403.33 12.04, 386.5 -2.59 M454.43 56.46 C431.77 36.76, 409.11 17.06, 386.5 -2.59 M454.03 50.81 C437.87 36.76, 421.71 22.71, 392.15 -2.98 M454.03 50.81 C437.42 36.37, 420.81 21.94, 392.15 -2.98 M454.39 45.83 C438.15 31.71, 421.9 17.58, 398.55 -2.72 M454.39 45.83 C441.73 34.82, 429.07 23.81, 398.55 -2.72 M454 40.18 C435.02 23.69, 416.05 7.19, 404.94 -2.46 M454 40.18 C439.99 28.01, 425.98 15.83, 404.94 -2.46 M454.36 35.2 C443.92 26.12, 433.48 17.05, 410.59 -2.86 M454.36 35.2 C439.62 22.39, 424.89 9.58, 410.59 -2.86 M453.96 29.55 C442.41 19.51, 430.86 9.47, 416.98 -2.59 M453.96 29.55 C441.85 19.02, 429.74 8.5, 416.98 -2.59 M454.32 24.57 C443.12 14.83, 431.92 5.09, 423.38 -2.33 M454.32 24.57 C448.08 19.14, 441.84 13.71, 423.38 -2.33 M454.68 19.58 C448.61 14.3, 442.54 9.02, 429.02 -2.73 M454.68 19.58 C445.97 12, 437.25 4.42, 429.02 -2.73 M454.29 13.94 C446.91 7.52, 439.54 1.11, 435.42 -2.47 M454.29 13.94 C448.64 9.03, 442.99 4.11, 435.42 -2.47 M454.65 8.95 C450.65 5.47, 446.65 2, 441.07 -2.86 M454.65 8.95 C451.16 5.92, 447.68 2.89, 441.07 -2.86 M454.26 3.31 C451.94 1.3, 449.63 -0.71, 447.46 -2.6 M454.26 3.31 C451.9 1.26, 449.55 -0.78, 447.46 -2.6" stroke="#ffc9c9" stroke-width="0.5" fill="none"></path><path d="M0 0 C160.93 0, 321.86 0, 452.12 0 M0 0 C97.62 0, 195.23 0, 452.12 0 M452.12 0 C452.12 17.56, 452.12 35.12, 452.12 58.93 M452.12 0 C452.12 15.02, 452.12 30.03, 452.12 58.93 M452.12 58.93 C307.66 58.93, 163.21 58.93, 0 58.93 M452.12 58.93 C286.59 58.93, 121.06 58.93, 0 58.93 M0 58.93 C0 43.21, 0 27.48, 0 0 M0 58.93 C0 38.74, 0 18.55, 0 0" stroke="transparent" stroke-width="1" fill="none"></path></g><g stroke-linecap="round" transform="translate(85.35223288139684 269.71537088324436) rotate(0 116.55253787266423 28.94136707227308)"><path d="M0 0 C0 0, 0 0, 0 0 M0 0 C0 0, 0 0, 0 0 M-0.26 6.4 C1.72 4.11, 3.71 1.83, 4.99 0.36 M-0.26 6.4 C1.67 4.17, 3.6 1.95, 4.99 0.36 M0.13 12.04 C2.66 9.13, 5.19 6.22, 10.63 -0.03 M0.13 12.04 C3.55 8.11, 6.98 4.17, 10.63 -0.03 M-0.13 18.44 C3.68 14.06, 7.49 9.67, 15.62 0.33 M-0.13 18.44 C3.04 14.8, 6.2 11.16, 15.62 0.33 M0.27 24.08 C7.99 15.2, 15.7 6.32, 21.26 -0.07 M0.27 24.08 C5.27 18.32, 10.28 12.57, 21.26 -0.07 M0 30.48 C7.4 21.98, 14.79 13.47, 26.25 0.29 M0 30.48 C6.27 23.27, 12.53 16.07, 26.25 0.29 M-0.26 36.88 C7.27 28.22, 14.8 19.56, 31.89 -0.1 M-0.26 36.88 C9.34 25.83, 18.94 14.79, 31.89 -0.1 M0.14 42.52 C10.1 31.06, 20.07 19.59, 36.88 0.26 M0.14 42.52 C9.39 31.88, 18.64 21.24, 36.88 0.26 M-0.12 48.92 C14.57 32.02, 29.26 15.11, 42.52 -0.14 M-0.12 48.92 C8.79 38.66, 17.71 28.4, 42.52 -0.14 M0.27 54.56 C15.4 37.16, 30.53 19.75, 47.51 0.22 M0.27 54.56 C19.15 32.84, 38.03 11.13, 47.51 0.22 M1.32 59.45 C16.3 42.22, 31.28 24.99, 53.15 -0.17 M1.32 59.45 C17.45 40.89, 33.58 22.34, 53.15 -0.17 M6.96 59.05 C26.13 37.01, 45.29 14.97, 58.14 0.19 M6.96 59.05 C23.9 39.57, 40.83 20.09, 58.14 0.19 M11.95 59.42 C24.57 44.9, 37.19 30.38, 63.78 -0.21 M11.95 59.42 C26.76 42.38, 41.57 25.35, 63.78 -0.21 M17.59 59.02 C33.72 40.47, 49.85 21.91, 68.77 0.15 M17.59 59.02 C32.09 42.35, 46.58 25.68, 68.77 0.15 M22.58 59.38 C36.58 43.28, 50.58 27.17, 74.41 -0.24 M22.58 59.38 C35.65 44.35, 48.72 29.31, 74.41 -0.24 M28.23 58.99 C41.53 43.68, 54.83 28.38, 79.4 0.12 M28.23 58.99 C47.83 36.43, 67.44 13.87, 79.4 0.12 M33.21 59.35 C44.44 46.43, 55.67 33.51, 85.04 -0.28 M33.21 59.35 C47.17 43.29, 61.12 27.24, 85.04 -0.28 M38.86 58.95 C52.27 43.52, 65.68 28.09, 90.03 0.08 M38.86 58.95 C56.59 38.55, 74.33 18.15, 90.03 0.08 M43.84 59.31 C55.1 46.36, 66.35 33.42, 95.67 -0.31 M43.84 59.31 C56.01 45.31, 68.19 31.31, 95.67 -0.31 M49.49 58.92 C60.29 46.49, 71.09 34.06, 100.66 0.05 M49.49 58.92 C68.84 36.65, 88.2 14.39, 100.66 0.05 M54.47 59.28 C74.75 35.95, 95.03 12.62, 106.3 -0.34 M54.47 59.28 C74.47 36.28, 94.46 13.28, 106.3 -0.34 M60.12 58.88 C77.11 39.33, 94.11 19.78, 111.29 0.02 M60.12 58.88 C74.04 42.87, 87.96 26.86, 111.29 0.02 M65.1 59.24 C82.75 38.95, 100.39 18.65, 116.27 0.38 M65.1 59.24 C85.46 35.82, 105.82 12.4, 116.27 0.38 M70.75 58.85 C85.4 41.99, 100.06 25.13, 121.92 -0.02 M70.75 58.85 C86.65 40.55, 102.56 22.25, 121.92 -0.02 M75.73 59.21 C89.52 43.35, 103.3 27.49, 126.91 0.34 M75.73 59.21 C90.37 42.37, 105.02 25.52, 126.91 0.34 M80.72 59.57 C94.77 43.41, 108.81 27.25, 132.55 -0.05 M80.72 59.57 C99.73 37.7, 118.74 15.84, 132.55 -0.05 M86.36 59.17 C98.78 44.89, 111.2 30.6, 137.54 0.31 M86.36 59.17 C101.95 41.24, 117.54 23.31, 137.54 0.31 M91.35 59.53 C107.89 40.51, 124.43 21.48, 143.18 -0.09 M91.35 59.53 C101.75 47.56, 112.16 35.59, 143.18 -0.09 M96.99 59.14 C113.79 39.82, 130.58 20.5, 148.17 0.27 M96.99 59.14 C109.6 44.64, 122.21 30.14, 148.17 0.27 M101.98 59.5 C122.7 35.66, 143.42 11.83, 153.81 -0.12 M101.98 59.5 C120.79 37.86, 139.61 16.21, 153.81 -0.12 M107.62 59.1 C121.72 42.89, 135.81 26.68, 158.8 0.24 M107.62 59.1 C125.2 38.88, 142.78 18.66, 158.8 0.24 M112.61 59.46 C129.08 40.52, 145.55 21.57, 164.44 -0.16 M112.61 59.46 C127.78 42.02, 142.95 24.57, 164.44 -0.16 M118.25 59.07 C129.5 46.13, 140.75 33.19, 169.43 0.2 M118.25 59.07 C137.05 37.44, 155.86 15.81, 169.43 0.2 M123.24 59.43 C134.34 46.66, 145.44 33.89, 175.07 -0.19 M123.24 59.43 C134.54 46.43, 145.84 33.44, 175.07 -0.19 M128.88 59.04 C148.47 36.5, 168.05 13.97, 180.06 0.17 M128.88 59.04 C145.68 39.71, 162.47 20.39, 180.06 0.17 M133.87 59.4 C147.64 43.55, 161.42 27.7, 185.7 -0.23 M133.87 59.4 C147.15 44.12, 160.44 28.83, 185.7 -0.23 M139.51 59 C158.52 37.13, 177.53 15.27, 190.69 0.13 M139.51 59 C158.72 36.91, 177.92 14.81, 190.69 0.13 M144.5 59.36 C164.47 36.39, 184.44 13.42, 196.33 -0.26 M144.5 59.36 C160.77 40.64, 177.04 21.93, 196.33 -0.26 M150.14 58.97 C164.43 42.53, 178.72 26.09, 201.32 0.1 M150.14 58.97 C165.35 41.48, 180.55 23.99, 201.32 0.1 M155.13 59.33 C171.79 40.16, 188.45 21, 206.96 -0.3 M155.13 59.33 C175.16 36.29, 195.18 13.25, 206.96 -0.3 M160.77 58.93 C180.49 36.26, 200.2 13.58, 211.95 0.06 M160.77 58.93 C172.08 45.92, 183.39 32.91, 211.95 0.06 M165.76 59.29 C184.36 37.9, 202.96 16.5, 217.59 -0.33 M165.76 59.29 C179.14 43.9, 192.51 28.52, 217.59 -0.33 M171.4 58.9 C184.43 43.91, 197.45 28.93, 222.58 0.03 M171.4 58.9 C187.45 40.44, 203.5 21.98, 222.58 0.03 M176.39 59.26 C187.7 46.25, 199 33.25, 228.22 -0.36 M176.39 59.26 C186.89 47.18, 197.4 35.09, 228.22 -0.36 M182.03 58.86 C194.23 44.84, 206.42 30.81, 233.21 0 M182.03 58.86 C196.38 42.35, 210.74 25.85, 233.21 0 M187.02 59.22 C203.36 40.43, 219.7 21.63, 232.94 6.39 M187.02 59.22 C200 44.29, 212.98 29.36, 232.94 6.39 M192.01 59.58 C207.44 41.83, 222.87 24.08, 233.34 12.04 M192.01 59.58 C203.01 46.93, 214.01 34.27, 233.34 12.04 M197.65 59.19 C207.02 48.42, 216.38 37.64, 233.08 18.43 M197.65 59.19 C206.5 49.01, 215.35 38.83, 233.08 18.43 M202.64 59.55 C211.36 49.52, 220.07 39.49, 233.47 24.08 M202.64 59.55 C213.57 46.97, 224.51 34.39, 233.47 24.08 M208.28 59.15 C217.56 48.48, 226.83 37.81, 233.21 30.48 M208.28 59.15 C214.39 52.13, 220.49 45.11, 233.21 30.48 M213.27 59.51 C218.69 53.28, 224.1 47.05, 232.95 36.87 M213.27 59.51 C218.55 53.44, 223.84 47.36, 232.95 36.87 M218.91 59.12 C223.87 53.42, 228.82 47.71, 233.34 42.52 M218.91 59.12 C223.21 54.18, 227.5 49.24, 233.34 42.52 M223.9 59.48 C226.15 56.88, 228.41 54.29, 233.08 48.91 M223.9 59.48 C226.37 56.63, 228.85 53.78, 233.08 48.91 M229.54 59.09 C231.03 57.37, 232.52 55.66, 233.48 54.56 M229.54 59.09 C230.43 58.06, 231.33 57.03, 233.48 54.56 M0.02 57.9 C0.02 57.9, 0.02 57.9, 0.02 57.9 M0.02 57.9 C0.02 57.9, 0.02 57.9, 0.02 57.9 M6.42 58.16 C4.29 56.31, 2.15 54.45, -0.38 52.26 M6.42 58.16 C4.1 56.15, 1.79 54.14, -0.38 52.26 M12.06 57.77 C9.29 55.36, 6.52 52.95, -0.02 47.27 M12.06 57.77 C8.72 54.87, 5.39 51.97, -0.02 47.27 M18.46 58.03 C12.64 52.97, 6.82 47.91, 0.34 42.28 M18.46 58.03 C12.37 52.73, 6.28 47.44, 0.34 42.28 M24.1 57.63 C17.77 52.13, 11.44 46.63, -0.05 36.64 M24.1 57.63 C19.25 53.42, 14.41 49.21, -0.05 36.64 M30.5 57.89 C24.19 52.41, 17.89 46.93, 0.31 31.65 M30.5 57.89 C18.45 47.42, 6.4 36.95, 0.31 31.65 M36.9 58.16 C25.39 48.15, 13.88 38.15, -0.08 26.01 M36.9 58.16 C27.63 50.1, 18.37 42.05, -0.08 26.01 M42.54 57.76 C28.98 45.97, 15.42 34.19, 0.28 21.02 M42.54 57.76 C29.66 46.57, 16.78 35.37, 0.28 21.02 M48.94 58.02 C34.16 45.17, 19.38 32.33, -0.12 15.38 M48.94 58.02 C35.07 45.97, 21.2 33.91, -0.12 15.38 M54.58 57.63 C41.7 46.43, 28.82 35.24, 0.24 10.39 M54.58 57.63 C37.35 42.65, 20.11 27.66, 0.24 10.39 M60.98 57.89 C40.02 39.67, 19.06 21.45, -0.15 4.75 M60.98 57.89 C43.04 42.3, 25.1 26.7, -0.15 4.75 M67.38 58.15 C49.01 42.19, 30.65 26.23, 0.21 -0.24 M67.38 58.15 C47.91 41.23, 28.45 24.31, 0.21 -0.24 M73.02 57.76 C57.6 44.35, 42.17 30.94, 6.6 0.02 M73.02 57.76 C51.89 39.39, 30.76 21.02, 6.6 0.02 M79.42 58.02 C53.78 35.73, 28.15 13.45, 12.25 -0.37 M79.42 58.02 C54.91 36.72, 30.41 15.42, 12.25 -0.37 M85.06 57.62 C61.7 37.32, 38.34 17.01, 18.65 -0.11 M85.06 57.62 C63.07 38.51, 41.09 19.4, 18.65 -0.11 M91.46 57.88 C74.69 43.31, 57.92 28.73, 24.29 -0.5 M91.46 57.88 C73.08 41.91, 54.7 25.93, 24.29 -0.5 M97.86 58.15 C73.04 36.57, 48.21 14.99, 30.69 -0.24 M97.86 58.15 C74.64 37.97, 51.43 17.79, 30.69 -0.24 M103.5 57.75 C90.14 46.14, 76.78 34.53, 37.08 0.02 M103.5 57.75 C87.78 44.09, 72.06 30.42, 37.08 0.02 M109.9 58.01 C87.07 38.17, 64.24 18.32, 42.73 -0.38 M109.9 58.01 C88.79 39.67, 67.68 21.32, 42.73 -0.38 M115.54 57.62 C95.9 40.55, 76.26 23.48, 49.13 -0.11 M115.54 57.62 C98.04 42.41, 80.54 27.19, 49.13 -0.11 M121.94 57.88 C108.31 46.04, 94.69 34.19, 54.77 -0.51 M121.94 57.88 C106.59 44.54, 91.24 31.19, 54.77 -0.51 M128.34 58.14 C112.96 44.78, 97.58 31.41, 61.17 -0.25 M128.34 58.14 C111.37 43.39, 94.4 28.64, 61.17 -0.25 M133.98 57.75 C115.08 41.32, 96.19 24.9, 67.56 0.01 M133.98 57.75 C119.43 45.1, 104.89 32.46, 67.56 0.01 M140.38 58.01 C124.77 44.44, 109.17 30.88, 73.21 -0.38 M140.38 58.01 C120.79 40.98, 101.2 23.96, 73.21 -0.38 M146.02 57.61 C119.66 34.7, 93.31 11.8, 79.6 -0.12 M146.02 57.61 C129.06 42.87, 112.1 28.12, 79.6 -0.12 M152.42 57.88 C127.34 36.07, 102.26 14.27, 85.25 -0.51 M152.42 57.88 C128.42 37.02, 104.43 16.16, 85.25 -0.51 M158.81 58.14 C136.13 38.42, 113.44 18.7, 91.65 -0.25 M158.81 58.14 C142.27 43.75, 125.72 29.37, 91.65 -0.25 M164.46 57.74 C147.49 42.99, 130.53 28.25, 98.04 0.01 M164.46 57.74 C150.17 45.32, 135.88 32.9, 98.04 0.01 M170.86 58 C144.58 35.17, 118.31 12.33, 103.69 -0.39 M170.86 58 C148.04 38.17, 125.22 18.34, 103.69 -0.39 M176.5 57.61 C155.39 39.26, 134.28 20.9, 110.08 -0.12 M176.5 57.61 C155.23 39.12, 133.96 20.63, 110.08 -0.12 M182.9 57.87 C167.67 44.63, 152.44 31.39, 115.73 -0.52 M182.9 57.87 C167.97 44.89, 153.04 31.92, 115.73 -0.52 M189.29 58.13 C166.73 38.52, 144.16 18.9, 122.12 -0.26 M189.29 58.13 C168.04 39.66, 146.79 21.18, 122.12 -0.26 M194.94 57.74 C181.63 46.17, 168.32 34.6, 128.52 0 M194.94 57.74 C180.33 45.04, 165.73 32.35, 128.52 0 M201.33 58 C179.78 39.26, 158.23 20.53, 134.17 -0.39 M201.33 58 C178.73 38.35, 156.13 18.7, 134.17 -0.39 M206.98 57.6 C190.13 42.96, 173.28 28.31, 140.56 -0.13 M206.98 57.6 C180.57 34.65, 154.16 11.69, 140.56 -0.13 M213.38 57.87 C198.61 45.03, 183.85 32.2, 146.21 -0.52 M213.38 57.87 C193.05 40.2, 172.73 22.53, 146.21 -0.52 M219.77 58.13 C205.38 45.62, 190.99 33.11, 152.6 -0.26 M219.77 58.13 C202.35 42.98, 184.92 27.83, 152.6 -0.26 M225.42 57.73 C211.09 45.28, 196.76 32.82, 159 0 M225.42 57.73 C210.43 44.7, 195.44 31.68, 159 0 M231.81 57.99 C211.96 40.73, 192.1 23.47, 164.65 -0.4 M231.81 57.99 C215.12 43.48, 198.43 28.97, 164.65 -0.4 M235.19 55.63 C220.58 42.93, 205.97 30.23, 171.04 -0.13 M235.19 55.63 C215.57 38.57, 195.95 21.52, 171.04 -0.13 M234.8 49.99 C211.71 29.91, 188.61 9.84, 176.69 -0.53 M234.8 49.99 C220.45 37.52, 206.1 25.04, 176.69 -0.53 M235.16 45 C224.18 35.46, 213.2 25.91, 183.08 -0.27 M235.16 45 C223.06 34.48, 210.95 23.96, 183.08 -0.27 M234.76 39.36 C225.49 31.29, 216.21 23.23, 189.48 -0.01 M234.76 39.36 C222.27 28.5, 209.78 17.64, 189.48 -0.01 M235.12 34.37 C224.89 25.47, 214.66 16.58, 195.12 -0.4 M235.12 34.37 C223.78 24.51, 212.44 14.65, 195.12 -0.4 M235.48 29.38 C225.66 20.84, 215.83 12.29, 201.52 -0.14 M235.48 29.38 C222.05 17.7, 208.61 6.02, 201.52 -0.14 M235.09 23.74 C227 16.71, 218.91 9.68, 207.17 -0.53 M235.09 23.74 C228.76 18.24, 222.44 12.74, 207.17 -0.53 M235.45 18.75 C230.89 14.79, 226.33 10.82, 213.56 -0.27 M235.45 18.75 C230.95 14.84, 226.45 10.93, 213.56 -0.27 M235.06 13.11 C229.4 8.19, 223.74 3.27, 219.96 -0.01 M235.06 13.11 C231.77 10.25, 228.48 7.39, 219.96 -0.01 M235.42 8.12 C233.4 6.38, 231.39 4.63, 225.6 -0.4 M235.42 8.12 C232.04 5.19, 228.66 2.25, 225.6 -0.4 M235.02 2.48 C234.39 1.93, 233.75 1.38, 232 -0.14 M235.02 2.48 C234.11 1.69, 233.19 0.89, 232 -0.14" stroke="#a5d8ff" stroke-width="0.5" fill="none"></path><path d="M0 0 C57.5 0, 115 0, 233.11 0 M0 0 C78.33 0, 156.67 0, 233.11 0 M233.11 0 C233.11 21.1, 233.11 42.2, 233.11 57.88 M233.11 0 C233.11 22.04, 233.11 44.08, 233.11 57.88 M233.11 57.88 C181.87 57.88, 130.63 57.88, 0 57.88 M233.11 57.88 C156.29 57.88, 79.47 57.88, 0 57.88 M0 57.88 C0 37.44, 0 17, 0 0 M0 57.88 C0 42.9, 0 27.92, 0 0" stroke="transparent" stroke-width="1" fill="none"></path></g><g stroke-linecap="round" transform="translate(325.3466508056497 171.77094568088177) rotate(0 43.167965107531245 29.466025933135267)"><path d="M0 0 L86.34 0 L86.34 58.93 L0 58.93" stroke="none" stroke-width="0" fill="#ffec99"></path><path d="M0 0 C32.99 0, 65.98 0, 86.34 0 M0 0 C20.18 0, 40.36 0, 86.34 0 M86.34 0 C86.34 12.15, 86.34 24.31, 86.34 58.93 M86.34 0 C86.34 13.63, 86.34 27.25, 86.34 58.93 M86.34 58.93 C54.51 58.93, 22.69 58.93, 0 58.93 M86.34 58.93 C66.13 58.93, 45.92 58.93, 0 58.93 M0 58.93 C0 44.89, 0 30.85, 0 0 M0 58.93 C0 35.36, 0 11.79, 0 0" stroke="transparent" stroke-width="1" fill="none"></path></g><g stroke-linecap="round" transform="translate(594.1853647883675 81.43432399306772) rotate(0 37.359318739305195 125.35863600415875)"><path d="M0.88 -0.17 L73.59 -1.61 L76.68 249.44 L0.34 251.48" stroke="none" stroke-width="0" fill="#d0bfff"></path><path d="M-0.13 -0.59 C14.04 -0.39, 30.54 -2.09, 72.91 -0.27 M-0.92 0.91 C24.81 -0.38, 51.28 -0.17, 74.13 0.73 M75.18 0.86 C76.73 88.71, 77.08 177.56, 75.02 251.38 M74.66 -0.1 C74.43 70.6, 74.7 140.1, 74.32 250.5 M74.18 251.88 C53.43 250.77, 30.77 249.76, -0.52 252.33 M75.63 250.96 C44.78 250.84, 14.93 250.93, -0.74 251.71 M-0.85 252.05 C-0.2 173.12, 2.3 100.17, -0.79 -1.48 M0.03 251.46 C1.9 171.36, 1.61 91.19, -0.35 0.1" stroke="transparent" stroke-width="1" fill="none"></path></g><g stroke-linecap="round" transform="translate(601.3828444503115 87.49682713431679) rotate(0 30.097539894917873 117.51048436302943)"><path d="M0.86 0.27 L58.95 -0.94 L61.42 233.99 L-0.47 236.83" stroke="none" stroke-width="0" fill="#ffffff"></path><path d="M0.41 -1.41 C14.63 -1.42, 25.86 1.23, 60.89 -1.84 M-0.72 -0.11 C24.75 0.55, 47.14 -0.77, 60.86 0.95 M61.79 0.36 C59.92 68.46, 60.28 140.99, 61.4 235.93 M59.86 -0.48 C61.42 69.93, 62.14 140.86, 60.92 235.12 M62.05 234.1 C48.34 234, 31.72 236.19, -0.29 235.78 M60.38 234.55 C39.33 234.52, 17.69 235.86, -0.4 235.08 M-0.26 236.04 C-0.47 184.18, 0.16 128.98, -0.63 -1 M0.31 235.11 C-1.28 184.57, -1.68 135.16, 0.3 -0.29" stroke="transparent" stroke-width="1" fill="none"></path></g><g transform="translate(604.5811249427168 127.53445026376) rotate(0 27.27083396911621 80)"><text x="27.27083396911621" y="0" font-family="Virgil, Segoe UI Emoji" font-size="16px" fill="#1e1e1e" text-anchor="middle" style="white-space: pre;" direction="ltr" dominant-baseline="text-before-edge">Render</text><text x="27.27083396911621" y="20" font-family="Virgil, Segoe UI Emoji" font-size="16px" fill="#1e1e1e" text-anchor="middle" style="white-space: pre;" direction="ltr" dominant-baseline="text-before-edge">tree</text><text x="27.27083396911621" y="40" font-family="Virgil, Segoe UI Emoji" font-size="16px" fill="#1e1e1e" text-anchor="middle" style="white-space: pre;" direction="ltr" dominant-baseline="text-before-edge"></text><text x="27.27083396911621" y="60" font-family="Virgil, Segoe UI Emoji" font-size="16px" fill="#1e1e1e" text-anchor="middle" style="white-space: pre;" direction="ltr" dominant-baseline="text-before-edge"></text><text x="27.27083396911621" y="80" font-family="Virgil, Segoe UI Emoji" font-size="16px" fill="#1e1e1e" text-anchor="middle" style="white-space: pre;" direction="ltr" dominant-baseline="text-before-edge">Layout</text><text x="27.27083396911621" y="100" font-family="Virgil, Segoe UI Emoji" font-size="16px" fill="#1e1e1e" text-anchor="middle" style="white-space: pre;" direction="ltr" dominant-baseline="text-before-edge"></text><text x="27.27083396911621" y="120" font-family="Virgil, Segoe UI Emoji" font-size="16px" fill="#1e1e1e" text-anchor="middle" style="white-space: pre;" direction="ltr" dominant-baseline="text-before-edge"></text><text x="27.27083396911621" y="140" font-family="Virgil, Segoe UI Emoji" font-size="16px" fill="#1e1e1e" text-anchor="middle" style="white-space: pre;" direction="ltr" dominant-baseline="text-before-edge">Paint</text></g><g stroke-linecap="round" transform="translate(496.60398428498115 81.25055882476494) rotate(0 33.27709314785625 29.466025933135313)"><path d="M0 0 L66.55 0 L66.55 58.93 L0 58.93" stroke="none" stroke-width="0" fill="#ffc9c9"></path><path d="M0 0 C23.49 0, 46.98 0, 66.55 0 M0 0 C13.71 0, 27.43 0, 66.55 0 M66.55 0 C66.55 22.41, 66.55 44.82, 66.55 58.93 M66.55 0 C66.55 17.31, 66.55 34.62, 66.55 58.93 M66.55 58.93 C46.59 58.93, 26.62 58.93, 0 58.93 M66.55 58.93 C40.22 58.93, 13.88 58.93, 0 58.93 M0 58.93 C0 43.58, 0 28.23, 0 0 M0 58.93 C0 36.43, 0 13.94, 0 0" stroke="transparent" stroke-width="1" fill="none"></path></g><g stroke-linecap="round" transform="translate(505.57141320083633 89.9831254007326) rotate(0 25.267070529066814 21.551324863027574)"><path d="M-1.03 1.57 L49.86 -1.63 L49.69 44.51 L0.19 42.35" stroke="none" stroke-width="0" fill="#ffffff"></path><path d="M0.71 0.2 C18.94 -0.76, 37.85 -1.09, 50.02 -1.33 M0.33 0.5 C14.59 0.09, 30.04 -1.38, 50.19 0.64 M49.29 -1.89 C49.18 14.24, 50.84 29.06, 49.24 44.65 M49.9 0.84 C51.1 13.99, 50.85 29.58, 50.24 43.58 M48.71 42.44 C31.86 43.22, 14.99 42.27, 1.33 43.91 M50.47 42.22 C34.88 42.56, 17.39 43.04, -0.65 43.99 M0.48 43.88 C-0.85 27.01, -0.03 12.67, 1.62 -1.12 M0.95 42.85 C-0.45 27.42, 1.04 12.09, -0.06 -0.54" stroke="transparent" stroke-width="1" fill="none"></path></g><g transform="translate(512.7343176990194 103.1440641324345) rotate(0 18.10416603088379 10)"><text x="18.10416603088379" y="0" font-family="Virgil, Segoe UI Emoji" font-size="16px" fill="#1e1e1e" text-anchor="middle" style="white-space: pre;" direction="ltr" dominant-baseline="text-before-edge">DOM</text></g><g stroke-linecap="round" transform="translate(364.46574269929397 271.2284702472015) rotate(0 40.883941112276375 28.94136707227308)"><path d="M0 0 L81.77 0 L81.77 57.88 L0 57.88" stroke="none" stroke-width="0" fill="#a5d8ff"></path><path d="M0 0 C23.96 0, 47.93 0, 81.77 0 M0 0 C32.52 0, 65.04 0, 81.77 0 M81.77 0 C81.77 15.16, 81.77 30.32, 81.77 57.88 M81.77 0 C81.77 18.13, 81.77 36.25, 81.77 57.88 M81.77 57.88 C63.44 57.88, 45.12 57.88, 0 57.88 M81.77 57.88 C53.96 57.88, 26.15 57.88, 0 57.88 M0 57.88 C0 37.59, 0 17.3, 0 0 M0 57.88 C0 37.72, 0 17.55, 0 0" stroke="transparent" stroke-width="1" fill="none"></path></g><g stroke-linecap="round" transform="translate(375.0502818377398 279.44792886966314) rotate(0 30.840689028125723 21.551324863027574)"><path d="M-0.09 -1.86 L59.69 0.67 L63.63 41.4 L0.68 42.25" stroke="none" stroke-width="0" fill="#ffffff"></path><path d="M-0.74 0.53 C15.29 -1.95, 30.96 0, 63 -0.35 M0.19 -0.72 C20.83 -0.87, 42.75 -0.64, 61.99 -0.52 M61.18 0.04 C61.98 17.87, 60.17 34.1, 60.43 44.25 M60.81 0.64 C61.38 17, 61.14 34.08, 62.11 44.09 M62.3 43.42 C42.42 44.24, 22.41 42.87, 0.31 43.8 M61.33 42.53 C47.43 42.35, 31.69 42.92, 0.57 43.44 M1.36 41.35 C-1.22 33.21, -1.76 25.57, 1.66 -1.5 M-0.08 42.6 C0.66 28.71, -1.06 16.6, -0.59 0.04" stroke="transparent" stroke-width="1" fill="none"></path></g><g transform="translate(381.0405097297689 290.86571846815735) rotate(0 26.70833396911621 10)"><text x="26.70833396911621" y="0" font-family="Virgil, Segoe UI Emoji" font-size="16px" fill="#1e1e1e" text-anchor="middle" style="white-space: pre;" direction="ltr" dominant-baseline="text-before-edge">CSSOM</text></g><g stroke-linecap="round" transform="translate(93.36601402823794 279.55937590902914) rotate(0 106.10663376831621 20.34921743501957)"><path d="M0 0 L212.21 0 L212.21 40.7 L0 40.7" stroke="none" stroke-width="0" fill="#ffffff"></path><path d="M0 0 C77.6 0, 155.21 0, 212.21 0 M0 0 C59.03 0, 118.06 0, 212.21 0 M212.21 0 C212.21 14.46, 212.21 28.92, 212.21 40.7 M212.21 0 C212.21 14.71, 212.21 29.42, 212.21 40.7 M212.21 40.7 C132.13 40.7, 52.05 40.7, 0 40.7 M212.21 40.7 C159.54 40.7, 106.87 40.7, 0 40.7 M0 40.7 C0 28.13, 0 15.57, 0 0 M0 40.7 C0 29.77, 0 18.83, 0 0" stroke="transparent" stroke-width="1" fill="none"></path></g><g stroke-linecap="round"><g transform="translate(44.76640407335594 147.1851644853487) rotate(0 18.221626637841325 72.47661956497461)"><path d="M-0.81 1.69 C-0.66 40.27, 2.45 82.84, 0.71 143.99 M0.11 0.08 C2.71 32.75, 1.84 65.42, 3.07 144.23 M0.57 144.87 C10.74 142.3, 18.39 142.39, 37.25 143.3 M1.79 144.41 C11.74 144.24, 23.01 144.66, 35.17 144.23" stroke="#1e1e1e" stroke-width="1" fill="none"></path></g><g transform="translate(44.76640407335594 147.1851644853487) rotate(0 18.221626637841325 72.47661956497461)"><path d="M18.89 151.65 C22.32 148.06, 28.87 147.72, 34.02 144.31 M19.66 150.31 C23.82 149.02, 26.22 147.79, 35.99 144.5" stroke="#1e1e1e" stroke-width="1" fill="none"></path></g><g transform="translate(44.76640407335594 147.1851644853487) rotate(0 18.221626637841325 72.47661956497461)"><path d="M18.68 140.21 C22.23 139.88, 28.83 142.79, 34.02 144.31 M19.44 138.87 C23.75 140.17, 26.21 141.52, 35.99 144.5" stroke="#1e1e1e" stroke-width="1" fill="none"></path></g></g><mask></mask><g stroke-linecap="round"><g transform="translate(89.92745540583223 145.73164895427573) rotate(0 15.972084054093216 26.40690463776086)"><path d="M0.1 -1.48 C2.29 18.06, 0.9 35.36, 2.51 54.22 M0.33 -0.63 C1.2 14.07, -0.23 28.34, 1 52.92 M-0.7 54.06 C10.13 54.32, 21.01 54.41, 31.55 54.09 M0.23 53.04 C9.81 53.54, 20.54 53.43, 32.64 53.78" stroke="#1e1e1e" stroke-width="1" fill="none"></path></g><g transform="translate(89.92745540583223 145.73164895427573) rotate(0 15.972084054093216 26.40690463776086)"><path d="M17.3 57.83 C23.72 57.79, 27.47 55.84, 34.16 54.14 M17.49 58.52 C21.88 57.64, 24.57 56.56, 32.93 53.08" stroke="#1e1e1e" stroke-width="1" fill="none"></path></g><g transform="translate(89.92745540583223 145.73164895427573) rotate(0 15.972084054093216 26.40690463776086)"><path d="M17.53 46.68 C23.93 50.3, 27.6 51.98, 34.16 54.14 M17.72 47.38 C22.09 49.38, 24.72 51.19, 32.93 53.08" stroke="#1e1e1e" stroke-width="1" fill="none"></path></g></g><mask></mask><g transform="translate(52.75383832446914 246.02422059830093) rotate(0 39.88541793823242 10)"><text x="39.88541793823242" y="0" font-family="Virgil, Segoe UI Emoji" font-size="16px" fill="#1e1e1e" text-anchor="middle" style="white-space: pre;" direction="ltr" dominant-baseline="text-before-edge">CSS found</text></g><g transform="translate(103.46666342972799 148.63868001642146) rotate(0 34.95833206176758 10)"><text x="34.95833206176758" y="0" font-family="Virgil, Segoe UI Emoji" font-size="16px" fill="#1e1e1e" text-anchor="middle" style="white-space: pre;" direction="ltr" dominant-baseline="text-before-edge">JS found</text></g><g stroke-linecap="round" transform="translate(135.88134331211813 184.24981052770573) rotate(0 53.41669576692635 20.34921743501957)"><path d="M0 0 L106.83 0 L106.83 40.7 L0 40.7" stroke="none" stroke-width="0" fill="#ffffff"></path><path d="M0 0 C36.39 0, 72.77 0, 106.83 0 M0 0 C38.16 0, 76.33 0, 106.83 0 M106.83 0 C106.83 11.8, 106.83 23.6, 106.83 40.7 M106.83 0 C106.83 8.44, 106.83 16.87, 106.83 40.7 M106.83 40.7 C73.06 40.7, 39.29 40.7, 0 40.7 M106.83 40.7 C73.71 40.7, 40.58 40.7, 0 40.7 M0 40.7 C0 25.65, 0 10.6, 0 0 M0 40.7 C0 27.48, 0 14.26, 0 0" stroke="transparent" stroke-width="1" fill="none"></path></g><g transform="translate(142.99113667188487 195.15117701075195) rotate(0 47.76041793823242 10)"><text x="47.76041793823242" y="0" font-family="Virgil, Segoe UI Emoji" font-size="16px" fill="#1e1e1e" text-anchor="middle" style="white-space: pre;" direction="ltr" dominant-baseline="text-before-edge">JS download</text></g><g transform="translate(146.7964769547533 291.08320206155844) rotate(0 52.6875 10)"><text x="52.6875" y="0" font-family="Virgil, Segoe UI Emoji" font-size="16px" fill="#1e1e1e" text-anchor="middle" style="white-space: pre;" direction="ltr" dominant-baseline="text-before-edge">CSS download</text></g><g stroke-linecap="round"><g transform="translate(275.75098144943377 265.646680267784) rotate(0 -0.41528077502943006 -28.635882290480026)"><path d="M-1.14 1.06 C-1.09 -7.76, -2.19 -16.57, 0.1 -29.14 M0.12 0.33 C-0.8 -12.03, -0.69 -23.91, -0.53 -29.56 M0.53 -31 C-1.7 -37.69, 0.69 -47.49, 0.49 -58.22 M-1.08 -28.86 C-0.51 -38.96, -0.82 -49.33, 0.17 -58.33" stroke="#1e1e1e" stroke-width="1" fill="none"></path></g><g transform="translate(275.75098144943377 265.646680267784) rotate(0 -0.41528077502943006 -28.635882290480026)"><path d="M3.25 -43.95 C2.27 -47.97, 0.48 -52, 0.73 -57.87 M4.15 -44.47 C2.18 -50.31, 0.92 -55.8, 0.28 -58.16" stroke="#1e1e1e" stroke-width="1" fill="none"></path></g><g transform="translate(275.75098144943377 265.646680267784) rotate(0 -0.41528077502943006 -28.635882290480026)"><path d="M-6.42 -44.64 C-4.54 -48.49, -3.47 -52.32, 0.73 -57.87 M-5.52 -45.16 C-3.72 -50.72, -1.19 -55.94, 0.28 -58.16" stroke="#1e1e1e" stroke-width="1" fill="none"></path></g></g><mask></mask><g stroke-linecap="round"><g transform="translate(255.43299574285822 204.27274650378314) rotate(0 33.133928975048775 0.36812647364213547)"><path d="M-1.1 0.88 C18.12 -0.56, 33.83 -0.15, 67.37 0.15" stroke="#1e1e1e" stroke-width="1.5" fill="none" stroke-dasharray="8 9"></path></g></g><mask></mask><g stroke-linecap="round" transform="translate(334.64959218632725 182.0695372310965) rotate(0 33.430857214674916 20.34921743501957)"><path d="M0 0 L66.86 0 L66.86 40.7 L0 40.7" stroke="none" stroke-width="0" fill="#ffffff"></path><path d="M0 0 C18.92 0, 37.83 0, 66.86 0 M0 0 C26.42 0, 52.84 0, 66.86 0 M66.86 0 C66.86 13.15, 66.86 26.29, 66.86 40.7 M66.86 0 C66.86 12.02, 66.86 24.04, 66.86 40.7 M66.86 40.7 C46.56 40.7, 26.26 40.7, 0 40.7 M66.86 40.7 C52.96 40.7, 39.05 40.7, 0 40.7 M0 40.7 C0 28.76, 0 16.82, 0 0 M0 40.7 C0 30.23, 0 19.76, 0 0" stroke="transparent" stroke-width="1" fill="none"></path></g><g transform="translate(338.92179113565487 192.9709037141426) rotate(0 29.885416030883732 10)"><text x="29.88541603088379" y="0" font-family="Virgil, Segoe UI Emoji" font-size="16px" fill="#1e1e1e" text-anchor="middle" style="white-space: pre;" direction="ltr" dominant-baseline="text-before-edge">JS runs</text></g><g transform="translate(280.2488096213468 241.0242205983007) rotate(0 76.74999999999994 10)"><text x="76.75" y="0" font-family="Virgil, Segoe UI Emoji" font-size="16px" fill="#1e1e1e" text-anchor="middle" style="white-space: pre;" direction="ltr" dominant-baseline="text-before-edge">blocks JS execution</text></g><g stroke-linecap="round" transform="translate(23.96064741951045 91.95157430458136) rotate(0 214.3935408332418 20.34921743501957)"><path d="M0 0 L428.79 0 L428.79 40.7 L0 40.7" stroke="none" stroke-width="0" fill="#ffffff"></path><path d="M0 0 C155.03 0, 310.05 0, 428.79 0 M0 0 C127.54 0, 255.08 0, 428.79 0 M428.79 0 C428.79 14.99, 428.79 29.98, 428.79 40.7 M428.79 0 C428.79 14.38, 428.79 28.75, 428.79 40.7 M428.79 40.7 C326.97 40.7, 225.15 40.7, 0 40.7 M428.79 40.7 C327.98 40.7, 227.18 40.7, 0 40.7 M0 40.7 C0 28.77, 0 16.84, 0 0 M0 40.7 C0 31.19, 0 21.69, 0 0" stroke="transparent" stroke-width="1" fill="none"></path></g><g transform="translate(29.64464538259108 104.30645631870033) rotate(0 209.0729217529297 10)"><text x="209.0729217529297" y="0" font-family="Virgil, Segoe UI Emoji" font-size="16px" fill="#1e1e1e" text-anchor="middle" style="white-space: pre;" direction="ltr" dominant-baseline="text-before-edge">DOM built incrementally as HTML is being downloaded</text></g><g stroke-linecap="round"><g transform="translate(566.485319392443 111.57403397406443) rotate(0 13.158172544375816 -0.6114674003545133)"><path d="M-1.78 -1.42 C10.03 -0.18, 21.54 -0.86, 28.1 -0.73 M-0.99 0.26 C6.7 -0.31, 11.68 -0.62, 26.62 -1.49" stroke="#1e1e1e" stroke-width="1" fill="none"></path></g><g transform="translate(566.485319392443 111.57403397406443) rotate(0 13.158172544375816 -0.6114674003545133)"><path d="M13.06 2.9 C18.9 2.13, 24.5 0.04, 27.44 -1 M13.6 4.03 C17.55 2.74, 19.65 1.58, 26.44 -1.51" stroke="#1e1e1e" stroke-width="1" fill="none"></path></g><g transform="translate(566.485319392443 111.57403397406443) rotate(0 13.158172544375816 -0.6114674003545133)"><path d="M12.52 -6.29 C18.48 -3.62, 24.28 -2.26, 27.44 -1 M13.06 -5.16 C17.07 -4.46, 19.28 -3.61, 26.44 -1.51" stroke="#1e1e1e" stroke-width="1" fill="none"></path></g></g><mask></mask><g stroke-linecap="round"><g transform="translate(469.09977881056375 112.30079173960081) rotate(0 12.339561933320851 -0.24175131740048528)"><path d="M-0.74 -0.13 C7.89 -0.69, 17.03 -0.53, 22.78 0.42 M0.7 -0.66 C6.49 -0.49, 14.33 0.6, 25.41 -0.9" stroke="#1e1e1e" stroke-width="1" fill="none"></path></g><g transform="translate(469.09977881056375 112.30079173960081) rotate(0 12.339561933320851 -0.24175131740048528)"><path d="M13.73 4.18 C17.75 2.18, 22.11 0.63, 24.22 -0.64 M14.62 3.85 C17.05 2.48, 20.72 1.65, 25.85 -1.46" stroke="#1e1e1e" stroke-width="1" fill="none"></path></g><g transform="translate(469.09977881056375 112.30079173960081) rotate(0 12.339561933320851 -0.24175131740048528)"><path d="M13.04 -4.24 C17.32 -3.56, 21.9 -2.42, 24.22 -0.64 M13.93 -4.57 C16.5 -3.48, 20.36 -1.85, 25.85 -1.46" stroke="#1e1e1e" stroke-width="1" fill="none"></path></g></g><mask></mask><g stroke-linecap="round"><g transform="translate(323.0214679377448 296.65967237352703) rotate(0 18.63353109483677 0.9609413256254129)"><path d="M0.11 1.48 C13.24 -0.1, 26.24 1.14, 37.16 0.95 M0.45 0.29 C9.29 1.04, 20.18 1.47, 35.4 1.63" stroke="#1e1e1e" stroke-width="1" fill="none"></path></g><g transform="translate(323.0214679377448 296.65967237352703) rotate(0 18.63353109483677 0.9609413256254129)"><path d="M18.29 8.91 C24.28 4.55, 30.17 2.67, 36.15 0.42 M18.6 7.83 C22.27 6.37, 27.75 4.53, 34.55 1.04" stroke="#1e1e1e" stroke-width="1" fill="none"></path></g><g transform="translate(323.0214679377448 296.65967237352703) rotate(0 18.63353109483677 0.9609413256254129)"><path d="M18.5 -3.54 C24.43 -3.23, 30.23 -0.44, 36.15 0.42 M18.81 -4.62 C22.34 -2.6, 27.75 -0.97, 34.55 1.04" stroke="#1e1e1e" stroke-width="1" fill="none"></path></g></g><mask></mask><g stroke-linecap="round"><g transform="translate(450.9308346721534 301.98456854460466) rotate(0 69.39916609066256 0.12834364944313847)"><path d="M0.78 0.61 C16.82 0.52, 73.95 -0.51, 96.99 -0.65 C120.04 -0.8, 132.25 -0.35, 139.07 -0.25 M-0.27 -0.12 C15.52 -0.04, 72.66 0.36, 95.84 0.54 C119.02 0.72, 131.78 0.86, 138.82 0.94" stroke="#1e1e1e" stroke-width="1" fill="none"></path></g><g transform="translate(450.9308346721534 301.98456854460466) rotate(0 69.39916609066256 0.12834364944313847)"><path d="M120.64 7.04 C125.46 6.78, 133.06 2.44, 138.73 2.94 M119.64 7.72 C126.62 6.43, 133.16 3.47, 138.66 1.67" stroke="#1e1e1e" stroke-width="1" fill="none"></path></g><g transform="translate(450.9308346721534 301.98456854460466) rotate(0 69.39916609066256 0.12834364944313847)"><path d="M120.79 -6.88 C125.54 -2.13, 133.08 -1.45, 138.73 2.94 M119.8 -6.2 C126.66 -2.71, 133.15 -0.89, 138.66 1.67" stroke="#1e1e1e" stroke-width="1" fill="none"></path></g></g><mask></mask><g stroke-linecap="round"><g transform="translate(629.7132449941109 170.4414129825139) rotate(0 -0.31250537392566 17.61172952751104)"><path d="M-0.13 1.17 C-0.15 6.75, 0.86 27.77, 1.07 33.11 M-1.66 0.74 C-1.98 6.53, -0.4 28.87, -0.07 34.48" stroke="#1e1e1e" stroke-width="1" fill="none"></path></g><g transform="translate(629.7132449941109 170.4414129825139) rotate(0 -0.31250537392566 17.61172952751104)"><path d="M-5.14 18.62 C-4.58 24.92, -1.77 32.45, 1.26 35.13 M-7.07 19.38 C-3.47 24.55, -1.08 30.61, -0.14 35" stroke="#1e1e1e" stroke-width="1" fill="none"></path></g><g transform="translate(629.7132449941109 170.4414129825139) rotate(0 -0.31250537392566 17.61172952751104)"><path d="M6.28 17.91 C2.27 24.48, 0.51 32.29, 1.26 35.13 M4.35 18.67 C3.65 24.12, 1.74 30.44, -0.14 35" stroke="#1e1e1e" stroke-width="1" fill="none"></path></g></g><mask></mask><g stroke-linecap="round"><g transform="translate(628.2597294630382 231.4890652875726) rotate(0 0.7844411659737034 17.12383637436755)"><path d="M-0.39 0.5 C-0.21 6.38, 1.65 28.86, 1.96 34.52 M1.6 -0.28 C1.59 5.28, 1.42 27.15, 1.28 32.59" stroke="#1e1e1e" stroke-width="1" fill="none"></path></g><g transform="translate(628.2597294630382 231.4890652875726) rotate(0 0.7844411659737034 17.12383637436755)"><path d="M-3.6 17.17 C-1.81 22.54, 0.27 27.27, -0.06 33.18 M-3.49 16 C-3.64 20.71, -1.97 23.61, 1.75 32.41" stroke="#1e1e1e" stroke-width="1" fill="none"></path></g><g transform="translate(628.2597294630382 231.4890652875726) rotate(0 0.7844411659737034 17.12383637436755)"><path d="M8.09 17.35 C5.53 22.62, 3.26 27.28, -0.06 33.18 M8.2 16.18 C5.48 20.92, 4.58 23.77, 1.75 32.41" stroke="#1e1e1e" stroke-width="1" fill="none"></path></g></g><mask></mask><g stroke-linecap="round"><g transform="translate(38.13242384747059 47.619350606859996) rotate(0 -0.8676250409830573 14.729216992344078)"><path d="M-0.05 -0.47 C-0.08 4.34, -0.78 24.52, -0.98 29.72 M-1.54 -1.76 C-1.61 3.17, -1.62 26.12, -1.68 31.21" stroke="#1e1e1e" stroke-width="1" fill="none"></path></g><g transform="translate(38.13242384747059 47.619350606859996) rotate(0 -0.8676250409830573 14.729216992344078)"><path d="M-7.29 17.76 C-5.55 20.69, -3.17 25.06, -1.2 31.35 M-7.1 17.49 C-4.6 21.78, -4.03 25.56, -2.35 30.65" stroke="#1e1e1e" stroke-width="1" fill="none"></path></g><g transform="translate(38.13242384747059 47.619350606859996) rotate(0 -0.8676250409830573 14.729216992344078)"><path d="M2.91 17.81 C2.3 20.72, 2.33 25.09, -1.2 31.35 M3.11 17.54 C2.67 21.85, 0.31 25.62, -2.35 30.65" stroke="#1e1e1e" stroke-width="1" fill="none"></path></g></g><mask></mask><g transform="translate(10 23.63634434415843) rotate(0 58.65625 10)"><text x="58.65625" y="0" font-family="Virgil, Segoe UI Emoji" font-size="16px" fill="#1e1e1e" text-anchor="middle" style="white-space: pre;" direction="ltr" dominant-baseline="text-before-edge">GET index.html</text></g><g stroke-linecap="round"><g transform="translate(627.5329716975018 338.3224568214253) rotate(0 -0.5997488830643078 16.391793044840654)"><path d="M-0.14 -0.58 C-0.35 4.85, -1.65 27.76, -1.7 33.37 M-1.67 1.72 C-1.47 6.75, 0.4 26.73, 0.5 31.59" stroke="#1e1e1e" stroke-width="1" fill="none"></path></g><g transform="translate(627.5329716975018 338.3224568214253) rotate(0 -0.5997488830643078 16.391793044840654)"><path d="M-6.83 15.27 C-3.32 20.92, -2 25.74, -0.73 30.62 M-6.52 17.22 C-3.48 21.57, -0.76 27.89, 0.19 32.27" stroke="#1e1e1e" stroke-width="1" fill="none"></path></g><g transform="translate(627.5329716975018 338.3224568214253) rotate(0 -0.5997488830643078 16.391793044840654)"><path d="M4.34 14.58 C4.92 20.4, 3.29 25.4, -0.73 30.62 M4.65 16.53 C3.8 21.06, 2.63 27.62, 0.19 32.27" stroke="#1e1e1e" stroke-width="1" fill="none"></path></g></g><mask></mask><g transform="translate(493.07256057963605 374.66034509824595) rotate(0 87.94791412353516 10)"><text x="87.94791412353516" y="0" font-family="Virgil, Segoe UI Emoji" font-size="16px" fill="#1e1e1e" text-anchor="middle" style="white-space: pre;" direction="ltr" dominant-baseline="text-before-edge">First Contentful Paint</text></g><g stroke-linecap="round"><g transform="translate(133.82715672944653 35.85987658926848) rotate(0 255.85326872426486 -2.3518095088818853)"><path d="M-0.43 -1.06 C85.04 -1.86, 426.97 -3.34, 512.14 -3.65" stroke="#1e1e1e" stroke-width="1.5" fill="none" stroke-dasharray="8 9"></path></g><g transform="translate(133.82715672944653 35.85987658926848) rotate(0 255.85326872426486 -2.3518095088818853)"><path d="M482.23 7.45 C490.54 2.39, 498.62 2, 513.49 -4.16" stroke="#1e1e1e" stroke-width="1.5" fill="none"></path></g><g transform="translate(133.82715672944653 35.85987658926848) rotate(0 255.85326872426486 -2.3518095088818853)"><path d="M482.14 -13.07 C490.67 -13.13, 498.77 -8.52, 513.49 -4.16" stroke="#1e1e1e" stroke-width="1.5" fill="none"></path></g></g><mask></mask><g transform="translate(315.70479774644787 10) rotate(0 17.55208396911621 10)"><text x="17.55208396911621" y="0" font-family="Virgil, Segoe UI Emoji" font-size="16px" fill="#1e1e1e" text-anchor="middle" style="white-space: pre;" direction="ltr" dominant-baseline="text-before-edge">Time</text></g><g stroke-linecap="round"><g transform="translate(415.9041278459961 201.67127294078927) rotate(0 8.75830145089003 -27.932471492532613)"><path d="M0.03 -0.23 C5.43 -0.9, 12.65 -1.45, 16.29 0.15 M-0.63 0.65 C5.59 0.38, 12.07 -0.08, 15.25 0.51 M14.56 1.52 C17.13 -19.44, 17.38 -41.22, 18.14 -55.2 M16.61 0.59 C15.83 -20.12, 17.28 -42, 16.54 -57.38" stroke="#1e1e1e" stroke-width="1" fill="none"></path></g><g transform="translate(415.9041278459961 201.67127294078927) rotate(0 8.75830145089003 -27.932471492532613)"><path d="M26.69 -30.94 C22.3 -41.76, 20.45 -52.21, 17.12 -57.19 M25.86 -29.83 C22.11 -40.32, 18.87 -51.06, 15.81 -56.74" stroke="#1e1e1e" stroke-width="1" fill="none"></path></g><g transform="translate(415.9041278459961 201.67127294078927) rotate(0 8.75830145089003 -27.932471492532613)"><path d="M7.15 -30.7 C9.88 -41.46, 15.16 -51.99, 17.12 -57.19 M6.31 -29.59 C9.98 -40.16, 14.16 -50.99, 15.81 -56.74" stroke="#1e1e1e" stroke-width="1" fill="none"></path></g></g><mask></mask><g transform="translate(443.13411374978637 173.53604021553582) rotate(0 46.625 20)"><text x="0" y="0" font-family="Virgil, Segoe UI Emoji" font-size="16px" fill="#1e1e1e" text-anchor="start" style="white-space: pre;" direction="ltr" dominant-baseline="text-before-edge">JS may</text><text x="0" y="20" font-family="Virgil, Segoe UI Emoji" font-size="16px" fill="#1e1e1e" text-anchor="start" style="white-space: pre;" direction="ltr" dominant-baseline="text-before-edge">impact DOM</text></g></svg>