<?xml version="1.0" standalone="no"?>
<!DOCTYPE svg PUBLIC "-//W3C//DTD SVG 20010904//EN"
 "http://www.w3.org/TR/2001/REC-SVG-20010904/DTD/svg10.dtd">
<svg version="1.0" xmlns="http://www.w3.org/2000/svg"
 width="700.000000pt" height="700.000000pt" viewBox="0 0 700.000000 700.000000"
 preserveAspectRatio="xMidYMid meet">
<metadata>
Created by potrace 1.11, written by Peter Selinger 2001-2013
</metadata>
<g transform="translate(0.000000,700.000000) scale(0.100000,-0.100000)"
fill="#000000" stroke="none">
<path d="M2209 6540 c-4 -111 -1 -792 4 -796 4 -5 501 -8 645 -5 22 1 22 3 22
131 l0 130 -192 2 -193 3 0 127 c0 77 4 129 10 131 5 2 92 3 193 2 l182 -1 0
143 c0 141 0 143 -22 144 -13 0 -164 1 -336 2 -271 2 -312 0 -313 -13z"/>
<path d="M3177 6548 c-6 -4 -10 -57 -10 -145 l1 -138 133 -132 134 -133 -132
0 c-99 0 -133 -3 -134 -12 -3 -46 1 -241 5 -245 4 -4 535 -7 649 -4 15 1 17
14 17 131 l0 130 -130 127 c-71 71 -130 130 -130 133 0 3 57 5 127 5 l128 0 3
143 c3 142 3 142 -20 143 -179 4 -633 2 -641 -3z"/>
<path d="M4158 6552 l-38 -3 0 -143 0 -142 130 -127 c72 -71 130 -130 130
-133 0 -2 -58 -4 -130 -4 l-130 0 0 -130 0 -130 33 -1 c219 -5 631 1 636 9 3
6 5 65 5 133 l-2 123 -131 127 c-72 69 -131 128 -131 131 0 2 59 3 130 2 l130
-1 1 26 c3 183 3 245 -2 253 -6 9 -538 18 -631 10z"/>
<path d="M1326 5293 c6 -61 7 -71 19 -198 4 -44 8 -96 10 -115 2 -19 6 -66 10
-105 3 -38 8 -90 10 -115 12 -125 16 -168 20 -205 2 -22 7 -76 10 -120 3 -44
8 -91 10 -105 3 -14 7 -59 10 -100 3 -41 8 -91 10 -110 2 -19 7 -71 10 -115 4
-44 8 -91 10 -105 2 -14 7 -61 10 -105 4 -44 8 -93 10 -110 1 -16 6 -64 9
-105 4 -41 9 -96 12 -122 5 -48 11 -115 19 -208 6 -77 15 -169 20 -210 2 -19
7 -73 10 -120 4 -47 8 -96 10 -110 3 -14 7 -59 10 -100 4 -41 8 -88 9 -105 2
-16 7 -70 11 -120 4 -49 9 -98 11 -108 1 -9 6 -54 9 -100 3 -45 8 -95 10 -112
3 -26 16 -168 30 -335 2 -25 6 -67 9 -95 3 -27 8 -79 11 -115 3 -36 8 -85 10
-110 3 -25 7 -70 10 -100 3 -30 7 -77 10 -105 8 -84 14 -146 20 -226 4 -41 8
-84 10 -95 2 -10 4 -29 4 -40 1 -21 28 -32 151 -59 8 -2 209 -56 445 -120 691
-187 900 -243 925 -250 8 -2 42 -11 75 -20 56 -16 92 -25 155 -40 16 -4 133
23 320 74 395 106 435 117 580 156 69 18 244 66 390 105 255 70 367 100 458
123 32 8 42 15 43 31 1 12 3 30 4 41 1 11 5 52 9 90 11 131 17 190 21 225 3
19 7 69 10 110 3 41 8 86 10 100 2 14 6 63 10 110 3 47 8 101 10 120 4 32 9
91 20 210 4 43 10 115 21 230 2 30 7 78 10 105 4 49 9 102 19 210 3 30 7 79
10 108 12 119 15 155 20 212 5 61 14 152 20 215 2 19 7 69 10 110 3 41 8 91
10 110 2 19 7 69 10 110 4 41 8 91 10 110 2 19 7 69 10 110 4 41 9 89 10 105
2 17 6 68 10 114 4 47 8 92 10 100 2 9 6 57 9 106 4 50 9 101 11 115 2 14 7
61 10 105 3 44 7 96 10 115 3 19 7 62 10 95 3 33 7 83 10 110 2 28 7 77 10
110 3 33 7 83 10 110 3 28 7 77 10 110 3 33 7 85 10 115 7 72 13 141 20 215 3
33 8 79 11 103 l5 42 -2180 0 -2181 0 6 -57z"/>
</g>
</svg>
