<svg version="1.1" viewBox="0.0 0.0 1101.3333333333333 286.0" fill="none" stroke="none" stroke-linecap="square" stroke-miterlimit="10" xmlns:xlink="http://www.w3.org/1999/xlink" xmlns="http://www.w3.org/2000/svg"><clipPath id="p.0"><path d="m0 0l1101.3334 0l0 286.0l-1101.3334 0l0 -286.0z" clip-rule="nonzero"/></clipPath><g clip-path="url(#p.0)"><path fill="#000000" fill-opacity="0.0" d="m0 0l1101.3334 0l0 286.0l-1101.3334 0z" fill-rule="evenodd"/><path fill="#000000" fill-opacity="0.0" d="m74.185036 43.745407l850.6456 0l0 139.74803l-850.6456 0z" fill-rule="evenodd"/><path fill="#414141" d="m105.810036 165.81291l43.125008 0l0 9.8125l-55.187508 0l0 -91.0l12.0625 0l0 81.1875zm51.937508 -24.625q0 -9.9375 3.90625 -17.875q3.90625 -7.9375 10.875 -12.25q6.96875 -4.3125 15.90625 -4.3125q13.8125 0 22.34375 9.5625q8.53125 9.5625 8.53125 25.4375l0 0.8125q0 9.875 -3.78125 17.71875q-3.78125 7.84375 -10.8125 12.21875q-7.03125 4.375 -16.15625 4.375q-13.75 0 -22.28125 -9.5625q-8.53125 -9.5625 -8.53125 -25.3125l0 -0.8125zm11.625 1.375q0 11.25 5.21875 18.0625q5.21875 6.8125 13.96875 6.8125q8.8125 0 14.0 -6.90625q5.1875 -6.90625 5.1875 -19.34375q0 -11.125 -5.28125 -18.03125q-5.28125 -6.90625 -14.03125 -6.90625q-8.5625 0 -13.8125 6.8125q-5.25 6.8125 -5.25 19.5zm97.124985 -24.1875q-2.625 -0.4375 -5.6875 -0.4375q-11.374985 0 -15.437485 9.6875l0 48.0l-11.5625 0l0 -67.625l11.25 0l0.1875 7.8125q5.6875 -9.0625 16.124985 -9.0625q3.375 0 5.125 0.875l0 10.75zm37.5 58.5q-13.75 0 -22.375 -9.03125q-8.625 -9.03125 -8.625 -24.15625l0 -2.125q0 -10.0625 3.84375 -17.96875q3.84375 -7.90625 10.75 -12.375q6.90625 -4.46875 14.96875 -4.46875q13.1875 0 20.5 8.6875q7.3125 8.6875 7.3125 24.875l0 4.8125l-45.8125 0q0.25 10.0 5.84375 16.15625q5.59375 6.15625 14.21875 6.15625q6.125 0 10.375 -2.5q4.25 -2.5 7.4375 -6.625l7.0625 5.5q-8.5 13.0625 -25.5 13.0625zm-1.4375 -60.625q-7.0 0 -11.75 5.09375q-4.75 5.09375 -5.875 14.28125l33.875 0l0 -0.875q-0.5 -8.8125 -4.75 -13.65625q-4.25 -4.84375 -11.5 -4.84375zm52.0625 -8.25l0.3125 7.5q7.4375 -8.75 20.0625 -8.75q14.1875 0 19.3125 10.875q3.375 -4.875 8.78125 -7.875q5.40625 -3.0 12.78125 -3.0q22.25 0 22.625 23.5625l0 45.3125l-11.5625 0l0 -44.625q0 -7.25 -3.3125 -10.84375q-3.3125 -3.59375 -11.125 -3.59375q-6.4375 0 -10.6875 3.84375q-4.25 3.84375 -4.9375 10.34375l0 44.875l-11.625 0l0 -44.3125q0 -14.75 -14.4375 -14.75q-11.375 0 -15.5625 9.6875l0 49.375l-11.5625 0l0 -67.625l10.9375 0zm145.5625 67.625l-11.5625 0l0 -67.625l11.5625 0l0 67.625zm-12.5 -85.5625q0 -2.8125 1.71875 -4.75q1.71875 -1.9375 5.09375 -1.9375q3.375 0 5.125 1.9375q1.75 1.9375 1.75 4.75q0 2.8125 -1.75 4.6875q-1.75 1.875 -5.125 1.875q-3.375 0 -5.09375 -1.875q-1.71875 -1.875 -1.71875 -4.6875zm88.12503 52.5q0 15.4375 -7.0625 24.875q-7.0625 9.4375 -19.125 9.4375q-12.3125 0 -19.375 -7.8125l0 32.5625l-11.5625 0l0 -93.625l10.5625 0l0.5625 7.5q7.0625 -8.75 19.625 -8.75q12.1875 0 19.28125 9.1875q7.09375 9.1875 7.09375 25.5625l0 1.0625zm-11.5625 -1.3125q0 -11.4375 -4.875 -18.0625q-4.875 -6.625 -13.375 -6.625q-10.5 0 -15.75 9.3125l0 32.3125q5.1875 9.25 15.875 9.25q8.3125 0 13.21875 -6.59375q4.90625 -6.59375 4.90625 -19.59375zm65.625 16.4375q0 -4.6875 -3.53125 -7.28125q-3.53125 -2.59375 -12.3125 -4.46875q-8.78125 -1.875 -13.9375 -4.5q-5.15625 -2.625 -7.625 -6.25q-2.46875 -3.625 -2.46875 -8.625q0 -8.3125 7.03125 -14.0625q7.03125 -5.75 17.96875 -5.75q11.5 0 18.65625 5.9375q7.15625 5.9375 7.15625 15.1875l-11.625 0q0 -4.75 -4.03125 -8.1875q-4.03125 -3.4375 -10.15625 -3.4375q-6.3125 0 -9.875 2.75q-3.5625 2.75 -3.5625 7.1875q0 4.1875 3.3125 6.3125q3.3125 2.125 11.96875 4.0625q8.65625 1.9375 14.03125 4.625q5.375 2.6875 7.96875 6.46875q2.59375 3.78125 2.59375 9.21875q0 9.0625 -7.25 14.53125q-7.25 5.46875 -18.8125 5.46875q-8.125 0 -14.375 -2.875q-6.25 -2.875 -9.78125 -8.03125q-3.53125 -5.15625 -3.53125 -11.15625l11.5625 0q0.3125 5.8125 4.65625 9.21875q4.34375 3.40625 11.46875 3.40625q6.5625 0 10.53125 -2.65625q3.96875 -2.65625 3.96875 -7.09375zm68.375 11.25q-6.75 7.9375 -19.8125 7.9375q-10.8125 0 -16.46875 -6.28125q-5.65625 -6.28125 -5.71875 -18.59375l0 -44.0l11.5625 0l0 43.6875q0 15.375 12.5 15.375q13.25 0 17.625 -9.875l0 -49.1875l11.5625 0l0 67.625l-11.0 0l-0.25 -6.6875zm39.6875 -60.9375l0.3125 7.5q7.4375 -8.75 20.0625 -8.75q14.1875 0 19.3125 10.875q3.375 -4.875 8.78125 -7.875q5.40625 -3.0 12.78125 -3.0q22.25 0 22.625 23.5625l0 45.3125l-11.5625 0l0 -44.625q0 -7.25 -3.3125 -10.84375q-3.3125 -3.59375 -11.125 -3.59375q-6.4375 0 -10.6875 3.84375q-4.25 3.84375 -4.9375 10.34375l0 44.875l-11.625 0l0 -44.3125q0 -14.75 -14.4375 -14.75q-11.375 0 -15.5625 9.6875l0 49.375l-11.5625 0l0 -67.625l10.9375 0z" fill-rule="nonzero"/><path fill="#000000" fill-opacity="0.0" d="m439.6706 252.10236l49.637817 -0.09448242" fill-rule="evenodd"/><path stroke="#414141" stroke-width="1.0" stroke-linejoin="round" stroke-linecap="butt" d="m445.6706 252.09094l37.637817 -0.071640015" fill-rule="evenodd"/><path fill="#414141" stroke="#414141" stroke-width="1.0" stroke-linecap="butt" d="m445.66745 250.43921l-4.5349426 1.6603699l4.5412292 1.6430969z" fill-rule="evenodd"/><path fill="#414141" stroke="#414141" stroke-width="1.0" stroke-linecap="butt" d="m483.31155 253.67102l4.5349426 -1.6603699l-4.5412292 -1.6430817z" fill-rule="evenodd"/><path fill="#000000" fill-opacity="0.0" d="m8.5026245 176.17586l880.063 0.18896484" fill-rule="evenodd"/><path stroke="#414141" stroke-width="1.0" stroke-linejoin="round" stroke-linecap="butt" stroke-dasharray="8.0,3.0,1.0,3.0" d="m8.5026245 176.17586l880.063 0.18896484" fill-rule="evenodd"/><path fill="#000000" fill-opacity="0.0" d="m9.001312 199.84251l870.2362 1.1968536" fill-rule="evenodd"/><path stroke="#414141" stroke-width="1.0" stroke-linejoin="round" stroke-linecap="butt" stroke-dasharray="8.0,3.0,1.0,3.0" d="m9.001312 199.84251l870.2362 1.1968536" fill-rule="evenodd"/><path fill="#000000" fill-opacity="0.0" d="m10.001312 83.17585l879.0867 0.69291687" fill-rule="evenodd"/><path stroke="#414141" stroke-width="1.0" stroke-linejoin="round" stroke-linecap="butt" stroke-dasharray="8.0,3.0,1.0,3.0" d="m10.001312 83.17585l879.0867 0.69291687" fill-rule="evenodd"/><path fill="#000000" fill-opacity="0.0" d="m9.001312 219.3412l979.68506 1.5118103" fill-rule="evenodd"/><path stroke="#414141" stroke-width="1.0" stroke-linejoin="round" stroke-linecap="butt" stroke-dasharray="8.0,3.0,1.0,3.0" d="m9.001312 219.3412l979.68506 1.5118103" fill-rule="evenodd"/><path fill="#000000" fill-opacity="0.0" d="m9.5026245 66.17585l977.16534 -0.8503876" fill-rule="evenodd"/><path stroke="#414141" stroke-width="1.0" stroke-linejoin="round" stroke-linecap="butt" stroke-dasharray="8.0,3.0,1.0,3.0" d="m9.5026245 66.17585l977.16534 -0.8503876" fill-rule="evenodd"/><path fill="#000000" fill-opacity="0.0" d="m489.6706 252.00787l-0.6929016 -141.6063" fill-rule="evenodd"/><path stroke="#414141" stroke-width="1.0" stroke-linejoin="round" stroke-linecap="butt" stroke-dasharray="8.0,3.0,1.0,3.0" d="m489.6706 252.00787l-0.6929016 -141.6063" fill-rule="evenodd"/><path fill="#000000" fill-opacity="0.0" d="m439.6706 251.50656l-0.18896484 -141.13385" fill-rule="evenodd"/><path stroke="#414141" stroke-width="1.0" stroke-linejoin="round" stroke-linecap="butt" stroke-dasharray="8.0,3.0,1.0,3.0" d="m439.6706 251.50656l-0.18896484 -141.13385" fill-rule="evenodd"/><path fill="#000000" fill-opacity="0.0" d="m234.1693 251.50656l0.31495667 -145.13385" fill-rule="evenodd"/><path stroke="#414141" stroke-width="1.0" stroke-linejoin="round" stroke-linecap="butt" stroke-dasharray="8.0,3.0,1.0,3.0" d="m234.1693 251.50656l0.31495667 -145.13385" fill-rule="evenodd"/><path fill="#000000" fill-opacity="0.0" d="m220.1693 251.00787l0.31495667 -144.59842" fill-rule="evenodd"/><path stroke="#414141" stroke-width="1.0" stroke-linejoin="round" stroke-linecap="butt" stroke-dasharray="8.0,3.0,1.0,3.0" d="m220.1693 251.00787l0.31495667 -144.59842" fill-rule="evenodd"/><path fill="#000000" fill-opacity="0.0" d="m216.48425 252.35432l21.196854 -0.5984192" fill-rule="evenodd"/><path stroke="#414141" stroke-width="1.0" stroke-linejoin="round" stroke-linecap="butt" d="m222.48186 252.185l9.201645 -0.25976562" fill-rule="evenodd"/><path fill="#414141" stroke="#414141" stroke-width="1.0" stroke-linecap="butt" d="m222.43524 250.53394l-4.48967 1.7791443l4.582901 1.522995z" fill-rule="evenodd"/><path fill="#414141" stroke="#414141" stroke-width="1.0" stroke-linecap="butt" d="m231.7301 253.57631l4.489685 -1.7791443l-4.582901 -1.5230103z" fill-rule="evenodd"/><path fill="#000000" fill-opacity="0.0" d="m888.1693 175.50131l0.50390625 -90.99213" fill-rule="evenodd"/><path stroke="#414141" stroke-width="1.0" stroke-linejoin="round" stroke-linecap="butt" d="m888.2025 169.5014l0.4375 -78.99231" fill-rule="evenodd"/><path fill="#414141" stroke="#414141" stroke-width="1.0" stroke-linecap="butt" d="m886.55084 169.49226l1.6265259 4.547165l1.6768799 -4.5288696z" fill-rule="evenodd"/><path fill="#414141" stroke="#414141" stroke-width="1.0" stroke-linecap="butt" d="m890.2917 90.51824l-1.6265259 -4.5471725l-1.6768799 4.5288773z" fill-rule="evenodd"/><path fill="#000000" fill-opacity="0.0" d="m0.001312336 148.97375l100.50394 0l0 32.566925l-100.50394 0z" fill-rule="evenodd"/><path fill="#414141" d="m10.016937 173.33376l0 -11.375l3.984375 0q2.078125 0 3.140625 0.796875q1.078125 0.78125 1.078125 2.3125q0 0.84375 -0.4375 1.484375q-0.421875 0.625 -1.1875 0.921875q0.875 0.21875 1.375 0.890625q0.5 0.65625 0.5 1.625q0 1.640625 -1.046875 2.484375q-1.046875 0.84375 -2.984375 0.859375l-4.421875 0zm2.34375 -4.953125l0 3.0625l2.015625 0q0.828125 0 1.28125 -0.390625q0.46875 -0.390625 0.46875 -1.09375q0 -1.5625 -1.609375 -1.578125l-2.15625 0zm0 -1.65625l1.734375 0q1.78125 -0.03125 1.78125 -1.421875q0 -0.765625 -0.453125 -1.109375q-0.453125 -0.34375 -1.421875 -0.34375l-1.640625 0l0 2.875zm12.6171875 6.609375q-0.15625 -0.3125 -0.21875 -0.765625q-0.828125 0.921875 -2.140625 0.921875q-1.234375 0 -2.0625 -0.71875q-0.8125 -0.71875 -0.8125 -1.8125q0 -1.34375 1.0 -2.0625q1.0 -0.71875 2.875 -0.734375l1.046875 0l0 -0.484375q0 -0.578125 -0.3125 -0.921875q-0.296875 -0.359375 -0.9375 -0.359375q-0.578125 0 -0.90625 0.28125q-0.3125 0.265625 -0.3125 0.734375l-2.265625 0q0 -0.734375 0.453125 -1.359375q0.453125 -0.625 1.28125 -0.96875q0.828125 -0.359375 1.859375 -0.359375q1.5625 0 2.484375 0.78125q0.921875 0.78125 0.921875 2.203125l0 3.671875q0 1.203125 0.328125 1.8125l0 0.140625l-2.28125 0zm-1.859375 -1.578125q0.5 0 0.921875 -0.21875q0.421875 -0.21875 0.625 -0.59375l0 -1.453125l-0.84375 0q-1.703125 0 -1.8125 1.171875l0 0.125q0 0.421875 0.296875 0.703125q0.296875 0.265625 0.8125 0.265625zm10.125 -0.765625q0 -0.40625 -0.421875 -0.640625q-0.40625 -0.25 -1.3125 -0.4375q-3.015625 -0.625 -3.015625 -2.5625q0 -1.125 0.9375 -1.875q0.9375 -0.75 2.4375 -0.75q1.609375 0 2.578125 0.765625q0.96875 0.75 0.96875 1.953125l-2.265625 0q0 -0.484375 -0.3125 -0.796875q-0.3125 -0.3125 -0.96875 -0.3125q-0.578125 0 -0.890625 0.265625q-0.3125 0.25 -0.3125 0.640625q0 0.375 0.359375 0.609375q0.359375 0.234375 1.203125 0.40625q0.84375 0.15625 1.421875 0.375q1.78125 0.65625 1.78125 2.265625q0 1.15625 -1.0 1.875q-0.984375 0.71875 -2.546875 0.71875q-1.0625 0 -1.890625 -0.375q-0.828125 -0.390625 -1.296875 -1.046875q-0.46875 -0.65625 -0.46875 -1.421875l2.140625 0q0.03125 0.59375 0.4375 0.921875q0.421875 0.3125 1.125 0.3125q0.640625 0 0.96875 -0.234375q0.34375 -0.25 0.34375 -0.65625zm7.5390625 2.5q-1.859375 0 -3.03125 -1.140625q-1.171875 -1.140625 -1.171875 -3.046875l0 -0.21875q0 -1.265625 0.484375 -2.265625q0.5 -1.015625 1.40625 -1.546875q0.90625 -0.546875 2.0625 -0.546875q1.734375 0 2.71875 1.09375q1.0 1.09375 1.0 3.09375l0 0.921875l-5.375 0q0.109375 0.828125 0.65625 1.328125q0.546875 0.5 1.390625 0.5q1.3125 0 2.046875 -0.9375l1.109375 1.234375q-0.515625 0.71875 -1.390625 1.125q-0.859375 0.40625 -1.90625 0.40625zm-0.265625 -6.9375q-0.671875 0 -1.09375 0.453125q-0.40625 0.453125 -0.53125 1.296875l3.140625 0l0 -0.1875q-0.015625 -0.75 -0.40625 -1.15625q-0.390625 -0.40625 -1.109375 -0.40625zm7.3984375 6.78125l-2.265625 0l0 -12.0l2.265625 0l0 12.0zm4.2421875 0l-2.265625 0l0 -8.453125l2.265625 0l0 8.453125zm-2.390625 -10.640625q0 -0.515625 0.328125 -0.84375q0.34375 -0.328125 0.9375 -0.328125q0.578125 0 0.921875 0.328125q0.34375 0.328125 0.34375 0.84375q0 0.515625 -0.359375 0.84375q-0.34375 0.328125 -0.921875 0.328125q-0.5625 0 -0.90625 -0.328125q-0.34375 -0.328125 -0.34375 -0.84375zm6.3359375 2.1875l0.0625 0.96875q0.90625 -1.125 2.4375 -1.125q1.34375 0 2.0 0.796875q0.65625 0.78125 0.671875 2.34375l0 5.46875l-2.265625 0l0 -5.40625q0 -0.71875 -0.3125 -1.046875q-0.3125 -0.328125 -1.03125 -0.328125q-0.953125 0 -1.4375 0.8125l0 5.96875l-2.25 0l0 -8.453125l2.125 0zm10.7734375 8.609375q-1.859375 0 -3.03125 -1.140625q-1.171875 -1.140625 -1.171875 -3.046875l0 -0.21875q0 -1.265625 0.484375 -2.265625q0.5 -1.015625 1.40625 -1.546875q0.90625 -0.546875 2.0625 -0.546875q1.734375 0 2.71875 1.09375q1.0 1.09375 1.0 3.09375l0 0.921875l-5.375 0q0.109375 0.828125 0.65625 1.328125q0.546875 0.5 1.390625 0.5q1.3125 0 2.046875 -0.9375l1.109375 1.234375q-0.515625 0.71875 -1.390625 1.125q-0.859375 0.40625 -1.90625 0.40625zm-0.265625 -6.9375q-0.671875 0 -1.09375 0.453125q-0.40625 0.453125 -0.53125 1.296875l3.140625 0l0 -0.1875q-0.015625 -0.75 -0.40625 -1.15625q-0.390625 -0.40625 -1.109375 -0.40625z" fill-rule="nonzero"/><path fill="#000000" fill-opacity="0.0" d="m9.001312 140.97375l869.6693 1.8582611" fill-rule="evenodd"/><path stroke="#414141" stroke-width="1.0" stroke-linejoin="round" stroke-linecap="butt" stroke-dasharray="8.0,3.0,1.0,3.0" d="m9.001312 140.97375l869.6693 1.8582611" fill-rule="evenodd"/><path fill="#000000" fill-opacity="0.0" d="m-0.001312336 112.87795l105.826775 0l0 29.732277l-105.826775 0z" fill-rule="evenodd"/><path fill="#414141" d="m13.076813 125.86295l2.921875 8.250008l2.90625 -8.250008l3.078125 0l0 11.375008l-2.34375 0l0 -3.109375l0.234375 -5.375l-3.078125 8.484375l-1.609375 0l-3.0625 -8.46875l0.234375 5.359375l0 3.109375l-2.34375 0l0 -11.375008l3.0625 0zm13.1875 11.375008l-2.265625 0l0 -8.453125l2.265625 0l0 8.453125zm-2.390625 -10.640633q0 -0.515625 0.328125 -0.84375q0.34375 -0.328125 0.9375 -0.328125q0.578125 0 0.921875 0.328125q0.34375 0.328125 0.34375 0.84375q0 0.515625 -0.359375 0.84375q-0.34375 0.328125 -0.921875 0.328125q-0.5625 0 -0.90625 -0.328125q-0.34375 -0.328125 -0.34375 -0.84375zm3.8984375 6.3437576q0 -1.96875 0.890625 -3.140625q0.890625 -1.171875 2.421875 -1.171875q1.234375 0 2.046875 0.921875l0 -4.3125076l2.265625 0l0 12.000008l-2.046875 0l-0.109375 -0.90625q-0.84375 1.0625 -2.171875 1.0625q-1.484375 0 -2.390625 -1.171875q-0.90625 -1.1875 -0.90625 -3.28125zm2.265625 0.171875q0 1.1875 0.40625 1.828125q0.421875 0.625 1.203125 0.625q1.046875 0 1.484375 -0.890625l0 -3.328125q-0.421875 -0.890625 -1.46875 -0.890625q-1.625 0 -1.625 2.65625zm6.75 -0.171875q0 -1.96875 0.890625 -3.140625q0.890625 -1.171875 2.421875 -1.171875q1.234375 0 2.046875 0.921875l0 -4.3125076l2.265625 0l0 12.000008l-2.046875 0l-0.109375 -0.90625q-0.84375 1.0625 -2.171875 1.0625q-1.484375 0 -2.390625 -1.171875q-0.90625 -1.1875 -0.90625 -3.28125zm2.265625 0.171875q0 1.1875 0.40625 1.828125q0.421875 0.625 1.203125 0.625q1.046875 0 1.484375 -0.890625l0 -3.328125q-0.421875 -0.890625 -1.46875 -0.890625q-1.625 0 -1.625 2.65625zm9.484375 4.125l-2.265625 0l0 -12.000008l2.265625 0l0 12.000008zm5.7578125 0.15625q-1.859375 0 -3.03125 -1.140625q-1.171875 -1.140625 -1.171875 -3.046875l0 -0.21875q0 -1.265625 0.484375 -2.265625q0.5 -1.015625 1.40625 -1.546875q0.90625 -0.546875 2.0625 -0.546875q1.734375 0 2.71875 1.09375q1.0 1.09375 1.0 3.09375l0 0.921875l-5.375 0q0.109375 0.828125 0.65625 1.328125q0.546875 0.5 1.390625 0.5q1.3125 0 2.046875 -0.9375l1.109375 1.234375q-0.515625 0.71875 -1.390625 1.125q-0.859375 0.40625 -1.90625 0.40625zm-0.265625 -6.9375q-0.671875 0 -1.09375 0.453125q-0.40625 0.453125 -0.53125 1.296875l3.140625 0l0 -0.1875q-0.015625 -0.75 -0.40625 -1.15625q-0.390625 -0.40625 -1.109375 -0.40625z" fill-rule="nonzero"/><path fill="#000000" fill-opacity="0.0" d="m0.001312336 38.16798l100.50394 0l0 26.236217l-100.50394 0z" fill-rule="evenodd"/><path fill="#414141" d="m18.579437 53.043606l-3.484375 0l0 9.484375l-2.34375 0l0 -9.484375l-3.4375 0l0 -1.890625l9.265625 0l0 1.890625zm-0.7890625 5.171875q0 -1.25 0.484375 -2.234375q0.484375 -0.984375 1.390625 -1.515625q0.921875 -0.546875 2.125 -0.546875q1.703125 0 2.78125 1.046875q1.09375 1.046875 1.21875 2.84375l0.015625 0.578125q0 1.9375 -1.09375 3.125q-1.078125 1.171875 -2.90625 1.171875q-1.828125 0 -2.921875 -1.171875q-1.09375 -1.171875 -1.09375 -3.1875l0 -0.109375zm2.265625 0.171875q0 1.203125 0.453125 1.84375q0.453125 0.625 1.296875 0.625q0.8125 0 1.265625 -0.625q0.46875 -0.625 0.46875 -2.015625q0 -1.171875 -0.46875 -1.8125q-0.453125 -0.65625 -1.28125 -0.65625q-0.828125 0 -1.28125 0.640625q-0.453125 0.640625 -0.453125 2.0zm14.75 -0.015625q0 1.953125 -0.890625 3.140625q-0.890625 1.171875 -2.390625 1.171875q-1.28125 0 -2.078125 -0.890625l0 3.9843712l-2.25 0l0 -11.703121l2.09375 0l0.078125 0.828125q0.8125 -0.984375 2.140625 -0.984375q1.5625 0 2.421875 1.15625q0.875 1.15625 0.875 3.1875l0 0.109375zm-2.265625 -0.15625q0 -1.1875 -0.421875 -1.828125q-0.40625 -0.640625 -1.203125 -0.640625q-1.0625 0 -1.46875 0.8125l0 3.46875q0.421875 0.828125 1.484375 0.828125q1.609375 0 1.609375 -2.640625z" fill-rule="nonzero"/><path fill="#000000" fill-opacity="0.0" d="m-0.001312336 209.92914l105.826775 0l0 32.566925l-105.826775 0z" fill-rule="evenodd"/><path fill="#414141" d="m10.014313 234.28914l0 -11.375l3.984375 0q2.078125 0 3.140625 0.796875q1.078125 0.78125 1.078125 2.3125q0 0.84375 -0.4375 1.484375q-0.421875 0.625 -1.1875 0.921875q0.875 0.21875 1.375 0.890625q0.5 0.65625 0.5 1.625q0 1.640625 -1.046875 2.484375q-1.046875 0.84375 -2.984375 0.859375l-4.421875 0zm2.34375 -4.953125l0 3.0625l2.015625 0q0.828125 0 1.28125 -0.390625q0.46875 -0.390625 0.46875 -1.09375q0 -1.5625 -1.609375 -1.578125l-2.15625 0zm0 -1.65625l1.734375 0q1.78125 -0.03125 1.78125 -1.421875q0 -0.765625 -0.453125 -1.109375q-0.453125 -0.34375 -1.421875 -0.34375l-1.640625 0l0 2.875zm7.3671875 2.296875q0 -1.25 0.484375 -2.234375q0.484375 -0.984375 1.390625 -1.515625q0.921875 -0.546875 2.125 -0.546875q1.703125 0 2.78125 1.046875q1.09375 1.046875 1.21875 2.84375l0.015625 0.578125q0 1.9375 -1.09375 3.125q-1.078125 1.171875 -2.90625 1.171875q-1.828125 0 -2.921875 -1.171875q-1.09375 -1.171875 -1.09375 -3.1875l0 -0.109375zm2.265625 0.171875q0 1.203125 0.453125 1.84375q0.453125 0.625 1.296875 0.625q0.8125 0 1.265625 -0.625q0.46875 -0.625 0.46875 -2.015625q0 -1.171875 -0.46875 -1.8125q-0.453125 -0.65625 -1.28125 -0.65625q-0.828125 0 -1.28125 0.640625q-0.453125 0.640625 -0.453125 2.0zm9.84375 -6.390625l0 2.078125l1.4375 0l0 1.65625l-1.4375 0l0 4.21875q0 0.46875 0.171875 0.671875q0.1875 0.203125 0.6875 0.203125q0.375 0 0.671875 -0.0625l0 1.71875q-0.671875 0.203125 -1.375 0.203125q-2.375 0 -2.421875 -2.40625l0 -4.546875l-1.234375 0l0 -1.65625l1.234375 0l0 -2.078125l2.265625 0zm5.40625 0l0 2.078125l1.4375 0l0 1.65625l-1.4375 0l0 4.21875q0 0.46875 0.171875 0.671875q0.1875 0.203125 0.6875 0.203125q0.375 0 0.671875 -0.0625l0 1.71875q-0.671875 0.203125 -1.375 0.203125q-2.375 0 -2.421875 -2.40625l0 -4.546875l-1.234375 0l0 -1.65625l1.234375 0l0 -2.078125l2.265625 0zm2.109375 6.21875q0 -1.25 0.484375 -2.234375q0.484375 -0.984375 1.390625 -1.515625q0.921875 -0.546875 2.125 -0.546875q1.703125 0 2.78125 1.046875q1.09375 1.046875 1.21875 2.84375l0.015625 0.578125q0 1.9375 -1.09375 3.125q-1.078125 1.171875 -2.90625 1.171875q-1.828125 0 -2.921875 -1.171875q-1.09375 -1.171875 -1.09375 -3.1875l0 -0.109375zm2.265625 0.171875q0 1.203125 0.453125 1.84375q0.453125 0.625 1.296875 0.625q0.8125 0 1.265625 -0.625q0.46875 -0.625 0.46875 -2.015625q0 -1.171875 -0.46875 -1.8125q-0.453125 -0.65625 -1.28125 -0.65625q-0.828125 0 -1.28125 0.640625q-0.453125 0.640625 -0.453125 2.0zm9.25 -4.3125l0.078125 0.9375q0.890625 -1.09375 2.421875 -1.09375q1.640625 0 2.25 1.28125q0.890625 -1.28125 2.53125 -1.28125q1.375 0 2.046875 0.796875q0.671875 0.796875 0.671875 2.40625l0 5.40625l-2.265625 0l0 -5.390625q0 -0.71875 -0.28125 -1.046875q-0.28125 -0.34375 -0.984375 -0.34375q-1.015625 0 -1.40625 0.96875l0 5.8125l-2.25 0l0 -5.390625q0 -0.734375 -0.296875 -1.0625q-0.28125 -0.328125 -0.984375 -0.328125q-0.953125 0 -1.390625 0.796875l0 5.984375l-2.25 0l0 -8.453125l2.109375 0z" fill-rule="nonzero"/><path fill="#000000" fill-opacity="0.0" d="m94.5 219.3412l0.47244263 -186.3307" fill-rule="evenodd"/><path stroke="#414141" stroke-width="1.0" stroke-linejoin="round" stroke-linecap="butt" stroke-dasharray="8.0,3.0,1.0,3.0" d="m94.5 219.3412l0.47244263 -186.3307" fill-rule="evenodd"/><path fill="#000000" fill-opacity="0.0" d="m878.14307 219.3412l0.4724121 -186.3307" fill-rule="evenodd"/><path stroke="#414141" stroke-width="1.0" stroke-linejoin="round" stroke-linecap="butt" stroke-dasharray="8.0,3.0,1.0,3.0" d="m878.14307 219.3412l0.4724121 -186.3307" fill-rule="evenodd"/><path fill="#000000" fill-opacity="0.0" d="m474.26117 219.3412l0.4724121 -186.3307" fill-rule="evenodd"/><path stroke="#414141" stroke-width="1.0" stroke-linejoin="round" stroke-linecap="butt" stroke-dasharray="8.0,3.0,1.0,3.0" d="m474.26117 219.3412l0.4724121 -186.3307" fill-rule="evenodd"/><path fill="#000000" fill-opacity="0.0" d="m44.484253 1.160105l100.50394 0l0 26.236221l-100.50394 0z" fill-rule="evenodd"/><path fill="#414141" d="m83.86903 23.62948l4.984375 0l0 1.890625l-7.328125 0l0 -11.375l2.34375 0l0 9.484375zm10.0703125 2.046875q-1.859375 0 -3.03125 -1.140625q-1.171875 -1.140625 -1.171875 -3.046875l0 -0.21875q0 -1.265625 0.484375 -2.265625q0.5 -1.015625 1.40625 -1.546875q0.90625 -0.546875 2.0625 -0.546875q1.734375 0 2.71875 1.09375q1.0 1.09375 1.0 3.09375l0 0.921875l-5.375 0q0.109375 0.828125 0.65625 1.328125q0.546875 0.5 1.390625 0.5q1.3125 0 2.046875 -0.9375l1.109375 1.234375q-0.515625 0.71875 -1.390625 1.125q-0.859375 0.40625 -1.90625 0.40625zm-0.265625 -6.9375q-0.671875 0 -1.09375 0.453125q-0.40625 0.453125 -0.53125 1.296875l3.140625 0l0 -0.1875q-0.015625 -0.75 -0.40625 -1.15625q-0.390625 -0.40625 -1.109375 -0.40625zm5.6328125 6.78125l0 -6.796875l-1.25 0l0 -1.65625l1.25 0l0 -0.71875q0 -1.421875 0.8125 -2.203125q0.828125 -0.796875 2.296875 -0.796875q0.46875 0 1.140625 0.15625l-0.015625 1.75q-0.28125 -0.0625 -0.6875 -0.0625q-1.28125 0 -1.28125 1.1875l0 0.6875l1.6875 0l0 1.65625l-1.6875 0l0 6.796875l-2.265625 0zm7.828125 -10.53125l0 2.078125l1.4375 0l0 1.65625l-1.4375 0l0 4.21875q0 0.46875 0.171875 0.671875q0.1875 0.203125 0.6875 0.203125q0.375 0 0.671875 -0.0625l0 1.71875q-0.671875 0.203125 -1.375 0.203125q-2.375 0 -2.421875 -2.40625l0 -4.546875l-1.234375 0l0 -1.65625l1.234375 0l0 -2.078125l2.265625 0z" fill-rule="nonzero"/><path fill="#000000" fill-opacity="0.0" d="m424.2454 1.160105l100.50394 0l0 26.236221l-100.50394 0z" fill-rule="evenodd"/><path fill="#414141" d="m460.46613 21.72323q-0.140625 1.84375 -1.359375 2.90625q-1.21875 1.046875 -3.21875 1.046875q-2.1875 0 -3.453125 -1.46875q-1.25 -1.484375 -1.25 -4.046875l0 -0.703125q0 -1.640625 0.578125 -2.890625q0.578125 -1.25 1.65625 -1.90625q1.078125 -0.671875 2.5 -0.671875q1.96875 0 3.171875 1.0625q1.203125 1.046875 1.390625 2.953125l-2.34375 0q-0.09375 -1.109375 -0.625 -1.59375q-0.515625 -0.5 -1.59375 -0.5q-1.171875 0 -1.765625 0.84375q-0.578125 0.828125 -0.59375 2.59375l0 0.859375q0 1.84375 0.5625 2.703125q0.5625 0.84375 1.765625 0.84375q1.078125 0 1.609375 -0.484375q0.546875 -0.5 0.625 -1.546875l2.34375 0zm5.28125 3.953125q-1.859375 0 -3.03125 -1.140625q-1.171875 -1.140625 -1.171875 -3.046875l0 -0.21875q0 -1.265625 0.484375 -2.265625q0.5 -1.015625 1.40625 -1.546875q0.90625 -0.546875 2.0625 -0.546875q1.734375 0 2.71875 1.09375q1.0 1.09375 1.0 3.09375l0 0.921875l-5.375 0q0.109375 0.828125 0.65625 1.328125q0.546875 0.5 1.390625 0.5q1.3125 0 2.046875 -0.9375l1.109375 1.234375q-0.515625 0.71875 -1.390625 1.125q-0.859375 0.40625 -1.90625 0.40625zm-0.265625 -6.9375q-0.671875 0 -1.09375 0.453125q-0.40625 0.453125 -0.53125 1.296875l3.140625 0l0 -0.1875q-0.015625 -0.75 -0.40625 -1.15625q-0.390625 -0.40625 -1.109375 -0.40625zm7.1015625 -1.671875l0.0625 0.96875q0.90625 -1.125 2.4375 -1.125q1.34375 0 2.0 0.796875q0.65625 0.78125 0.671875 2.34375l0 5.46875l-2.265625 0l0 -5.40625q0 -0.71875 -0.3125 -1.046875q-0.3125 -0.328125 -1.03125 -0.328125q-0.953125 0 -1.4375 0.8125l0 5.96875l-2.25 0l0 -8.453125l2.125 0zm9.5859375 -2.078125l0 2.078125l1.4375 0l0 1.65625l-1.4375 0l0 4.21875q0 0.46875 0.171875 0.671875q0.1875 0.203125 0.6875 0.203125q0.375 0 0.671875 -0.0625l0 1.71875q-0.671875 0.203125 -1.375 0.203125q-2.375 0 -2.421875 -2.40625l0 -4.546875l-1.234375 0l0 -1.65625l1.234375 0l0 -2.078125l2.265625 0zm6.59375 10.6875q-1.859375 0 -3.03125 -1.140625q-1.171875 -1.140625 -1.171875 -3.046875l0 -0.21875q0 -1.265625 0.484375 -2.265625q0.5 -1.015625 1.40625 -1.546875q0.90625 -0.546875 2.0625 -0.546875q1.734375 0 2.71875 1.09375q1.0 1.09375 1.0 3.09375l0 0.921875l-5.375 0q0.109375 0.828125 0.65625 1.328125q0.546875 0.5 1.390625 0.5q1.3125 0 2.046875 -0.9375l1.109375 1.234375q-0.515625 0.71875 -1.390625 1.125q-0.859375 0.40625 -1.90625 0.40625zm-0.265625 -6.9375q-0.671875 0 -1.09375 0.453125q-0.40625 0.453125 -0.53125 1.296875l3.140625 0l0 -0.1875q-0.015625 -0.75 -0.40625 -1.15625q-0.390625 -0.40625 -1.109375 -0.40625zm9.7734375 0.4375q-0.46875 -0.0625 -0.8125 -0.0625q-1.28125 0 -1.6875 0.875l0 5.53125l-2.25 0l0 -8.453125l2.125 0l0.0625 1.0q0.6875 -1.15625 1.890625 -1.15625q0.375 0 0.703125 0.09375l-0.03125 2.171875z" fill-rule="nonzero"/><path fill="#000000" fill-opacity="0.0" d="m828.1273 1.160105l100.50391 0l0 26.236221l-100.50391 0z" fill-rule="evenodd"/><path fill="#414141" d="m864.641 21.34823l-1.875 0l0 4.171875l-2.34375 0l0 -11.375l4.234375 0q2.015625 0 3.109375 0.90625q1.09375 0.890625 1.09375 2.53125q0 1.15625 -0.515625 1.9375q-0.5 0.78125 -1.515625 1.234375l2.453125 4.65625l0 0.109375l-2.515625 0l-2.125 -4.171875zm-1.875 -1.890625l1.890625 0q0.890625 0 1.375 -0.453125q0.484375 -0.453125 0.484375 -1.234375q0 -0.8125 -0.46875 -1.265625q-0.453125 -0.46875 -1.390625 -0.46875l-1.890625 0l0 3.421875zm10.1015625 6.0625l-2.265625 0l0 -8.453125l2.265625 0l0 8.453125zm-2.390625 -10.640625q0 -0.515625 0.328125 -0.84375q0.34375 -0.328125 0.9375 -0.328125q0.578125 0 0.921875 0.328125q0.34375 0.328125 0.34375 0.84375q0 0.515625 -0.359375 0.84375q-0.34375 0.328125 -0.921875 0.328125q-0.5625 0 -0.90625 -0.328125q-0.34375 -0.328125 -0.34375 -0.84375zm3.9296875 6.34375q0 -1.9375 0.921875 -3.125q0.921875 -1.1875 2.5 -1.1875q1.390625 0 2.15625 0.953125l0.09375 -0.796875l2.046875 0l0 8.171875q0 1.109375 -0.5 1.921875q-0.5 0.828125 -1.421875 1.25q-0.90625 0.4375 -2.140625 0.4375q-0.921875 0 -1.8125 -0.375q-0.875 -0.359375 -1.328125 -0.953125l1.0 -1.375q0.84375 0.953125 2.046875 0.953125q0.890625 0 1.390625 -0.484375q0.5 -0.484375 0.5 -1.375l0 -0.453125q-0.78125 0.890625 -2.046875 0.890625q-1.53125 0 -2.46875 -1.1875q-0.9375 -1.203125 -0.9375 -3.171875l0 -0.09375zm2.25 0.171875q0 1.140625 0.453125 1.796875q0.46875 0.65625 1.28125 0.65625q1.03125 0 1.46875 -0.78125l0 -3.546875q-0.453125 -0.78125 -1.453125 -0.78125q-0.8125 0 -1.28125 0.671875q-0.46875 0.65625 -0.46875 1.984375zm9.4140625 -3.40625q0.890625 -1.078125 2.25 -1.078125q2.75 0 2.796875 3.1875l0 5.421875l-2.265625 0l0 -5.359375q0 -0.71875 -0.3125 -1.0625q-0.3125 -0.359375 -1.03125 -0.359375q-1.0 0 -1.4375 0.765625l0 6.015625l-2.265625 0l0 -12.0l2.265625 0l0 4.46875zm9.453125 -3.0l0 2.078125l1.4375 0l0 1.65625l-1.4375 0l0 4.21875q0 0.46875 0.171875 0.671875q0.1875 0.203125 0.6875 0.203125q0.375 0 0.671875 -0.0625l0 1.71875q-0.671875 0.203125 -1.375 0.203125q-2.375 0 -2.421875 -2.40625l0 -4.546875l-1.234375 0l0 -1.65625l1.234375 0l0 -2.078125l2.265625 0z" fill-rule="nonzero"/><path fill="#000000" fill-opacity="0.0" d="m384.53836 251.00787l159.90549 0l0 26.236206l-159.90549 0z" fill-rule="evenodd"/><path fill="#414141" d="m411.69424 272.41476l-1.109375 2.953125l-1.5 0l-1.34375 -5.5q-0.4375 -0.015625 -0.671875 -0.234375q-0.21875 -0.234375 -0.21875 -0.5625q0 -0.359375 0.25 -0.578125q0.25 -0.21875 0.828125 -0.21875l1.484375 0q0.578125 0 0.828125 0.21875q0.25 0.21875 0.25 0.578125q0 0.359375 -0.28125 0.609375q-0.21875 0.1875 -0.828125 0.1875l0.609375 2.546875l0.984375 -2.609375l1.421875 0l1.0 2.609375l0.625 -2.546875q-0.59375 0 -0.78125 -0.109375q-0.375 -0.25 -0.375 -0.6875q0 -0.359375 0.25 -0.578125q0.25 -0.21875 0.828125 -0.21875l1.5 0q0.578125 0 0.828125 0.21875q0.25 0.21875 0.25 0.578125q0 0.328125 -0.21875 0.546875q-0.21875 0.21875 -0.640625 0.25l-1.3125 5.5l-1.484375 0l-1.171875 -2.953125zm13.7578125 -0.46875q0 0.921875 -0.515625 1.796875q-0.515625 0.859375 -1.53125 1.375q-1.0 0.515625 -2.109375 0.515625q-1.09375 0 -2.09375 -0.5q-1.0 -0.515625 -1.53125 -1.375q-0.515625 -0.875 -0.515625 -1.828125q0 -0.953125 0.53125 -1.875q0.53125 -0.9375 1.53125 -1.46875q1.0 -0.53125 2.078125 -0.53125q1.09375 0 2.109375 0.546875q1.015625 0.546875 1.53125 1.46875q0.515625 0.90625 0.515625 1.875zm-1.609375 0.015625q0 -0.78125 -0.546875 -1.421875q-0.765625 -0.875 -2.0 -0.875q-1.078125 0 -1.8125 0.703125q-0.71875 0.6875 -0.71875 1.59375q0 0.75 0.734375 1.40625q0.734375 0.65625 1.796875 0.65625q1.078125 0 1.8125 -0.65625q0.734375 -0.65625 0.734375 -1.40625zm6.7109375 -3.6875l0 1.0q1.015625 -0.734375 1.59375 -0.96875q0.578125 -0.25 1.09375 -0.25q0.78125 0 1.515625 0.578125q0.5 0.390625 0.5 0.796875q0 0.34375 -0.25 0.59375q-0.234375 0.234375 -0.5625 0.234375q-0.296875 0 -0.625 -0.296875q-0.328125 -0.296875 -0.59375 -0.296875q-0.328125 0 -1.0 0.421875q-0.671875 0.421875 -1.671875 1.265625l0 2.40625l2.28125 0q0.578125 0 0.828125 0.234375q0.25 0.21875 0.25 0.578125q0 0.34375 -0.25 0.578125q-0.25 0.21875 -0.828125 0.21875l-4.828125 0q-0.578125 0 -0.828125 -0.21875q-0.25 -0.234375 -0.25 -0.59375q0 -0.34375 0.25 -0.5625q0.25 -0.234375 0.828125 -0.234375l0.953125 0l0 -3.890625l-0.578125 0q-0.578125 0 -0.828125 -0.21875q-0.25 -0.21875 -0.25 -0.578125q0 -0.359375 0.25 -0.578125q0.25 -0.21875 0.828125 -0.21875l2.171875 0zm13.6171875 -3.046875l0 8.53125l0.265625 0q0.578125 0 0.828125 0.234375q0.25 0.21875 0.25 0.578125q0 0.34375 -0.25 0.578125q-0.25 0.21875 -0.828125 0.21875l-1.875 0l0 -0.390625q-0.546875 0.3125 -1.140625 0.484375q-0.59375 0.171875 -1.234375 0.171875q-1.8125 0 -2.921875 -1.046875q-1.09375 -1.046875 -1.09375 -2.609375q0 -1.625 1.15625 -2.765625q1.15625 -1.15625 2.828125 -1.15625q0.625 0 1.21875 0.203125q0.609375 0.1875 1.1875 0.5625l0 -1.984375l-0.265625 0q-0.578125 0 -0.828125 -0.21875q-0.25 -0.234375 -0.25 -0.578125q0 -0.359375 0.25 -0.578125q0.25 -0.234375 0.828125 -0.234375l1.875 0zm-1.609375 6.796875q0 -0.984375 -0.703125 -1.671875q-0.6875 -0.6875 -1.6875 -0.6875q-1.0 0 -1.703125 0.6875q-0.6875 0.6875 -0.6875 1.65625q0 0.875 0.625 1.453125q0.625 0.5625 1.765625 0.5625q1.125 0 1.75 -0.5625q0.640625 -0.578125 0.640625 -1.4375zm10.8828125 -0.46875l-6.6875 0l0 -1.46875l6.6875 0l0 1.46875zm7.9765625 -1.40625q-0.390625 -0.25 -0.828125 -0.359375q-0.421875 -0.125 -0.890625 -0.125q-0.921875 0 -1.46875 0.296875q-0.25 0.140625 -0.25 0.296875q0 0.171875 0.328125 0.34375q0.25 0.125 1.125 0.25q1.59375 0.21875 2.21875 0.4375q0.8125 0.28125 1.25 0.859375q0.453125 0.5625 0.453125 1.203125q0 0.859375 -0.75 1.4375q-1.09375 0.84375 -2.828125 0.84375q-0.6875 0 -1.28125 -0.125q-0.59375 -0.125 -1.078125 -0.359375q-0.125 0.09375 -0.265625 0.15625q-0.125 0.046875 -0.265625 0.046875q-0.375 0 -0.59375 -0.234375q-0.21875 -0.25 -0.21875 -0.828125l0 -0.546875q0 -0.578125 0.21875 -0.8125q0.21875 -0.25 0.578125 -0.25q0.296875 0 0.484375 0.15625q0.203125 0.15625 0.3125 0.546875q0.359375 0.3125 0.875 0.484375q0.515625 0.15625 1.1875 0.15625q1.109375 0 1.71875 -0.34375q0.28125 -0.171875 0.28125 -0.359375q0 -0.3125 -0.40625 -0.515625q-0.421875 -0.203125 -1.71875 -0.34375q-1.921875 -0.203125 -2.578125 -0.78125q-0.640625 -0.578125 -0.640625 -1.40625q0 -0.859375 0.71875 -1.4375q0.984375 -0.78125 2.578125 -0.78125q0.5625 0 1.0625 0.109375q0.515625 0.109375 0.984375 0.328125q0.15625 -0.109375 0.28125 -0.15625q0.125 -0.0625 0.234375 -0.0625q0.328125 0 0.546875 0.25q0.21875 0.234375 0.21875 0.8125l0 0.390625q0 0.53125 -0.125 0.71875q-0.25 0.359375 -0.671875 0.359375q-0.296875 0 -0.515625 -0.171875q-0.21875 -0.1875 -0.28125 -0.484375zm5.8828125 4.328125l0 2.640625l0.96875 0q0.578125 0 0.8125 0.21875q0.25 0.21875 0.25 0.578125q0 0.359375 -0.25 0.578125q-0.234375 0.21875 -0.8125 0.21875l-2.84375 0q-0.578125 0 -0.828125 -0.21875q-0.25 -0.21875 -0.25 -0.578125q0 -0.359375 0.25 -0.578125q0.265625 -0.21875 0.828125 -0.21875l0.28125 0l0 -7.25l-0.28125 0q-0.578125 0 -0.828125 -0.21875q-0.25 -0.21875 -0.25 -0.578125q0 -0.359375 0.25 -0.578125q0.25 -0.21875 0.828125 -0.21875l1.875 0l0 0.546875q0.5625 -0.390625 1.15625 -0.578125q0.609375 -0.1875 1.25 -0.1875q1.640625 0 2.796875 1.125q1.15625 1.109375 1.15625 2.546875q0 1.578125 -1.375 2.609375q-1.140625 0.859375 -2.5625 0.859375q-0.625 0 -1.234375 -0.171875q-0.59375 -0.1875 -1.1875 -0.546875zm4.75 -2.75q0 -0.328125 -0.265625 -0.84375q-0.265625 -0.53125 -0.8125 -0.875q-0.546875 -0.34375 -1.296875 -0.34375q-1.1875 0 -1.890625 0.890625q-0.484375 0.625 -0.484375 1.1875q0 0.640625 0.6875 1.25q0.6875 0.609375 1.6875 0.609375q1.015625 0 1.6875 -0.59375q0.6875 -0.609375 0.6875 -1.28125zm8.2890625 3.640625l0 -0.375q-0.609375 0.3125 -1.34375 0.46875q-0.71875 0.171875 -1.3125 0.171875q-1.28125 0 -2.09375 -0.6875q-0.796875 -0.6875 -0.796875 -1.515625q0 -1.0 1.015625 -1.859375q1.03125 -0.875 2.84375 -0.875q0.734375 0 1.6875 0.15625l0 -0.375q0 -0.359375 -0.3125 -0.578125q-0.3125 -0.234375 -1.171875 -0.234375q-0.71875 0 -1.84375 0.28125q-0.421875 0.09375 -0.65625 0.09375q-0.328125 0 -0.546875 -0.21875q-0.21875 -0.234375 -0.21875 -0.59375q0 -0.203125 0.078125 -0.34375q0.078125 -0.15625 0.21875 -0.25q0.140625 -0.09375 0.578125 -0.21875q0.59375 -0.15625 1.203125 -0.25q0.625 -0.109375 1.125 -0.109375q1.5 0 2.3125 0.65625q0.828125 0.640625 0.828125 1.75l0 3.296875l0.28125 0q0.578125 0 0.8125 0.234375q0.25 0.21875 0.25 0.578125q0 0.34375 -0.25 0.578125q-0.234375 0.21875 -0.8125 0.21875l-1.875 0zm0 -2.875q-0.96875 -0.1875 -1.78125 -0.1875q-0.96875 0 -1.671875 0.484375q-0.4375 0.296875 -0.4375 0.609375q0 0.234375 0.203125 0.375q0.390625 0.25 1.078125 0.25q0.578125 0 1.296875 -0.21875q0.734375 -0.234375 1.3125 -0.625l0 -0.6875zm10.6484375 -3.9375q0.296875 -0.265625 0.59375 -0.265625q0.34375 0 0.5625 0.25q0.234375 0.234375 0.234375 0.8125l0 1.03125q0 0.578125 -0.234375 0.828125q-0.21875 0.234375 -0.578125 0.234375q-0.328125 0 -0.546875 -0.1875q-0.171875 -0.140625 -0.265625 -0.578125q-0.09375 -0.4375 -0.453125 -0.640625q-0.625 -0.375 -1.609375 -0.375q-1.140625 0 -1.828125 0.671875q-0.671875 0.65625 -0.671875 1.671875q0 0.9375 0.65625 1.484375q0.65625 0.53125 2.171875 0.53125q1.0 0 1.640625 -0.203125q0.375 -0.125 0.703125 -0.421875q0.34375 -0.296875 0.609375 -0.296875q0.328125 0 0.5625 0.25q0.25 0.234375 0.25 0.5625q0 0.53125 -0.734375 1.0q-1.078125 0.71875 -3.15625 0.71875q-1.859375 0 -2.90625 -0.78125q-1.40625 -1.03125 -1.40625 -2.84375q0 -1.703125 1.140625 -2.828125q1.140625 -1.125 2.984375 -1.125q0.65625 0 1.21875 0.125q0.578125 0.125 1.0625 0.375zm7.6796875 -3.328125l0 1.703125l-1.90625 0l0 -1.703125l1.90625 0zm0.21875 3.046875l0 5.484375l1.921875 0q0.578125 0 0.828125 0.234375q0.25 0.21875 0.25 0.578125q0 0.34375 -0.25 0.578125q-0.25 0.21875 -0.828125 0.21875l-5.4375 0q-0.578125 0 -0.828125 -0.21875q-0.25 -0.234375 -0.25 -0.59375q0 -0.34375 0.25 -0.5625q0.25 -0.234375 0.828125 -0.234375l1.921875 0l0 -3.890625l-1.296875 0q-0.5625 0 -0.8125 -0.21875q-0.25 -0.21875 -0.25 -0.578125q0 -0.359375 0.234375 -0.578125q0.25 -0.21875 0.828125 -0.21875l2.890625 0zm7.1953125 0l0 0.53125q0.4375 -0.375 0.953125 -0.5625q0.53125 -0.1875 1.15625 -0.1875q1.421875 0 2.25 0.890625q0.65625 0.703125 0.65625 1.84375l0 2.96875q0.5 0 0.734375 0.234375q0.24996948 0.21875 0.24996948 0.578125q0 0.34375 -0.24996948 0.578125q-0.234375 0.21875 -0.8125 0.21875l-1.453125 0q-0.578125 0 -0.828125 -0.21875q-0.234375 -0.234375 -0.234375 -0.59375q0 -0.34375 0.234375 -0.5625q0.25 -0.234375 0.75 -0.234375l0 -3.015625q0 -0.53125 -0.28125 -0.765625q-0.359375 -0.3125 -1.09375 -0.3125q-0.5625 0 -0.984375 0.21875q-0.40625 0.203125 -1.046875 0.90625l0 2.96875q0.609375 0 0.796875 0.125q0.375 0.234375 0.375 0.6875q0 0.34375 -0.25 0.578125q-0.234375 0.21875 -0.8125 0.21875l-1.828125 0q-0.578125 0 -0.828125 -0.21875q-0.234375 -0.234375 -0.234375 -0.59375q0 -0.4375 0.375 -0.671875q0.1875 -0.125 0.796875 -0.125l0 -3.890625q-0.5 0 -0.75 -0.21875q-0.234375 -0.234375 -0.234375 -0.578125q0 -0.359375 0.234375 -0.578125q0.25 -0.21875 0.828125 -0.21875l1.53125 0zm12.976532 0.46875l0 -0.46875l1.875 0q0.578125 0 0.828125 0.21875q0.25 0.21875 0.25 0.578125q0 0.359375 -0.25 0.578125q-0.25 0.21875 -0.828125 0.21875l-0.265625 0l0 5.84375q0 0.84375 -0.359375 1.46875q-0.359375 0.625 -1.09375 1.078125q-0.734375 0.453125 -1.65625 0.453125l-1.8125 0q-0.578125 0 -0.828125 -0.21875q-0.234375 -0.21875 -0.234375 -0.578125q0 -0.359375 0.234375 -0.578125q0.25 -0.21875 0.828125 -0.21875l1.765625 0q0.734375 0 1.140625 -0.40625q0.40625 -0.390625 0.40625 -1.0l0 -0.796875q-0.53125 0.34375 -1.078125 0.515625q-0.546875 0.1875 -1.125 0.1875q-1.640625 0 -2.75 -1.09375q-1.09375 -1.09375 -1.09375 -2.703125q0 -1.609375 1.09375 -2.6875q1.109375 -1.09375 2.75 -1.09375q0.609375 0 1.15625 0.171875q0.546875 0.171875 1.046875 0.53125zm0 3.078125q0 -0.890625 -0.65625 -1.53125q-0.65625 -0.65625 -1.5625 -0.65625q-0.921875 0 -1.578125 0.65625q-0.640625 0.640625 -0.640625 1.53125q0 0.890625 0.640625 1.53125q0.65625 0.640625 1.578125 0.640625q0.90625 0 1.5625 -0.640625q0.65625 -0.640625 0.65625 -1.53125z" fill-rule="nonzero"/><path fill="#000000" fill-opacity="0.0" d="m143.7613 251.00787l166.64568 0l0 26.236206l-166.64568 0z" fill-rule="evenodd"/><path fill="#414141" d="m165.48259 265.22726l0 8.53125l1.921875 0q0.578125 0 0.8125 0.234375q0.25 0.21875 0.25 0.578125q0 0.34375 -0.25 0.578125q-0.234375 0.21875 -0.8125 0.21875l-5.453125 0q-0.578125 0 -0.828125 -0.21875q-0.234375 -0.234375 -0.234375 -0.59375q0 -0.34375 0.234375 -0.5625q0.25 -0.234375 0.828125 -0.234375l1.921875 0l0 -6.921875l-1.28125 0q-0.578125 0 -0.828125 -0.21875q-0.25 -0.234375 -0.25 -0.59375q0 -0.34375 0.25 -0.5625q0.25 -0.234375 0.828125 -0.234375l2.890625 0zm12.8203125 7.40625l-6.578125 0q0.25 0.625 0.890625 1.015625q0.640625 0.375 1.71875 0.375q0.890625 0 2.375 -0.390625q0.609375 -0.15625 0.84375 -0.15625q0.3125 0 0.53125 0.234375q0.21875 0.21875 0.21875 0.5625q0 0.3125 -0.234375 0.53125q-0.3125 0.296875 -1.53125 0.5625q-1.203125 0.265625 -2.3125 0.265625q-1.921875 0 -3.078125 -1.09375q-1.15625 -1.09375 -1.15625 -2.671875q0 -1.6875 1.25 -2.75q1.25 -1.0625 2.875 -1.0625q0.96875 0 1.78125 0.34375q0.828125 0.34375 1.21875 0.75q0.5625 0.578125 0.9375 1.421875q0.25 0.59375 0.25 1.375l0 0.6875zm-1.78125 -1.609375q-0.359375 -0.6875 -0.953125 -1.015625q-0.59375 -0.34375 -1.421875 -0.34375q-0.8125 0 -1.40625 0.34375q-0.59375 0.328125 -0.96875 1.015625l4.75 0zm6.9609375 -1.15625l0 3.21875q0 0.515625 0.21875 0.671875q0.328125 0.265625 1.171875 0.265625q1.21875 0 2.265625 -0.53125q0.390625 -0.203125 0.625 -0.203125q0.3125 0 0.53125 0.234375q0.234375 0.234375 0.234375 0.578125q0 0.3125 -0.25 0.53125q-0.375 0.375 -1.515625 0.6875q-1.125 0.3125 -1.890625 0.3125q-1.5 0 -2.25 -0.640625q-0.734375 -0.65625 -0.734375 -1.59375l0 -3.53125l-0.578125 0q-0.578125 0 -0.828125 -0.21875q-0.25 -0.21875 -0.25 -0.578125q0 -0.359375 0.25 -0.578125q0.25 -0.21875 0.828125 -0.21875l0.578125 0l0 -1.453125q0 -0.578125 0.21875 -0.8125q0.21875 -0.25 0.578125 -0.25q0.359375 0 0.578125 0.25q0.21875 0.234375 0.21875 0.8125l0 1.453125l2.96875 0q0.578125 0 0.8125 0.21875q0.25 0.21875 0.25 0.578125q0 0.359375 -0.25 0.578125q-0.234375 0.21875 -0.8125 0.21875l-2.96875 0zm9.6015625 0l0 3.21875q0 0.515625 0.21875 0.671875q0.328125 0.265625 1.171875 0.265625q1.21875 0 2.265625 -0.53125q0.390625 -0.203125 0.625 -0.203125q0.3125 0 0.53125 0.234375q0.234375 0.234375 0.234375 0.578125q0 0.3125 -0.25 0.53125q-0.375 0.375 -1.515625 0.6875q-1.125 0.3125 -1.890625 0.3125q-1.5 0 -2.25 -0.640625q-0.734375 -0.65625 -0.734375 -1.59375l0 -3.53125l-0.578125 0q-0.578125 0 -0.828125 -0.21875q-0.25 -0.21875 -0.25 -0.578125q0 -0.359375 0.25 -0.578125q0.25 -0.21875 0.828125 -0.21875l0.578125 0l0 -1.453125q0 -0.578125 0.21875 -0.8125q0.21875 -0.25 0.578125 -0.25q0.359375 0 0.578125 0.25q0.21875 0.234375 0.21875 0.8125l0 1.453125l2.96875 0q0.578125 0 0.8125 0.21875q0.25 0.21875 0.25 0.578125q0 0.359375 -0.25 0.578125q-0.234375 0.21875 -0.8125 0.21875l-2.96875 0zm14.0234375 2.765625l-6.578125 0q0.25 0.625 0.890625 1.015625q0.640625 0.375 1.71875 0.375q0.890625 0 2.375 -0.390625q0.609375 -0.15625 0.84375 -0.15625q0.3125 0 0.53125 0.234375q0.21875 0.21875 0.21875 0.5625q0 0.3125 -0.234375 0.53125q-0.3125 0.296875 -1.53125 0.5625q-1.203125 0.265625 -2.3125 0.265625q-1.921875 0 -3.078125 -1.09375q-1.15625 -1.09375 -1.15625 -2.671875q0 -1.6875 1.25 -2.75q1.25 -1.0625 2.875 -1.0625q0.96875 0 1.78125 0.34375q0.828125 0.34375 1.21875 0.75q0.5625 0.578125 0.9375 1.421875q0.25 0.59375 0.25 1.375l0 0.6875zm-1.78125 -1.609375q-0.359375 -0.6875 -0.953125 -1.015625q-0.59375 -0.34375 -1.421875 -0.34375q-0.8125 0 -1.40625 0.34375q-0.59375 0.328125 -0.96875 1.015625l4.75 0zm7.0234375 -2.75l0 1.0q1.015625 -0.734375 1.59375 -0.96875q0.578125 -0.25 1.09375 -0.25q0.78125 0 1.515625 0.578125q0.5 0.390625 0.5 0.796875q0 0.34375 -0.25 0.59375q-0.234375 0.234375 -0.5625 0.234375q-0.296875 0 -0.625 -0.296875q-0.328125 -0.296875 -0.59375 -0.296875q-0.328125 0 -1.0 0.421875q-0.671875 0.421875 -1.671875 1.265625l0 2.40625l2.28125 0q0.578125 0 0.828125 0.234375q0.25 0.21875 0.25 0.578125q0 0.34375 -0.25 0.578125q-0.25 0.21875 -0.828125 0.21875l-4.828125 0q-0.578125 0 -0.828125 -0.21875q-0.25 -0.234375 -0.25 -0.59375q0 -0.34375 0.25 -0.5625q0.25 -0.234375 0.828125 -0.234375l0.953125 0l0 -3.890625l-0.578125 0q-0.578125 0 -0.828125 -0.21875q-0.25 -0.21875 -0.25 -0.578125q0 -0.359375 0.25 -0.578125q0.25 -0.21875 0.828125 -0.21875l2.171875 0zm13.2890625 3.28125l-6.6875 0l0 -1.46875l6.6875 0l0 1.46875zm7.9765625 -1.40625q-0.390625 -0.25 -0.828125 -0.359375q-0.421875 -0.125 -0.890625 -0.125q-0.921875 0 -1.46875 0.296875q-0.25 0.140625 -0.25 0.296875q0 0.171875 0.328125 0.34375q0.25 0.125 1.125 0.25q1.59375 0.21875 2.21875 0.4375q0.8125 0.28125 1.25 0.859375q0.453125 0.5625 0.453125 1.203125q0 0.859375 -0.75 1.4375q-1.09375 0.84375 -2.828125 0.84375q-0.6875 0 -1.28125 -0.125q-0.59375 -0.125 -1.078125 -0.359375q-0.125 0.09375 -0.265625 0.15625q-0.125 0.046875 -0.265625 0.046875q-0.375 0 -0.59375 -0.234375q-0.21875 -0.25 -0.21875 -0.828125l0 -0.546875q0 -0.578125 0.21875 -0.8125q0.21875 -0.25 0.578125 -0.25q0.296875 0 0.484375 0.15625q0.203125 0.15625 0.3125 0.546875q0.359375 0.3125 0.875 0.484375q0.515625 0.15625 1.1875 0.15625q1.109375 0 1.71875 -0.34375q0.28125 -0.171875 0.28125 -0.359375q0 -0.3125 -0.40625 -0.515625q-0.421875 -0.203125 -1.71875 -0.34375q-1.921875 -0.203125 -2.578125 -0.78125q-0.640625 -0.578125 -0.640625 -1.40625q0 -0.859375 0.71875 -1.4375q0.984375 -0.78125 2.578125 -0.78125q0.5625 0 1.0625 0.109375q0.515625 0.109375 0.984375 0.328125q0.15625 -0.109375 0.28125 -0.15625q0.125 -0.0625 0.234375 -0.0625q0.328125 0 0.546875 0.25q0.21875 0.234375 0.21875 0.8125l0 0.390625q0 0.53125 -0.125 0.71875q-0.25 0.359375 -0.671875 0.359375q-0.296875 0 -0.515625 -0.171875q-0.21875 -0.1875 -0.28125 -0.484375zm5.8828125 4.328125l0 2.640625l0.96875 0q0.578125 0 0.8125 0.21875q0.25 0.21875 0.25 0.578125q0 0.359375 -0.25 0.578125q-0.234375 0.21875 -0.8125 0.21875l-2.84375 0q-0.578125 0 -0.828125 -0.21875q-0.25 -0.21875 -0.25 -0.578125q0 -0.359375 0.25 -0.578125q0.265625 -0.21875 0.828125 -0.21875l0.28125 0l0 -7.25l-0.28125 0q-0.578125 0 -0.828125 -0.21875q-0.25 -0.21875 -0.25 -0.578125q0 -0.359375 0.25 -0.578125q0.25 -0.21875 0.828125 -0.21875l1.875 0l0 0.546875q0.5625 -0.390625 1.15625 -0.578125q0.609375 -0.1875 1.25 -0.1875q1.640625 0 2.796875 1.125q1.15625 1.109375 1.15625 2.546875q0 1.578125 -1.375 2.609375q-1.140625 0.859375 -2.5625 0.859375q-0.625 0 -1.234375 -0.171875q-0.59375 -0.1875 -1.1875 -0.546875zm4.75 -2.75q0 -0.328125 -0.265625 -0.84375q-0.265625 -0.53125 -0.8125 -0.875q-0.546875 -0.34375 -1.296875 -0.34375q-1.1875 0 -1.890625 0.890625q-0.484375 0.625 -0.484375 1.1875q0 0.640625 0.6875 1.25q0.6875 0.609375 1.6875 0.609375q1.015625 0 1.6875 -0.59375q0.6875 -0.609375 0.6875 -1.28125zm8.2890625 3.640625l0 -0.375q-0.609375 0.3125 -1.34375 0.46875q-0.71875 0.171875 -1.3125 0.171875q-1.28125 0 -2.09375 -0.6875q-0.796875 -0.6875 -0.796875 -1.515625q0 -1.0 1.015625 -1.859375q1.03125 -0.875 2.84375 -0.875q0.734375 0 1.6875 0.15625l0 -0.375q0 -0.359375 -0.3125 -0.578125q-0.3125 -0.234375 -1.171875 -0.234375q-0.71875 0 -1.84375 0.28125q-0.421875 0.09375 -0.65625 0.09375q-0.328125 0 -0.546875 -0.21875q-0.21875 -0.234375 -0.21875 -0.59375q0 -0.203125 0.078125 -0.34375q0.078125 -0.15625 0.21875 -0.25q0.140625 -0.09375 0.578125 -0.21875q0.59375 -0.15625 1.203125 -0.25q0.625 -0.109375 1.125 -0.109375q1.5 0 2.3125 0.65625q0.828125 0.640625 0.828125 1.75l0 3.296875l0.28125 0q0.578125 0 0.8125 0.234375q0.25 0.21875 0.25 0.578125q0 0.34375 -0.25 0.578125q-0.234375 0.21875 -0.8125 0.21875l-1.875 0zm0 -2.875q-0.96875 -0.1875 -1.78125 -0.1875q-0.96875 0 -1.671875 0.484375q-0.4375 0.296875 -0.4375 0.609375q0 0.234375 0.203125 0.375q0.390625 0.25 1.078125 0.25q0.578125 0 1.296875 -0.21875q0.734375 -0.234375 1.3125 -0.625l0 -0.6875zm10.648422 -3.9375q0.296875 -0.265625 0.59375 -0.265625q0.34375 0 0.5625 0.25q0.234375 0.234375 0.234375 0.8125l0 1.03125q0 0.578125 -0.234375 0.828125q-0.21875 0.234375 -0.578125 0.234375q-0.328125 0 -0.546875 -0.1875q-0.171875 -0.140625 -0.265625 -0.578125q-0.09375 -0.4375 -0.453125 -0.640625q-0.625 -0.375 -1.609375 -0.375q-1.140625 0 -1.828125 0.671875q-0.671875 0.65625 -0.671875 1.671875q0 0.9375 0.65625 1.484375q0.65625 0.53125 2.171875 0.53125q1.0 0 1.640625 -0.203125q0.375 -0.125 0.703125 -0.421875q0.34375 -0.296875 0.609375 -0.296875q0.328125 0 0.5625 0.25q0.25 0.234375 0.25 0.5625q0 0.53125 -0.734375 1.0q-1.078125 0.71875 -3.15625 0.71875q-1.859375 0 -2.90625 -0.78125q-1.40625 -1.03125 -1.40625 -2.84375q0 -1.703125 1.140625 -2.828125q1.140625 -1.125 2.984375 -1.125q0.65625 0 1.21875 0.125q0.578125 0.125 1.0625 0.375zm7.6796875 -3.328125l0 1.703125l-1.90625 0l0 -1.703125l1.90625 0zm0.21875 3.046875l0 5.484375l1.9219055 0q0.578125 0 0.828125 0.234375q0.25 0.21875 0.25 0.578125q0 0.34375 -0.25 0.578125q-0.25 0.21875 -0.828125 0.21875l-5.4375305 0q-0.578125 0 -0.828125 -0.21875q-0.25 -0.234375 -0.25 -0.59375q0 -0.34375 0.25 -0.5625q0.25 -0.234375 0.828125 -0.234375l1.921875 0l0 -3.890625l-1.296875 0q-0.5625 0 -0.8125 -0.21875q-0.25 -0.21875 -0.25 -0.578125q0 -0.359375 0.234375 -0.578125q0.25 -0.21875 0.828125 -0.21875l2.890625 0zm7.195343 0l0 0.53125q0.4375 -0.375 0.953125 -0.5625q0.53125 -0.1875 1.15625 -0.1875q1.421875 0 2.25 0.890625q0.65625 0.703125 0.65625 1.84375l0 2.96875q0.5 0 0.734375 0.234375q0.25 0.21875 0.25 0.578125q0 0.34375 -0.25 0.578125q-0.234375 0.21875 -0.8125 0.21875l-1.453125 0q-0.578125 0 -0.828125 -0.21875q-0.234375 -0.234375 -0.234375 -0.59375q0 -0.34375 0.234375 -0.5625q0.25 -0.234375 0.75 -0.234375l0 -3.015625q0 -0.53125 -0.28125 -0.765625q-0.359375 -0.3125 -1.09375 -0.3125q-0.5625 0 -0.984375 0.21875q-0.40625 0.203125 -1.046875 0.90625l0 2.96875q0.609375 0 0.796875 0.125q0.375 0.234375 0.375 0.6875q0 0.34375 -0.25 0.578125q-0.234375 0.21875 -0.8125 0.21875l-1.828125 0q-0.578125 0 -0.828125 -0.21875q-0.234375 -0.234375 -0.234375 -0.59375q0 -0.4375 0.375 -0.671875q0.1875 -0.125 0.796875 -0.125l0 -3.890625q-0.5 0 -0.75 -0.21875q-0.234375 -0.234375 -0.234375 -0.578125q0 -0.359375 0.234375 -0.578125q0.25 -0.21875 0.828125 -0.21875l1.53125 0zm12.9765625 0.46875l0 -0.46875l1.875 0q0.578125 0 0.828125 0.21875q0.25 0.21875 0.25 0.578125q0 0.359375 -0.25 0.578125q-0.25 0.21875 -0.828125 0.21875l-0.265625 0l0 5.84375q0 0.84375 -0.359375 1.46875q-0.359375 0.625 -1.09375 1.078125q-0.734375 0.453125 -1.65625 0.453125l-1.8125 0q-0.578125 0 -0.828125 -0.21875q-0.234375 -0.21875 -0.234375 -0.578125q0 -0.359375 0.234375 -0.578125q0.25 -0.21875 0.828125 -0.21875l1.765625 0q0.734375 0 1.140625 -0.40625q0.40625 -0.390625 0.40625 -1.0l0 -0.796875q-0.53125 0.34375 -1.078125 0.515625q-0.546875 0.1875 -1.125 0.1875q-1.640625 0 -2.75 -1.09375q-1.09375 -1.09375 -1.09375 -2.703125q0 -1.609375 1.09375 -2.6875q1.109375 -1.09375 2.75 -1.09375q0.609375 0 1.15625 0.171875q0.546875 0.171875 1.046875 0.53125zm0 3.078125q0 -0.890625 -0.65625 -1.53125q-0.65625 -0.65625 -1.5625 -0.65625q-0.921875 0 -1.578125 0.65625q-0.640625 0.640625 -0.640625 1.53125q0 0.890625 0.640625 1.53125q0.65625 0.640625 1.578125 0.640625q0.90625 0 1.5625 -0.640625q0.65625 -0.640625 0.65625 -1.53125z" fill-rule="nonzero"/><path fill="#000000" fill-opacity="0.0" d="m883.67584 116.902885l119.653564 0l0 26.236229l-119.653564 0z" fill-rule="evenodd"/><path fill="#414141" d="m897.4727 135.7629l0 3.890625l2.28125 0q0.578125 0 0.8125 0.234375q0.25 0.21875 0.25 0.578125q0 0.34375 -0.25 0.578125q-0.234375 0.21875 -0.8125 0.21875l-4.84375 0q-0.578125 0 -0.828125 -0.21875q-0.234375 -0.234375 -0.234375 -0.59375q0 -0.34375 0.234375 -0.5625q0.25 -0.234375 0.828125 -0.234375l0.953125 0l0 -3.890625l-0.765625 0q-0.578125 0 -0.828125 -0.21875q-0.234375 -0.21875 -0.234375 -0.578125q0 -0.359375 0.234375 -0.578125q0.25 -0.21875 0.828125 -0.21875l0.765625 0l0 -0.609375q0 -1.046875 0.78125 -1.734375q0.796875 -0.703125 2.28125 -0.703125q0.671875 0 1.53125 0.125q0.875 0.125 1.125 0.34375q0.25 0.21875 0.25 0.5625q0 0.359375 -0.21875 0.59375q-0.21875 0.234375 -0.546875 0.234375q-0.140625 0 -0.4375 -0.0625q-1.0 -0.1875 -1.765625 -0.1875q-0.796875 0 -1.09375 0.234375q-0.296875 0.234375 -0.296875 0.59375l0 0.609375l2.46875 0q0.578125 0 0.8125 0.21875q0.25 0.21875 0.25 0.578125q0 0.359375 -0.25 0.578125q-0.234375 0.21875 -0.8125 0.21875l-2.46875 0zm13.7734375 2.078125q0 0.921875 -0.515625 1.796875q-0.515625 0.859375 -1.53125 1.375q-1.0 0.515625 -2.109375 0.515625q-1.09375 0 -2.09375 -0.5q-1.0 -0.515625 -1.53125 -1.375q-0.515625 -0.875 -0.515625 -1.828125q0 -0.953125 0.53125 -1.875q0.53125 -0.9375 1.53125 -1.46875q1.0 -0.53125 2.078125 -0.53125q1.09375 0 2.109375 0.546875q1.015625 0.546875 1.53125 1.46875q0.515625 0.90625 0.515625 1.875zm-1.609375 0.015625q0 -0.78125 -0.546875 -1.421875q-0.765625 -0.875 -2.0 -0.875q-1.078125 0 -1.8125 0.703125q-0.71875 0.6875 -0.71875 1.59375q0 0.75 0.734375 1.40625q0.734375 0.65625 1.796875 0.65625q1.078125 0 1.8125 -0.65625q0.734375 -0.65625 0.734375 -1.40625zm5.4296875 -3.6875l0 0.53125q0.4375 -0.375 0.953125 -0.5625q0.53125 -0.1875 1.15625 -0.1875q1.421875 0 2.25 0.890625q0.65625 0.703125 0.65625 1.84375l0 2.96875q0.5 0 0.734375 0.234375q0.25 0.21875 0.25 0.578125q0 0.34375 -0.25 0.578125q-0.234375 0.21875 -0.8125 0.21875l-1.453125 0q-0.578125 0 -0.828125 -0.21875q-0.234375 -0.234375 -0.234375 -0.59375q0 -0.34375 0.234375 -0.5625q0.25 -0.234375 0.75 -0.234375l0 -3.015625q0 -0.53125 -0.28125 -0.765625q-0.359375 -0.3125 -1.09375 -0.3125q-0.5625 0 -0.984375 0.21875q-0.40625 0.203125 -1.046875 0.90625l0 2.96875q0.609375 0 0.796875 0.125q0.375 0.234375 0.375 0.6875q0 0.34375 -0.25 0.578125q-0.234375 0.21875 -0.8125 0.21875l-1.828125 0q-0.578125 0 -0.828125 -0.21875q-0.234375 -0.234375 -0.234375 -0.59375q0 -0.4375 0.375 -0.671875q0.1875 -0.125 0.796875 -0.125l0 -3.890625q-0.5 0 -0.75 -0.21875q-0.234375 -0.234375 -0.234375 -0.578125q0 -0.359375 0.234375 -0.578125q0.25 -0.21875 0.828125 -0.21875l1.53125 0zm10.8203125 1.59375l0 3.21875q0 0.515625 0.21875 0.671875q0.328125 0.265625 1.171875 0.265625q1.21875 0 2.265625 -0.53125q0.390625 -0.203125 0.625 -0.203125q0.3125 0 0.53125 0.234375q0.234375 0.234375 0.234375 0.578125q0 0.3125 -0.25 0.53125q-0.375 0.375 -1.515625 0.6875q-1.125 0.3125 -1.890625 0.3125q-1.5 0 -2.25 -0.640625q-0.734375 -0.65625 -0.734375 -1.59375l0 -3.53125l-0.578125 0q-0.578125 0 -0.828125 -0.21875q-0.25 -0.21875 -0.25 -0.578125q0 -0.359375 0.25 -0.578125q0.25 -0.21875 0.828125 -0.21875l0.578125 0l0 -1.453125q0 -0.578125 0.21875 -0.8125q0.21875 -0.25 0.578125 -0.25q0.359375 0 0.578125 0.25q0.21875 0.234375 0.21875 0.8125l0 1.453125l2.96875 0q0.578125 0 0.8125 0.21875q0.25 0.21875 0.25 0.578125q0 0.359375 -0.25 0.578125q-0.234375 0.21875 -0.8125 0.21875l-2.96875 0zm13.3515625 1.6875l-6.6875 0l0 -1.46875l6.6875 0l0 1.46875zm7.9765625 -1.40625q-0.390625 -0.25 -0.828125 -0.359375q-0.421875 -0.125 -0.890625 -0.125q-0.921875 0 -1.46875 0.296875q-0.25 0.140625 -0.25 0.296875q0 0.171875 0.328125 0.34375q0.25 0.125 1.125 0.25q1.59375 0.21875 2.21875 0.4375q0.8125 0.28125 1.25 0.859375q0.453125 0.5625 0.453125 1.203125q0 0.859375 -0.75 1.4375q-1.09375 0.84375 -2.828125 0.84375q-0.6875 0 -1.28125 -0.125q-0.59375 -0.125 -1.078125 -0.359375q-0.125 0.09375 -0.265625 0.15625q-0.125 0.046875 -0.265625 0.046875q-0.375 0 -0.59375 -0.234375q-0.21875 -0.25 -0.21875 -0.828125l0 -0.546875q0 -0.578125 0.21875 -0.8125q0.21875 -0.25 0.578125 -0.25q0.296875 0 0.484375 0.15625q0.203125 0.15625 0.3125 0.546875q0.359375 0.3125 0.875 0.484375q0.515625 0.15625 1.1875 0.15625q1.109375 0 1.71875 -0.34375q0.28125 -0.171875 0.28125 -0.359375q0 -0.3125 -0.40625 -0.515625q-0.421875 -0.203125 -1.71875 -0.34375q-1.921875 -0.203125 -2.578125 -0.78125q-0.640625 -0.578125 -0.640625 -1.40625q0 -0.859375 0.71875 -1.4375q0.984375 -0.78125 2.578125 -0.78125q0.5625 0 1.0625 0.109375q0.515625 0.109375 0.984375 0.328125q0.15625 -0.109375 0.28125 -0.15625q0.125 -0.0625 0.234375 -0.0625q0.328125 0 0.546875 0.25q0.21875 0.234375 0.21875 0.8125l0 0.390625q0 0.53125 -0.125 0.71875q-0.25 0.359375 -0.671875 0.359375q-0.296875 0 -0.515625 -0.171875q-0.21875 -0.1875 -0.28125 -0.484375zm8.4453125 -4.921875l0 1.703125l-1.90625 0l0 -1.703125l1.90625 0zm0.21875 3.046875l0 5.484375l1.921875 0q0.578125 0 0.828125 0.234375q0.25 0.21875 0.25 0.578125q0 0.34375 -0.25 0.578125q-0.25 0.21875 -0.828125 0.21875l-5.4375 0q-0.578125 0 -0.828125 -0.21875q-0.25 -0.234375 -0.25 -0.59375q0 -0.34375 0.25 -0.5625q0.25 -0.234375 0.828125 -0.234375l1.921875 0l0 -3.890625l-1.296875 0q-0.5625 0 -0.8125 -0.21875q-0.25 -0.21875 -0.25 -0.578125q0 -0.359375 0.234375 -0.578125q0.25 -0.21875 0.828125 -0.21875l2.890625 0zm7.9453125 5.484375l2.8125 0q0.03125 -0.4375 0.25 -0.65625q0.21875 -0.234375 0.546875 -0.234375q0.359375 0 0.578125 0.25q0.234375 0.25 0.234375 0.828125l0 1.421875l-6.96875 0l0 -1.328125l4.21875 -4.171875l-2.453125 0l0 0.15625q0 0.578125 -0.234375 0.828125q-0.21875 0.234375 -0.578125 0.234375q-0.359375 0 -0.578125 -0.234375q-0.21875 -0.25 -0.21875 -0.828125l0 -1.75l6.625 0l0 1.3125l-4.234375 4.171875zm14.4921875 -1.125l-6.578125 0q0.25 0.625 0.890625 1.015625q0.640625 0.375 1.71875 0.375q0.890625 0 2.375 -0.390625q0.609375 -0.15625 0.84375 -0.15625q0.3125 0 0.53125 0.234375q0.21875 0.21875 0.21875 0.5625q0 0.3125 -0.234375 0.53125q-0.3125 0.296875 -1.53125 0.5625q-1.203125 0.265625 -2.3125 0.265625q-1.921875 0 -3.078125 -1.09375q-1.15625 -1.09375 -1.15625 -2.671875q0 -1.6875 1.25 -2.75q1.25 -1.0625 2.875 -1.0625q0.96875 0 1.78125 0.34375q0.828125 0.34375 1.21875 0.75q0.5625 0.578125 0.9375 1.421875q0.25 0.59375 0.25 1.375l0 0.6875zm-1.78125 -1.609375q-0.359375 -0.6875 -0.953125 -1.015625q-0.59375 -0.34375 -1.421875 -0.34375q-0.8125 0 -1.40625 0.34375q-0.59375 0.328125 -0.96875 1.015625l4.75 0z" fill-rule="nonzero"/><path fill="#000000" fill-opacity="0.0" d="m988.68634 219.14699l-1.3543091 -154.67717" fill-rule="evenodd"/><path stroke="#414141" stroke-width="1.0" stroke-linejoin="round" stroke-linecap="butt" d="m988.63385 213.1472l-1.2493286 -142.67761" fill-rule="evenodd"/><path fill="#414141" stroke="#414141" stroke-width="1.0" stroke-linecap="butt" d="m986.9822 213.16167l1.6913452 4.523468l1.6119385 -4.5523834z" fill-rule="evenodd"/><path fill="#414141" stroke="#414141" stroke-width="1.0" stroke-linecap="butt" d="m989.0362 70.455124l-1.6913452 -4.5234604l-1.6119385 4.5523834z" fill-rule="evenodd"/><path fill="#000000" fill-opacity="0.0" d="m982.83746 117.47507l135.49603 0l0 26.236221l-135.49603 0z" fill-rule="evenodd"/><path fill="#414141" d="m997.44684 131.69444l0 8.53125l1.921875 0q0.578125 0 0.8125 0.234375q0.25 0.21875 0.25 0.578125q0 0.34375 -0.25 0.578125q-0.234375 0.21875 -0.8125 0.21875l-5.453125 0q-0.578125 0 -0.828125 -0.21875q-0.234375 -0.234375 -0.234375 -0.59375q0 -0.34375 0.234375 -0.5625q0.25 -0.234375 0.828125 -0.234375l1.921875 0l0 -6.921875l-1.28125 0q-0.578125 0 -0.828125 -0.21875q-0.25 -0.234375 -0.25 -0.59375q0 -0.34375 0.25 -0.5625q0.25 -0.234375 0.828125 -0.234375l2.890625 0zm9.3671875 0l0 1.703125l-1.90625 0l0 -1.703125l1.90625 0zm0.21875 3.046875l0 5.484375l1.921875 0q0.578125 0 0.828125 0.234375q0.25 0.21875 0.25 0.578125q0 0.34375 -0.25 0.578125q-0.25 0.21875 -0.828125 0.21875l-5.4375 0q-0.578125 0 -0.828125 -0.21875q-0.25 -0.234375 -0.25 -0.59375q0 -0.34375 0.25 -0.5625q0.25 -0.234375 0.828125 -0.234375l1.921875 0l0 -3.890625l-1.296875 0q-0.5625 0 -0.8125 -0.21875q-0.25 -0.21875 -0.25 -0.578125q0 -0.359375 0.234375 -0.578125q0.25 -0.21875 0.828125 -0.21875l2.890625 0zm7.1953125 0l0 0.53125q0.4375 -0.375 0.953125 -0.5625q0.53125 -0.1875 1.15625 -0.1875q1.421875 0 2.25 0.890625q0.65625 0.703125 0.65625 1.84375l0 2.96875q0.5 0 0.734375 0.234375q0.25 0.21875 0.25 0.578125q0 0.34375 -0.25 0.578125q-0.234375 0.21875 -0.8125 0.21875l-1.453125 0q-0.578125 0 -0.828125 -0.21875q-0.234375 -0.234375 -0.234375 -0.59375q0 -0.34375 0.234375 -0.5625q0.25 -0.234375 0.75 -0.234375l0 -3.015625q0 -0.53125 -0.28125 -0.765625q-0.359375 -0.3125 -1.09375 -0.3125q-0.5625 0 -0.984375 0.21875q-0.40625 0.203125 -1.046875 0.90625l0 2.96875q0.609375 0 0.796875 0.125q0.375 0.234375 0.375 0.6875q0 0.34375 -0.25 0.578125q-0.234375 0.21875 -0.8125 0.21875l-1.828125 0q-0.578125 0 -0.828125 -0.21875q-0.234375 -0.234375 -0.234375 -0.59375q0 -0.4375 0.375 -0.671875q0.1875 -0.125 0.796875 -0.125l0 -3.890625q-0.5 0 -0.75 -0.21875q-0.234375 -0.234375 -0.234375 -0.578125q0 -0.359375 0.234375 -0.578125q0.25 -0.21875 0.828125 -0.21875l1.53125 0zm15.242126 4.359375l-6.578064 0q0.25 0.625 0.890625 1.015625q0.64056396 0.375 1.718689 0.375q0.890625 0 2.375 -0.390625q0.609375 -0.15625 0.84375 -0.15625q0.3125 0 0.53125 0.234375q0.21875 0.21875 0.21875 0.5625q0 0.3125 -0.234375 0.53125q-0.3125 0.296875 -1.53125 0.5625q-1.203125 0.265625 -2.3125 0.265625q-1.921814 0 -3.078064 -1.09375q-1.15625 -1.09375 -1.15625 -2.671875q0 -1.6875 1.25 -2.75q1.25 -1.0625 2.874939 -1.0625q0.96875 0 1.78125 0.34375q0.828125 0.34375 1.21875 0.75q0.5625 0.578125 0.9375 1.421875q0.25 0.59375 0.25 1.375l0 0.6875zm-1.78125 -1.609375q-0.359375 -0.6875 -0.953125 -1.015625q-0.59375 -0.34375 -1.421875 -0.34375q-0.8125 0 -1.406189 0.34375q-0.59375 0.328125 -0.96875 1.015625l4.749939 0zm10.7109375 0.53125l-6.6875 0l0 -1.46875l6.6875 0l0 1.46875zm4.6015625 -6.328125l0 3.421875q0.5 -0.296875 1.0 -0.4375q0.515625 -0.15625 1.046875 -0.15625q0.828125 0 1.46875 0.28125q0.65625 0.28125 1.078125 0.890625q0.421875 0.609375 0.421875 1.53125l0 3.0q0.609375 0 0.796875 0.125q0.375 0.234375 0.375 0.6875q0 0.34375 -0.25 0.578125q-0.234375 0.21875 -0.8125 0.21875l-1.828125 0q-0.5625 0 -0.8125 -0.21875q-0.25 -0.234375 -0.25 -0.59375q0 -0.4375 0.375 -0.671875q0.203125 -0.125 0.796875 -0.125l0 -2.890625q0 -0.625 -0.28125 -0.875q-0.359375 -0.328125 -1.078125 -0.328125q-0.53125 0 -0.953125 0.203125q-0.40625 0.203125 -1.09375 0.890625l0 3.0q0.609375 0 0.796875 0.125q0.375 0.234375 0.375 0.6875q0 0.34375 -0.25 0.578125q-0.234375 0.21875 -0.8125 0.21875l-1.828125 0q-0.578125 0 -0.828125 -0.21875q-0.234375 -0.234375 -0.234375 -0.59375q0 -0.4375 0.375 -0.671875q0.1875 -0.125 0.796875 -0.125l0 -6.921875l-0.265625 0q-0.578125 0 -0.828125 -0.21875q-0.25 -0.234375 -0.25 -0.59375q0 -0.34375 0.25 -0.5625q0.25 -0.234375 0.828125 -0.234375l1.875 0zm15.2734375 7.40625l-6.578125 0q0.25 0.625 0.890625 1.015625q0.640625 0.375 1.71875 0.375q0.890625 0 2.375 -0.390625q0.609375 -0.15625 0.84375 -0.15625q0.3125 0 0.53125 0.234375q0.21875 0.21875 0.21875 0.5625q0 0.3125 -0.234375 0.53125q-0.3125 0.296875 -1.53125 0.5625q-1.203125 0.265625 -2.3125 0.265625q-1.921875 0 -3.078125 -1.09375q-1.15625 -1.09375 -1.15625 -2.671875q0 -1.6875 1.25 -2.75q1.25 -1.0625 2.875 -1.0625q0.96875 0 1.78125 0.34375q0.828125 0.34375 1.21875 0.75q0.5625 0.578125 0.9375 1.421875q0.25 0.59375 0.25 1.375l0 0.6875zm-1.78125 -1.609375q-0.359375 -0.6875 -0.953125 -1.015625q-0.59375 -0.34375 -1.421875 -0.34375q-0.8125 0 -1.40625 0.34375q-0.59375 0.328125 -0.96875 1.015625l4.75 0zm7.9296875 -5.796875l0 1.703125l-1.90625 0l0 -1.703125l1.90625 0zm0.21875 3.046875l0 5.484375l1.921875 0q0.578125 0 0.828125 0.234375q0.25 0.21875 0.25 0.578125q0 0.34375 -0.25 0.578125q-0.25 0.21875 -0.828125 0.21875l-5.4375 0q-0.578125 0 -0.828125 -0.21875q-0.25 -0.234375 -0.25 -0.59375q0 -0.34375 0.25 -0.5625q0.25 -0.234375 0.828125 -0.234375l1.921875 0l0 -3.890625l-1.296875 0q-0.5625 0 -0.8125 -0.21875q-0.25 -0.21875 -0.25 -0.578125q0 -0.359375 0.234375 -0.578125q0.25 -0.21875 0.828125 -0.21875l2.890625 0zm10.5703125 0.46875l0 -0.46875l1.875 0q0.578125 0 0.828125 0.21875q0.25 0.21875 0.25 0.578125q0 0.359375 -0.25 0.578125q-0.25 0.21875 -0.828125 0.21875l-0.265625 0l0 5.84375q0 0.84375 -0.359375 1.46875q-0.359375 0.625 -1.09375 1.078125q-0.734375 0.453125 -1.65625 0.453125l-1.8125 0q-0.578125 0 -0.828125 -0.21875q-0.234375 -0.21875 -0.234375 -0.578125q0 -0.359375 0.234375 -0.578125q0.25 -0.21875 0.828125 -0.21875l1.765625 0q0.734375 0 1.140625 -0.40625q0.40625 -0.390625 0.40625 -1.0l0 -0.796875q-0.53125 0.34375 -1.078125 0.515625q-0.546875 0.1875 -1.125 0.1875q-1.640625 0 -2.75 -1.09375q-1.09375 -1.09375 -1.09375 -2.703125q0 -1.609375 1.09375 -2.6875q1.109375 -1.09375 2.75 -1.09375q0.609375 0 1.15625 0.171875q0.546875 0.171875 1.046875 0.53125zm0 3.078125q0 -0.890625 -0.65625 -1.53125q-0.65625 -0.65625 -1.5625 -0.65625q-0.921875 0 -1.578125 0.65625q-0.640625 0.640625 -0.640625 1.53125q0 0.890625 0.640625 1.53125q0.65625 0.640625 1.578125 0.640625q0.90625 0 1.5625 -0.640625q0.65625 -0.640625 0.65625 -1.53125zm6.1953125 -6.59375l0 3.421875q0.5 -0.296875 1.0 -0.4375q0.515625 -0.15625 1.046875 -0.15625q0.828125 0 1.46875 0.28125q0.65625 0.28125 1.078125 0.890625q0.421875 0.609375 0.421875 1.53125l0 3.0q0.609375 0 0.796875 0.125q0.375 0.234375 0.375 0.6875q0 0.34375 -0.25 0.578125q-0.234375 0.21875 -0.8125 0.21875l-1.828125 0q-0.5625 0 -0.8125 -0.21875q-0.25 -0.234375 -0.25 -0.59375q0 -0.4375 0.375 -0.671875q0.203125 -0.125 0.796875 -0.125l0 -2.890625q0 -0.625 -0.28125 -0.875q-0.359375 -0.328125 -1.078125 -0.328125q-0.53125 0 -0.953125 0.203125q-0.40625 0.203125 -1.09375 0.890625l0 3.0q0.609375 0 0.796875 0.125q0.375 0.234375 0.375 0.6875q0 0.34375 -0.25 0.578125q-0.234375 0.21875 -0.8125 0.21875l-1.828125 0q-0.578125 0 -0.828125 -0.21875q-0.234375 -0.234375 -0.234375 -0.59375q0 -0.4375 0.375 -0.671875q0.1875 -0.125 0.796875 -0.125l0 -6.921875l-0.265625 0q-0.578125 0 -0.828125 -0.21875q-0.25 -0.234375 -0.25 -0.59375q0 -0.34375 0.25 -0.5625q0.25 -0.234375 0.828125 -0.234375l1.875 0zm10.8515625 4.640625l0 3.21875q0 0.515625 0.21875 0.671875q0.328125 0.265625 1.171875 0.265625q1.21875 0 2.265625 -0.53125q0.390625 -0.203125 0.625 -0.203125q0.3125 0 0.53125 0.234375q0.234375 0.234375 0.234375 0.578125q0 0.3125 -0.25 0.53125q-0.375 0.375 -1.515625 0.6875q-1.125 0.3125 -1.890625 0.3125q-1.5 0 -2.25 -0.640625q-0.734375 -0.65625 -0.734375 -1.59375l0 -3.53125l-0.578125 0q-0.578125 0 -0.828125 -0.21875q-0.25 -0.21875 -0.25 -0.578125q0 -0.359375 0.25 -0.578125q0.25 -0.21875 0.828125 -0.21875l0.578125 0l0 -1.453125q0 -0.578125 0.21875 -0.8125q0.21875 -0.25 0.578125 -0.25q0.359375 0 0.578125 0.25q0.21875 0.234375 0.21875 0.8125l0 1.453125l2.96875 0q0.578125 0 0.8125 0.21875q0.25 0.21875 0.25 0.578125q0 0.359375 -0.25 0.578125q-0.234375 0.21875 -0.8125 0.21875l-2.96875 0z" fill-rule="nonzero"/><path fill="#000000" fill-opacity="0.0" d="m74.18635 142.08923l0 -74.99212" fill-rule="evenodd"/><path stroke="#414141" stroke-width="1.0" stroke-linejoin="round" stroke-linecap="butt" d="m74.18635 136.08923l0 -62.99212" fill-rule="evenodd"/><path stroke="#414141" stroke-width="1.0" stroke-linecap="butt" d="m72.53462 136.08923l1.6517258 4.538101l1.6517334 -4.538101z" fill-rule="evenodd"/><path stroke="#414141" stroke-width="1.0" stroke-linecap="butt" d="m75.83808 73.097115l-1.6517334 -4.538101l-1.6517258 4.538101z" fill-rule="evenodd"/><path fill="#000000" fill-opacity="0.0" d="m74.07612 219.87401l0.3464508 -80.188965" fill-rule="evenodd"/><path stroke="#414141" stroke-width="1.0" stroke-linejoin="round" stroke-linecap="butt" d="m74.102036 213.87408l0.2946167 -68.1891" fill-rule="evenodd"/><path stroke="#414141" stroke-width="1.0" stroke-linecap="butt" d="m72.450325 213.86694l1.632103 4.5451813l1.6713257 -4.5309143z" fill-rule="evenodd"/><path stroke="#414141" stroke-width="1.0" stroke-linecap="butt" d="m76.04836 145.69212l-1.632103 -4.5451965l-1.6713257 4.5309143z" fill-rule="evenodd"/></g></svg>