<svg version="1.1" xmlns="http://www.w3.org/2000/svg" viewBox="0 0 542.3326403236367 332.2253880044126" width="1626.9979209709102" height="996.6761640132378">
  <!-- svg-source:excalidraw -->

  <defs>
    <style class="style-fonts">
      @font-face {
        font-family: "Virgil";
        src: url("https://excalidraw.com/Virgil.woff2");
      }
      @font-face {
        font-family: "Cascadia";
        src: url("https://excalidraw.com/Cascadia.woff2");
      }
    </style>

  </defs>
  <rect x="0" y="0" width="542.3326403236367" height="332.2253880044126" fill="#ffffff"></rect><g stroke-linecap="round" transform="translate(38.70710613942174 37.60298667252039) rotate(0 214.52495958184818 126.40712805230612)"><path d="M-1.04 -0.06 L428.13 0.63 L428.6 253.49 L-1.27 252.09" stroke="none" stroke-width="0" fill="#1e1e1e"></path><path d="M0 0 C120.45 0.78, 240.7 0, 429.05 0 M0 0 C137.33 -0.91, 274.82 -0.57, 429.05 0 M429.05 0 C429.23 76.51, 429.01 152.54, 429.05 252.81 M429.05 0 C429.31 91.23, 429.04 182.17, 429.05 252.81 M429.05 252.81 C283.28 252.94, 138.27 253.4, 0 252.81 M429.05 252.81 C316.66 253, 203.64 252.63, 0 252.81 M0 252.81 C-1.35 161.3, -0.52 72.4, 0 0 M0 252.81 C1.92 169.45, 1.87 87.1, 0 0" stroke="#1e1e1e" stroke-width="4" fill="none"></path></g><g stroke-linecap="round" transform="translate(63.033212723566066 64.17968197383635) rotate(0 186.561062746885 98.49173424346722)"><path d="M-0.92 0.63 L372.67 0.67 L371.85 196.26 L-0.82 198.77" stroke="none" stroke-width="0" fill="#ffffff"></path><path d="M0 0 C110.1 -1.65, 222.02 -1.21, 373.12 0 M0 0 C128.42 0.09, 257.54 -0.1, 373.12 0 M373.12 0 C370.7 70.54, 373.28 142.07, 373.12 196.98 M373.12 0 C370.88 59.19, 372.24 119.76, 373.12 196.98 M373.12 196.98 C263.23 198.45, 153.66 197.5, 0 196.98 M373.12 196.98 C262.75 198.11, 152.76 198.35, 0 196.98 M0 196.98 C1 123.85, 1.64 48.17, 0 0 M0 196.98 C-0.02 129.95, -0.44 64.06, 0 0" stroke="#1e1e1e" stroke-width="1" fill="none"></path></g><g stroke-linecap="round" transform="translate(105.5902969310223 94.54599297946692) rotate(0 144.5 71.5)"><path d="M0 0 C84.86 0, 169.72 0, 289 0 M289 0 C289 54.76, 289 109.53, 289 143 M289 143 C204.01 143, 119.02 143, 0 143 M0 143 C0 108.68, 0 74.36, 0 0" stroke="#1e1e1e" stroke-width="1.5" fill="none" stroke-dasharray="8 9"></path></g><g transform="translate(181.6215469310223 143.54599297946692) rotate(0 68.46875 22.5)"><text x="68.46875" y="0" font-family="Virgil, Segoe UI Emoji" font-size="36px" fill="#1e1e1e" text-anchor="middle" style="white-space: pre;" direction="ltr" dominant-baseline="text-before-edge">Content</text></g><g transform="translate(226.88304544527819 12.312358400702465) rotate(0 23.23958396911621 10)"><text x="0" y="0" font-family="Virgil, Segoe UI Emoji" font-size="16px" fill="#1e1e1e" text-anchor="start" style="white-space: pre;" direction="ltr" dominant-baseline="text-before-edge">margin</text></g><g stroke-linecap="round" transform="translate(10 10) rotate(0 247.49384635663296 155.32596001425037)"><path d="M0 0 C182.58 0, 365.16 0, 494.99 0 M494.99 0 C494.99 98.93, 494.99 197.85, 494.99 310.65 M494.99 310.65 C340.78 310.65, 186.58 310.65, 0 310.65 M0 310.65 C0 221.12, 0 131.58, 0 0" stroke="#1e1e1e" stroke-width="1.5" fill="none" stroke-dasharray="8 9"></path></g><g transform="translate(221.50607934647905 68.99291577346361) rotate(0 27.76041603088379 10)"><text x="0" y="0" font-family="Virgil, Segoe UI Emoji" font-size="16px" fill="#1e1e1e" text-anchor="start" style="white-space: pre;" direction="ltr" dominant-baseline="text-before-edge">padding</text></g><g stroke-linecap="round"><g transform="translate(38.77728425570399 300.9483153717724) rotate(0 214.1335907745713 0.656930333846617)"><path d="M0.09 -0.08 C71.47 0.12, 356.95 1, 428.31 1.26 M-0.05 0.2 C71.32 0.41, 356.83 1.23, 428.21 1.4" stroke="#c2255c" stroke-width="1" fill="none"></path></g><g transform="translate(38.77728425570399 300.9483153717724) rotate(0 214.1335907745713 0.656930333846617)"><path d="M28.31 -10.26 C19.64 -7.13, 11.08 -4.11, 0.09 -0.08 M28.31 -10.26 C18.03 -6.6, 7.78 -2.99, 0.09 -0.08" stroke="#c2255c" stroke-width="1" fill="none"></path></g><g transform="translate(38.77728425570399 300.9483153717724) rotate(0 214.1335907745713 0.656930333846617)"><path d="M28.25 10.27 C19.58 7.2, 11.04 4.03, 0.09 -0.08 M28.25 10.27 C17.98 6.51, 7.75 2.7, 0.09 -0.08" stroke="#c2255c" stroke-width="1" fill="none"></path></g><g transform="translate(38.77728425570399 300.9483153717724) rotate(0 214.1335907745713 0.656930333846617)"><path d="M399.99 11.58 C408.34 8.52, 416.82 5.39, 428.21 1.4 M399.99 11.58 C410.08 7.88, 420.23 4.13, 428.21 1.4" stroke="#c2255c" stroke-width="1" fill="none"></path></g><g transform="translate(38.77728425570399 300.9483153717724) rotate(0 214.1335907745713 0.656930333846617)"><path d="M400.04 -8.94 C408.39 -5.81, 416.86 -2.74, 428.21 1.4 M400.04 -8.94 C410.13 -5.23, 420.25 -1.56, 428.21 1.4" stroke="#c2255c" stroke-width="1" fill="none"></path></g></g><mask></mask><g stroke-linecap="round"><g transform="translate(481.44668659033914 37.76969091334087) rotate(0 0.17154906608277543 127.75439947825137)"><path d="M0.02 -0.1 C0.09 42.51, 0.4 213.01, 0.49 255.61 M-0.15 0.17 C-0.11 42.75, 0.27 212.81, 0.38 255.4" stroke="#c2255c" stroke-width="1" fill="none"></path></g><g transform="translate(481.44668659033914 37.76969091334087) rotate(0 0.17154906608277543 127.75439947825137)"><path d="M10.33 28.07 C6.46 17.95, 3.13 7.97, 0.02 -0.1 M10.33 28.07 C7.08 19.43, 4.15 10.99, 0.02 -0.1" stroke="#c2255c" stroke-width="1" fill="none"></path></g><g transform="translate(481.44668659033914 37.76969091334087) rotate(0 0.17154906608277543 127.75439947825137)"><path d="M-10.19 28.11 C-6.7 17.97, -2.67 7.98, 0.02 -0.1 M-10.19 28.11 C-7.21 19.46, -3.91 11.01, 0.02 -0.1" stroke="#c2255c" stroke-width="1" fill="none"></path></g><g transform="translate(481.44668659033914 37.76969091334087) rotate(0 0.17154906608277543 127.75439947825137)"><path d="M-9.95 227.23 C-6.46 237.31, -2.39 247.54, 0.38 255.4 M-9.95 227.23 C-6.98 235.7, -3.65 244.36, 0.38 255.4" stroke="#c2255c" stroke-width="1" fill="none"></path></g><g transform="translate(481.44668659033914 37.76969091334087) rotate(0 0.17154906608277543 127.75439947825137)"><path d="M10.57 227.18 C6.7 237.29, 3.41 247.53, 0.38 255.4 M10.57 227.18 C7.31 235.66, 4.41 244.33, 0.38 255.4" stroke="#c2255c" stroke-width="1" fill="none"></path></g></g><mask></mask><g stroke-linecap="round"><g transform="translate(424.8067937100245 301.01110221429724) rotate(0 -0.06608161708425087 0.09937244213881513)"><path d="M-0.01 0.09 C0 0.11, 0.07 0.02, 0.06 0.01 M-0.19 0.01 C-0.2 0.06, -0.1 0.17, -0.03 0.19" stroke="#2f9e44" stroke-width="1" fill="none"></path></g><g transform="translate(424.8067937100245 301.01110221429724) rotate(0 -0.06608161708425087 0.09937244213881513)"><path d="M-0.01 0.09 C-0.01 0.09, -0.01 0.09, -0.01 0.09 M-0.01 0.09 C-0.01 0.09, -0.01 0.09, -0.01 0.09" stroke="#2f9e44" stroke-width="1" fill="none"></path></g><g transform="translate(424.8067937100245 301.01110221429724) rotate(0 -0.06608161708425087 0.09937244213881513)"><path d="M-0.01 0.09 C-0.01 0.09, -0.01 0.09, -0.01 0.09 M-0.01 0.09 C-0.01 0.09, -0.01 0.09, -0.01 0.09" stroke="#2f9e44" stroke-width="1" fill="none"></path></g><g transform="translate(424.8067937100245 301.01110221429724) rotate(0 -0.06608161708425087 0.09937244213881513)"><path d="M-0.03 0.19 C-0.03 0.19, -0.03 0.19, -0.03 0.19 M-0.03 0.19 C-0.03 0.19, -0.03 0.19, -0.03 0.19" stroke="#2f9e44" stroke-width="1" fill="none"></path></g><g transform="translate(424.8067937100245 301.01110221429724) rotate(0 -0.06608161708425087 0.09937244213881513)"><path d="M-0.03 0.19 C-0.03 0.19, -0.03 0.19, -0.03 0.19 M-0.03 0.19 C-0.03 0.19, -0.03 0.19, -0.03 0.19" stroke="#2f9e44" stroke-width="1" fill="none"></path></g></g><mask></mask><g transform="translate(226.6649828423424 41.250389345727456) rotate(0 24.20833396911621 10)"><text x="0" y="0" font-family="Virgil, Segoe UI Emoji" font-size="16px" fill="#ffffff" text-anchor="start" style="white-space: pre;" direction="ltr" dominant-baseline="text-before-edge">border</text></g><g transform="translate(225.81629336065294 302.2253880044126) rotate(0 20.66666603088379 10)"><text x="0" y="0" font-family="Virgil, Segoe UI Emoji" font-size="16px" fill="#c2255c" text-anchor="start" style="white-space: pre;" direction="ltr" dominant-baseline="text-before-edge">Width</text></g><g stroke-linecap="round" transform="translate(484.54123737930104 150.6706754505899) rotate(0 19.604411898451872 10.891339943584427)"><path d="M-0.38 0.09 L39.61 -0.69 L39.58 22.48 L-0.16 21.52" stroke="none" stroke-width="0" fill="#ffffff"></path><path d="M-0.31 0.22 C13.19 0.65, 26.72 0.22, 38.98 -0.62 M-0.11 0.15 C9.32 -0.4, 18.19 0.17, 39.59 -0.27 M38.9 0.23 C38.67 7.84, 39.51 16.19, 39.05 22.15 M39.53 -0.34 C39.3 5.68, 38.81 11.57, 39.22 21.62 M39.51 21.69 C31.27 22.38, 22.46 21.3, 0.79 21.34 M39.28 21.56 C28.8 22.04, 18.58 21.44, 0.2 21.69 M0.01 21.61 C0.19 16.13, 0.35 12.06, 0.18 -0.17 M-0.02 21.81 C0.26 15.63, 0.16 9.99, 0.41 -0.31" stroke="transparent" stroke-width="4" fill="none"></path></g><g transform="translate(487.3951403236367 152.65829550178915) rotate(0 22.46875 10)"><text x="0" y="0" font-family="Virgil, Segoe UI Emoji" font-size="16px" fill="#c2255c" text-anchor="start" style="white-space: pre;" direction="ltr" dominant-baseline="text-before-edge">height</text></g></svg>
