<svg version="1.1" xmlns="http://www.w3.org/2000/svg" viewBox="0 0 514.9876927132659 330.6519200285007" width="1544.9630781397977" height="991.9557600855021">
  <!-- svg-source:excalidraw -->
  
  <defs>
    <style class="style-fonts">
      @font-face {
        font-family: "Virgil";
        src: url("https://excalidraw.com/Virgil.woff2");
      }
      @font-face {
        font-family: "Cascadia";
        src: url("https://excalidraw.com/Cascadia.woff2");
      }
    </style>
    
  </defs>
  <rect x="0" y="0" width="514.9876927132659" height="330.6519200285007" fill="#ffffff"></rect><g stroke-linecap="round" transform="translate(38.70710613942151 37.60298667252039) rotate(0 214.52495958184818 126.40712805230613)"><path d="M0.98 -0.9 L430.72 -0.1 L430.86 253.72 L1.43 253.58" stroke="none" stroke-width="0" fill="#1e1e1e"></path><path d="M0.46 -0.46 C96.39 2.41, 191.63 1.15, 429.75 0.39 M0.32 0.43 C143.9 -0.64, 287.68 -0.61, 429.43 -0.36 M429.16 0.19 C430.21 74.39, 431.41 151.55, 428.78 252.52 M428.58 0.76 C426.66 73, 427.3 144.16, 428.31 253.09 M429.45 253.44 C287.08 251.89, 144.38 251.35, 0.98 252.28 M429.28 252.37 C305.49 254.58, 182.7 254.92, -0.04 253.15 M1.5 252.96 C-0.65 176.05, -1.96 98.76, -1.11 0.52 M-0.49 253.17 C-0.02 171.24, -0.63 88.87, -0.46 -0.15" stroke="#1e1e1e" stroke-width="4" fill="none"></path></g><g stroke-linecap="round" transform="translate(63.03321272356584 64.17968197383635) rotate(0 186.561062746885 98.49173424346723)"><path d="M1.67 -0.1 L374.93 0.91 L374.55 197.75 L1.35 198.29" stroke="none" stroke-width="0" fill="#ffffff"></path><path d="M0.51 0.93 C84.38 0.46, 170.3 1.47, 373.56 0.34 M-0.06 -0.21 C119.44 -2.06, 239.85 -2.31, 373.1 0.45 M372.68 -0.75 C374.3 63.67, 372.93 123.12, 372.85 195.06 M372.62 0.76 C372.27 59.62, 371.08 121.08, 373.45 196.88 M373.93 197.97 C291.55 198.72, 209.64 197.74, -0.16 196.53 M372.52 196.94 C230.7 195.4, 88.86 195.44, 0.02 197.27 M0.37 196.62 C-3.07 137.42, -3.19 81.25, 0.5 -0.12 M-0.17 197.71 C0.26 127.54, 0.63 56.94, 0.49 -0.45" stroke="#1e1e1e" stroke-width="1" fill="none"></path></g><g stroke-linecap="round" transform="translate(10 10) rotate(0 247.49384635663296 155.32596001425034)"><path d="M0 0 C126.67 0, 253.34 0, 494.99 0 M494.99 0 C494.99 118.87, 494.99 237.75, 494.99 310.65 M494.99 310.65 C340.59 310.65, 186.19 310.65, 0 310.65 M0 310.65 C0 188.19, 0 65.73, 0 0" stroke="#1e1e1e" stroke-width="1.5" fill="none" stroke-dasharray="8 9"></path></g><g stroke-linecap="round" transform="translate(105.59029693102184 94.54599297946692) rotate(0 144.5 71.5)"><path d="M0 0 C108.73 0, 217.47 0, 289 0 M289 0 C289 37.98, 289 75.95, 289 143 M289 143 C213.09 143, 137.19 143, 0 143 M0 143 C0 89.3, 0 35.6, 0 0" stroke="#1e1e1e" stroke-width="1.5" fill="none" stroke-dasharray="8 9"></path></g><g transform="translate(181.62154693102184 143.54599297946692) rotate(0 68.46875 22.5)"><text x="68.46875" y="0" font-family="Virgil, Segoe UI Emoji" font-size="36px" fill="#1e1e1e" text-anchor="middle" style="white-space: pre;" direction="ltr" dominant-baseline="text-before-edge">Content</text></g><g transform="translate(226.88304544527773 12.312358400702465) rotate(0 23.23958396911621 10)"><text x="0" y="0" font-family="Virgil, Segoe UI Emoji" font-size="16px" fill="#1e1e1e" text-anchor="start" style="white-space: pre;" direction="ltr" dominant-baseline="text-before-edge">margin</text></g><g transform="translate(221.5060793464786 68.99291577346361) rotate(0 27.76041603088379 10)"><text x="0" y="0" font-family="Virgil, Segoe UI Emoji" font-size="16px" fill="#1e1e1e" text-anchor="start" style="white-space: pre;" direction="ltr" dominant-baseline="text-before-edge">padding</text></g><g stroke-linecap="round"><g transform="translate(109.93403855378824 208.00888118651875) rotate(0 141.19347542850903 0.7095219254483283)"><path d="M-0.11 -0.41 C47.1 -0.29, 236.43 1.46, 284.02 1.74 M-1.63 -1.68 C45.31 -1.46, 235.01 2.46, 282.8 3.09" stroke="#278bca" stroke-width="1" fill="none"></path></g><g transform="translate(109.93403855378824 208.00888118651875) rotate(0 141.19347542850903 0.7095219254483283)"><path d="M27.47 -11.32 C17.45 -5.4, 6.41 -3.29, 1.37 -0.14 M27.78 -9.94 C20.46 -7.61, 10.64 -4.5, -1.08 -0.35" stroke="#278bca" stroke-width="1" fill="none"></path></g><g transform="translate(109.93403855378824 208.00888118651875) rotate(0 141.19347542850903 0.7095219254483283)"><path d="M27.31 9.2 C17.18 7.71, 6.2 2.4, 1.37 -0.14 M27.63 10.58 C20.32 6.62, 10.55 3.43, -1.08 -0.35" stroke="#278bca" stroke-width="1" fill="none"></path></g><g transform="translate(109.93403855378824 208.00888118651875) rotate(0 141.19347542850903 0.7095219254483283)"><path d="M253.75 12.01 C264.03 10.82, 273.46 5.76, 284.28 3.36 M254.06 13.39 C264.09 9.77, 271.65 6.8, 281.84 3.16" stroke="#278bca" stroke-width="1" fill="none"></path></g><g transform="translate(109.93403855378824 208.00888118651875) rotate(0 141.19347542850903 0.7095219254483283)"><path d="M254.1 -8.51 C264.43 -2.28, 273.73 0.07, 284.28 3.36 M254.42 -7.13 C264.36 -4.46, 271.81 -1.13, 281.84 3.16" stroke="#278bca" stroke-width="1" fill="none"></path></g></g><mask></mask><g stroke-linecap="round"><g transform="translate(341.31144598288597 94.40465861997973) rotate(0 -0.6619655535820357 68.65188290327346)"><path d="M-0.51 -0.35 C-0.87 22.69, -1.81 114.47, -2.25 137.78 M1.42 -1.57 C0.99 21.63, -1.85 115.68, -2.74 138.88" stroke="#278bca" stroke-width="1" fill="none"></path></g><g transform="translate(341.31144598288597 94.40465861997973) rotate(0 -0.6619655535820357 68.65188290327346)"><path d="M8.83 29.42 C5.22 19.63, 5.22 11.74, -0.38 -0.11 M10.37 27.8 C6.57 20.02, 3.04 12.36, -1.09 0.6" stroke="#278bca" stroke-width="1" fill="none"></path></g><g transform="translate(341.31144598288597 94.40465861997973) rotate(0 -0.6619655535820357 68.65188290327346)"><path d="M-11.69 29.18 C-9.33 19.54, -3.38 11.72, -0.38 -0.11 M-10.15 27.55 C-8.25 19.73, -6.08 12.14, -1.09 0.6" stroke="#278bca" stroke-width="1" fill="none"></path></g><g transform="translate(341.31144598288597 94.40465861997973) rotate(0 -0.6619655535820357 68.65188290327346)"><path d="M-12.63 111.81 C-10.84 118.62, -5.26 127.24, -2.61 139.12 M-11.09 110.19 C-9.76 118.09, -7.95 126.21, -3.32 139.82" stroke="#278bca" stroke-width="1" fill="none"></path></g><g transform="translate(341.31144598288597 94.40465861997973) rotate(0 -0.6619655535820357 68.65188290327346)"><path d="M7.88 112.5 C3.71 119.02, 3.33 127.44, -2.61 139.12 M9.42 110.88 C5.06 118.7, 1.17 126.63, -3.32 139.82" stroke="#278bca" stroke-width="1" fill="none"></path></g></g><mask></mask><g stroke-linecap="round"><g transform="translate(424.80679371002407 301.01110221429724) rotate(0 -0.7145562646817325 0.8718484775628923)"><path d="M-0.04 0.89 C-0.16 1.04, 0.13 0.27, 0.16 0.08 M-1.52 0.31 C-1.86 0.75, -0.86 1.56, -0.7 1.66" stroke="#2f9e44" stroke-width="1" fill="none"></path></g><g transform="translate(424.80679371002407 301.01110221429724) rotate(0 -0.7145562646817325 0.8718484775628923)"><path d="M-0.04 0.89 C-0.04 0.89, -0.04 0.89, -0.04 0.89 M-0.04 0.89 C-0.04 0.89, -0.04 0.89, -0.04 0.89" stroke="#2f9e44" stroke-width="1" fill="none"></path></g><g transform="translate(424.80679371002407 301.01110221429724) rotate(0 -0.7145562646817325 0.8718484775628923)"><path d="M-0.04 0.89 C-0.04 0.89, -0.04 0.89, -0.04 0.89 M-0.04 0.89 C-0.04 0.89, -0.04 0.89, -0.04 0.89" stroke="#2f9e44" stroke-width="1" fill="none"></path></g><g transform="translate(424.80679371002407 301.01110221429724) rotate(0 -0.7145562646817325 0.8718484775628923)"><path d="M-0.7 1.66 C-0.7 1.66, -0.7 1.66, -0.7 1.66 M-0.7 1.66 C-0.7 1.66, -0.7 1.66, -0.7 1.66" stroke="#2f9e44" stroke-width="1" fill="none"></path></g><g transform="translate(424.80679371002407 301.01110221429724) rotate(0 -0.7145562646817325 0.8718484775628923)"><path d="M-0.7 1.66 C-0.7 1.66, -0.7 1.66, -0.7 1.66 M-0.7 1.66 C-0.7 1.66, -0.7 1.66, -0.7 1.66" stroke="#2f9e44" stroke-width="1" fill="none"></path></g></g><mask></mask><g transform="translate(226.66498284234171 41.250389345727456) rotate(0 24.20833396911621 10)"><text x="0" y="0" font-family="Virgil, Segoe UI Emoji" font-size="16px" fill="#ffffff" text-anchor="start" style="white-space: pre;" direction="ltr" dominant-baseline="text-before-edge">border</text></g><g transform="translate(344.4381677049005 146.93220617221687) rotate(0 22.46875 10)"><text x="0" y="0" font-family="Virgil, Segoe UI Emoji" font-size="16px" fill="#278bca" text-anchor="start" style="white-space: pre;" direction="ltr" dominant-baseline="text-before-edge">height</text></g><g transform="translate(230.89891866765856 213.64248979659288) rotate(0 20.66666603088379 10)"><text x="0" y="0" font-family="Virgil, Segoe UI Emoji" font-size="16px" fill="#278bca" text-anchor="start" style="white-space: pre;" direction="ltr" dominant-baseline="text-before-edge">Width</text></g></svg>