<svg version="1.1" xmlns="http://www.w3.org/2000/svg" viewBox="0 0 578.3472535759372 398.93696824618746" width="1735.0417607278116" height="1196.8109047385624">
  <!-- svg-source:excalidraw -->
  
  <defs>
    <style class="style-fonts">
      @font-face {
        font-family: "Virgil";
        src: url("https://excalidraw.com/Virgil.woff2");
      }
      @font-face {
        font-family: "Cascadia";
        src: url("https://excalidraw.com/Cascadia.woff2");
      }
    </style>
    
  </defs>
  <rect x="0" y="0" width="578.3472535759372" height="398.93696824618746" fill="#ffffff"></rect><g stroke-linecap="round" transform="translate(10 11.520557244433121) rotate(0 129.61070585542598 71.17984905729507)"><path d="M0 0 C0 0, 0 0, 0 0 M0 0 C0 0, 0 0, 0 0 M-0.78 6.97 C1.98 3.9, 4.19 2.28, 4.85 0.01 M-0.15 6.21 C0.98 5.1, 1.94 4.28, 4.69 0.41 M-1.07 13.37 C2.16 8.24, 5.76 2.75, 9.6 0.82 M0.84 11.6 C3.8 8.4, 7.68 4.11, 11.17 -0.59 M-1.61 19.49 C1.32 13.86, 8.08 10.98, 15.46 1.93 M0.11 19.25 C6.77 10.58, 11.62 4.09, 15.74 0.37 M-1.41 22.43 C4.3 19.32, 11.46 13.08, 22.67 -0.13 M1.24 24.21 C5.3 18.35, 10.7 13.84, 20.38 -1.02 M0.23 32.07 C6.42 23.37, 17.06 13.85, 26.09 -1.45 M0.8 30.07 C7.82 20.73, 16.88 11.98, 26.36 0.67 M-0.2 35.19 C6.71 26.85, 16.48 17.02, 30.31 1.83 M0.32 37.34 C10.2 23.38, 22.19 9.3, 31.42 -0.26 M0.16 42.23 C9.68 29.26, 22.84 19.16, 34.98 1.97 M-0.48 42.02 C12.4 27.08, 25.43 13.34, 36.75 0.63 M-0.62 47.75 C9.58 36.15, 20.35 25.5, 40.85 1.7 M0.54 49.29 C16.91 31.3, 31.18 12.56, 43.36 0.35 M0.14 53.35 C15.99 37.34, 31.23 20.13, 47.36 -1.44 M-0.48 54.6 C15.22 37.22, 30.43 19.63, 46.9 -0.12 M-0.7 59.87 C19.89 38.15, 43.3 15.24, 54.67 -1.06 M-0.45 61.14 C12.79 46.56, 24.77 32.76, 54.01 0.54 M1.28 66.29 C13.12 55.64, 23.55 41.24, 57.26 -1.6 M0.27 66.95 C14.98 48.13, 31.58 30.5, 57.17 -0.56 M-1.05 74.23 C16.18 52.72, 32.61 33.74, 61.94 -0.25 M0.04 72.6 C22.24 47.4, 43.93 22.07, 63.04 -0.12 M0.43 78.35 C14.74 58.73, 32.9 40.07, 69.47 1.3 M-0.95 79.85 C19.38 55.41, 40.57 32.27, 69.29 0.74 M0.51 83.28 C25.82 52.94, 52.69 25.44, 72.58 -0.97 M0.02 85.77 C18.49 63.1, 38.09 41.08, 74.97 -1.13 M0.23 89.83 C20.42 68.9, 41.02 42.94, 77.57 -1.23 M0.05 91.21 C24.64 65.67, 46.64 38.97, 79.34 0.56 M-1.73 95.92 C23.13 69.12, 46.27 44.98, 86.32 -1.59 M-0.75 96.9 C27.38 65.7, 57.85 32.78, 84.2 -0.12 M1.78 102.98 C29.86 72.8, 58.1 38.08, 89.92 0.07 M-0.04 104.12 C23.03 77.98, 45.22 52.41, 90.75 0.12 M-0.72 108.49 C19.81 84.34, 42.78 60.66, 94.67 0.26 M0.79 110.37 C31.3 76.11, 61.34 41.18, 95.96 0.18 M1.97 116.78 C38.34 71.87, 76.87 30.26, 99.68 -1.87 M0.35 116.52 C33.34 75.09, 69.24 36.28, 101.34 0 M1.4 123.34 C23 91.18, 50.53 63.4, 106.91 1.62 M0.09 122.21 C36.12 79.09, 74.09 34.92, 105.36 -1.07 M-1.2 129.67 C34.12 90.31, 67.63 53.16, 110.75 -0.35 M-0.03 129.01 C26.6 96.54, 55.39 62.97, 112.25 -0.82 M1.94 135.77 C24.84 107.8, 47.45 80.45, 115.44 1.06 M0.62 134.07 C40.51 87.35, 82.77 39.86, 115.7 0.93 M0.01 138.55 C26.13 112.5, 53.2 79.82, 123.86 -0.98 M0.42 140.81 C27.55 106.9, 55.58 75.76, 121 0.02 M0.95 142.53 C32.74 108.54, 68.03 69.41, 128.42 1.55 M2.18 142.76 C33.96 107.43, 64.38 74, 126.13 0.61 M8.39 145.02 C51.18 93.63, 93.2 43.74, 134.48 0.35 M6.38 145.02 C33.56 114.51, 61.62 83.15, 132.48 -0.71 M13.84 144.82 C54.4 98.44, 92.21 49.26, 135.84 1.08 M12.53 144.17 C51.29 100.3, 91.04 55.83, 136.67 -0.45 M16.01 143.43 C45.94 113.72, 73.31 81.13, 142.88 -0.52 M16.92 143.66 C58.82 94.34, 103.23 45.49, 143.91 -0.87 M21.07 145.67 C49.25 113.96, 79.2 80.61, 150.08 -0.4 M22.03 143.7 C55.62 104.82, 89.38 67.17, 147.85 0.48 M29.37 142.15 C53.4 112.69, 80.1 86, 152.11 -2.04 M27.62 143.93 C58.78 110.68, 89.34 74.2, 153.9 0.09 M32.38 145.74 C78.29 95.09, 119.71 43.04, 159.35 1.76 M32.89 145.08 C81.59 91.27, 125.77 39.42, 159.09 0.99 M38.03 142.45 C67.86 115.28, 95.57 81.91, 166.01 1.05 M38.17 144.11 C80.48 97.82, 121.13 51.28, 165.41 0.09 M44.32 143.68 C90.87 88.8, 142.99 34.18, 169.62 -1.06 M43.74 143.67 C83.74 99.8, 121.36 55.49, 169.64 0.6 M49.34 144.34 C98.15 89.37, 148.83 34.51, 175.18 -0.24 M50.17 144.41 C86.06 102.45, 120.24 61.14, 174.74 -0.54 M52.88 143.1 C80.28 113.45, 108.33 81.57, 178.64 -0.75 M55.19 144.49 C93.89 96.14, 134.43 51.87, 179.62 -0.3 M58.43 144.54 C110.97 86.12, 159.69 28.66, 187.02 0.78 M60.03 143.9 C88.11 110.81, 116.08 79.15, 186.57 -0.1 M66.82 143.35 C92.93 114.42, 116.04 86.68, 189.94 1.5 M66.25 143.93 C99.71 105.08, 136.35 63.64, 191.02 0.57 M70.21 142.5 C117.27 94, 161.86 40.68, 195.7 0.55 M70.06 143.54 C110.81 98.21, 151.24 54.42, 196.94 -0.47 M77.69 145.47 C114.43 104.54, 148.73 63.12, 202.83 1.23 M75.24 144.79 C100.89 115.1, 126.48 85.05, 200.66 0.38 M81.36 142.37 C123.33 96.6, 163.34 48.24, 208.17 -0.79 M81.4 143.21 C122.77 96.36, 163.8 47.17, 206.23 -0.16 M85.83 142.23 C119.71 104.09, 155.04 65.4, 210.42 0.7 M86.88 143.25 C127.27 95.29, 168.76 47.99, 211.25 0.2 M90.36 143.05 C140.48 88, 188.68 31.32, 218.18 -1.38 M93.07 144.64 C133.9 97.19, 173.85 49.71, 218.21 -1.3 M98.35 144.12 C124.45 112.81, 154.67 77.68, 221.58 -1.13 M97.24 143.87 C127.37 105.28, 159.48 69.63, 222.34 -0.02 M103.46 144.12 C149.16 93.2, 193.46 39.89, 228.25 0.38 M102.92 144.49 C145.8 94.36, 188.29 43.13, 228.98 -0.6 M107.13 145.35 C136.98 114.09, 161.71 80.4, 234.96 1.44 M108.73 144.62 C134.62 112.59, 162.45 82.46, 233.36 -0.44 M112.69 143.91 C152.21 100.61, 192 54.53, 239.01 0.53 M112.7 143.28 C155 97.19, 197.33 49.92, 237.36 0.35 M118.86 145.86 C161.77 95.61, 203.67 45.29, 245.02 -1.18 M119.15 143.86 C163.9 89.82, 209.77 38.3, 244.57 -0.32 M125.87 145.45 C151.95 111.46, 177.79 78.16, 249.85 0.59 M124.99 144.44 C149.61 113.87, 174.63 85.68, 248.49 1.1 M128.99 145.28 C175.11 93.35, 223.49 38.67, 255.97 0.15 M128.63 143.32 C168.4 98.46, 208.05 52.22, 254.12 -1.03 M135.94 143.25 C175.52 98.63, 217 49.02, 261 2.05 M133.59 144.04 C181.48 90.13, 228.61 35.44, 258.9 -0.14 M139.75 144.97 C172.29 106.08, 203.83 69.67, 257.9 6.06 M140.68 143.14 C167.26 113.07, 192.63 81.72, 259.09 5.74 M145.59 146.27 C192.33 92.89, 234.72 40.03, 259.58 13.45 M145.11 144.77 C176.98 109.94, 207.27 74.85, 259.66 11.53 M150.17 142.04 C178.57 106.36, 209.93 74.97, 257.92 19.61 M151.16 144.85 C177.78 110.17, 207.28 76.96, 259.66 17.88 M157.32 144.47 C180.84 116.34, 204.85 89.18, 260.52 24.89 M156.06 143.48 C192.7 104.01, 230.04 61.95, 260.16 25.26 M162.04 143.26 C185.92 116.51, 207.26 90.91, 258.18 28.81 M161.29 144.35 C196.3 102.77, 232.31 60.22, 260.11 30.41 M166.07 143.76 C202.11 102.92, 233.52 65.39, 260.37 39.01 M166.47 145.16 C195.39 110.55, 223.71 76, 259.01 36.44 M169.94 143.17 C194.35 117.76, 218.83 90.62, 258.03 41.66 M172.65 142.96 C197.07 114.99, 221.94 84.61, 260.04 43.52 M176.56 144.76 C206.6 108.5, 237.11 74.09, 260.44 49.93 M176.22 144.67 C203.14 113.99, 229.68 82.97, 260.17 48.55 M183.24 142.01 C201.32 123.9, 222.58 97.61, 260.6 54.89 M182.19 144.38 C209.05 112.58, 233.31 83.01, 259.87 54.28 M189.29 144.83 C211.59 115.82, 237.99 83.88, 260.82 61.74 M188.07 143.8 C211.88 114.7, 236.55 86.91, 259.95 60.76 M192.08 143.73 C208.28 128.3, 221.06 112.88, 258.13 68.69 M193.2 143.68 C209.89 124.14, 226.32 106.61, 259.23 68.43 M198.56 144.03 C214.6 124.47, 235.27 101.98, 261.08 71.47 M198.61 144.2 C212.87 127.26, 225.86 111.2, 258.7 73.85 M205.38 142.02 C218.22 125.9, 236.61 107.03, 260.63 77.72 M204.34 144.35 C222.12 123.51, 237.99 105.31, 258.6 80.31 M210.41 143.16 C219.53 132.67, 230.61 116.62, 261.54 83.92 M209.3 144.41 C218.39 133.06, 228.89 121.33, 259.13 86.01 M212.84 142.26 C231.95 124.7, 250.3 106.16, 257.92 93.61 M214.63 143.26 C225.32 130.34, 237.01 117.94, 260.32 92.44 M220.71 145.7 C230.99 128.98, 243.29 117.81, 260.65 98.31 M219.48 144.88 C227.61 134.03, 235.63 125, 258.65 98.55 M222.97 143.57 C234.15 132.47, 247.54 118.85, 260.24 103.95 M224.44 143.66 C235.25 132.3, 245.49 119.45, 260.26 103.44 M229.07 143.9 C239.49 132.52, 249.09 121.36, 259.63 111.35 M229.32 144.93 C239.02 132.94, 250.9 121.78, 259 109.95 M237.02 144.79 C242.43 136.57, 246.97 130.94, 259.63 115.08 M234.52 144.21 C244.42 132.64, 253.15 122.46, 260.16 115.85 M240.91 144.69 C246.27 138.15, 251.97 132.43, 260.49 123.72 M240.87 143.78 C244.91 139.69, 248.93 135.12, 259.3 121.29 M247.04 142.47 C247.99 138.84, 249.92 138.59, 259.26 126.77 M246.96 143.94 C249.37 138.53, 253.52 135.27, 259.95 127.86 M249.99 143.84 C252.27 142.7, 256.97 138.92, 259.01 134.78 M251.04 143.72 C253.3 141.68, 255.49 138.75, 259.67 134.3 M256.35 144.72 C256.97 143.1, 258.21 142.03, 259.01 140.3 M255.94 144.32 C257.22 142.82, 258.44 141.75, 259.35 140.8 M-0.3 142.1 C-0.3 142.1, -0.3 142.1, -0.3 142.1 M-0.3 142.1 C-0.3 142.1, -0.3 142.1, -0.3 142.1 M6.8 141.71 C3.35 139.96, 2.24 138.21, 0.53 136.77 M6.4 142.14 C5.2 141.58, 3.97 140.07, -0.09 137.25 M12.28 141.62 C7.16 138.02, 1.53 135.47, 0.46 132.79 M13.1 143.24 C10.08 140.34, 7.88 138.03, -0.94 130.69 M17.3 142.19 C14.46 135.7, 5.39 131.61, -1.3 127.38 M18.96 142.15 C14 139.06, 10.15 135.02, 0.72 126.99 M23.1 142.31 C16.88 136.69, 10.95 129.17, 1.19 119.7 M23.58 142.33 C13.94 133.7, 3.99 125.2, -1.08 121.38 M30.74 143.5 C19.62 131.66, 9.34 123.04, -1.87 117.65 M29.4 141.73 C22.67 134.72, 13.82 126.94, -0.76 115.96 M37.2 143.26 C23.27 129.65, 10.98 119.92, 1.5 109.78 M36.77 141.57 C21.71 131.04, 8.17 117.88, -0.09 111.42 M44.87 144.47 C27.49 131.86, 15.57 118.8, 0.24 103.69 M42.84 143.22 C28.77 129.91, 15.68 118.19, -0.87 105.25 M48.64 141.55 C36.73 134.57, 27.27 127.32, 1.38 102.19 M48.96 142.64 C38.89 134.34, 29.41 124.67, -0.65 101.09 M56.93 140.64 C39.87 129.78, 28.34 119.14, 1.53 94.87 M55 141.69 C32.6 124.93, 12.14 106.3, -0.86 94.61 M59.28 143.16 C40.44 126.08, 20.61 104.6, -0.25 89.55 M61.2 141.99 C42.18 126.4, 23.99 109.34, -0.7 90.11 M67.17 141.27 C46.54 124.03, 22.05 103.83, 0.29 83.23 M66.26 141.55 C48.94 126.69, 32.09 111.01, -0.12 83.71 M73.55 141.44 C45.43 120.8, 21.84 97.58, 1.51 77.53 M73.18 142.62 C43.23 117.41, 15.83 92.8, 0.4 79.97 M77.91 140.64 C51.96 119.38, 23.16 95.19, -1.42 73.59 M79.6 142.99 C55.39 121.82, 32.45 102.26, 0.81 73.09 M85.37 140.48 C55.65 115.63, 21.67 84.43, 0.38 67.53 M85.16 142.45 C53.75 114.66, 20.03 85.35, -0.31 67.53 M92.22 140.79 C69.2 124.38, 51.19 109.66, 0.25 61.42 M90.33 141.55 C66.77 118.3, 40.16 96.71, -0.74 63.2 M96.73 141.07 C64.71 113.19, 33.13 86.44, 0.84 58.67 M97.52 143.27 C72.76 121.05, 48.57 98.11, -0.47 58.06 M104.72 142.11 C80.91 126.77, 63.35 105.46, 0.92 50.97 M103.91 141.84 C66.76 112.85, 32.47 81.44, -0.61 51.35 M108.62 144.07 C74.72 110.25, 40.6 81.49, 0.17 45.78 M108.77 143.1 C66.22 105.15, 22.73 66.74, 0.67 46.2 M116.54 142.73 C81.34 113.69, 50.61 85.42, -2 41.18 M115.87 141.89 C86.93 117.91, 59.35 92.38, -0.74 40.78 M119.82 141.03 C93.54 118.05, 61.06 92.71, -1.6 37.4 M121.25 141.84 C86.21 110.75, 50.53 79.73, -0.79 37 M129.86 140.51 C77.66 101, 26.99 56.75, 0.68 31.7 M127.38 142.07 C90.74 109.74, 52.68 75.9, -0.23 31.6 M133.67 140.91 C82.74 101.87, 34.89 58.35, 0.37 25.82 M134.94 142.95 C80.84 95.29, 27.54 47.68, -0.41 24.87 M138.9 140.33 C85.83 97.15, 32.83 48.39, -0.06 20.92 M139.21 141.5 C105.45 111.43, 70.8 80.51, -0.32 19.79 M144.98 141.39 C114.83 118.27, 88.25 91.77, 1.7 17.02 M147.4 141.79 C108.64 110.02, 69.57 77.3, -0.37 14.66 M152.57 140.94 C111.11 108.43, 68.38 70.48, -1.35 8.1 M151.55 141.74 C95.91 92.16, 38.43 43.51, 0.5 10.19 M158.64 142.8 C103.54 91.85, 47.59 43.68, -1.08 4.69 M159.22 142.58 C121.42 109.74, 84.25 76.12, -0.43 4.56 M165.48 141.15 C104.9 90.09, 42.63 36.58, 1.55 -0.74 M165.37 142.27 C99.44 84.57, 33.52 27.77, 0.73 0.34 M168.84 143.55 C122.37 101.84, 76.11 57.18, 5.71 -1.57 M170.49 142.8 C115.65 93.99, 59.57 47.07, 7.45 -0.81 M176.79 143.32 C114.97 89.44, 54 35.59, 12.42 -1.38 M177.37 142.97 C113.31 87.89, 50.77 31.66, 13.02 -0.76 M184.24 143.09 C146.98 111.38, 110.95 80.47, 20.28 -0.57 M183.42 142.86 C119.57 85.44, 54.68 29.97, 18.23 -0.98 M188.4 140.98 C146.23 104.92, 102.83 67.46, 25.27 0.93 M188.47 141.61 C149.58 109.12, 111.18 75, 24.47 0.14 M194.66 143.68 C133.52 90.43, 73.02 36.11, 29.29 0.36 M195.71 141.88 C146.78 97.44, 95.86 54.16, 31.2 -0.18 M200.4 142.39 C135.26 87.35, 70.86 29.82, 35.52 -1.86 M201.8 142.6 C138.02 87.41, 73.43 31.19, 36.76 0.61 M208.4 142.82 C152.29 97.64, 97.58 50.57, 42.76 -1.74 M207.07 143.03 C145.77 90.65, 84.58 36.78, 42.54 -0.37 M213.57 141.63 C174.69 107.92, 137.35 74.85, 48.33 -0.02 M213.8 142.87 C158.76 93.46, 104.18 46.6, 49.17 -0.37 M220.15 142.29 C172.69 103.88, 126.97 61.61, 55.73 -1.39 M219.3 142.64 C154 87.9, 91.42 32.5, 54.84 -1.39 M224.91 141.91 C189.48 111.75, 155.42 79, 60.49 -2.11 M226.34 142.07 C183.36 103.34, 139.39 65.75, 60.52 -1.06 M230.61 143.87 C165.39 87.35, 100.97 31.75, 68.17 0.34 M230.74 142.39 C180.86 97.44, 128.68 52.66, 68.27 0.5 M236.78 140.74 C195.95 106.25, 149.62 69.27, 73.05 -1.06 M237.61 142.59 C193.67 105.87, 150.79 68.78, 73.98 -0.48 M242.06 141.25 C205.22 109.3, 168.4 76.72, 80.17 -1.57 M243.1 142.12 C206.2 110.18, 169.42 77.38, 80.18 0.47 M249.27 142.57 C203.32 100.88, 155.85 59.77, 86.89 0.4 M249.23 142.15 C199.59 97.14, 147.93 54.25, 84.75 -0.36 M257.3 143.34 C205.85 100.61, 156.19 56.87, 91.32 0.03 M256.08 143.09 C193.72 88.98, 131.86 35.41, 92.24 0.33 M260.89 139.2 C213.39 99.81, 167.5 62.59, 98.23 -0.94 M260.88 141.21 C220.04 105.94, 180.58 71.46, 97.37 -0.12 M260.46 135.46 C199.04 84.27, 140.44 30.15, 102.83 -0.8 M261.22 136.21 C212.51 93.69, 166.37 52.28, 103.05 -0.15 M261.69 131.46 C225.32 99.94, 187.75 68.55, 111.41 0.99 M260.67 130.54 C223.38 100.32, 186.97 68.14, 109.59 -0.4 M262.46 125.18 C208.01 82.51, 160.49 37.6, 116.8 0.35 M260.01 126.16 C211.57 83.34, 163.93 40.18, 114.94 0.09 M261.55 118.82 C229.86 95.68, 200.28 68.63, 123.76 -1.64 M259.97 118.96 C214.32 81.57, 171.62 42.42, 121.47 0.18 M261.81 116.34 C219.95 81.55, 179.7 41.54, 127.28 -1.09 M260.18 114.2 C221.5 79.72, 181.97 44.66, 129.16 -0.83 M258.88 108.28 C225.62 78.07, 195.66 51.89, 135.41 -1.22 M261.28 108.73 C231.26 84.85, 202.11 59.49, 134.85 -0.79 M259.99 105.24 C218.51 66.73, 176 32.03, 142.41 -0.14 M260.04 104.64 C212.29 62.88, 163.79 21.42, 140.59 -1.28 M260.82 98.79 C224.13 64.52, 183.98 31.95, 148.25 0.69 M259.4 97.43 C220.39 63.62, 179.49 28.56, 145.5 0.16 M260.28 94.94 C221.54 57.63, 185.65 25.15, 151.49 -0.08 M261.67 93.64 C223.68 62.71, 188.84 30.89, 151.83 -1.3 M261.31 87.04 C227.67 56.86, 191.88 26.8, 160.75 -0.1 M260.49 87.03 C235.7 67.83, 213.9 45.76, 158.84 0.04 M261.74 81.23 C228.11 52.96, 194.82 25.15, 163.84 -1.15 M260.04 82.24 C241.87 66.09, 221.47 48.76, 165.09 -0.22 M259.05 77.41 C231.73 51.97, 202.1 27.96, 170.85 0.99 M261.06 76.91 C239.72 58.64, 217.98 42.19, 171.86 -0.21 M261.21 70.63 C242.52 54.8, 225.15 41.96, 175.59 -1.84 M259.98 71.38 C230 46.41, 199.44 19.32, 175.93 -0.97 M259.51 68.03 C242.92 52.91, 221.99 36.29, 182.56 -0.78 M260.99 66.82 C240.05 48.88, 220.16 31.29, 182.7 -0.79 M259.33 62.34 C236.17 38.71, 211.82 21.21, 188.38 -0.31 M261.17 60.9 C231.4 37.44, 203.86 13.4, 189.03 -0.42 M260.98 56.73 C235.32 35.5, 210.43 9.96, 196.93 -0.11 M260.53 55.92 C242.97 40.31, 224.85 24.66, 194.57 -0.66 M262.51 50.32 C238.96 33.79, 215.81 14.99, 200.38 1.07 M261.15 50.51 C238.78 34.31, 218.64 14.24, 202.16 -1.03 M260.5 47.06 C244.67 32.62, 231.72 22.49, 206.76 1.05 M259.26 45.74 C241.98 29.65, 224.31 13.78, 207.58 0.09 M260.93 41.22 C248.12 26.41, 231.65 17.14, 212.78 -2.39 M260.32 40.82 C247.82 29.55, 235.28 17.61, 213.72 0.09 M259.9 34.29 C244.26 22.11, 229.09 8.91, 219.4 0.11 M259.14 35.22 C243.85 21.23, 229.6 6.85, 220.41 -0.06 M258.56 28.43 C248.85 19.29, 239.32 10.59, 224.84 -2.35 M260.95 30.33 C251.28 19.5, 239.61 11.47, 226.72 -0.43 M260.55 24.07 C252.15 18.33, 240.32 9.33, 231.73 1.22 M260.25 24.32 C253.07 17.71, 243.01 9.27, 232.37 0.27 M259.16 18.04 C254.9 10.64, 246.51 4.81, 236.57 -2.71 M260.15 18.45 C253.13 12.67, 246.37 5.18, 238.52 -0.55 M262.33 15.79 C257.68 10.37, 249.69 4.03, 244.65 1.25 M260.74 14.46 C253.65 8.78, 248.81 2.51, 244.89 0.34 M260.31 7.39 C256.28 5.59, 253.13 2.66, 251.2 -0.73 M260.73 8.4 C258.84 6.46, 256.18 4.51, 250.59 0.45 M261.19 3.7 C259.43 1.9, 257.58 1.13, 256.8 -0.09 M260.66 3.36 C259.71 2.07, 258.49 1.29, 256.01 -0.52" stroke="#b2f2bb" stroke-width="0.5" fill="none"></path><path d="M-0.17 -1.27 C54.92 0.3, 109.66 0.62, 260.2 0.46 M-0.3 0.65 C102.66 -0.41, 203.82 0.22, 258.81 0.47 M260.15 -0.09 C261.99 41.75, 260.51 82.78, 257.97 140.99 M259.16 0.55 C259.08 33.42, 259.51 66.67, 258.29 142.84 M258.5 143.7 C196.02 144.82, 133.71 144.52, 0.61 143.44 M259.44 141.75 C164.28 144.12, 69.3 143.38, 0.13 142.49 M0.38 141.15 C-0.45 107.82, 1.63 74.67, 1.58 1.86 M0.42 141.42 C0.65 108.19, -0.01 72.19, -0.8 0.75" stroke="#1e1e1e" stroke-width="1" fill="none"></path></g><g stroke-linecap="round" transform="translate(305.74324389066237 10) rotate(0 130.37128187649955 71.94042507836869)"><path d="M0 0 C0 0, 0 0, 0 0 M0 0 C0 0, 0 0, 0 0 M0.01 6.22 C1.99 4.87, 3.11 2.01, 4.23 0.99 M-0.06 6.36 C1.57 4.78, 2.94 2.42, 5.09 0.13 M-1.32 12.11 C1.62 7.39, 4.53 6.68, 11.5 -0.6 M0.03 12.65 C2.93 9.43, 6.24 5.02, 10.02 0.69 M-2.03 17.84 C5.4 14.26, 7.96 10.64, 17.1 0.18 M0.87 17.5 C5.95 10.57, 12.29 4.16, 15.16 1.31 M-0.8 25.47 C7.68 18.12, 14.77 9.36, 19.84 0.63 M0.57 23.83 C6.67 18.22, 10.66 9.87, 21.29 -0.32 M-1.61 32.27 C6.41 25.51, 10.54 16.19, 26.39 -0.94 M-0.42 30.1 C9.18 20.55, 17.57 10.62, 25.98 0.15 M-2.13 37.27 C11.6 23.15, 23.67 9.73, 33.1 0.67 M-1.25 36.68 C8.19 25.13, 17.57 15.27, 31.85 -0.17 M-1.22 41.73 C11.64 32.01, 19.41 19.93, 37.84 -0.44 M-0.54 41.65 C9.56 31.77, 19.46 21, 36.26 1.24 M-0.11 47.61 C11.1 36.85, 19.29 26.89, 44 -1.05 M0.73 49.48 C9.77 36.22, 22.5 23.82, 42.66 -0.38 M1.03 54.45 C16.22 37.63, 29.61 19.3, 48.11 1.36 M-0.07 55.13 C13.8 39.53, 27.77 22.33, 48.42 -0.56 M-1.36 61.58 C12.73 49.93, 24.24 34.49, 51.85 0.78 M0.59 60.53 C12.25 47.32, 24.94 34.2, 52.18 -0.29 M1.17 69.09 C14.6 50.95, 29.14 30.47, 57.65 0.88 M-0.88 66.65 C16.88 47.52, 33.63 26.36, 57.72 0.47 M-0.07 72.21 C25.06 43.34, 48.17 15.69, 64.73 -0.82 M-0.08 72.24 C12.75 57.43, 25.82 43.04, 63.26 0.15 M-2.05 77.8 C13.86 61.84, 30.43 46.32, 68.67 1.25 M-0.51 79.43 C28.06 48.25, 55.17 17.43, 69.32 -0.03 M-0.64 83.25 C22.53 60.55, 43.75 32.73, 73.49 0.89 M0.15 84.92 C25.07 56.48, 48.9 28.57, 74.07 -0.62 M-1.04 92.69 C17.06 70.12, 35.55 47.63, 79.18 -1.68 M0.88 91.37 C16.85 71.75, 33.81 53.08, 79.19 0.45 M-0.36 95.93 C19.38 77.36, 41.14 52.04, 85.78 0.36 M-1.05 98.55 C24.57 72.57, 46.2 44.95, 85.17 -0.75 M1.22 104.86 C24.12 75.52, 46.52 49.24, 88.96 -1.35 M0.15 103 C22.75 76.59, 45.79 51.49, 89.2 0.32 M-0.74 107.94 C27.06 79.75, 49.83 52.89, 96.03 -2.22 M-0.2 110.7 C22.75 82.31, 47.88 53.86, 96.47 -0.01 M0.52 115.09 C23.25 89.91, 44.98 59.3, 101.57 1.54 M-0.48 115.22 C33.1 77.99, 65.77 39.83, 100.06 0.87 M-1.51 119.94 C25.58 90.93, 51.64 63.48, 107.44 1.05 M-0.95 122.11 C24.92 91.47, 50.8 61.29, 106.24 -0.79 M0.8 128.68 C42.5 82.05, 80.49 34.42, 110.36 0.99 M-1.08 129.1 C32.6 88.81, 67.36 49.72, 110.34 -0.7 M0.06 134.56 C25.97 100.99, 54.77 68.43, 117.34 0.52 M-0.4 134.67 C36.6 92.38, 71.69 50.71, 115.44 -0.33 M-1.28 142.34 C30.41 105.35, 63.98 68.9, 120.47 -0.29 M-0.39 139.82 C45.74 86.45, 91.39 32.67, 121.48 -0.31 M-0.88 146.4 C37.95 105.05, 72.35 67.9, 125.81 0.02 M1.86 144.37 C42.4 100.64, 81.43 53.37, 127.38 1.27 M8.34 143.24 C31.54 113.46, 58.76 85.91, 130.79 -0.84 M5.78 144.68 C34.97 112.3, 60.62 82.22, 132.76 0 M13.15 146.96 C57.98 88.2, 104.61 35.5, 137.74 -0.63 M10.6 145.32 C39.78 113.02, 66.45 80.33, 136.74 0.55 M17.95 146.08 C54.37 105.02, 89.04 63.36, 144.01 1.5 M16.47 145.18 C65.4 93.23, 111.26 38.78, 142.34 -0.91 M20.36 146.34 C67.49 93.94, 111.28 44.94, 147.48 1.32 M22.45 144.38 C67.21 96.37, 109.25 47.17, 147.24 0.69 M27.32 142.79 C59.03 110.79, 88.88 71.15, 152.62 -0.39 M27.77 145.71 C63.06 105.39, 96.41 67.82, 154.22 -0.28 M34.6 146.05 C81.54 87.73, 129.22 36.49, 160.12 -1.62 M33.73 144.99 C72.86 99.09, 113.89 53.11, 157.94 -0.73 M38.94 146.47 C73.63 106.96, 106.95 70.88, 164.86 -0.92 M39.04 144.53 C75.34 104.43, 109.82 65.47, 165.29 -0.47 M41.51 144.33 C75.63 110.67, 104.32 74.33, 169.55 -1.25 M43.64 145.49 C88.81 93.99, 135.03 41.91, 170.26 -0.76 M48.07 145.97 C94.79 95.78, 137.05 43.73, 174.76 0.23 M50.04 145.29 C96.34 88.79, 144.96 32.46, 174.26 0.04 M52.48 146.09 C95.05 99.85, 135.3 51.44, 180.47 0.36 M53.2 144.08 C100.35 91.24, 147.9 35.24, 180.98 -0.04 M60.78 143.83 C102.81 95.31, 144.72 50.68, 184.14 0.11 M59.84 144.04 C102.59 96, 145.37 47.92, 184.73 -0.3 M66.72 145.02 C106.95 96.98, 150.13 46.68, 190.31 0.85 M64.31 145.88 C97.15 107.82, 129.21 70.67, 191.26 0.17 M71.88 146.33 C110.72 101.17, 147.22 57.87, 196.6 -1.54 M69.92 144.2 C110.29 102.51, 148.09 57.76, 196.14 -1.2 M77.18 145.49 C109.45 104.24, 144.5 66.17, 199.32 -0.41 M74.75 145.9 C125.78 87.2, 174.67 30.88, 201.59 1 M82.98 145.45 C129.5 90.79, 176.98 36.26, 207.52 -0.24 M81.08 145.59 C131.48 86.86, 180.8 30.32, 206.8 0.55 M84.63 144.6 C110.24 119.02, 135.71 88.56, 212.52 -0.34 M85.13 144.02 C128.77 95.04, 172.33 45.79, 212.83 0.99 M92.49 144.91 C133.04 99.12, 172.84 52.87, 218.04 -0.79 M92.5 145.43 C138.71 88.41, 186.73 32.57, 216.88 0.05 M95.59 146.17 C129.37 106.08, 161.02 67.66, 221.7 1.86 M95.93 144.02 C144.37 90.02, 193.22 33.93, 223.21 -0.96 M100.93 146.88 C135.56 104.01, 173.7 62.46, 229.12 0.71 M102.05 146.07 C144.3 94.21, 188.3 45.28, 227.41 -0.72 M108.38 146.73 C147.46 96.41, 191.98 50.76, 231.45 -1.28 M106.48 144.59 C151.18 93.05, 195.48 41.15, 233.3 -0.53 M111.54 147.01 C156.18 95.98, 199.29 46.84, 238.81 -0.35 M111.95 145 C140.65 115.39, 165.38 85.14, 238.6 0.87 M119.1 145.54 C155.72 99.92, 194.23 55.87, 245.12 0.47 M117.99 144.27 C167.31 88.06, 217.67 29.92, 243.05 0.96 M124.43 144.9 C160.58 97.23, 201.02 54.26, 246.93 1.87 M123.79 144.36 C154.86 106.92, 187.05 69.49, 249.53 0.08 M127.63 146.57 C157.38 112.7, 185.6 80.48, 254.86 1.08 M128.51 144.54 C159.04 110.64, 189.25 75.44, 254.76 -0.4 M133.11 147.15 C172.43 99.27, 214.62 54.66, 261.12 2.19 M134.18 144.91 C159.77 116.42, 185.11 86.18, 259.14 0.33 M139.62 144.52 C184.57 92.14, 228.76 39.04, 261.63 2.48 M139.97 144.73 C174.37 102.63, 212.11 59.44, 264.12 2.15 M145.86 146.06 C174.82 106.91, 209.39 69.44, 262.21 7.7 M145.09 145.84 C178.44 106.26, 212.1 65.28, 262.67 9.46 M148.51 142.8 C189.34 101.83, 228.21 55.1, 262.57 15.62 M149.12 145.07 C192.37 93.99, 236.33 42.64, 262.58 14.01 M155.79 145.65 C194.79 99.81, 235.04 52.77, 263.99 19.38 M154.85 145.68 C176.69 121.48, 197.93 96.87, 262.39 20.38 M161.53 143.54 C181.71 118.95, 204.38 90.39, 264.69 27.8 M160.62 145.7 C200.4 98.09, 240.7 52.02, 264.05 25.62 M166.75 143.65 C201.9 102.08, 242.14 60.25, 263.37 31.67 M165.16 145.4 C200.24 101.7, 237.32 60.03, 262.75 31.65 M169.68 145.58 C205.65 106.63, 237.56 66.62, 262.62 40.61 M171.96 145.63 C206.9 103.38, 243.16 62.65, 263.61 39.41 M175.37 145.53 C208.54 107.92, 244.25 68.42, 263.76 45.53 M176.06 145.32 C199.33 118.24, 223.52 90.89, 262.81 45.5 M181.73 146.5 C199.26 124.78, 214.79 107.85, 263.7 51.09 M182.48 143.77 C211.95 107.97, 243.93 72.36, 263.68 51.89 M185.09 146.47 C200.74 125.67, 220.39 107.01, 264.34 58.61 M186.97 144.18 C207.97 120.17, 230.57 94.13, 262.45 57.02 M194.27 144.58 C214.01 121.6, 231.95 99.26, 262.12 62.27 M192.41 143.92 C213.86 120.51, 235.57 95.54, 263.04 63.25 M196.12 145.35 C213.1 126.89, 227.48 109.91, 261.43 68.05 M197.64 144.08 C214.66 122.81, 233.06 102.77, 262.79 69.97 M201.62 144.83 C215.84 130.59, 228.95 113.99, 263.48 74.14 M203.81 143.76 C215.35 129.63, 228.69 113.79, 262.53 75.31 M207.43 146.8 C223.98 124.06, 244.33 103.32, 261.11 81.43 M207.22 145.55 C219.83 130.73, 232.95 115.47, 263.75 80.75 M213.27 145.72 C230.47 129.35, 242.53 112.15, 262.19 86.4 M212.97 144.64 C232.48 123.24, 251.27 102.83, 263.3 87.29 M218.79 143.15 C233.46 128.45, 248.28 111.75, 261.23 95.34 M219.17 144.48 C235.39 125.52, 250.88 107, 263.17 93.87 M222.43 146.2 C238.84 129.62, 250.83 115.3, 262.75 101.24 M223.99 145.5 C235.46 131.46, 246.89 119.06, 263.24 99.54 M228.77 144.45 C236.17 136.01, 244.74 128.68, 264.12 106.3 M228.36 145.16 C238.73 135.71, 245.8 125.08, 262.37 106.03 M236.14 144.17 C246.77 131.08, 256.66 118.05, 264.44 110.3 M233.86 144.46 C241.97 135.22, 251.04 126.56, 262.55 111.54 M240.68 144.46 C248.61 136.04, 254.98 129.91, 261.88 117.57 M239.99 145.27 C245.88 138.49, 251.99 129.64, 262.56 117.78 M243.87 143.51 C247.08 141.78, 253.15 133.8, 263.33 125.19 M244.09 144.79 C250.66 138.48, 258.65 129.1, 262.84 123.44 M248.72 146.6 C255.18 141.71, 255.31 139.12, 261.79 129.91 M250.61 144.89 C255.36 138.9, 259.63 134.47, 263.13 131.29 M255.08 144.97 C257.86 142.54, 259.36 138.78, 264.28 136.34 M255.19 144.83 C257.74 142.77, 260.69 139.57, 262.94 136.06 M-0.3 143.62 C-0.3 143.62, -0.3 143.62, -0.3 143.62 M-0.3 143.62 C-0.3 143.62, -0.3 143.62, -0.3 143.62 M5.36 143.21 C4.21 141.41, 2.52 140.02, -0.67 138.78 M6.47 144.21 C4.81 142.33, 2.62 141.12, 0.35 138.74 M11.96 143.8 C8.4 142.97, 7.92 140.7, -1.84 131.97 M12.72 144.26 C9.67 141.36, 4.85 137.41, -0.23 132.8 M20.08 142.04 C10.35 137.32, 4.14 133.57, -1.19 129.1 M18.42 144.42 C14.04 140.01, 9.24 136.01, -0.09 127.03 M23.85 144.63 C19.49 138.31, 14.71 132.81, 1.53 122.56 M23.79 143.64 C15.13 136.04, 6.53 129.3, -0.08 122.66 M29.63 141.97 C21.75 135.72, 13.33 132.66, -0.64 117.68 M30.81 143.39 C22.36 135.68, 13.84 129.89, 0.63 116.49 M36.16 142.88 C28.77 137.67, 21.32 128.78, 1.98 113.37 M35.68 144.7 C26.32 134.93, 16.91 127.49, 0.68 112.99 M42.03 146.12 C34.06 137.2, 22.87 125.59, 0.51 106.19 M42.75 144 C34.07 136.31, 22.72 127.49, -1.04 107.63 M46.78 144.57 C33.16 133.55, 22 121.47, -1.47 100.46 M48.79 144.48 C32.62 129.32, 14.04 115.7, -0.09 101.33 M53.93 143.36 C36.33 127.34, 16.41 109.2, 1.69 97.83 M54.41 144.51 C33.4 124.96, 10.33 105.41, 0.33 95.18 M60.54 145.5 C43.64 126.59, 24.45 112.55, 0.5 90.77 M60.84 144.4 C44.74 129.34, 26.63 115.58, 0.57 90.15 M68.03 145.27 C50.85 131.09, 38.01 117.21, -0.88 87.47 M67.07 144.08 C54.2 130.91, 39.43 118.66, 0.51 85.24 M71.75 145.85 C57.84 130.65, 41.16 113.12, 2.22 81.31 M72.67 143.92 C48.83 122.25, 22.18 100.28, 0.74 81.13 M80.03 145.47 C60.99 128.79, 41.65 111.57, -0.23 75.74 M79.12 143.08 C49.25 118.4, 19.71 91.95, 0.61 74.33 M87.27 145.55 C65.53 124.1, 46.08 107.89, 1.83 69.8 M86.2 144.91 C64.55 125.85, 43.89 107.23, -0.65 70.86 M89.46 142.32 C57.97 115.66, 26.11 85.21, -0.59 62.98 M91.79 142.77 C71.57 125.68, 51.68 109.24, 0.13 64.36 M97.01 142.22 C64.01 113.31, 30.65 85.19, -0.76 60.69 M98 144.64 C75.8 124.31, 51.62 105.75, -0.81 59.8 M102.34 145.53 C64.68 106.81, 23.42 72.1, 0.6 55.22 M102.95 144.97 C70.67 114.49, 36.62 84.42, -0.09 53.6 M108.88 142.52 C87.05 125.06, 65.41 104.63, 2.13 47.14 M109.21 144.06 C71.47 110.96, 33.46 76.53, -0.09 49.31 M114.22 143.59 C84.57 116.66, 52.34 90.34, -1.35 42.25 M115.06 144.42 C83.43 114.6, 50.31 85.9, -0.84 43.74 M123.59 144.86 C83.6 111.52, 45.46 78.37, -0.02 37.03 M121.36 143.56 C88.25 114.15, 54.17 85.67, 1.03 38.65 M128.72 145.64 C82.73 105.18, 38.74 66.03, -0.3 31.56 M128.68 143.7 C82.02 101.42, 33.41 61.39, 0.44 32.86 M133.39 146 C86.9 102.16, 36.96 57.62, 2.04 26.96 M134.09 144.55 C105.91 119.77, 77.85 95.43, 0.92 27.95 M140.46 144.93 C94.09 100, 45.1 59.76, -1.38 22.34 M140.51 143.66 C105.15 110.23, 68.24 79.03, -1.32 22.41 M145.02 144.48 C96.93 97.67, 45.55 55.06, -0.66 16.24 M147.11 143.86 C87.85 93.65, 29.34 42.06, -0.21 17.26 M153.67 145.2 C93.63 91.61, 32.98 38.87, 0.95 11.49 M152.98 143.07 C107.42 103.63, 62.48 64.45, 0.11 10.33 M158.32 142.65 C119.39 109.73, 79.97 77.12, -1.15 5.05 M157.86 144.59 C120.98 112.49, 85.31 81.88, 0.66 5.56 M165.7 144.3 C105.83 92.04, 48.19 40.5, 2.08 0.53 M164.59 144.02 C124.96 110.13, 87.4 77.27, 0.3 0.38 M169.26 145.08 C122.81 100.38, 72.16 57.77, 2.87 -2.34 M170.98 143.07 C114.93 97.09, 60.85 48.07, 2.9 -2.58 M176.87 143.85 C116.49 91.15, 54.27 37.14, 10.13 -2.62 M176.71 144.73 C126.91 100.97, 76.43 57.28, 7.96 -2.02 M183.71 143.87 C125.29 95.39, 67.83 44.19, 15.84 -3.27 M183.16 143.1 C136.53 105.86, 91.73 66.81, 13.95 -2.68 M189.38 144.53 C146.29 105.85, 103.74 69.17, 19.61 -2.93 M188.41 144.49 C137.18 97.38, 84.31 51.82, 21.33 -2.71 M195.02 145.47 C143.13 99.12, 86.81 52.32, 26.39 -4.35 M195.74 143.35 C153.83 107.11, 114.12 72.66, 27.17 -3.61 M199.39 145.32 C147.41 98.38, 93.28 49.64, 34.31 -3.83 M201.4 143.54 C134.4 86.87, 68.27 31.16, 32.96 -2.02 M207.01 145.5 C149.01 96.48, 93.6 44.9, 40.39 -2.44 M207.25 144.3 C141.3 86.8, 73.92 28.94, 38.58 -2.58 M213.2 142.38 C153.41 89.75, 89.82 37.52, 45.26 -2.29 M212.97 142.88 C172.9 110.89, 135.2 78.21, 44.62 -2.7 M219.51 144.73 C153.8 85.51, 87.18 27.89, 52.65 -0.87 M218.78 144.46 C166.46 98.33, 112.46 50.56, 50.45 -2.29 M225.62 145.19 C185.95 106.45, 141.38 68.58, 56.22 -4.14 M226.19 144.1 C188.6 111.8, 150.98 78.85, 57.58 -1.99 M230.6 144.78 C183.98 105.48, 138.97 64.24, 63.49 -3.87 M231.83 143.73 C178 96.89, 123.82 49.69, 62.9 -2.72 M239.34 144.68 C175.35 90.18, 114.23 34.13, 68.91 -1.01 M237.45 144.12 C181.36 95.41, 125.99 46.13, 68.96 -2.18 M242.43 143.55 C199.95 104.46, 157.57 65.65, 74.01 -3.61 M243.07 143.21 C181.01 88, 117.77 34.21, 75.14 -2.87 M250.5 142.95 C192.46 92.43, 134.95 43.5, 81.78 -2.24 M250.45 143.46 C208.37 107.7, 165.98 70.59, 81.69 -2.02 M256.88 144.56 C189.93 87.05, 121.2 28.77, 88.59 -2.01 M256.23 143.27 C193.47 89.44, 130.8 35.89, 87.14 -2.71 M260.47 141.42 C202.12 92.2, 144.41 39.62, 92.73 -1.66 M261.22 143.82 C224.31 112.62, 186.59 80, 94.4 -2.25 M260.53 139.77 C225.17 105.34, 186.37 72.78, 100.09 -1.41 M261.14 137.58 C220.68 102.11, 178.28 67.74, 99.51 -1.61 M262.34 131.87 C202.28 82.28, 146.83 34.77, 104.74 -2.62 M261.03 133.13 C201.25 81.35, 140.64 28.71, 106.13 -2.21 M259.61 128.38 C217.51 89.06, 174.12 52.58, 112.8 -2.04 M261.03 127.7 C218.82 89.72, 173.54 53.02, 111.21 -1.85 M260.32 122.42 C209.55 77, 163.03 34.07, 118.19 -1.65 M260.23 122.58 C221.74 85.71, 179.39 50.65, 117.92 -3.65 M261.6 118.81 C208.18 69.07, 150.78 22.58, 124.1 -3.57 M260.92 117.14 C232.06 90.19, 204.2 64.74, 123.77 -2.33 M259.65 109.59 C231.31 83.63, 198.63 54.06, 129.1 -0.44 M261.72 111.45 C215.83 72.1, 171.86 33.49, 131.11 -1.51 M262.76 105.45 C220.34 71.26, 177.69 32.48, 138.16 -1.21 M261.65 107.05 C228.64 79.21, 195.98 48.54, 136.51 -3.34 M262.03 98.6 C214.26 59.88, 172.46 23.73, 143.67 -3.02 M261.2 100.11 C218.38 61.46, 174.79 25.21, 143.17 -3.1 M260.3 94.22 C238.3 74.53, 210.56 53.51, 148.98 -3.57 M260.48 96.06 C222.3 62.47, 182.02 27.6, 148.68 -3.38 M262.82 89.44 C230.57 62.51, 200.49 36.01, 153.26 -1.73 M260.24 90.76 C234 64.24, 205.21 41.29, 155.19 -3.45 M262.2 84.73 C232.32 59.54, 199.66 31.16, 159.05 -1.91 M262.04 85.16 C233.09 59.43, 205.58 35.53, 161.17 -1.41 M261.13 78.85 C236.16 58.62, 213.63 39.43, 165.28 -1.88 M261.28 78.46 C229.46 53.64, 201.22 27.22, 165.83 -2.84 M261.24 72.3 C231.39 48.16, 199.32 19.84, 174.39 -2.7 M261.33 74.76 C230.48 46.36, 198.08 18.75, 172.44 -2.45 M261.88 70.26 C228 42.82, 197.8 14.41, 177.88 -3.04 M260.61 68.21 C234.1 45.63, 208.02 23.52, 179.13 -3.18 M260.96 62 C238.96 46.52, 215.91 25.11, 187.09 -1.77 M260.69 63.66 C232.39 38.86, 203.08 13.21, 186.08 -2.67 M262.51 60.5 C240.02 37.57, 216.96 19.35, 190.78 -0.39 M262.12 58.5 C245.2 44.13, 229.39 31.36, 192.24 -2.32 M261.7 54.59 C235.62 33.55, 210.77 11.93, 198.22 -0.86 M260.81 54.02 C235.98 29.95, 211.15 8.38, 196.79 -3 M259.98 47.13 C238.78 30.44, 216.85 11.96, 204.22 -1.4 M261.34 47.78 C244.27 32.36, 227.48 18.83, 203.41 -1.67 M262.56 40.57 C247.85 33.17, 237.25 20.73, 208.68 -0.98 M261.78 42.43 C241.57 24.06, 220.21 7.48, 210.13 -3.51 M261.3 38.41 C245.47 24.53, 228.06 9.05, 217.45 -3.82 M260.87 37.35 C244.69 21.25, 226.24 6.48, 215.49 -3.31 M259.44 30.13 C247.77 19.06, 235.61 8.02, 221.87 -3.8 M262.01 30.84 C251.98 24.66, 245.24 17.62, 222.28 -1.67 M262.5 28.65 C249.31 18.34, 239.55 9.42, 227.79 -4.35 M262.45 27.74 C253.42 19.95, 246.05 13.43, 227.96 -3.59 M263.02 19.22 C252.45 11.25, 240.42 1.9, 234.72 -4.22 M261.29 21.61 C256.28 15.45, 250.22 10.94, 233.99 -2.08 M263.4 16.89 C254.52 10.1, 250.55 8.22, 241.31 -3.96 M260.66 16.38 C254.44 8.99, 246.78 3.61, 240.65 -3.43 M260.74 11.46 C256.99 7.79, 252.26 1.03, 244.21 -4.44 M261.75 10.49 C257.55 7.45, 254.74 6, 246.16 -3.45 M261.57 5.14 C258.75 4.48, 258.86 3.34, 251.97 -1.7 M261.79 4.95 C258.42 2.55, 254.52 -0.05, 251.89 -2.58" stroke="#ffec99" stroke-width="0.5" fill="none"></path><path d="M0.62 0.97 C87.74 2.94, 174.36 2.11, 262.25 -0.82 M0.36 -0.68 C73.99 -1.74, 149.14 -1.21, 260.68 0.52 M262.59 0.18 C261.78 43.15, 260.16 85.66, 259.38 144.53 M260.14 0.44 C260.49 47.49, 259.73 94.01, 260.18 143.7 M260.67 145.32 C170.51 146.76, 79.43 146.7, 1.04 142.85 M260.48 144.58 C168.66 142.25, 77.84 142.42, -0.49 144.01 M-0.23 143.39 C1.58 101.95, 1.31 61.05, -1.06 -0.31 M0.43 144.85 C-0.83 112.74, -1.39 82.16, 0.16 -0.92" stroke="#1e1e1e" stroke-width="1" fill="none"></path></g><g stroke-linecap="round" transform="translate(13.16583223758721 210.6327090602499) rotate(0 130.37128187649955 72.40826999373064)"><path d="M0 0 C0 0, 0 0, 0 0 M0 0 C0 0, 0 0, 0 0 M0.21 6.91 C1.53 3.81, 2.87 2.55, 5.27 0.59 M-0.17 6.78 C0.74 4.92, 2.47 3.1, 4.8 0.06 M-1.14 10.54 C3.24 8.27, 9.16 2.21, 10.15 1.39 M0.2 12.63 C3.26 8.45, 4.67 6.78, 10.29 -0.63 M1.21 19 C5.44 13.71, 12.63 5.57, 17.45 0.79 M-0.17 17.79 C5.81 11.73, 11.23 5.77, 15.69 -0.51 M1.03 25.37 C6.37 18.62, 8.1 14.14, 20.74 1.87 M1.16 24.86 C5.89 15.62, 13.37 8.76, 20.3 0.04 M1.08 31.89 C10.05 17.04, 20.31 6.1, 26.99 1.89 M0.58 30.61 C7.06 23.13, 13.48 14.78, 27.22 0.32 M-1.15 37.55 C5.44 30.78, 15.16 21.64, 31.65 1.05 M-0.85 35.93 C10.77 23.97, 22.34 11.26, 31.77 -0.09 M1.06 44.14 C9.01 32.31, 22.36 17.84, 36.1 -0.97 M-0.29 42.62 C9.49 32.63, 18.2 22.66, 36.33 0.01 M0.5 48.66 C8.52 39.17, 21.98 24.56, 41.7 1.18 M-0.96 49.09 C14.68 32.62, 28.36 15.35, 42.64 -0.2 M1.46 54.28 C11.23 39.9, 23.3 29.69, 47.37 -1.27 M-0.46 55.49 C14.2 37.43, 30.08 20.48, 46.62 -0.13 M1.27 62.57 C14.99 44.91, 25.21 31.75, 51.63 -1.09 M0.07 61.1 C17.41 42.45, 32.49 22.18, 52.79 0.6 M-0.27 68.34 C12.8 48.49, 27.6 34.4, 58.17 1.23 M-0.37 67.52 C14.34 49.61, 30.04 33.22, 59.02 -0.41 M-0.09 72.16 C21.39 46.73, 47.2 19.68, 61.92 -0.42 M-0.5 72.32 C16.1 54.55, 32.86 35.79, 62.96 0.07 M-0.95 78.78 C18.42 61.45, 34.7 41.76, 70.62 -1.51 M0.34 79.68 C24.46 52.63, 48.24 24.55, 68.83 0.27 M-0.08 86.02 C14.56 66.88, 31.2 50.65, 74.87 -0.75 M0.93 84.55 C28.59 52.43, 55.34 21.14, 73.77 -0.14 M-1.57 91.03 C16.11 69.53, 35.17 49, 77.67 0.18 M-0.06 91.06 C21.2 66.59, 43.09 41.13, 78.71 -0.63 M-1.04 99.19 C18.49 77.32, 35.35 59.26, 84.53 -1.27 M0.68 98.69 C17.32 77.1, 35.93 56.2, 84.67 0.54 M1.3 102.52 C24.23 74.38, 48 44.51, 89 -0.29 M0.19 102.89 C33.6 66.31, 64.77 28.86, 89.67 -0.22 M1.42 108.19 C21.32 85.97, 44.76 58.09, 94.76 1.5 M-0.61 110.8 C33.75 71.07, 67.74 32.36, 94.99 0.54 M0.9 117.38 C35.6 71.9, 73.93 33.39, 101.12 0.19 M0.74 116.31 C41.96 69.62, 80.81 24.33, 100.1 0.74 M0.5 121.52 C40.99 79.58, 80.95 33.64, 105.18 -0.21 M-0.9 121.57 C35.21 80.78, 71.04 40.85, 106.92 -0.82 M1.56 129.2 C39.56 80.58, 80.18 34.74, 111.29 0.45 M-0.58 128.08 C42.95 79.26, 82.2 32.03, 110.73 0.91 M-1.16 134.63 C44.71 82.14, 91.94 29.46, 116.54 1.31 M0.85 134.35 C36.45 92.12, 72.33 49.28, 115.82 0.44 M-0.62 140.05 C28.26 108.73, 50.47 79.97, 123.55 1.04 M-0.1 140.59 C41.54 92.54, 84.19 43.69, 121.65 -0.67 M2.53 143.94 C33.98 110.98, 61.56 74.71, 127.35 0.2 M1.72 146.1 C24.32 117.3, 51.05 88.65, 125.93 0.92 M6.17 144.18 C50.39 96.63, 90.52 45.04, 130.74 -1.77 M6.64 144.62 C56.66 88.07, 106.57 31.68, 133.34 0.42 M10.96 143.79 C53.59 93.28, 100.36 39.96, 135.92 -0.4 M11.65 145.38 C55.77 94.09, 99.51 44.87, 137.34 -0.62 M16.98 146.09 C49.74 105.2, 84.9 68.09, 144.48 -1.98 M17.4 146.36 C51.28 106.48, 82.6 68.59, 143.59 -0.98 M23.26 144.11 C71.11 91.25, 114.16 40.45, 149.01 -1.39 M22.93 145.02 C50.24 113.35, 78.34 80.54, 147.68 0.71 M27.32 146.81 C51.98 114.85, 78.59 86.47, 153.14 -1.89 M27.53 144.67 C64.12 102.33, 101.16 59.71, 154.58 -0.68 M33.22 143.24 C78.4 92.83, 125.46 36.2, 159.14 -0.95 M32.05 145.91 C78.31 92.6, 123.65 37.4, 158.42 -0.31 M39.12 144.76 C67.27 113.16, 94.34 78.72, 163.92 -2.07 M38.81 145.02 C77.5 100.54, 116.92 54.49, 163.85 -0.06 M45.37 145.22 C78.61 105.76, 112.07 67, 170.63 -0.56 M42.86 145.36 C72.63 111.44, 102.45 76.48, 169.9 -0.01 M50.06 147.12 C89.7 98.15, 129.68 52.16, 176.75 0.62 M47.89 145.78 C90.5 94.06, 133.77 44.33, 175.29 -1.13 M52.4 146.58 C83.48 109.42, 115.6 75.68, 181.59 1.06 M52.9 146.79 C94.46 100.43, 135.98 54.49, 180.32 -0.81 M59.61 143.76 C101.53 98.78, 140.55 49.93, 186.39 -0.94 M59.29 145.19 C97.47 103.03, 133.3 59.49, 186.16 0.49 M63.73 147.31 C93.92 110.29, 126.36 72.75, 189.88 1.87 M65.05 145.76 C98.53 106.58, 132.32 67.58, 190.74 -0.27 M71.03 145.28 C97.16 111.57, 127.25 75.91, 196.34 -2.18 M70.38 146.39 C104.59 107.09, 137.41 67.68, 196.06 0.58 M75.59 145.36 C120.57 94.03, 162.75 39.82, 203.16 -1.44 M74.58 145.5 C119.77 93.31, 165.55 42.33, 202.07 -0.05 M81.35 145 C108.72 111.41, 136.68 79.05, 208.91 -0.79 M80.38 144.42 C109.3 109.97, 139.68 76.39, 205.97 -0.7 M83.66 147.67 C110.18 117.37, 137.68 87.12, 212.88 0.55 M84.77 144.85 C111.6 117.47, 138.9 88.66, 212.09 -0.9 M91.38 144.96 C124.03 105.99, 156.99 68.5, 219.18 1.24 M91.38 145.2 C138.74 87.59, 185.83 33.24, 217.22 0.21 M96.4 144.87 C133.31 100.48, 171.04 60.22, 224.26 -0.03 M95.28 146.06 C130.77 107.62, 165.68 67.52, 222.44 0.3 M99.72 145.91 C142.22 98.9, 183.19 53.09, 229.01 -0.34 M101.34 144.55 C148.62 90.1, 193.97 36, 228.49 -0.75 M105.04 145.34 C153.16 93.43, 195.28 38.21, 234.29 1.66 M107.09 145.76 C151.86 94.98, 195.82 44.26, 233.6 -0.43 M112.75 145.32 C152.31 99.74, 190.88 54.25, 236.38 -1.32 M113.05 145.16 C143.7 108.88, 176.86 72.7, 238.19 0.52 M117.59 145.15 C166.55 87.63, 215.7 32.85, 245.77 1.2 M117.58 145.98 C152.55 106.09, 185.8 67.38, 243.95 0.81 M122.63 143.4 C171.43 89.7, 217.19 34.98, 248.04 1.97 M123.19 145.64 C168.14 93.09, 216.14 38.04, 248.02 0.24 M128.87 146.12 C175.57 92.26, 220.05 40.75, 253.25 -1.13 M127.46 145.14 C155.87 112.35, 184.89 80.33, 254.68 0.82 M133.29 145.04 C165.6 110.88, 196.01 76.17, 257.53 -0.83 M133.29 145.47 C164.76 107.37, 197.8 70.1, 260.12 0.27 M138.44 145.75 C180.05 95.39, 223.05 46.63, 263.12 3.94 M137.81 145.03 C163.33 114.61, 190.56 85.48, 262.9 2.56 M142.46 145.88 C189.65 91.99, 235.73 36.25, 262.62 9.21 M144.71 146.02 C182.86 97.54, 222.58 53.24, 263.38 8.43 M148.68 147.3 C171.52 121.07, 195.22 95.16, 264.94 15.68 M149.08 145.86 C194.09 93.91, 236.89 44.17, 263.99 15.15 M155.64 146.28 C187.95 107.34, 221.2 67.58, 261.02 21.9 M155.73 145.57 C177.92 119.11, 199.73 91.71, 262.23 21.09 M158.72 145.71 C185.19 112.61, 215.18 84.6, 265.16 26.72 M160.06 145.21 C195.14 103.82, 230.17 63.27, 264.26 26.25 M163.46 146.04 C191.84 117.67, 217.61 84.13, 264.56 33.5 M163.77 145.02 C202.41 101.53, 239.83 58.01, 263.79 31.77 M170.48 145.67 C193.74 116.04, 219.26 90.9, 264.79 40.98 M170.92 145.06 C188.56 123.73, 207.59 101.84, 263.72 38.98 M174.29 147.46 C205.21 113.63, 233.01 81.06, 262.56 43.79 M175.12 145.91 C205.82 110.77, 234.2 78.1, 262.28 45.14 M182.69 143.58 C198.67 125.33, 215.34 105.92, 264.63 50.84 M180.17 144.78 C208.86 112.79, 237.88 81.39, 262.17 52.07 M184.33 145.78 C213.46 116.45, 238.47 88.6, 263.15 58.26 M185.94 145.95 C205.84 123.32, 224.06 101.49, 263.25 56.29 M192.81 145.54 C210.71 122.32, 231.73 96.3, 263.27 63.63 M191.68 146.13 C211.67 123.52, 231.67 99.72, 262.35 63.43 M198.2 144.24 C217.77 121.68, 234.08 99.9, 262.55 70.87 M195.91 144.94 C215.12 124.26, 235.61 101.51, 261.98 70.42 M203.12 145.39 C216.77 128.63, 228.45 114.89, 261.75 76.69 M201.71 146.25 C222.36 121.77, 243.83 96.59, 263.47 76.08 M206.31 144.78 C223.04 127.86, 233.16 113.24, 261.75 83.05 M206.59 146.63 C225.02 125.42, 244.3 103.3, 263.06 80.88 M214.67 146.68 C222.49 134.13, 234.09 118.49, 264.88 88.05 M213.83 144.7 C226.12 132.05, 237.61 117.12, 263.62 87.96 M218.85 146.05 C236.32 126.62, 250.04 108.53, 264.55 94.18 M218.36 145.61 C233.81 126.95, 251.21 107.44, 263.48 92.66 M225.29 144.68 C235.83 132.13, 246.49 120.04, 262.61 99.22 M224.02 144.39 C235.38 131.73, 246.49 118.48, 262.1 99.62 M227.8 145.44 C238.91 135.35, 249.5 123.28, 262.2 104.65 M229.49 146.39 C241.7 130.12, 254.34 115.54, 264.24 106.41 M235.59 144.39 C243.91 132.94, 255.63 120.21, 262.61 110.16 M233.58 144.65 C244.72 133.95, 253.88 121.86, 263.03 112.26 M240.89 145.05 C248.03 137.96, 253.49 127.12, 262.69 118.52 M239.1 146.35 C245.43 137.08, 251.27 130.6, 262.7 118.15 M242.97 146.51 C249.31 138.49, 253.83 136.38, 264.4 125.82 M244.18 146.19 C251.62 137.68, 256.54 130.93, 262.41 123.24 M251.68 145.69 C252.7 141.99, 256.18 136.29, 264.19 130.36 M250.16 144.8 C253.09 141.88, 256.52 138.91, 262.93 131.04 M255.52 145.35 C257.48 141.1, 262.11 138.88, 263.66 135.51 M255.09 145.74 C257.53 143.21, 259.23 140.39, 263.58 136.07 M-0.01 144.81 C-0.01 144.81, -0.01 144.81, -0.01 144.81 M-0.01 144.81 C-0.01 144.81, -0.01 144.81, -0.01 144.81 M6.54 144.38 C5.59 143.53, 3.07 142.87, 0.14 140.43 M6.79 144.99 C4.72 143.97, 3.67 142.66, -0.01 139.77 M10.7 145.85 C9.91 143.36, 4.82 138.62, -0.5 135.31 M12.72 144.82 C6.93 140.05, 3.1 136.69, 0.37 133.85 M16.94 144.05 C11.55 140.99, 6.26 136.49, -0.45 130.83 M19.19 145.33 C13.8 140.97, 7.71 134.9, -0.36 128.48 M24.65 143.88 C18.67 137.37, 11.98 132.6, 0.95 121.64 M23.21 144.22 C16.67 139.03, 10.82 132.84, -0.6 123.83 M29.58 143.18 C17.5 136.63, 7.55 125.42, -0.48 117.01 M30.34 143.84 C21.59 137.93, 15.01 130.01, -0.46 118.88 M37.31 145.78 C25.32 132.7, 13.04 123.67, -0.82 113.3 M36.25 144.74 C28.54 138.82, 21.12 131.75, -0.78 113.87 M43.97 146.04 C26.38 129.14, 10.06 115.7, -1.22 107.66 M43.29 145.05 C26.53 131.39, 11.13 119.02, 0.12 107.94 M47.3 146.93 C37.3 135.73, 21.37 121.11, 0.79 102.96 M49.79 144.85 C31.13 131.59, 14.93 115.75, 0.46 103.25 M56.2 145.66 C45.12 134.82, 33.98 126.43, 2.19 97.27 M54.89 145.02 C42.1 134.44, 31.33 123.08, 0.2 96.61 M61.58 143.11 C38.83 126.53, 17.96 107.43, -0.75 92.75 M61.7 144.84 C42.17 130.4, 25.74 113.53, -0.99 91.72 M65.89 145.43 C50.96 130.45, 33.27 118.81, -1.64 85.09 M68.08 144.85 C52.55 132.09, 38.39 119.25, -0.53 86.72 M74.17 146.18 C57.13 128.5, 40.18 115.39, 0.84 80.48 M73.99 145.21 C51.67 126.39, 30.02 106.92, -0.9 80.44 M79.16 146.51 C60.27 130.63, 43.92 116.03, 1.72 77.04 M79.89 145.06 C50.45 118.18, 20.36 91.92, -0.53 75.98 M84.83 142.71 C67.48 129.55, 51.87 115.47, -1.4 69.72 M84.51 144.37 C58.64 122.47, 32.96 102.24, 0.31 70.94 M91.21 145.71 C71.05 124.26, 48.72 105.61, -1.56 63.79 M90.99 144.55 C67.82 124.94, 46.16 104.99, 0.6 65.01 M97.9 144.63 C75.52 125.04, 50.72 105.38, -1.63 59.74 M98.72 144.28 C58.26 112.66, 19.38 79.37, 0.62 60.16 M105.22 142.94 C76.91 119.59, 48.16 97.61, 0.51 54.73 M103.66 144.92 C80.86 124.73, 58.27 105.37, -0.88 54.3 M109.21 144.64 C66.94 105.32, 25.62 67.53, 0.76 47.52 M109.7 144.82 C67.91 107.16, 24.31 71.51, -0.67 49.42 M115.2 143.82 C78.5 112.61, 43.02 80.75, -0.34 43.94 M115.51 144.19 C88.1 120.15, 60.15 97.38, 0.15 43.26 M120.64 146.12 C88.87 120.18, 60.16 91.96, -0.84 37.78 M121.62 144.72 C87.54 115.95, 55.62 86.74, 0.13 39.43 M128.65 146.32 C102.14 123.83, 74.4 98.91, 1.44 32.25 M129.29 144.41 C92.66 115.24, 58.36 84.58, 0.66 33.15 M135.1 146.51 C106.08 120.9, 78.97 95.5, -1.5 29.59 M133.79 143.95 C89.2 105.46, 45.89 68.21, 0.79 27.96 M141.64 144.2 C111.42 121.34, 81.16 96.08, -0.84 21.2 M140.83 144.07 C107.59 116.43, 74.39 89.53, 0.51 22.16 M147.28 143.97 C112.72 115.55, 74.51 82.08, 2.22 19.8 M146.34 145.37 C110.93 114.38, 77.26 86.06, 1.2 18.17 M153.14 144.87 C114.25 113.18, 80.46 83.66, -0.08 11.16 M152.58 144.97 C112.02 109.79, 71.57 73.58, -0.56 12.33 M158.45 144.17 C106.14 99.29, 54.4 53.21, -1 8.72 M158.14 144.47 C107.22 101, 56.32 55.28, 0.8 7.57 M164.52 144.82 C129.34 113.46, 94.17 82.16, -1.23 2.59 M163.77 144.74 C122.03 107.7, 78.4 68.67, -0.16 0.79 M171.16 143.29 C106.92 89.2, 44.79 35.37, 2.26 -2.14 M170.36 145.28 C108.52 88.99, 46.17 35.44, 2.33 -2.11 M177.32 144.34 C117.74 92.47, 60.42 41.87, 8.15 -0.93 M177.31 144.35 C117.21 93.24, 55.72 41.39, 8.53 -0.96 M184.28 145.72 C122.93 92.09, 62.46 39.15, 13.21 -0.52 M182.57 144.46 C115.48 85.94, 49.77 29.3, 13.45 -2.46 M189.4 145.74 C152.17 114.51, 112.67 79.73, 20.44 -2.91 M189.45 145.6 C153.54 115.12, 117.57 82.23, 20.37 -2.27 M195.93 145.48 C132.32 93.28, 72.62 37.69, 24.82 -1.63 M194.42 144.1 C157.93 111.61, 121.64 78.61, 26 -2.61 M200.5 145.69 C148.24 98.89, 98.97 53.63, 33.8 -0.5 M201.39 144.39 C141.8 94.54, 84.04 43.5, 32.56 -1.56 M205.75 145.83 C153.19 97.74, 100.65 51.89, 40.33 -2.47 M207.16 144.47 C145.38 91.81, 83.72 37.92, 39.19 -1.53 M215.03 144.29 C165.82 103.62, 120.77 63.36, 43.05 -0.71 M212.6 144.07 C147.06 85.89, 80.75 28.34, 45.1 -1.84 M220.87 144.36 C170.18 101.35, 120.55 59.87, 51.01 -2.23 M220.09 145.56 C163.82 95.97, 106.36 47.41, 50.26 -2.38 M226.97 144.2 C180.6 105.53, 136.71 67.53, 54.91 -1.35 M225.53 145.09 C183.42 108.65, 144.31 74.76, 56.15 -2.75 M230.44 145.96 C165.93 88.1, 98.83 28.11, 63.16 -3.54 M231.85 145.25 C177.24 98.14, 121.81 49.88, 63.33 -2.6 M236.16 146.11 C202.15 115.14, 167.88 87.46, 69.74 -2.35 M236.94 144.79 C185.56 98.66, 131.2 52.54, 68.79 -2.52 M242.9 144.33 C202.21 106.26, 157.76 69.38, 76.1 -3.05 M244.07 144.21 C193.08 99.83, 140.71 53.84, 75.18 -2.51 M250.73 144.23 C198.12 99.15, 143.64 52.07, 80.32 -3.32 M249.8 145.82 C201.4 103.49, 154.68 62.37, 82 -1.44 M257.15 145.17 C196.94 95.03, 140.69 44.95, 88.08 -2.82 M255.8 144.04 C195.93 91.36, 134.83 38.13, 87.23 -2.11 M260.98 145.42 C227.73 112.24, 192.4 84.06, 91.81 -1.25 M261.8 145.09 C203.85 96.16, 148.53 47.02, 92.61 -2.23 M261.68 138.58 C216.34 101.05, 172.84 63.5, 98.8 -1.02 M261.75 137.76 C206.63 91, 152.53 44.08, 100.21 -1.24 M260.65 132.46 C205.39 85.35, 147.02 35.31, 106.76 -1.77 M261.67 134.15 C209.71 89.95, 159.3 45.86, 105.18 -1.45 M261.76 127.58 C219.05 91.31, 174.62 52.25, 111.55 -3.49 M261.38 127.19 C202.49 78.46, 144.21 27.59, 112.1 -1.35 M260 121.74 C225.94 89.64, 187.39 59.44, 116.98 -3.17 M262.25 123.25 C227.96 95.34, 195.11 64.51, 118.25 -1.79 M262.69 115.67 C206.66 71.78, 155.07 25.71, 121.95 -3.21 M260.15 116.72 C226.89 86.42, 190.67 56.6, 123.16 -2.8 M262.97 113.27 C228.59 80.48, 191.32 52.82, 130.89 0.04 M261.53 112.19 C225.19 81.17, 189.17 50.87, 130.52 -2.16 M262.41 108.34 C216.68 67.03, 171.63 28.97, 135.01 -3.57 M260.48 107.68 C215.06 67.16, 169.86 27.84, 136.54 -1.95 M259.93 100.04 C224.41 68.62, 185.24 33.33, 143.42 -3.79 M260.91 101.3 C235.67 80.6, 212.4 57.61, 141.33 -2.14 M262.54 95.82 C217.42 58.45, 176.59 20.13, 148.62 -0.37 M261.56 96.39 C223.99 63.63, 188.35 31.79, 147.67 -1.82 M262.17 90.87 C233.64 66.19, 202.23 42.23, 153.37 -1.68 M262.14 90.22 C237.05 70.74, 213.21 48.18, 154.18 -1.52 M263.24 87.7 C237.66 65.69, 213.91 46.93, 160.21 -3.03 M261.17 85.74 C236.15 64.73, 210.72 43.33, 160.09 -2.41 M259.72 80.31 C230.87 55.46, 199.78 28.89, 166.55 -0.6 M260.31 81 C234.98 56.53, 206.7 33.04, 166.64 -1.9 M262.2 76.33 C240.35 55.98, 222.81 39.39, 173.73 -3.22 M261.71 75.52 C240.54 58.05, 220.57 40.73, 173.43 -2.29 M259.42 70.64 C228.85 42.87, 197.28 15.72, 178.56 -0.8 M260.87 69.07 C233.12 44.9, 206.21 20.69, 178.18 -2.96 M261.13 66.76 C234.09 41.14, 210.91 19.13, 186.16 -0.9 M261.7 65.38 C242.83 48.43, 225.78 32.41, 184.94 -1.68 M262.87 57.84 C238.43 39.28, 211.86 19.72, 189.52 -1.14 M260.64 58.25 C238.62 40.19, 218.42 21.48, 191.84 -0.83 M260.8 56.07 C242.43 40.7, 227.06 25.75, 198.53 -1 M261.75 53.22 C245.1 39.16, 227.01 24.61, 197.49 -2.03 M260.48 49.63 C238.24 30.24, 216.65 9.7, 203.09 -3.74 M260.79 47.74 C241.08 31.38, 220.15 13.53, 202.3 -1.74 M259.73 44.1 C241.83 25.09, 223.76 12.84, 210.64 -2.72 M262.35 42.82 C242.31 27.62, 224.24 9.91, 209.31 -2.45 M261.41 39.42 C247.36 27.04, 236.79 14.09, 216.97 -4.04 M261.87 37.17 C245.01 23.49, 227.86 8.09, 215.32 -3.04 M260.25 31.36 C251.24 22.45, 242.35 14.34, 219.81 -0.88 M260.82 32.86 C247.24 19.73, 231.59 7.22, 221.72 -1.96 M259.63 28.38 C251.29 21.12, 242.6 9.9, 225.86 -3.4 M260.75 27.51 C251.86 20.21, 242.73 10.74, 227.8 -2.85 M262.44 21.13 C252.94 13.9, 247.76 7.98, 231.9 -2.55 M262.38 21.9 C255.25 16.6, 247.55 10.79, 233.15 -1.19 M259.86 15.35 C252.82 11.04, 245.46 0.82, 240.29 -2.48 M261.7 16.15 C254.32 10.9, 246.97 2.9, 239.47 -2.42 M262.19 13.36 C258.81 7.83, 252.41 3.68, 243.82 -1.12 M261.08 11.38 C256.44 8.41, 251.62 2.3, 244.67 -1.38 M260.21 6.58 C258.93 4.21, 254.04 1.02, 252.77 -2.26 M261.22 5.94 C257.81 3.71, 254.93 0.94, 252.43 -2.18 M261.36 1.49 C260.78 0.11, 259.65 -0.46, 257.86 -1.89 M261.28 0.97 C259.97 -0.08, 258.5 -1.3, 257.72 -2.18" stroke="#a5d8ff" stroke-width="0.5" fill="none"></path><path d="M1.05 1.29 C58.5 -0.81, 116.57 -2.08, 260.53 -0.6 M-0.79 -0.05 C98.89 2.24, 198.55 2.29, 260.76 0.37 M261.11 -0.37 C260.83 41.4, 260.71 86.2, 261.24 144.7 M260.57 0.72 C258.94 51.9, 259.3 102.64, 261.23 144.37 M261.47 145.96 C161.32 147.77, 61.72 145.67, 0.81 145.26 M260.17 144.77 C202.53 146.77, 143.58 146.77, -0.05 144.97 M1.85 145.23 C1.75 111.96, -0.9 75.07, -1.66 0.83 M-0.23 144.91 C-1.42 115.72, -0.46 84.19, -0.49 0.76" stroke="#1e1e1e" stroke-width="1" fill="none"></path></g><g stroke-linecap="round" transform="translate(307.6046898229381 210.1486541983486) rotate(0 130.37128187649955 72.94450630938822)"><path d="M0 0 C0 0, 0 0, 0 0 M0 0 C0 0, 0 0, 0 0 M-0.4 6.04 C0.41 5.32, 2.91 3.23, 4.62 0.77 M-0.56 6.45 C1.35 4.36, 2.59 2.53, 5.32 0 M-0.89 12.9 C4.29 7.89, 6.15 6.21, 9.74 -0.23 M0.68 11.49 C3.46 8.15, 7.68 2.29, 11.05 -0.79 M-0.28 20.05 C5.49 13.36, 10.09 9.07, 17.23 2.31 M0 18.48 C2.67 15.78, 6.46 10.22, 14.79 -0.21 M1.68 24.02 C6.51 15.72, 15.16 8.04, 21.52 0.54 M-0.61 23.13 C5.85 17.03, 10.62 10.77, 22.06 -0.88 M-0.15 28.73 C10.2 17.31, 21.02 8.38, 25.43 -0.56 M0.12 30.86 C6.43 22.4, 14.53 14.68, 25.4 -0.64 M-1.84 38.82 C11.39 25.72, 20.21 14.29, 32.82 -2.09 M-0.73 36.72 C8.92 26.77, 17.84 16.49, 31.74 -0.78 M-1.76 44.23 C10.48 30.51, 18.32 18.96, 35.88 -1.1 M0.01 42.89 C7.53 34.46, 15.43 24.23, 36.3 0.26 M-1.79 50.76 C11.22 36.54, 18.93 27.26, 43.27 1.58 M0.71 49.41 C15.61 31.13, 30.78 13.83, 41.92 0.24 M0.13 52.9 C14.45 39.77, 27.62 21.15, 47.59 -0.46 M-0.34 54.22 C18.45 33.93, 33.52 14.96, 46.96 -0.46 M1.53 60.07 C15.92 41.24, 33.3 19.12, 53.51 0.99 M0.87 61.67 C12.64 45.08, 26.88 30.27, 52.62 0.54 M-1.13 65.57 C21.84 41.79, 44.94 16.17, 57.32 -1.06 M-1.22 66.61 C12.79 52.15, 27.48 35.87, 58.75 0.08 M-1.7 72.95 C17.75 53.59, 31.51 34.92, 62.98 -0.66 M-0.6 73.09 C14.32 57.41, 28.26 40.96, 63.26 -1.17 M0.58 80.54 C15.27 63.27, 32.39 43.07, 69.66 -0.63 M0.4 79.98 C20.97 54.96, 41.4 31.2, 67.89 -0.31 M-1.56 84.31 C15.1 67.87, 32.07 48.29, 75.87 -0.49 M0.84 84.15 C20.76 60.43, 41.84 36.32, 73.61 -0.77 M-1.82 90.09 C29.32 56.67, 56.6 25.41, 78.95 1.84 M-0.05 91.88 C23.19 65.26, 46.01 37.37, 78.44 0.06 M1.04 96.53 C18.34 77.82, 34.54 56.1, 83.17 -1.88 M-1.09 98 C30.67 60.19, 61.85 25.02, 84.79 0.26 M0.04 103.46 C31.64 64.33, 64.84 27.25, 91.31 0.08 M0.87 103.52 C21.91 78.2, 45.02 51.62, 89.33 -0.23 M-1.11 110.44 C18.85 86.41, 37.02 67.75, 96.66 -0.49 M0.17 110.37 C37.87 67.16, 73.02 25.56, 96.3 -0.19 M-0.7 113.6 C28.8 83.9, 56.33 50.38, 102.65 -1.47 M0.96 115.47 C26.23 84.4, 53.35 53.12, 101.37 -0.71 M0.62 123.89 C22.22 98.95, 41.32 73.13, 106.88 -2.28 M-0.93 121.2 C35.06 82.75, 69.72 43.63, 106.98 0.18 M-0.78 127.95 C33.14 87.99, 69.54 46.65, 112.67 -1.65 M0.72 127.48 C41.4 79.38, 83.94 32.49, 112.19 -0.03 M-0.68 134.64 C40.41 89.63, 77.94 46.33, 116.5 -0.72 M-0.42 134.52 C41.46 83.25, 84.92 34.47, 115.37 -0.21 M1.83 139.4 C47.48 84.27, 99.25 29.59, 122.83 -0.58 M-1.03 140.4 C29.47 105.23, 59.68 70.32, 121.32 -0.93 M1.8 147.21 C43.32 94.41, 90.15 42.49, 124.95 2.17 M-0.49 146.27 C26.58 114.85, 52.08 83.49, 127.37 1.22 M7.2 146.77 C31.26 114.36, 59.15 81.3, 134.39 -1.66 M5.2 145.7 C40.45 106.24, 77.04 65.24, 133.11 0.73 M9.22 146.74 C60.61 89.51, 107.82 33.34, 138.47 -1.64 M10.05 145.21 C49.41 100.67, 89.41 54.18, 137.22 0.67 M15.6 145.89 C62.67 94.39, 109.38 37.71, 142.38 -1.57 M16.64 145.55 C56.61 95.28, 100.64 46, 143.8 -1.01 M23.46 145.26 C65.44 95.48, 112.32 40.6, 146.72 0.77 M21.23 146.13 C47.5 114.41, 75.88 82.28, 147.23 0.01 M24.84 144.37 C50.75 115.87, 76.78 85.03, 153.61 -0.28 M26.63 146.5 C76.43 89.75, 126.75 31.87, 154.48 0.76 M32.74 147.42 C76.98 94.9, 119.77 45.21, 160.18 2.04 M32.47 146.65 C68.58 102.39, 105.18 61.26, 158.02 0.47 M38.73 147.47 C85.81 89.39, 134.04 31.67, 164.68 0.98 M38.13 146.5 C71.99 105.8, 105.97 65.48, 164.1 -1.13 M43 144.6 C74.58 106.33, 108.7 69.02, 168.06 0.55 M43.02 146.26 C87.31 95.36, 129.74 46.89, 169.62 -0.31 M47.9 146.17 C92.51 92.45, 140.7 39.69, 175.98 1.67 M47.46 145.87 C93.38 93.63, 139.99 40.03, 174.46 -1 M52.02 144.91 C99.06 94.4, 144.63 43.96, 180.4 -1.62 M53 145.36 C80.55 115.18, 105.29 85.19, 180.36 0.69 M59.74 147.19 C89.29 109.84, 124.35 71.04, 185.65 -0.01 M59.29 146.32 C87.19 111.86, 118.67 78.1, 185.23 0.77 M63.32 147.16 C101.83 101.96, 139.29 59.38, 189.98 -0.68 M64.4 146.23 C111.88 89.88, 160.02 33.46, 189.99 0.89 M68.42 146.96 C117.29 88.66, 165.95 31.74, 195.64 -1.16 M69.66 145.95 C100.38 106.57, 132.8 70.98, 196.94 0.65 M76.21 146.89 C113.14 98.23, 158.06 49.94, 202.4 -1.1 M74.04 146.04 C124.43 90.29, 174.21 32.53, 200.58 1.09 M80.9 145.62 C123.06 96.29, 168.03 45.62, 205.67 -0.13 M78.96 146.25 C130.12 89.9, 179.94 30.39, 205.96 -0.97 M83.8 146.35 C122.78 103.06, 158.8 62.93, 210.01 -1.64 M84.63 145.86 C112.93 117.95, 138.1 86.25, 211.56 0.5 M90.91 145.04 C130.79 99.47, 172.25 55.11, 219.24 1.41 M90.93 145.12 C138.03 90.22, 187.4 33.98, 217.56 -0.84 M94.3 145.28 C140.14 95.84, 188.73 40.99, 221.95 -1.34 M95.07 146.39 C123.48 114.44, 149.26 85.15, 222.74 -0.31 M100.97 146.79 C151.5 91.18, 199.68 34.58, 229.63 0.54 M101.7 145.81 C148.55 91.38, 197.67 36.1, 228.82 0.21 M107.69 147.85 C155.13 88.02, 207.8 33.65, 234.16 -1.53 M106.08 145.97 C139.47 106.42, 173.95 67.21, 233.28 -0.35 M112.39 146.19 C160.85 88.85, 207.47 31.46, 237.26 -0.2 M110.74 146.01 C145.46 106.76, 179.72 66.53, 239.07 0.97 M117.74 145.24 C160.04 98.33, 203.16 50.2, 243.33 0.2 M117.3 146.09 C145.9 111.65, 177.44 76.25, 244.7 0.75 M123.23 146.25 C156.42 107.34, 193.46 66.1, 250.28 2.18 M121.87 146.76 C149.39 114.2, 174.85 83.34, 249.42 -0.11 M128.69 146.56 C176.1 90.48, 223.76 31.6, 252.95 -0.05 M126.85 145.38 C162.52 106.94, 196.9 68.52, 253.87 -0.27 M134.38 147.71 C185.05 89.96, 231.86 28.96, 258.66 1.66 M132.28 145.52 C167.28 106, 202.72 66.29, 259.92 0.53 M136.53 145.68 C172.22 105.24, 209.59 65.43, 261.32 3.82 M137.72 145.36 C176.49 104.71, 211.99 62.89, 264.06 3.03 M143.45 147.04 C185.16 97.21, 226.79 51.31, 263.6 10.49 M143.54 145.11 C186.39 95.24, 231.04 43.66, 261.88 7.93 M147.05 147.16 C171.22 120.01, 196.77 93.4, 264.94 12.92 M148.78 145.42 C185.81 101.96, 225.23 59.38, 263.31 14.72 M154.89 146.4 C190.05 103.16, 222.62 64.81, 261.22 20.8 M154.53 146.77 C191.04 100.57, 229.66 56.66, 262.64 21.16 M157.81 144.28 C186.07 118.83, 211.61 88.9, 264.15 26.69 M159.74 145.88 C200.81 98.2, 242.5 51.12, 263.11 26.92 M165.9 147.69 C188.13 118.95, 211.78 94.94, 264.78 32.2 M164.54 145.11 C198.01 108.19, 231.62 70.82, 262.75 31.96 M168.15 145.06 C201.47 110.77, 235.72 74.25, 260.92 40.9 M170.16 146.91 C206.58 104.7, 243.4 62.03, 263.1 38.71 M176.46 146.54 C204.86 113.17, 232.15 78.67, 264.02 44.79 M176.19 145.15 C203.85 113.5, 232.04 80.11, 262.32 44.72 M181.21 146.21 C212.64 109.67, 245.97 72.14, 263.95 52.73 M180.48 145.6 C199.3 127.38, 215.28 107.44, 263.29 50.3 M187.34 146.26 C216.49 114.5, 244.13 80.98, 262.48 57.37 M186.47 145.29 C201.77 126.74, 219.26 106.8, 263.33 57.71 M189.9 147.18 C210.95 120.51, 233.59 97.16, 262.77 63.37 M191 146.92 C207.41 126.65, 223.29 107.76, 263.04 62.54 M198.1 143.92 C215.66 120.5, 237.87 99.06, 262.82 70.26 M195.72 146.3 C210.96 130.73, 224.06 115.18, 261.97 68.87 M202.9 144.13 C220.74 122.94, 238.24 103.37, 264.31 76.96 M200.86 146.73 C214.65 130.27, 229 115.62, 262.75 74.92 M209.05 144.29 C227.53 120.66, 250.06 97.09, 263.44 80.18 M206.65 146.38 C228.49 121.28, 247.88 98.31, 262.24 81.74 M210.68 147.95 C226.9 126.04, 246 108.82, 262.33 87.37 M213.08 146.77 C223.47 132.78, 235.69 119.76, 264.18 87.33 M218.66 146.61 C224.77 136.9, 237.81 124.56, 264.57 94.88 M216.67 146.86 C228.77 133.18, 240.86 118.41, 263.05 93.05 M223.5 146.22 C236.17 131.47, 249.87 113.51, 262.68 100.94 M223.52 145.7 C235.88 131.1, 247.64 116.35, 262.77 99.8 M228.14 147.58 C238.7 135.75, 246.63 122.76, 264.87 104.04 M227.51 146.17 C238.17 133.15, 251.66 120.16, 263.81 106.63 M233.39 145.27 C241.94 136.02, 247.38 127.52, 263.98 111.45 M233.92 146.04 C239.79 138.13, 246.83 131.3, 263.31 112.48 M239.49 147.87 C243.7 138.26, 251.52 131.15, 262.78 118.08 M238.31 145.44 C246.19 136.44, 254.88 126.98, 262.8 117.22 M244.17 144.13 C248.6 142.24, 253.76 138.16, 263.64 122.69 M244.86 145.22 C248.85 139.49, 253.34 133.64, 262.98 123.18 M248.19 147.15 C253.23 139.48, 261.13 133.7, 261.86 130.87 M249.2 146.4 C253.55 142.41, 257.58 137.23, 263.49 130.2 M253.89 145.04 C258.24 143.38, 259.98 139.71, 262.8 135.65 M254.77 146.33 C256.51 143.39, 259.29 141.01, 263.08 135.62 M259.92 146.41 C260.86 145.35, 262.34 143.86, 263.12 142.58 M259.73 146.51 C261.03 144.88, 262.24 143.7, 262.82 142.28 M0.22 146.08 C0.22 146.08, 0.22 146.08, 0.22 146.08 M0.22 146.08 C0.22 146.08, 0.22 146.08, 0.22 146.08 M6.24 146.31 C3.5 143.78, 2.3 143.35, 0.4 140.65 M5.57 145.32 C3.97 143.96, 2.24 142.24, -0.18 140.82 M11.2 146.66 C8.77 144.51, 6.54 142.7, 0.05 135.9 M12.81 146.35 C7.66 141.36, 2.78 137.72, 0.11 135.17 M20.21 145.07 C14.26 140.92, 7.14 133.38, -0.54 128.31 M17.95 146.74 C14.13 142.13, 8.34 137.8, 0.49 129.53 M22.44 147.61 C18.5 141.34, 13.1 134.92, -0.58 126.07 M23.54 145.92 C18.25 138.87, 10.17 134.23, 0.6 124.61 M31.84 144.99 C24.53 140.44, 14.45 133.11, -1.82 117.38 M30.26 146.63 C19.36 136.29, 6.53 126.35, 0.68 118.7 M36.62 144.15 C22.2 132.81, 5.73 120.52, 1.32 113.74 M35.51 145.7 C24.75 137.71, 15.26 127.83, -0.22 113.27 M43.8 147.89 C26.58 132.31, 14.61 121.52, 0.55 108.89 M41.77 146.79 C25.92 131.5, 10.86 118.9, -1.2 108 M50.75 146.47 C37.41 136.76, 24.47 123.6, -1.52 102.35 M48.36 146.22 C32.2 130.55, 14.58 115.85, 0.62 103.5 M54.24 145.75 C33.11 126.09, 10.59 108.65, -0.52 98.28 M53.79 146.31 C33.83 126.7, 11.87 109.6, -0.86 98.4 M61.58 145.34 C38.18 128.51, 14.52 105.28, -1.55 92.96 M61.17 145.81 C41.8 128.65, 20.87 111.9, -0.54 92.07 M68.08 144.23 C42.53 124.46, 15.68 100.57, -0.34 85.71 M66.97 146.67 C48.05 130.43, 28.19 112.97, -1.14 87.75 M71.95 146.19 C44.9 122.8, 18.25 98.3, 1.55 82.34 M74.18 145.69 C56.55 130.64, 38.02 116.23, -0.99 83.19 M79.78 145.38 C51.38 119.39, 18.68 92.77, 0.31 78.72 M79.09 145.39 C48.11 120.11, 18.55 92.72, -0.28 76.47 M85.69 144.52 C64.84 127.48, 43.5 109.64, -1.09 72.97 M84.69 146.3 C67.45 129.7, 49.2 113.13, -0.66 71.4 M92.32 147.02 C70.83 130.06, 50.57 111.31, 2.19 67.6 M91.01 146.41 C55.55 116.01, 23.04 85.93, 0.08 65.88 M98.43 144.57 C61.34 115.14, 24.94 82.14, -1.59 59.07 M96.91 144.95 C59.88 113.42, 21.41 80.44, 0.87 60.69 M103.72 144.62 C81.24 122.81, 55.6 101.16, 2.08 55.31 M104.23 145.05 C69.22 116.62, 34.69 86.29, 0.43 55.17 M108.34 145.93 C78.36 118.32, 48.29 92.06, -1.27 48.57 M109.61 145.53 C71.82 113.84, 34.83 79.4, -0.62 51.39 M114.03 146.74 C74.35 109.2, 32.1 72.99, -0.21 44.91 M114.83 146.34 C82.78 116.69, 48.17 87.24, -0.65 45.77 M123.1 146.95 C74.38 104.72, 28.28 62.89, -0.68 41.11 M122.19 146.84 C87.1 115.62, 52.31 84.54, -0.97 39.26 M128.08 145.66 C78.86 102.78, 24.78 60.55, 0.92 34.13 M127.29 144.71 C85.16 107.44, 41.11 68.32, -0.71 34.99 M134.44 146.66 C84.02 104.05, 35.93 59.7, -1.57 30.05 M134.17 145.54 C93.27 111.28, 55.45 75.64, -0.7 28.43 M142.23 148.01 C93.57 105.75, 50.65 68.56, -1.16 25.46 M140.16 145.65 C99.69 112.97, 60.61 77.74, -0.43 25.03 M145.1 144.17 C90.14 96.77, 31.68 45.54, -0.94 20.47 M147.17 146.51 C111.22 114.63, 74.89 84.89, 0.06 18.42 M151.51 146.18 C116.4 113.66, 80.98 85.52, 0.67 12.24 M152.17 146.05 C95.8 93.9, 37.3 44.01, -0.58 13.95 M159.46 145.34 C110.76 102.46, 58.68 61.26, -0.89 7.27 M158.62 146.43 C113.39 105.31, 67.66 65.43, 0.45 7.23 M163.6 144.51 C102.73 90.63, 40.25 36.1, 1.32 3.8 M165.34 145.27 C129.1 114.45, 92.11 82.31, 0.56 2.86 M171.07 145.36 C122.35 102.63, 71.26 60.69, 2.24 -1.89 M171.66 145.98 C103.52 89.12, 38.92 32.6, 1.74 -0.87 M178.15 145.51 C123.77 99.56, 68.15 55.3, 9.19 -0.01 M176.13 145.12 C135.72 109.54, 94.58 73.51, 6.98 -0.97 M183.91 147.65 C124.35 96.1, 68.05 45.53, 11.85 -2.7 M183.12 146.87 C120.02 91.56, 56.06 36.31, 13.82 -1.74 M187.2 146.43 C124.03 89.18, 58.89 35.7, 18.27 -0.57 M189.08 145.9 C154.73 113.03, 118.45 82.56, 19.78 -2.11 M193.44 144.25 C130.62 87.35, 63.86 32.16, 26.11 -0.93 M194.66 146.68 C147.96 104.49, 100.74 63.31, 25.5 -1.9 M201.41 145.02 C137.8 89.89, 72.3 32.04, 32.84 -1.77 M201.19 146.37 C143.53 96.15, 87.43 46.98, 31.51 -1.36 M206.23 146.06 C167.6 112.03, 127.02 79.31, 39.71 -1.34 M207.06 145.72 C171.27 112.55, 135.34 80.83, 38.1 -1.15 M214.37 145.36 C154.6 95.19, 93.78 41.47, 44.39 -2.92 M213.49 145.36 C149.37 92.32, 86.64 36.93, 43.43 -1.69 M218.39 143.99 C156.14 90.66, 93.97 39.61, 49.14 -0.63 M218.42 145.03 C169.25 103.32, 117.74 58.1, 50.99 -1.76 M226.05 146.41 C165.5 92.15, 104.24 38.57, 56.2 -1.04 M226.15 146.58 C173.96 101.8, 123.59 56.83, 54.96 -0.98 M231.7 145.69 C174.43 98.56, 117.89 46.41, 62.47 -2.32 M232.62 146.26 C178.36 100.08, 124.91 52.49, 61.8 -1.99 M238.06 144.53 C186.7 100.68, 138.81 56.87, 68.72 -2.12 M238.07 146.54 C193.78 106.93, 150.88 69.02, 68.72 -0.9 M245.51 147.12 C201.75 109, 158.68 70.81, 73.91 -0.55 M243.4 146.37 C201.41 110.15, 158.86 72.54, 74.62 -1.3 M249.21 146.11 C194.88 98.96, 139.65 49.65, 81.64 -1.52 M250.13 146.4 C215.47 115.04, 181.82 85.38, 79.82 -1.69 M256.12 145.15 C220.73 117.57, 185.47 87.19, 86.93 -1.71 M255.28 145.96 C190.42 90.32, 123.13 32.46, 86.08 -2.22 M259.99 144.64 C193.76 87.64, 126.11 29.4, 93.31 -2.32 M260.21 145.26 C218.47 108.49, 178.58 72.64, 93.21 -0.89 M262.37 141.01 C217.36 101.15, 176.2 63.56, 99.59 -1.49 M260.77 139.79 C199.95 87.73, 137.95 34.48, 99.04 -2.03 M262.51 135.82 C207.39 87.6, 152.17 38.45, 106.32 -2.49 M260.86 135.59 C209.33 89.81, 159.3 45.24, 104.37 -1.95 M262.79 128.04 C212.92 86.25, 162.4 40.92, 109.82 -3.17 M260.5 129.86 C203.52 79.37, 147.4 31.22, 111.97 -1.28 M260.26 123.34 C202.63 71.7, 143 21.16, 115.91 -2.9 M262.15 123.6 C214.13 81.64, 165.7 38.66, 116.41 -2.45 M262.36 117.96 C228.31 94.55, 199.97 67.92, 122.65 -0.25 M261.8 118.4 C216.33 79.77, 170.84 39.15, 123.78 -0.81 M263.32 113.79 C227.96 85.93, 190.44 52.76, 130.85 -0.86 M261.5 112.66 C211.39 69.8, 160.71 26.18, 129.78 -0.71 M263.13 109.37 C237.5 84.11, 212.11 60.55, 133.35 -1.35 M260.37 108.85 C229.87 78.59, 196.03 50.81, 135.99 -2.16 M260.32 103.35 C233.48 77.74, 205.54 56.03, 142.14 -3.26 M260.67 102.14 C219.35 66.25, 176.71 30.69, 141.26 -0.44 M262.79 97.44 C227.87 70.66, 196.9 42.76, 145.86 -3.33 M260.88 97.57 C217.08 57.36, 172.66 20.61, 146.49 -1.32 M260.6 91.79 C227.5 66.4, 197.78 37.48, 152.64 -0.19 M261.85 92.72 C227.21 62.48, 191.61 30.53, 153.8 -1.4 M260.81 88.03 C232.28 62.99, 205.84 39.24, 159.67 -0.66 M261.83 86.83 C239.06 67.9, 218.19 49.06, 159.3 -1.26 M260.28 80.6 C243.38 65.18, 223.94 47.4, 164.23 -1.68 M260.61 81.48 C227.54 52.83, 195.68 23.5, 166.47 -1.14 M260.45 75.76 C227.09 46.79, 194.32 19.01, 172.8 -2.08 M260.59 75.75 C239.04 55.25, 215.73 35.11, 172.51 -1.52 M260.24 70.98 C245.45 56.92, 226.8 41.44, 176.56 -3.03 M260.88 70.88 C237.28 49.64, 211.48 28.25, 178.17 -1.32 M262.74 65.93 C229.69 40.69, 198.76 13.22, 184.29 -0.61 M260.39 65.38 C240.45 45.81, 218.73 27.83, 183.86 -1.26 M260.15 61.87 C235.94 39.68, 209.88 15.68, 189.83 -2.18 M261.94 59.76 C232.66 34.86, 205.48 10.66, 191.45 -2.04 M260.5 56.6 C245.42 41.89, 228.25 24.66, 197.23 -2.25 M261.32 55.64 C243.35 39.62, 224.9 23.54, 196.66 -0.95 M260.49 47.9 C249.1 41.21, 239.26 28.27, 203.76 -0.31 M261.43 50.38 C244.11 33.23, 225.89 18.24, 202.42 -1.5 M260.31 44.5 C244.36 27.32, 225.86 10.5, 209.48 -3.26 M261.32 44.33 C245.06 29.56, 229.8 15.79, 207.62 -2.62 M260.47 37.45 C251.32 28.51, 239.51 22.02, 216.09 0.08 M262.35 39.37 C252.25 31.39, 242.44 22.13, 214.33 -1.01 M260.56 35.12 C245.68 18.5, 228.48 5.23, 220.44 0.49 M261.21 34.17 C245.6 19.02, 230.05 5.44, 220.54 -0.3 M260.12 26.6 C254.82 20.48, 245.39 15.46, 225.61 -1.43 M262.07 28.76 C248.98 18.34, 236.54 8.21, 227.55 -0.68 M262.17 25.3 C253.84 13.92, 243.61 6.46, 234.02 -3.14 M262.4 24.4 C253.29 14.84, 243.32 7.27, 232.32 -1.55 M262.25 17.14 C251.52 9.47, 243.71 5.41, 238.9 -0.56 M261.31 18.94 C254.74 11.18, 246.98 6.86, 239.28 -1.69 M263.55 14.65 C256.48 10.25, 254.13 4.55, 245.18 -0.61 M260.92 13.2 C257.28 9.6, 255.55 6.42, 244.47 -0.61 M262.02 6.86 C258.33 4.77, 255.59 2.83, 252.49 -1.49 M261.2 7.6 C258.46 5.29, 256.2 2.75, 251.39 -0.89 M262.11 2.67 C259.78 1.52, 258.66 -0.18, 257.66 -1.51 M261.42 2.41 C260.45 1.47, 259.37 0.08, 257.12 -1.71" stroke="#eebefa" stroke-width="0.5" fill="none"></path><path d="M0.98 0.46 C95.56 -2.5, 187.89 -2.28, 262.03 0.71 M-0.41 0.47 C55.95 0.66, 112.06 0.51, 260.71 0.74 M259.49 -1.37 C259.65 45.71, 261.51 90, 261.84 144.68 M259.81 0.48 C259.93 50.04, 260.98 99.99, 261.58 145.84 M261.35 146.97 C160.02 146.35, 58.03 147.81, -1.22 145.36 M260.87 146.02 C159.18 145.9, 58.54 145.93, -0.48 145.8 M1.58 147.75 C-2.42 105.39, -3.01 66.35, -1.88 0.86 M-0.8 146.64 C0.49 87.13, -0.15 30.95, -0.64 -0.3" stroke="#1e1e1e" stroke-width="1" fill="none"></path></g><g transform="translate(116.15310233092146 158.10617934021138) rotate(0 20 12.5)"><text x="20" y="0" font-family="Virgil, Segoe UI Emoji" font-size="20px" fill="#1e1e1e" text-anchor="middle" style="white-space: pre;" direction="ltr" dominant-baseline="text-before-edge">Flow</text></g><g transform="translate(124.17649403084806 361.8805818864307) rotate(0 19.45833396911621 12.5)"><text x="19.45833396911621" y="0" font-family="Virgil, Segoe UI Emoji" font-size="20px" fill="#1e1e1e" text-anchor="middle" style="white-space: pre;" direction="ltr" dominant-baseline="text-before-edge">Flex</text></g><g transform="translate(406.80409418860995 159.2629117961833) rotate(0 27.88541603088379 12.5)"><text x="27.88541603088379" y="0" font-family="Virgil, Segoe UI Emoji" font-size="20px" fill="#1e1e1e" text-anchor="middle" style="white-space: pre;" direction="ltr" dominant-baseline="text-before-edge">Table</text></g><g transform="translate(423.74008237973 363.93696824618746) rotate(0 20.0625 12.5)"><text x="20.0625" y="0" font-family="Virgil, Segoe UI Emoji" font-size="20px" fill="#1e1e1e" text-anchor="middle" style="white-space: pre;" direction="ltr" dominant-baseline="text-before-edge">Grid</text></g><g stroke-linecap="round"><g transform="translate(203.07425967278073 183.79944327720523) rotate(0 -21.643427780894342 1.2148330815388997)"><path d="M0.03 0.55 C-3.89 1.84, -16.49 9.6, -23.59 8.48 C-30.7 7.36, -39.38 -3.56, -42.61 -6.17 M-1.41 -0.2 C-5.48 0.71, -17.59 7.7, -24.57 6.94 C-31.55 6.19, -40.28 -2.5, -43.32 -4.73" stroke="#267e36" stroke-width="1" fill="none"></path></g><g transform="translate(203.07425967278073 183.79944327720523) rotate(0 -21.643427780894342 1.2148330815388997)"><path d="M-31.65 -0.83 C-34.38 -1.83, -38.5 -3.3, -44.05 -5.54 M-32.23 -0.45 C-35.14 -1.41, -37.46 -2.15, -43.87 -4.44" stroke="#267e36" stroke-width="1" fill="none"></path></g><g transform="translate(203.07425967278073 183.79944327720523) rotate(0 -21.643427780894342 1.2148330815388997)"><path d="M-36.79 5.39 C-38.06 2.58, -40.68 -0.71, -44.05 -5.54 M-37.37 5.77 C-39.11 3.36, -40.24 1.17, -43.87 -4.44" stroke="#267e36" stroke-width="1" fill="none"></path></g></g><mask></mask><g transform="translate(206.57947633329854 165.9036025541635) rotate(0 47.88541793823242 20)"><text x="47.88541793823242" y="0" font-family="Virgil, Segoe UI Emoji" font-size="16px" fill="#267e36" text-anchor="middle" style="white-space: pre;" direction="ltr" dominant-baseline="text-before-edge">The default</text><text x="47.88541793823242" y="20" font-family="Virgil, Segoe UI Emoji" font-size="16px" fill="#267e36" text-anchor="middle" style="white-space: pre;" direction="ltr" dominant-baseline="text-before-edge">layout !</text></g><g stroke-linecap="round" transform="translate(22.56326060089441 25.416003054499697) rotate(0 111.37483359149428 16.805921181325232)"><path d="M0.16 -1.37 C77.71 0.72, 151.24 -0.4, 224.05 -1.1 M224.26 -0.49 C224 10.06, 223.36 18.54, 222.22 33.34 M224.03 32.06 C161.75 36.61, 102.75 35.73, -1.11 34.85 M1.27 33.26 C-0.81 20.51, 1.65 11.89, 0.57 -0.92" stroke="#1e1e1e" stroke-width="1.5" fill="none" stroke-dasharray="8 9"></path></g><g stroke-linecap="round" transform="translate(24.55718345291575 66.14899846008461) rotate(0 111.37483359149428 30.19368890204197)"><path d="M1.3 0.28 C60.14 0.69, 124.75 0.42, 222.24 -0.33 M224.07 0.98 C223.88 17.49, 222.68 33.95, 222.18 60.57 M222.21 61.8 C138.48 59.19, 51.22 59.89, 0.58 60.01 M-0.88 58.5 C1.2 39.4, 0.19 16.07, 1.03 -0.18" stroke="#1e1e1e" stroke-width="1.5" fill="none" stroke-dasharray="8 9"></path></g><g stroke-linecap="round"><g transform="translate(32.81772098271972 38.3916944625862) rotate(0 74.97045373730543 -1.5167337120094118)"><path d="M-1.83 -0.98 C35.01 -2.28, 66.44 -2.13, 151.77 -1.91" stroke="#1e1e1e" stroke-width="1.5" fill="none" stroke-dasharray="1.5 7"></path></g></g><mask></mask><g stroke-linecap="round"><g transform="translate(32.81772098271972 52.19153849593317) rotate(0 45.80098513369512 0.08075725618979845)"><path d="M1.51 -1.28 C28.03 0.06, 56.92 1.95, 90.09 1.32" stroke="#1e1e1e" stroke-width="1.5" fill="none" stroke-dasharray="1.5 7"></path></g></g><mask></mask><g stroke-linecap="round"><g transform="translate(34.52679771302405 80.10645842423605) rotate(0 27.250975209990088 0.21755356741446974)"><path d="M-0.6 -0.38 C13.25 1.57, 26.69 1.09, 55.1 -0.46" stroke="#1e1e1e" stroke-width="1.5" fill="none" stroke-dasharray="1.5 7"></path></g></g><mask></mask><g stroke-linecap="round"><g transform="translate(36.235874443328385 94.91845675353966) rotate(0 72.37276012469465 0.49394174795794754)"><path d="M-0.33 1.51 C33.65 1.59, 69.26 0.95, 145.08 -0.53" stroke="#1e1e1e" stroke-width="1.5" fill="none" stroke-dasharray="1.5 7"></path></g></g><mask></mask><g stroke-linecap="round"><g transform="translate(36.805566686763086 115.42737751719073) rotate(0 53.73867808795262 -1.051116754729975)"><path d="M-0.49 1.32 C31.38 -0.94, 61.18 -2.94, 107.97 -3.42" stroke="#1e1e1e" stroke-width="1.5" fill="none" stroke-dasharray="1.5 7"></path></g></g><mask></mask><g stroke-linecap="round" transform="translate(19.145107140285745 253.77182536879332) rotate(0 121.62929397331993 28.44879733898432)"><path d="M0.81 0.56 C91.62 -1.76, 182.39 -1.8, 243.41 1.37 M244.9 1.09 C243.37 19.99, 244.18 43.23, 242.83 58.08 M241.7 58.2 C155.44 56.48, 65.69 56.86, -0.15 57.27 M0.5 55.72 C-0.5 32.83, 2.09 9.95, 0.09 -1.59" stroke="#1e1e1e" stroke-width="1.5" fill="none" stroke-dasharray="8 9"></path></g><g stroke-linecap="round" transform="translate(24.272337331198514 259.7596710728367) rotate(0 27.914919928302993 21.3634591288033)"><path d="M0.38 -0.53 C20.15 -0.76, 41.03 1.46, 57.31 -1.8 M56.45 -1.29 C57.61 12.16, 55.75 24.16, 57.1 42.38 M56.54 43.3 C40.62 44.2, 27.08 43.62, 1.93 41.22 M-0.92 41.22 C1.56 27.59, -0.02 14.49, -1.87 -1.28" stroke="#1e1e1e" stroke-width="1.5" fill="none" stroke-dasharray="1.5 7"></path></g><g stroke-linecap="round" transform="translate(103.6110979514558 260.7596710728367) rotate(0 46.429917839932386 22.502843615672788)"><path d="M-0.27 -0.57 C31.17 1.9, 63.46 -1.56, 92.24 1.64 M94.29 0.67 C92.57 17.13, 94.27 31.54, 91.98 43.12 M91.94 46.03 C57.49 45.72, 24.41 43.77, 0.24 45.5 M1.67 43.19 C0.3 32.56, -1.66 22, 1.07 1.08" stroke="#1e1e1e" stroke-width="1.5" fill="none" stroke-dasharray="1.5 7"></path></g><g stroke-linecap="round" transform="translate(220.24646907275405 262.468747803141) rotate(0 18.514997911629507 21.363459128803242)"><path d="M0.18 1.65 C11.61 -1.7, 19.64 1.74, 38.12 0.62 M36.6 1.19 C38.6 9.7, 36.45 18.22, 38.61 43.43 M36.85 43.18 C26.79 41.41, 12.93 43.42, -1.17 41.8 M0.09 41.14 C-2.23 31.84, 0.72 24.6, -0.71 -0.6" stroke="#1e1e1e" stroke-width="1.5" fill="none" stroke-dasharray="1.5 7"></path></g><g stroke-linecap="round" transform="translate(336.385073726359 221.390134796055) rotate(0 99.12645035764689 63.80553126469243)"><path d="M1.48 -1.8 C53.19 0, 108.72 -1.02, 196.96 1.43 M199.52 -0.35 C197.09 40.69, 199.56 85.86, 198.83 126.69 M200.18 126.11 C128.82 128.56, 57.75 127.14, -1.5 129.28 M-1.87 126.33 C1.02 101.99, -0.77 73.6, 1.78 -1.11" stroke="#1e1e1e" stroke-width="1.5" fill="none" stroke-dasharray="8 9"></path></g><g stroke-linecap="round" transform="translate(340.94261167383706 225.94767274353308) rotate(0 29.054304415172282 26.49068931971604)"><path d="M-0.62 1.64 C23.31 1.14, 43.16 1.96, 58.78 -0.43 M57.23 -1.89 C60.02 19.74, 59.02 37.14, 59.14 52.8 M58.35 53.48 C38.19 51.62, 19.11 54.21, -1.81 53.07 M1.07 54.07 C-0.22 40.69, 2.27 28.49, -0.25 1.52" stroke="#1e1e1e" stroke-width="1.5" fill="none" stroke-dasharray="1.5 7"></path></g><g stroke-linecap="round" transform="translate(340.9426116738375 286.05020442589966) rotate(0 29.054304415172282 26.49068931971604)"><path d="M1.09 0.62 C10.9 0.96, 25.05 -0.91, 59.29 1.27 M59.69 0.71 C58.45 14.04, 58.9 29.75, 58.56 54.91 M56.94 52.06 C43.55 54.79, 30.18 53.22, -1.59 51.11 M-0.71 52.39 C1.49 39.38, -0.53 29.52, 0.18 1.49" stroke="#1e1e1e" stroke-width="1.5" fill="none" stroke-dasharray="1.5 7"></path></g><g stroke-linecap="round" transform="translate(407.0269119122688 226.23251886525054) rotate(0 29.054304415172282 56.68437822175798)"><path d="M-1.29 1.43 C22.86 -0.61, 45.56 1.09, 57.76 -0.88 M58.68 -0.92 C60.03 23.14, 59.46 48.58, 56.6 113.61 M56.61 115.03 C37.41 113.19, 18.76 111.23, -1.28 114.44 M1.78 112.26 C0.16 74.73, 0.58 34.54, 1.35 -1.39" stroke="#1e1e1e" stroke-width="1.5" fill="none" stroke-dasharray="1.5 7"></path></g><g stroke-linecap="round" transform="translate(472.5415199072652 227.94159559555465) rotate(0 29.054304415172282 26.49068931971604)"><path d="M0.67 -0.43 C20.42 0.85, 38.12 -1.3, 56.22 1.58 M59.14 -0.18 C58.71 19.7, 56.75 35.78, 58.61 51.81 M56.29 53.07 C41.77 51.59, 27.33 54.54, 1.08 52.27 M-0.25 54.5 C-0.29 40.15, 0.88 22.96, -1.53 1.82" stroke="#1e1e1e" stroke-width="1.5" fill="none" stroke-dasharray="1.5 7"></path></g><g stroke-linecap="round" transform="translate(472.5415199072652 289.4683578865079) rotate(0 29.054304415172282 26.49068931971604)"><path d="M1.19 1.27 C21.25 -0.76, 41.32 1.71, 58.82 0.57 M58.56 1.93 C56.88 13.68, 58.88 25.72, 57.18 51.48 M56.52 51.11 C34.55 54.08, 14.65 52.29, -0.6 54.76 M0.18 54.47 C1.42 38.64, -1.47 28.9, -0.85 -1.48" stroke="#1e1e1e" stroke-width="1.5" fill="none" stroke-dasharray="1.5 7"></path></g><g stroke-linecap="round" transform="translate(322.2213806475768 20.288772863586928) rotate(0 112.79906420008115 61.81160841267079)"><path d="M-0.3 -0.76 C61.18 0.13, 126.19 -0.74, 224.81 0.88 M224.09 0.24 C226.38 34.8, 224.95 70.44, 227.26 121.81 M224.5 124.54 C157.83 121.2, 87.69 123.34, -0.95 123.41 M1.35 122.24 C-1.64 78.96, -0.96 29.17, 1.05 -1.9" stroke="#1e1e1e" stroke-width="1.5" fill="none" stroke-dasharray="8 9"></path></g><g stroke-linecap="round"><g transform="translate(321.0819961607069 47.634000548455106) rotate(0 112.48501501962505 -0.27006163711311615)"><path d="M-1.61 1.35 C83.01 0.52, 164.01 0.08, 226.58 -1.89" stroke="#1e1e1e" stroke-width="1.5" fill="none" stroke-dasharray="1.5 7"></path></g></g><mask></mask><g stroke-linecap="round"><g transform="translate(321.0819961607069 73.83984374645388) rotate(0 114.7812861407213 -2.10769558847921)"><path d="M0.6 0.49 C57.39 -1.53, 116.18 -2.9, 228.96 -4.7" stroke="#1e1e1e" stroke-width="1.5" fill="none" stroke-dasharray="1.5 7"></path></g></g><mask></mask><g stroke-linecap="round"><g transform="translate(322.2213806475768 102.88199386566953) rotate(0 112.21940595118656 -0.32269964513095317)"><path d="M-0.79 0.88 C85.12 -0.6, 172.21 -2.71, 225.23 -0.71" stroke="#1e1e1e" stroke-width="1.5" fill="none" stroke-dasharray="1.5 7"></path></g></g><mask></mask><g stroke-linecap="round"><g transform="translate(322.2213806475768 124.53029911619024) rotate(0 111.36219407938876 -1.0568167542197493)"><path d="M-0.16 0.39 C75.24 -2.85, 147.36 -1.68, 222.88 -2.5" stroke="#1e1e1e" stroke-width="1.5" fill="none" stroke-dasharray="1.5 7"></path></g></g><mask></mask><g stroke-linecap="round"><g transform="translate(391.7724515304433 21.42815735045633) rotate(0 -0.9251341141466582 60.46711950370499)"><path d="M1.93 -1.51 C-0.67 42.94, -2.88 83.96, -3.78 122.44" stroke="#1e1e1e" stroke-width="1.5" fill="none" stroke-dasharray="1.5 7"></path></g></g><mask></mask><g stroke-linecap="round"><g transform="translate(445.99613625574443 21.99784959389126) rotate(0 -1.9278020776516769 60.96669928564347)"><path d="M0.24 0.5 C-0.74 38.21, -1.8 79.96, -4.09 121.43" stroke="#1e1e1e" stroke-width="1.5" fill="none" stroke-dasharray="1.5 7"></path></g></g><mask></mask><g stroke-linecap="round"><g transform="translate(500.8624390002203 21.99784959389126) rotate(0 -3.3738279100925865 57.28124292770522)"><path d="M-1.17 -0.92 C-2.26 28.05, -3.47 52.85, -5.57 115.49" stroke="#1e1e1e" stroke-width="1.5" fill="none" stroke-dasharray="1.5 7"></path></g></g><mask></mask></svg>