<svg version="1.1" xmlns="http://www.w3.org/2000/svg" viewBox="0 0 424.6673428584186 289.82892813507976" width="1274.0020285752557" height="869.4867844052393">
  <!-- svg-source:excalidraw -->
  
  <defs>
    <style class="style-fonts">
      @font-face {
        font-family: "Virgil";
        src: url("https://excalidraw.com/Virgil.woff2");
      }
      @font-face {
        font-family: "Cascadia";
        src: url("https://excalidraw.com/Cascadia.woff2");
      }
    </style>
    
  </defs>
  <rect x="0" y="0" width="424.6673428584186" height="289.82892813507976" fill="#ffffff"></rect><g stroke-linecap="round" transform="translate(10 62.80063252386071) rotate(0 202.3336714292093 108.51414780560953)"><path d="M0 0 C0 0, 0 0, 0 0 M0 0 C0 0, 0 0, 0 0 M-0.26 6.4 C0.36 4.56, 1.62 3.96, 4.99 0.36 M-0.26 6.4 C0.94 4.63, 2.67 3.42, 4.99 0.36 M0.13 12.04 C4.6 9.29, 6.99 3.37, 10.63 -0.03 M0.13 12.04 C2.31 8.83, 6.16 5.86, 10.63 -0.03 M-0.13 18.44 C3.93 13.96, 11.44 7.03, 15.62 0.33 M-0.13 18.44 C4.4 12.91, 9.71 7.88, 15.62 0.33 M0.27 24.08 C6.27 15.85, 16.62 5.89, 21.26 -0.07 M0.27 24.08 C5.46 19.43, 10.05 13.58, 21.26 -0.07 M0 30.48 C9.77 20.22, 21.76 4.98, 26.25 0.29 M0 30.48 C5.89 24.47, 11.22 18.5, 26.25 0.29 M-0.26 36.88 C11.07 24.15, 21.65 9.72, 31.89 -0.1 M-0.26 36.88 C7.68 28.16, 15.42 19.06, 31.89 -0.1 M0.14 42.52 C11 28.67, 24.38 12.79, 36.88 0.26 M0.14 42.52 C13.1 28.37, 26.42 13.44, 36.88 0.26 M-0.12 48.92 C12.68 33.07, 28.94 13.94, 42.52 -0.14 M-0.12 48.92 C10.77 36.29, 22.37 22.43, 42.52 -0.14 M0.27 54.56 C14.01 37.09, 29.64 22.01, 47.51 0.22 M0.27 54.56 C14.47 36.53, 29.33 19.67, 47.51 0.22 M0.01 60.96 C10.24 48.03, 20.06 36.75, 53.15 -0.17 M0.01 60.96 C18.12 41.26, 33.86 22.39, 53.15 -0.17 M-0.25 67.36 C17.1 49.45, 33 29.81, 58.14 0.19 M-0.25 67.36 C15.91 49.97, 32.54 29.86, 58.14 0.19 M0.14 73 C17.28 51.67, 35.2 33.95, 63.78 -0.21 M0.14 73 C17.25 51.78, 34.19 32.63, 63.78 -0.21 M-0.12 79.4 C23.79 52.96, 46.32 28.49, 68.77 0.15 M-0.12 79.4 C14.68 60.96, 30 44.44, 68.77 0.15 M0.28 85.04 C13.88 66.5, 32.34 51.02, 74.41 -0.24 M0.28 85.04 C19.57 61.71, 40.49 39.38, 74.41 -0.24 M0.01 91.44 C27.57 59.63, 57.97 22.15, 79.4 0.12 M0.01 91.44 C29.54 59.76, 56.79 28.08, 79.4 0.12 M-0.25 97.84 C32.21 61.96, 65.64 21.76, 85.04 -0.28 M-0.25 97.84 C25.64 68.28, 51.78 39.81, 85.04 -0.28 M0.15 103.48 C21.84 82.35, 41.18 60.63, 90.03 0.08 M0.15 103.48 C27.29 73.46, 54.35 42.11, 90.03 0.08 M-0.11 109.88 C23.46 76.98, 51.57 48.11, 95.67 -0.31 M-0.11 109.88 C18.52 87.51, 39.43 64.81, 95.67 -0.31 M0.28 115.52 C29.39 82.44, 61.56 47.15, 100.66 0.05 M0.28 115.52 C26.7 85.33, 52.79 55.22, 100.66 0.05 M0.02 121.92 C27.49 85.12, 59.91 51.19, 106.3 -0.34 M0.02 121.92 C37.07 80.46, 71.83 39.83, 106.3 -0.34 M-0.24 128.32 C38.47 82.2, 77.35 39.34, 111.29 0.02 M-0.24 128.32 C32.87 90.32, 65.2 52.09, 111.29 0.02 M0.15 133.96 C40.96 89.8, 78.73 41.85, 116.27 0.38 M0.15 133.96 C27.65 102.44, 56.33 70.87, 116.27 0.38 M-0.11 140.36 C40.85 91.29, 81.95 44.43, 121.92 -0.02 M-0.11 140.36 C27.27 108.48, 57.5 74.14, 121.92 -0.02 M0.29 146 C33.86 108.89, 63.3 70.37, 126.91 0.34 M0.29 146 C47.92 90.05, 96.68 33.44, 126.91 0.34 M0.02 152.4 C44.66 100.02, 88.22 49.15, 132.55 -0.05 M0.02 152.4 C47.45 98.57, 95.22 43.82, 132.55 -0.05 M-0.24 158.8 C56.29 95.63, 107.18 34.2, 137.54 0.31 M-0.24 158.8 C35.08 120.24, 69 80.25, 137.54 0.31 M0.16 164.44 C32.3 127.02, 67.74 87.28, 143.18 -0.09 M0.16 164.44 C44.4 112.12, 87.5 62.23, 143.18 -0.09 M-0.1 170.84 C58.03 105.64, 113.26 40.63, 148.17 0.27 M-0.1 170.84 C31.49 134.92, 62.35 98.03, 148.17 0.27 M0.29 176.48 C34.02 134.53, 70.14 95.78, 153.81 -0.12 M0.29 176.48 C60.72 106.75, 120.34 38.14, 153.81 -0.12 M0.03 182.88 C32.55 142.75, 65.88 105.68, 158.8 0.24 M0.03 182.88 C44.67 132.44, 89.35 81.95, 158.8 0.24 M-0.23 189.27 C55.4 123.81, 110.17 61.18, 164.44 -0.16 M-0.23 189.27 C43.47 138.01, 88.55 85.95, 164.44 -0.16 M0.16 194.92 C59.88 128.2, 118.33 61.54, 169.43 0.2 M0.16 194.92 C60.6 125.03, 120.21 55.92, 169.43 0.2 M-0.1 201.32 C48.02 144.94, 98.96 89.12, 175.07 -0.19 M-0.1 201.32 C46.79 146.62, 94.63 91.17, 175.07 -0.19 M0.3 206.96 C37.8 163.98, 75.51 119.33, 180.06 0.17 M0.3 206.96 C66.07 131.7, 131.91 56.51, 180.06 0.17 M0.03 213.36 C40.92 167.99, 79.12 121.93, 185.7 -0.23 M0.03 213.36 C54.15 150.33, 107.91 87.33, 185.7 -0.23 M1.74 217.49 C59.96 155.01, 113.6 90.59, 190.69 0.13 M1.74 217.49 C64.18 145.44, 128.15 74.58, 190.69 0.13 M7.38 217.1 C81.79 132.39, 153.86 50.55, 196.33 -0.26 M7.38 217.1 C58.95 155.92, 110.49 96.45, 196.33 -0.26 M12.37 217.46 C59.81 165.6, 106.64 110.36, 201.32 0.1 M12.37 217.46 C70.85 149.66, 128.49 83.87, 201.32 0.1 M18.01 217.06 C68.62 160.08, 119.74 99.58, 206.96 -0.3 M18.01 217.06 C79.42 147.73, 142.17 75.61, 206.96 -0.3 M23 217.42 C96.5 133.73, 169.54 50.31, 211.95 0.06 M23 217.42 C65.62 165.85, 109.67 116.2, 211.95 0.06 M27.99 217.78 C78.26 162.75, 124.82 109.17, 217.59 -0.33 M27.99 217.78 C71.54 168.8, 113.37 118.99, 217.59 -0.33 M33.63 217.39 C107.87 132.13, 177.56 50.53, 222.58 0.03 M33.63 217.39 C86.46 155.66, 138.5 94.34, 222.58 0.03 M38.62 217.75 C101.17 145.22, 163.48 72.93, 228.22 -0.36 M38.62 217.75 C94.67 153.33, 151.1 88.91, 228.22 -0.36 M44.26 217.35 C116.96 132.26, 191.66 48.18, 233.21 0 M44.26 217.35 C104.47 148.4, 164.44 79.5, 233.21 0 M49.25 217.71 C90.88 172.99, 134.02 124.49, 238.19 0.36 M49.25 217.71 C112.36 145.76, 175.43 73.82, 238.19 0.36 M54.89 217.32 C112.48 150.15, 173.53 81.59, 243.84 -0.04 M54.89 217.32 C99.29 165.43, 145.71 112.35, 243.84 -0.04 M59.88 217.68 C103.67 166.99, 148.82 111.93, 248.82 0.32 M59.88 217.68 C113.03 154.43, 166.42 92.36, 248.82 0.32 M65.52 217.28 C127.53 146.41, 188.97 75.49, 254.47 -0.07 M65.52 217.28 C112.91 163.86, 158.18 112.69, 254.47 -0.07 M70.51 217.64 C116.99 162.57, 164.8 109.44, 259.45 0.29 M70.51 217.64 C140.68 137.01, 212.54 53.83, 259.45 0.29 M76.15 217.25 C141.77 138.44, 209.49 61.95, 265.1 -0.11 M76.15 217.25 C137.43 147.54, 199.32 77.96, 265.1 -0.11 M81.14 217.61 C133.32 156.53, 187.2 96.1, 270.08 0.25 M81.14 217.61 C152.52 135.14, 223.27 51.61, 270.08 0.25 M86.78 217.21 C126.07 169.11, 166.88 124.29, 275.73 -0.14 M86.78 217.21 C125 172.42, 162.58 128.45, 275.73 -0.14 M91.77 217.57 C152.88 148.96, 215.59 78.23, 280.71 0.22 M91.77 217.57 C153.95 147.59, 215.75 75.39, 280.71 0.22 M97.41 217.18 C148.99 161.37, 197.93 102.52, 286.36 -0.18 M97.41 217.18 C138.87 170.15, 179.64 123.2, 286.36 -0.18 M102.4 217.54 C169.46 138.93, 237.47 63.35, 291.34 0.18 M102.4 217.54 C143.98 170.57, 185.46 122.63, 291.34 0.18 M108.04 217.15 C169.34 147.58, 229.19 76.9, 296.99 -0.21 M108.04 217.15 C145.15 171.96, 183.21 129.03, 296.99 -0.21 M113.03 217.51 C164.76 161.07, 215.77 100.4, 301.97 0.15 M113.03 217.51 C171.05 150.22, 229.23 82.87, 301.97 0.15 M118.67 217.11 C189.92 132.79, 265.93 48.89, 307.62 -0.25 M118.67 217.11 C158.08 173.58, 196.61 127.26, 307.62 -0.25 M123.66 217.47 C193.14 132.96, 265.12 51.62, 312.6 0.11 M123.66 217.47 C165.88 167.52, 208.09 119.82, 312.6 0.11 M129.3 217.08 C189.15 147.85, 252.11 77.55, 318.25 -0.28 M129.3 217.08 C205.59 129.69, 280.48 41.97, 318.25 -0.28 M134.29 217.44 C192.84 152.87, 252.1 84.17, 323.23 0.08 M134.29 217.44 C179.42 166.66, 223.24 115.56, 323.23 0.08 M139.28 217.8 C204.67 144.34, 269.67 68.57, 328.88 -0.31 M139.28 217.8 C205.11 142.22, 271.98 66.58, 328.88 -0.31 M144.92 217.4 C202.99 152.5, 261 85.53, 333.86 0.05 M144.92 217.4 C218.47 132.51, 292.24 46.72, 333.86 0.05 M149.91 217.76 C209.99 147.29, 273.04 77.12, 339.51 -0.35 M149.91 217.76 C215.26 144.83, 279.71 71.43, 339.51 -0.35 M155.55 217.37 C216.12 151.3, 276.2 80.23, 344.49 0.01 M155.55 217.37 C229.39 131.83, 304.74 45.89, 344.49 0.01 M160.54 217.73 C224.4 144.6, 285.63 75.27, 349.48 0.37 M160.54 217.73 C210.04 160.28, 260.27 103.33, 349.48 0.37 M166.18 217.33 C227.63 150.47, 285.39 82.82, 355.12 -0.02 M166.18 217.33 C222.72 151.72, 279.41 86.42, 355.12 -0.02 M171.17 217.69 C218.19 163.03, 269.34 105.27, 360.11 0.34 M171.17 217.69 C233.41 144.52, 296.02 71.55, 360.11 0.34 M176.81 217.3 C246.29 134.26, 317.94 53.32, 365.75 -0.06 M176.81 217.3 C221.16 167, 265.71 116.51, 365.75 -0.06 M181.8 217.66 C255.9 129.81, 331.17 45.78, 370.74 0.3 M181.8 217.66 C248.81 138.73, 317.22 60.89, 370.74 0.3 M187.44 217.26 C224.56 173.21, 262.68 130.18, 376.38 -0.09 M187.44 217.26 C242.54 155.76, 297.46 93.48, 376.38 -0.09 M192.43 217.62 C248.2 154.94, 301.21 93.06, 381.37 0.27 M192.43 217.62 C244.7 157.58, 295.48 98.01, 381.37 0.27 M198.07 217.23 C272.1 132.28, 348.15 46.85, 387.01 -0.13 M198.07 217.23 C236.22 174.79, 274.11 131.94, 387.01 -0.13 M203.06 217.59 C244.48 169.29, 287.4 118.52, 392 0.23 M203.06 217.59 C244.56 171.15, 285.91 125.64, 392 0.23 M208.7 217.19 C282.03 133.92, 357.01 48.28, 397.64 -0.16 M208.7 217.19 C261.57 156.57, 315.2 96.15, 397.64 -0.16 M213.69 217.55 C285.13 133.04, 357.69 48.66, 402.63 0.2 M213.69 217.55 C256.83 168.19, 299.38 118.81, 402.63 0.2 M219.33 217.16 C278.92 148.4, 341.01 81.54, 404.99 3.58 M219.33 217.16 C274.27 154.19, 330.38 91.11, 404.99 3.58 M224.32 217.52 C276.42 157.97, 330.22 95.68, 405.39 9.22 M224.32 217.52 C294.54 138.35, 363.57 59.45, 405.39 9.22 M229.96 217.13 C290.11 148.97, 348.45 78.17, 405.13 15.62 M229.96 217.13 C295.89 142.72, 361.72 67.23, 405.13 15.62 M234.95 217.49 C293.92 150.16, 356 77.56, 404.87 22.02 M234.95 217.49 C274.62 169.56, 314.13 124.4, 404.87 22.02 M240.59 217.09 C291.68 157.94, 343.35 99.24, 405.26 27.66 M240.59 217.09 C292.02 157.64, 342.82 99.38, 405.26 27.66 M245.58 217.45 C297.46 157.21, 351.11 96.9, 405 34.06 M245.58 217.45 C306.68 148.78, 368.06 78.31, 405 34.06 M251.22 217.06 C299.3 160.42, 347.15 104.94, 405.39 39.7 M251.22 217.06 C288.54 174.15, 324.98 130.63, 405.39 39.7 M256.21 217.42 C292.8 175.22, 326.06 136.15, 405.13 46.1 M256.21 217.42 C301.96 162.89, 347.51 108.95, 405.13 46.1 M261.19 217.78 C312.85 160.17, 363.45 104.01, 404.87 52.5 M261.19 217.78 C319.24 152.14, 376.01 88.12, 404.87 52.5 M266.84 217.38 C307.25 172.74, 345.96 130.42, 405.27 58.14 M266.84 217.38 C311.17 165.74, 355.68 112.75, 405.27 58.14 M271.82 217.74 C300.96 182.95, 330.9 147.69, 405 64.54 M271.82 217.74 C316.96 166.47, 359.87 117.4, 405 64.54 M277.47 217.35 C316.46 175.33, 353.71 129.04, 405.4 70.18 M277.47 217.35 C309.02 180.31, 340.83 144.01, 405.4 70.18 M282.45 217.71 C315.78 181.32, 346.93 145.56, 405.14 76.58 M282.45 217.71 C316.96 176.87, 351.97 136.94, 405.14 76.58 M288.1 217.31 C323.58 177.95, 355.59 136.78, 404.88 82.98 M288.1 217.31 C323.25 176.95, 357.55 139.12, 404.88 82.98 M293.08 217.67 C336.67 168.62, 380.51 117.99, 405.27 88.62 M293.08 217.67 C322.46 185.08, 351.62 151.52, 405.27 88.62 M298.73 217.28 C339.32 172.69, 381.81 123.38, 405.01 95.02 M298.73 217.28 C320.68 194.59, 341.6 169.51, 405.01 95.02 M303.71 217.64 C331.34 187.43, 355.55 155.34, 405.4 100.66 M303.71 217.64 C332.69 181.84, 363.58 148.48, 405.4 100.66 M309.36 217.24 C347.71 174.06, 386.22 130.39, 405.14 107.06 M309.36 217.24 C339.05 182.56, 370.37 146.1, 405.14 107.06 M314.34 217.6 C346.44 181.9, 376.58 142.6, 404.88 113.45 M314.34 217.6 C334.55 194.15, 353.62 171.68, 404.88 113.45 M319.99 217.21 C342.66 195.24, 361.73 171.05, 405.27 119.1 M319.99 217.21 C346.29 185.91, 373.74 154.24, 405.27 119.1 M324.97 217.57 C342.7 196.95, 360.94 172.35, 405.01 125.5 M324.97 217.57 C349.36 187.8, 374.77 160.17, 405.01 125.5 M330.62 217.18 C357.48 182.41, 387.62 149.71, 405.41 131.14 M330.62 217.18 C350.18 193.77, 369.96 172.07, 405.41 131.14 M335.6 217.54 C355.64 193.35, 379.63 171.05, 405.15 137.54 M335.6 217.54 C364.96 185.64, 391.28 153.74, 405.15 137.54 M341.25 217.14 C366 189.64, 388.39 161.95, 404.89 143.93 M341.25 217.14 C362.8 193.26, 383.11 169.61, 404.89 143.93 M346.23 217.5 C362.29 199.82, 377.34 181.5, 405.28 149.58 M346.23 217.5 C370.15 190.72, 392.45 164.71, 405.28 149.58 M351.88 217.11 C365.64 198.94, 383.67 180.18, 405.02 155.98 M351.88 217.11 C367.84 199.61, 382.47 179.56, 405.02 155.98 M356.86 217.47 C369.63 206.14, 378.11 193.28, 405.41 161.62 M356.86 217.47 C372.42 198.78, 389.87 180.67, 405.41 161.62 M362.51 217.07 C378.38 199.18, 392.3 181.39, 405.15 168.02 M362.51 217.07 C374.53 201.43, 387.9 187.75, 405.15 168.02 M367.49 217.43 C377.08 207.2, 386.89 193.89, 404.89 174.41 M367.49 217.43 C380.96 202.69, 393.89 187.39, 404.89 174.41 M372.48 217.79 C380.06 210.45, 387.34 200.47, 405.28 180.06 M372.48 217.79 C379.03 209.68, 387.64 200.41, 405.28 180.06 M378.12 217.4 C387 205.69, 399.89 194.38, 405.02 186.45 M378.12 217.4 C386.68 206.25, 397.11 196.63, 405.02 186.45 M383.11 217.76 C389.24 207.39, 399.01 200.67, 405.42 192.1 M383.11 217.76 C389.79 209.72, 395.66 203.24, 405.42 192.1 M388.75 217.36 C393.26 212.68, 398.66 205.47, 405.16 198.5 M388.75 217.36 C393.35 212.56, 395.89 209.75, 405.16 198.5 M393.74 217.72 C395.43 212.75, 399.35 210.05, 404.89 204.89 M393.74 217.72 C398.4 212.43, 402.86 207.68, 404.89 204.89 M399.38 217.33 C401.55 214.27, 402.99 212.55, 405.29 210.54 M399.38 217.33 C400.87 215.53, 402.84 212.75, 405.29 210.54 M-0.29 216.78 C-0.29 216.78, -0.29 216.78, -0.29 216.78 M-0.29 216.78 C-0.29 216.78, -0.29 216.78, -0.29 216.78 M6.11 217.04 C5.38 216.01, 2.76 215.52, 0.07 211.79 M6.11 217.04 C4.11 214.96, 1.81 213.17, 0.07 211.79 M12.51 217.3 C9.79 215.14, 4.59 211.68, -0.32 206.15 M12.51 217.3 C9.05 214.95, 6.23 211.88, -0.32 206.15 M18.15 216.91 C11.4 212.07, 5.48 206.42, 0.04 201.16 M18.15 216.91 C14.58 213.06, 9.61 209.82, 0.04 201.16 M24.55 217.17 C16.69 210.67, 10.5 205.8, -0.36 195.52 M24.55 217.17 C15.45 210.42, 6.62 202.49, -0.36 195.52 M30.19 216.77 C17.54 204.41, 6.74 197.69, 0 190.53 M30.19 216.77 C18.11 207.88, 6.82 197.19, 0 190.53 M36.59 217.03 C26.41 206.54, 18.23 199.54, 0.36 185.54 M36.59 217.03 C29.14 209.86, 20.2 202.32, 0.36 185.54 M42.99 217.29 C30.82 205.77, 18.73 194.33, -0.03 179.9 M42.99 217.29 C27.56 203.49, 12.94 190.42, -0.03 179.9 M48.63 216.9 C34.5 203.11, 15.71 188.33, 0.33 174.91 M48.63 216.9 C33.32 203.64, 18.09 190.15, 0.33 174.91 M55.03 217.16 C35.07 200.27, 16.01 183.41, -0.07 169.27 M55.03 217.16 C36.87 202.37, 20.31 185.09, -0.07 169.27 M60.67 216.77 C43.09 201.88, 26.73 189.97, 0.29 164.28 M60.67 216.77 C37.15 195.14, 12.55 175.6, 0.29 164.28 M67.07 217.03 C47.76 200.78, 26.3 182.99, -0.1 158.64 M67.07 217.03 C46.26 200.18, 26.12 181.35, -0.1 158.64 M73.47 217.29 C51.36 198.02, 33.62 181.75, 0.26 153.65 M73.47 217.29 C49.15 195.36, 24.7 175.77, 0.26 153.65 M79.11 216.9 C54.44 196.54, 30.44 174.03, -0.14 148.01 M79.11 216.9 C60.51 202.25, 43.31 186.27, -0.14 148.01 M85.51 217.16 C51.98 188.81, 19.25 159.5, 0.22 143.02 M85.51 217.16 C57.29 193.11, 28.72 169.14, 0.22 143.02 M91.15 216.76 C72.28 196.9, 53.08 180.4, -0.17 137.38 M91.15 216.76 C72.7 199.4, 53.82 184.21, -0.17 137.38 M97.55 217.02 C59.47 184.24, 20.39 147.18, 0.19 132.39 M97.55 217.02 C69.88 191.58, 42.85 168.57, 0.19 132.39 M103.94 217.29 C64.83 183.87, 27.51 148.78, -0.21 126.75 M103.94 217.29 C69.83 188.2, 38.04 160.53, -0.21 126.75 M109.59 216.89 C73.43 181.7, 31.51 149.05, 0.15 121.76 M109.59 216.89 C84.14 193.61, 58.84 171.69, 0.15 121.76 M115.99 217.15 C77.96 186.27, 40.05 151.5, -0.24 116.12 M115.99 217.15 C93.06 195.52, 69.93 175.7, -0.24 116.12 M121.63 216.76 C90.26 188.07, 56.96 157.76, 0.12 111.13 M121.63 216.76 C87.07 186.01, 52.74 156.9, 0.12 111.13 M128.03 217.02 C86.04 181.06, 42.73 141.32, -0.27 105.49 M128.03 217.02 C97.08 187.04, 63.59 158.51, -0.27 105.49 M134.42 217.28 C104.52 191.87, 73.15 164.66, 0.09 100.5 M134.42 217.28 C91.16 180.1, 50.59 143.26, 0.09 100.5 M140.07 216.89 C105.84 185.78, 71.22 157.33, -0.31 94.86 M140.07 216.89 C101.79 184.31, 64.92 150.87, -0.31 94.86 M146.47 217.15 C109.47 183.7, 72.69 154.31, 0.05 89.87 M146.47 217.15 C108.88 186.19, 70.43 154.15, 0.05 89.87 M152.11 216.75 C112.54 180.06, 69.68 145.77, -0.34 84.23 M152.11 216.75 C100.72 172.83, 50.02 127.29, -0.34 84.23 M158.51 217.01 C115.96 182.64, 76.09 145.89, 0.02 79.24 M158.51 217.01 C126.2 189, 92.65 160.25, 0.02 79.24 M164.9 217.28 C102.72 159.75, 36.72 106.09, 0.38 74.25 M164.9 217.28 C100.7 160.66, 36.41 104.08, 0.38 74.25 M170.55 216.88 C117.61 171.6, 61.06 124.08, -0.02 68.61 M170.55 216.88 C109.66 165.61, 50.88 112.81, -0.02 68.61 M176.94 217.14 C125.03 173.72, 72.96 124.89, 0.34 63.62 M176.94 217.14 C128.58 175.12, 80.94 133.33, 0.34 63.62 M182.59 216.75 C123.5 165.73, 66.17 117.32, -0.05 57.98 M182.59 216.75 C146.32 185.17, 110.46 152.09, -0.05 57.98 M188.99 217.01 C127.98 165.82, 67.01 110.65, 0.31 52.99 M188.99 217.01 C148.02 181.05, 105.89 144.91, 0.31 52.99 M195.38 217.27 C125.1 153.77, 52.97 94.63, -0.09 47.35 M195.38 217.27 C123.66 158.1, 54.44 96.78, -0.09 47.35 M201.03 216.88 C145.95 169.63, 92.43 120.73, 0.27 42.36 M201.03 216.88 C119.59 147.68, 39.31 78.79, 0.27 42.36 M207.42 217.14 C126.35 148.85, 47.03 79.58, -0.12 36.72 M207.42 217.14 C128.17 149.56, 49.96 81.87, -0.12 36.72 M213.07 216.74 C128.33 143.67, 44.76 69.92, 0.24 31.73 M213.07 216.74 C128.52 144.7, 46.15 73.32, 0.24 31.73 M219.46 217 C155.1 160.87, 91.36 102.4, -0.16 26.09 M219.46 217 C157.29 162.28, 96.08 107.8, -0.16 26.09 M225.86 217.27 C173.83 170.72, 121.22 122.97, 0.2 21.1 M225.86 217.27 C163.11 160.68, 101.14 105.64, 0.2 21.1 M231.51 216.87 C173.25 164.8, 113.4 113.48, -0.19 15.46 M231.51 216.87 C171.7 164.18, 112 112.11, -0.19 15.46 M237.9 217.13 C154.97 146.47, 74.56 75.27, 0.17 10.47 M237.9 217.13 C146.57 138.21, 56.75 60.5, 0.17 10.47 M243.55 216.74 C146.72 134.58, 53.9 49.7, -0.22 4.83 M243.55 216.74 C157.99 142, 70.47 65.76, -0.22 4.83 M249.94 217 C198.63 172.94, 146.88 129.81, 0.14 -0.16 M249.94 217 C176.94 150.69, 100.83 85.46, 0.14 -0.16 M256.34 217.26 C186.33 153.12, 114.36 90.99, 6.53 0.11 M256.34 217.26 C159.65 133.32, 63 48.36, 6.53 0.11 M261.99 216.87 C192.19 156.34, 121.46 95.77, 12.18 -0.29 M261.99 216.87 C191.45 153.3, 120.32 91.85, 12.18 -0.29 M268.38 217.13 C197.55 152.73, 124.25 89.25, 18.57 -0.03 M268.38 217.13 C210.81 166.97, 151.86 117.38, 18.57 -0.03 M274.03 216.73 C183.17 139.72, 93.61 59.64, 24.22 -0.42 M274.03 216.73 C205.59 156.49, 136.77 96.66, 24.22 -0.42 M280.42 216.99 C228.2 173.72, 176.21 126.32, 30.62 -0.16 M280.42 216.99 C195.79 144.82, 111.91 71.68, 30.62 -0.16 M286.82 217.26 C220.17 160.39, 155.12 104.13, 37.01 0.1 M286.82 217.26 C228.25 167.68, 169.23 115.8, 37.01 0.1 M292.46 216.86 C240.21 172.95, 185.83 124.92, 42.66 -0.29 M292.46 216.86 C193.69 129.07, 93.67 42.69, 42.66 -0.29 M298.86 217.12 C227.77 155.85, 159.05 93.69, 49.05 -0.03 M298.86 217.12 C240.21 165.36, 179.12 112.47, 49.05 -0.03 M304.51 216.73 C220.58 142.95, 136 71.56, 54.7 -0.43 M304.51 216.73 C230.62 151.41, 156.78 88.55, 54.7 -0.43 M310.9 216.99 C222.72 139.65, 136.28 62.19, 61.09 -0.17 M310.9 216.99 C213.74 133.89, 118.9 49.64, 61.09 -0.17 M317.3 217.25 C227.44 137.99, 134.34 58.92, 67.49 0.1 M317.3 217.25 C227.09 141.36, 139.63 64.11, 67.49 0.1 M322.94 216.86 C248.67 149.65, 171.58 82.36, 73.14 -0.3 M322.94 216.86 C255.99 158.92, 190.85 102.2, 73.14 -0.3 M329.34 217.12 C242.74 140.09, 154.57 62.36, 79.53 -0.04 M329.34 217.12 C260.02 154.68, 189.47 93.68, 79.53 -0.04 M334.99 216.72 C240.29 131.57, 142.86 48.95, 85.18 -0.43 M334.99 216.72 C259.41 150.86, 183.6 85.87, 85.18 -0.43 M341.38 216.99 C264.72 149.52, 187.62 81.93, 91.57 -0.17 M341.38 216.99 C281.75 165.35, 222.88 114.57, 91.57 -0.17 M347.78 217.25 C260.11 142.92, 174.66 69.96, 97.97 0.09 M347.78 217.25 C289.61 168.17, 233.35 119.85, 97.97 0.09 M353.42 216.85 C275.53 149.29, 195.14 79.67, 103.61 -0.3 M353.42 216.85 C267.23 141.21, 181.61 66.79, 103.61 -0.3 M359.82 217.11 C273.27 140.96, 185.34 64.59, 110.01 -0.04 M359.82 217.11 C263.83 133.51, 166.71 49.74, 110.01 -0.04 M365.46 216.72 C266.14 130.52, 167.6 45.83, 115.66 -0.44 M365.46 216.72 C266 132.59, 167.55 46.8, 115.66 -0.44 M371.86 216.98 C299.09 156.07, 229.85 94, 122.05 -0.18 M371.86 216.98 C311.21 163.02, 250.68 110.78, 122.05 -0.18 M378.26 217.24 C314.9 160.67, 250.51 104.91, 128.45 0.09 M378.26 217.24 C289.94 140.86, 202.99 64.79, 128.45 0.09 M383.9 216.85 C325.3 166.49, 267.31 116.72, 134.09 -0.31 M383.9 216.85 C316.85 157.58, 249.74 99.69, 134.09 -0.31 M390.3 217.11 C304.61 140.99, 216.67 67.04, 140.49 -0.05 M390.3 217.11 C334.91 167.89, 281.21 121.26, 140.49 -0.05 M395.94 216.71 C297.29 130.65, 197 45.28, 146.14 -0.44 M395.94 216.71 C331.42 160.73, 268.4 105.78, 146.14 -0.44 M402.34 216.98 C303.92 133.16, 205.95 47.56, 152.53 -0.18 M402.34 216.98 C304.99 133.98, 207.7 48.95, 152.53 -0.18 M406.48 215.27 C311.35 132.13, 216.41 49.46, 158.93 0.08 M406.48 215.27 C308.64 131.18, 210.65 45.46, 158.93 0.08 M406.08 209.63 C342.54 154.86, 280.59 99.06, 164.57 -0.31 M406.08 209.63 C332.43 146.14, 258.26 81.98, 164.57 -0.31 M406.44 204.64 C332.4 139.51, 253.51 71.98, 170.97 -0.05 M406.44 204.64 C355.22 159.92, 304.7 115.6, 170.97 -0.05 M406.05 199 C338.65 139.9, 270.08 80.53, 176.61 -0.45 M406.05 199 C315.86 122.44, 226.7 45.56, 176.61 -0.45 M406.41 194.01 C328.39 126.59, 253.88 61.01, 183.01 -0.18 M406.41 194.01 C352.51 146.72, 296.93 97.94, 183.01 -0.18 M406.01 188.37 C361.16 149.66, 317.43 111.08, 189.41 0.08 M406.01 188.37 C340.33 132.38, 276.96 77.38, 189.41 0.08 M406.37 183.38 C347.52 134.79, 288.34 83.7, 195.05 -0.32 M406.37 183.38 C336.59 124.04, 267.7 64.22, 195.05 -0.32 M405.98 177.74 C337.28 118.59, 268.55 56.81, 201.45 -0.06 M405.98 177.74 C346.12 126.83, 289.08 75.07, 201.45 -0.06 M406.34 172.75 C327.69 105.47, 250.61 35.71, 207.09 -0.45 M406.34 172.75 C343.7 118.6, 281.83 63.76, 207.09 -0.45 M405.94 167.11 C360.88 127.94, 317.74 90.87, 213.49 -0.19 M405.94 167.11 C358.42 125.79, 311.31 85.89, 213.49 -0.19 M406.3 162.12 C358.99 121.32, 312.11 81.2, 219.89 0.07 M406.3 162.12 C334.39 98.54, 261.66 36.13, 219.89 0.07 M406.66 157.13 C362.82 118.47, 316.65 78.61, 225.53 -0.32 M406.66 157.13 C362.85 117.02, 316.56 78.71, 225.53 -0.32 M406.27 151.49 C367.53 119.23, 328.53 84.35, 231.93 -0.06 M406.27 151.49 C348.39 102.1, 290.55 52.73, 231.93 -0.06 M406.63 146.5 C347.75 94.62, 286.12 43.44, 237.57 -0.46 M406.63 146.5 C366.97 114.11, 328.63 80.37, 237.57 -0.46 M406.23 140.86 C373.11 111.91, 340.54 81.15, 243.97 -0.19 M406.23 140.86 C366.22 105.47, 326.06 71.36, 243.97 -0.19 M406.59 135.87 C353.39 90.73, 301.85 42.69, 250.37 0.07 M406.59 135.87 C364.08 97.36, 319.53 58.59, 250.37 0.07 M406.2 130.23 C362.12 94.4, 320.64 55, 256.01 -0.33 M406.2 130.23 C367.74 97.42, 331.36 65.92, 256.01 -0.33 M406.56 125.24 C353.92 79.29, 298.55 32.42, 262.41 -0.07 M406.56 125.24 C354.13 80.38, 302.63 34.9, 262.41 -0.07 M406.17 119.6 C367.4 84.67, 327.01 52.99, 268.05 -0.46 M406.17 119.6 C356.89 76.9, 308.08 35.33, 268.05 -0.46 M406.53 114.61 C369.62 83.51, 331.76 49.3, 274.45 -0.2 M406.53 114.61 C355.86 69.37, 303.08 26.14, 274.45 -0.2 M406.13 108.97 C380.34 85.89, 352.08 64.47, 280.85 0.06 M406.13 108.97 C377.67 85.3, 350.34 60.12, 280.85 0.06 M406.49 103.98 C377.85 77.62, 345.9 47.53, 286.49 -0.33 M406.49 103.98 C363.78 65.74, 320.19 27.45, 286.49 -0.33 M406.1 98.34 C358.61 57.13, 314.69 17.71, 292.89 -0.07 M406.1 98.34 C381.97 77.24, 357.57 55.34, 292.89 -0.07 M406.46 93.35 C370.05 59.23, 330.48 26.94, 298.53 -0.47 M406.46 93.35 C383.2 73.47, 357.96 50.95, 298.53 -0.47 M406.06 87.71 C365.29 55.14, 326.45 19.48, 304.93 -0.2 M406.06 87.71 C377.49 63.4, 348.7 37.29, 304.93 -0.2 M406.42 82.72 C372.88 54.1, 338.77 22.73, 311.33 0.06 M406.42 82.72 C367.22 50.09, 330.19 17.39, 311.33 0.06 M406.03 77.08 C381.37 58.48, 360.09 40.36, 316.97 -0.34 M406.03 77.08 C375.97 51.64, 347.17 28.16, 316.97 -0.34 M406.39 72.09 C376.6 43.33, 342.76 18.73, 323.37 -0.08 M406.39 72.09 C384.48 54.02, 364.54 33.93, 323.37 -0.08 M405.99 66.45 C388.05 51.01, 373.82 37.35, 329.01 -0.47 M405.99 66.45 C387.34 51.36, 370.5 35.41, 329.01 -0.47 M406.35 61.46 C392.24 47.47, 375.48 37.69, 335.41 -0.21 M406.35 61.46 C388.5 47.43, 371.03 31.68, 335.41 -0.21 M405.96 55.82 C385.62 40.61, 367.67 24.03, 341.81 0.05 M405.96 55.82 C392.41 42.63, 376.49 30.86, 341.81 0.05 M406.32 50.83 C386.93 31.15, 365.73 14.3, 347.45 -0.34 M406.32 50.83 C383.44 30.27, 361.75 11.79, 347.45 -0.34 M406.68 45.84 C394.79 34.16, 380.97 24.84, 353.85 -0.08 M406.68 45.84 C388.39 30.3, 371.29 15.54, 353.85 -0.08 M406.28 40.2 C393.21 30.14, 379.12 18.34, 359.49 -0.48 M406.28 40.2 C391.39 26.41, 375.3 14.86, 359.49 -0.48 M406.64 35.21 C391.46 22.76, 377.37 7.45, 365.89 -0.21 M406.64 35.21 C395.48 24.31, 382.54 15.21, 365.89 -0.21 M406.25 29.57 C394.84 20.75, 387.44 12.42, 372.29 0.05 M406.25 29.57 C395.56 20.54, 386.7 11.19, 372.29 0.05 M406.61 24.58 C393.79 16.19, 384.11 5.62, 377.93 -0.35 M406.61 24.58 C400 18.55, 391.46 11.33, 377.93 -0.35 M406.21 18.94 C400.01 14.71, 394.36 8.79, 384.33 -0.09 M406.21 18.94 C400.11 14.13, 396.69 9.23, 384.33 -0.09 M406.57 13.95 C403.06 10.95, 395.51 4.22, 389.97 -0.48 M406.57 13.95 C400.97 9.49, 397.57 5.32, 389.97 -0.48 M406.18 8.31 C403.44 6.74, 400.76 1.86, 396.37 -0.22 M406.18 8.31 C403.04 4.52, 398.88 1.81, 396.37 -0.22 M406.54 3.32 C404.78 1.82, 403.92 1.42, 402.77 0.04 M406.54 3.32 C405.31 2.42, 404.43 1.27, 402.77 0.04" stroke="#a5d8ff" stroke-width="0.5" fill="none"></path><path d="M0 0 C148.34 -1.09, 298.12 -2.2, 404.67 0 M0 0 C129.78 2.14, 259.9 2.1, 404.67 0 M404.67 0 C403.83 50.52, 406.38 102.67, 404.67 217.03 M404.67 0 C403.19 62.34, 403.98 125.08, 404.67 217.03 M404.67 217.03 C285.56 218.49, 165.41 219.68, 0 217.03 M404.67 217.03 C319.88 216.38, 234.95 216.62, 0 217.03 M0 217.03 C0.39 171.04, -0.05 129.05, 0 0 M0 217.03 C-0.91 148.57, -1.78 79.54, 0 0" stroke="transparent" stroke-width="1" fill="none"></path></g><g transform="translate(47.645841572082645 10) rotate(0 157.8229217529297 17.5)"><text x="157.8229217529297" y="0" font-family="Virgil, Segoe UI Emoji" font-size="28px" fill="#1e1e1e" text-anchor="middle" style="white-space: pre;" direction="ltr" dominant-baseline="text-before-edge">display:               ;</text></g><g transform="translate(153.01493148504915 12.956048565215042) rotate(0 51.40625 17.5)"><text x="51.40625" y="0" font-family="Virgil, Segoe UI Emoji" font-size="28px" fill="#1971c2" text-anchor="middle" style="white-space: pre;" direction="ltr" dominant-baseline="text-before-edge">[outer]</text></g><g transform="translate(263.39813282088517 13.21675997783177) rotate(0 43.88541793823242 17.5)"><text x="43.88541793823242" y="0" font-family="Virgil, Segoe UI Emoji" font-size="28px" fill="#f08c00" text-anchor="middle" style="white-space: pre;" direction="ltr" dominant-baseline="text-before-edge">[inner]</text></g><g stroke-linecap="round" transform="translate(56.34458395864567 103.49343795096456) rotate(0 150.33730893902157 67.82134237850596)"><path d="M-0.98 1.51 L299.39 -0.6 L300.29 135.31 L1.51 135.15" stroke="none" stroke-width="0" fill="#ffffff"></path><path d="M0 0 C100.7 -0.75, 200.44 -0.12, 300.67 0 M0 0 C111.58 -1.2, 224.35 -1.4, 300.67 0 M300.67 0 C301.52 53.46, 301.37 105.42, 300.67 135.64 M300.67 0 C300.08 48.78, 299.47 99.96, 300.67 135.64 M300.67 135.64 C232.23 135.1, 163.54 135.91, 0 135.64 M300.67 135.64 C204.51 136.07, 108.85 135.97, 0 135.64 M0 135.64 C-0.94 83.17, -1.16 29.9, 0 0 M0 135.64 C-0.48 82.61, 0.47 27.16, 0 0" stroke="transparent" stroke-width="1" fill="none"></path></g><g stroke-linecap="round" transform="translate(58.6052953712624 103.49343795096456) rotate(0 150.90248679217575 67.82134237850596)"><path d="M0 0 C0 0, 0 0, 0 0 M0 0 C0 0, 0 0, 0 0 M-0.26 6.4 C2.41 4.59, 3.97 1.38, 4.99 0.36 M-0.26 6.4 C1.91 4.42, 3.55 1.74, 4.99 0.36 M0.13 12.04 C2.66 8.78, 5.18 6.89, 10.63 -0.03 M0.13 12.04 C3.5 8.42, 6.32 3.96, 10.63 -0.03 M-0.13 18.44 C3.35 12.92, 4.93 9.15, 15.62 0.33 M-0.13 18.44 C5.04 12.98, 10.35 5.56, 15.62 0.33 M0.27 24.08 C9.49 13.46, 14.5 7.58, 21.26 -0.07 M0.27 24.08 C4.9 17.46, 11.93 11.82, 21.26 -0.07 M0 30.48 C7.29 23.3, 15.57 14.25, 26.25 0.29 M0 30.48 C10.12 18.56, 21.29 5.92, 26.25 0.29 M-0.26 36.88 C10.87 21.36, 26.71 8.45, 31.89 -0.1 M-0.26 36.88 C10.48 23.77, 22.63 10.92, 31.89 -0.1 M0.14 42.52 C13.29 30.93, 21.27 14.25, 36.88 0.26 M0.14 42.52 C11.49 30.86, 21.7 18.16, 36.88 0.26 M-0.12 48.92 C12.87 31.74, 28.48 14.98, 42.52 -0.14 M-0.12 48.92 C15.9 31.04, 32.62 11.94, 42.52 -0.14 M0.27 54.56 C18.33 36.31, 30.67 16.01, 47.51 0.22 M0.27 54.56 C14.82 38.01, 31.3 20.06, 47.51 0.22 M0.01 60.96 C12.97 42.71, 29.07 23.62, 53.15 -0.17 M0.01 60.96 C13.48 45.4, 26.99 29.92, 53.15 -0.17 M-0.25 67.36 C15.18 49.6, 28.83 36.86, 58.14 0.19 M-0.25 67.36 C14.99 49.23, 30.09 31.68, 58.14 0.19 M0.14 73 C18.74 52.03, 38.61 26.87, 63.78 -0.21 M0.14 73 C15.84 55.58, 30.08 38.93, 63.78 -0.21 M-0.12 79.4 C27.34 50.77, 53.51 21.5, 68.77 0.15 M-0.12 79.4 C15.14 61.81, 29.32 44.63, 68.77 0.15 M0.28 85.04 C22.45 60.91, 44.05 34.53, 74.41 -0.24 M0.28 85.04 C16.02 65.39, 32.19 47.32, 74.41 -0.24 M0.01 91.44 C27.81 57.41, 59.2 23.91, 79.4 0.12 M0.01 91.44 C16.45 72.86, 34.56 54.03, 79.4 0.12 M-0.25 97.84 C33.22 59.96, 63.44 24.93, 85.04 -0.28 M-0.25 97.84 C30.88 63.48, 62.01 26.5, 85.04 -0.28 M0.15 103.48 C25.36 74.41, 54.05 43.18, 90.03 0.08 M0.15 103.48 C31.75 68.52, 63.4 32.57, 90.03 0.08 M-0.11 109.88 C25.19 82.31, 48.32 51.91, 95.67 -0.31 M-0.11 109.88 C23.74 81.15, 49 51.65, 95.67 -0.31 M0.28 115.52 C29.65 84.1, 58.02 48.01, 100.66 0.05 M0.28 115.52 C29.02 81.7, 58.14 48.2, 100.66 0.05 M0.02 121.92 C31.83 84.35, 65.23 44.12, 106.3 -0.34 M0.02 121.92 C24.27 95.91, 47.26 68.98, 106.3 -0.34 M-0.24 128.32 C43.84 77.5, 89.35 27.61, 111.29 0.02 M-0.24 128.32 C38.11 82.57, 77.7 36.44, 111.29 0.02 M0.15 133.96 C31.82 98.4, 59.6 65.38, 116.27 0.38 M0.15 133.96 C41.97 86.51, 82.52 39.67, 116.27 0.38 M3.83 135.83 C32 102.06, 61 68.97, 121.92 -0.02 M3.83 135.83 C29.7 105.03, 55.54 74.7, 121.92 -0.02 M9.47 135.43 C44.69 96.96, 80.28 58.24, 126.91 0.34 M9.47 135.43 C44.76 95.8, 78.98 55.82, 126.91 0.34 M14.46 135.79 C40.5 104.42, 70.4 75.84, 132.55 -0.05 M14.46 135.79 C41.39 103.07, 68.4 70.91, 132.55 -0.05 M20.1 135.4 C60.79 84.52, 106.38 33.08, 137.54 0.31 M20.1 135.4 C50.45 100.81, 81.41 64.08, 137.54 0.31 M25.09 135.76 C58.47 95.33, 94.34 57.6, 143.18 -0.09 M25.09 135.76 C60.56 95.71, 96.59 53.43, 143.18 -0.09 M30.73 135.36 C67.82 91.39, 105.26 49.85, 148.17 0.27 M30.73 135.36 C56.91 104.94, 81.6 77.67, 148.17 0.27 M35.72 135.72 C76.12 89.11, 118.96 40.78, 153.81 -0.12 M35.72 135.72 C81.05 85.51, 125.22 33.02, 153.81 -0.12 M41.36 135.33 C77.05 92.11, 119.32 46.97, 158.8 0.24 M41.36 135.33 C75.76 95.22, 112.89 53.97, 158.8 0.24 M46.35 135.69 C80.93 95.96, 118.36 52.92, 164.44 -0.16 M46.35 135.69 C70.06 109.61, 94.05 82.02, 164.44 -0.16 M51.99 135.3 C78.58 102.43, 107.3 68.41, 169.43 0.2 M51.99 135.3 C76.64 108.24, 100.73 80.55, 169.43 0.2 M56.98 135.66 C99.2 86.22, 139.53 38, 175.07 -0.19 M56.98 135.66 C98.82 87.23, 140.07 40.38, 175.07 -0.19 M61.96 136.02 C91.37 98.07, 124.74 63.79, 180.06 0.17 M61.96 136.02 C107.47 82.96, 153.81 29.94, 180.06 0.17 M67.61 135.62 C110.15 87.72, 149.81 40.95, 185.7 -0.23 M67.61 135.62 C111.33 85.2, 153.76 35.32, 185.7 -0.23 M72.59 135.98 C111.94 94.58, 145.8 55.46, 190.69 0.13 M72.59 135.98 C104.16 102.43, 133.56 67.38, 190.69 0.13 M78.24 135.59 C105.46 101.96, 135.47 67.85, 196.33 -0.26 M78.24 135.59 C110.53 99.7, 144.55 61.3, 196.33 -0.26 M83.23 135.95 C126.48 85.97, 171.06 32.5, 201.32 0.1 M83.23 135.95 C131.5 81.07, 177.15 29.13, 201.32 0.1 M88.87 135.55 C137.5 83.25, 181.37 28.38, 206.96 -0.3 M88.87 135.55 C113.67 103.87, 140.64 72.35, 206.96 -0.3 M93.86 135.91 C142.65 80.9, 187.38 28.31, 211.95 0.06 M93.86 135.91 C132.16 91.94, 170.38 48.66, 211.95 0.06 M99.5 135.52 C133.03 100.16, 163.1 61.77, 217.59 -0.33 M99.5 135.52 C130.25 100.77, 161.58 63.85, 217.59 -0.33 M104.49 135.88 C131.69 103.24, 157.95 75.33, 222.58 0.03 M104.49 135.88 C146.95 86, 190.43 37.65, 222.58 0.03 M110.13 135.48 C153.03 87.1, 199.29 38.39, 228.22 -0.36 M110.13 135.48 C154.46 86.16, 198.47 35.66, 228.22 -0.36 M115.12 135.84 C137.81 108.89, 162.75 78.04, 233.21 0 M115.12 135.84 C155.46 89.17, 197.03 41.76, 233.21 0 M120.76 135.45 C152.69 97.67, 186.93 59.33, 238.19 0.36 M120.76 135.45 C145.39 109.4, 168.69 79.96, 238.19 0.36 M125.75 135.81 C152.58 103.31, 182.62 72.67, 243.84 -0.04 M125.75 135.81 C166.53 90.78, 205.57 45.81, 243.84 -0.04 M131.39 135.41 C160.11 101.73, 186 68.86, 248.82 0.32 M131.39 135.41 C174.83 85.11, 219.51 35.8, 248.82 0.32 M136.38 135.77 C171.72 97.62, 203.11 55.41, 254.47 -0.07 M136.38 135.77 C168.34 101.9, 199.75 65.02, 254.47 -0.07 M142.02 135.38 C184.88 83.49, 228.17 33.14, 259.45 0.29 M142.02 135.38 C183.74 86.98, 226.37 38.65, 259.45 0.29 M147.01 135.74 C178.82 97.21, 210.41 64.61, 265.1 -0.11 M147.01 135.74 C183.02 94.25, 219.64 53.09, 265.1 -0.11 M152.65 135.35 C178.43 104.08, 207.3 73.07, 270.08 0.25 M152.65 135.35 C198.76 83.19, 243.47 31.85, 270.08 0.25 M157.64 135.71 C201.41 83.63, 246.83 33.92, 275.73 -0.14 M157.64 135.71 C197.84 87.75, 237.82 41.68, 275.73 -0.14 M163.28 135.31 C195.93 97.37, 225.38 61.84, 280.71 0.22 M163.28 135.31 C204.5 86.98, 246.65 40.1, 280.71 0.22 M168.27 135.67 C210.34 82.32, 255.53 35.06, 286.36 -0.18 M168.27 135.67 C199.01 99.95, 228.57 65.1, 286.36 -0.18 M173.91 135.28 C214.14 88.72, 258.16 38.3, 291.34 0.18 M173.91 135.28 C210.63 93, 247.22 50.3, 291.34 0.18 M178.9 135.64 C208.28 97.94, 243.65 62.14, 296.99 -0.21 M178.9 135.64 C207.28 102, 236.97 67.53, 296.99 -0.21 M183.88 136 C218.36 97.55, 249.03 61.72, 301.97 0.15 M183.88 136 C231.38 82.1, 277.98 27.5, 301.97 0.15 M189.53 135.6 C221.2 102.61, 248.49 67.19, 301.71 6.55 M189.53 135.6 C227.55 91.42, 265.4 47.99, 301.71 6.55 M194.51 135.96 C222.37 102.89, 248.25 69.81, 302.11 12.19 M194.51 135.96 C223.79 101.73, 252.73 67.46, 302.11 12.19 M200.16 135.57 C237.19 94.48, 274.37 49.76, 301.85 18.59 M200.16 135.57 C223.26 106.95, 248.22 79.79, 301.85 18.59 M205.14 135.93 C240.72 94.46, 280.94 49.89, 302.24 24.23 M205.14 135.93 C232.12 104.71, 260.19 72.94, 302.24 24.23 M210.79 135.53 C232.24 108.05, 252.18 85.52, 301.98 30.63 M210.79 135.53 C235.44 105.6, 261.1 76.58, 301.98 30.63 M215.77 135.89 C234.08 115.68, 251.69 94.6, 301.72 37.03 M215.77 135.89 C243.65 104, 271.61 71.79, 301.72 37.03 M221.42 135.5 C246.18 103.74, 270.41 77.43, 302.11 42.67 M221.42 135.5 C247.09 105.71, 272.58 76.6, 302.11 42.67 M226.4 135.86 C256.1 104, 283.82 69.1, 301.85 49.07 M226.4 135.86 C254.92 104.61, 282.39 73.54, 301.85 49.07 M232.05 135.46 C248.2 114.21, 265.32 94.24, 302.24 54.71 M232.05 135.46 C258.54 103.18, 285.43 71.56, 302.24 54.71 M237.03 135.82 C260.35 108.71, 280.7 86.06, 301.98 61.11 M237.03 135.82 C256.92 111.95, 278.44 88.35, 301.98 61.11 M242.68 135.43 C262.69 113.19, 283.93 89.9, 301.72 67.51 M242.68 135.43 C259.12 115.57, 275.17 98.05, 301.72 67.51 M247.66 135.79 C263.37 117.53, 275.47 104.45, 302.12 73.15 M247.66 135.79 C269.02 113.66, 289.21 88.76, 302.12 73.15 M253.31 135.4 C266.37 119.47, 279.29 104.29, 301.85 79.55 M253.31 135.4 C269.7 117.25, 286.81 97.43, 301.85 79.55 M258.29 135.76 C272.52 116.58, 286.52 100.23, 302.25 85.19 M258.29 135.76 C270.29 120.8, 282.34 108.29, 302.25 85.19 M263.94 135.36 C279.06 121.15, 291.35 104.91, 301.99 91.59 M263.94 135.36 C274.85 123.72, 285.7 111.98, 301.99 91.59 M268.92 135.72 C278.61 126.28, 288.37 114.63, 301.73 97.99 M268.92 135.72 C276.67 128.18, 283.88 118.79, 301.73 97.99 M274.57 135.33 C283.08 124.15, 292.3 116.11, 302.12 103.63 M274.57 135.33 C284 123.29, 295.82 110.5, 302.12 103.63 M279.55 135.69 C286.21 125.86, 297.45 115.45, 301.86 110.03 M279.55 135.69 C288.81 125.81, 296.89 116.34, 301.86 110.03 M285.2 135.29 C289.41 130.14, 292.69 125.13, 302.25 115.67 M285.2 135.29 C289.59 130.24, 295.34 124.22, 302.25 115.67 M290.18 135.65 C293.23 133.24, 298.27 129.53, 301.99 122.07 M290.18 135.65 C294.62 130.97, 299.39 124.8, 301.99 122.07 M295.17 136.01 C297.05 133.61, 300.18 131.08, 301.73 128.46 M295.17 136.01 C297.42 133.46, 299.38 130.63, 301.73 128.46 M300.81 135.62 C301.28 135.1, 301.57 134.92, 302.13 134.11 M300.81 135.62 C301.03 135.37, 301.43 134.89, 302.13 134.11 M0.01 135.65 C0.01 135.65, 0.01 135.65, 0.01 135.65 M0.01 135.65 C0.01 135.65, 0.01 135.65, 0.01 135.65 M6.41 135.91 C3.55 133.87, 2.74 132.55, 0.37 130.66 M6.41 135.91 C4.33 134.28, 3.34 132.58, 0.37 130.66 M12.05 135.52 C9.27 133.17, 5.11 127.35, -0.03 125.02 M12.05 135.52 C8.32 131.4, 3.51 128.45, -0.03 125.02 M18.45 135.78 C12.59 130.44, 5.69 125.21, 0.33 120.03 M18.45 135.78 C11.64 129.53, 6.74 124.27, 0.33 120.03 M24.09 135.38 C17.37 129.98, 10.77 121.36, -0.06 114.39 M24.09 135.38 C17.16 130.22, 10.19 123.29, -0.06 114.39 M30.49 135.64 C22.55 128.74, 13.6 119.48, 0.3 109.4 M30.49 135.64 C20.55 126.8, 10.68 117.85, 0.3 109.4 M36.89 135.91 C23.6 123.91, 11.42 111.29, -0.1 103.76 M36.89 135.91 C29.02 128.63, 18.85 121.61, -0.1 103.76 M42.53 135.51 C28.35 120.9, 11.58 109.85, 0.26 98.77 M42.53 135.51 C33.72 125.88, 23.08 117.73, 0.26 98.77 M48.93 135.77 C30.45 120, 14.86 108.04, -0.13 93.13 M48.93 135.77 C30.02 119.36, 10.22 101.15, -0.13 93.13 M54.57 135.38 C36.25 121.18, 16.65 103.67, 0.23 88.14 M54.57 135.38 C40.71 122.98, 25.69 110.01, 0.23 88.14 M60.97 135.64 C40.96 117.27, 19.8 98.48, -0.16 82.5 M60.97 135.64 C41.07 119.55, 21.56 102.69, -0.16 82.5 M67.36 135.9 C55.24 122.69, 40.62 112.58, 0.2 77.51 M67.36 135.9 C44.75 117.37, 23.21 96.47, 0.2 77.51 M73.01 135.51 C56.39 123.15, 43.26 106.33, -0.2 71.87 M73.01 135.51 C44.28 108.67, 14.3 84.74, -0.2 71.87 M79.41 135.77 C53.12 115.71, 26.73 92.47, 0.16 66.88 M79.41 135.77 C62.83 120.56, 44.31 106.49, 0.16 66.88 M85.05 135.37 C63.05 114.14, 37.94 93.22, -0.23 61.24 M85.05 135.37 C63.23 116.75, 42.91 98.23, -0.23 61.24 M91.45 135.64 C64.96 110.93, 36.49 85.87, 0.13 56.25 M91.45 135.64 C63.4 110.5, 35.1 87.03, 0.13 56.25 M97.84 135.9 C73.68 114.34, 52.71 97.97, -0.27 50.61 M97.84 135.9 C67.68 108.88, 38.35 84.91, -0.27 50.61 M103.49 135.5 C74.78 106.59, 41.58 82.48, 0.09 45.62 M103.49 135.5 C67 105.43, 31.98 73.71, 0.09 45.62 M109.88 135.76 C66.22 99.57, 28.18 63.1, -0.3 39.98 M109.88 135.76 C70.8 102.1, 30.1 66.17, -0.3 39.98 M115.53 135.37 C72.47 94.02, 23.44 55.9, 0.06 34.99 M115.53 135.37 C86.73 112.44, 59.4 88.97, 0.06 34.99 M121.93 135.63 C90.2 111.09, 61.08 83.91, -0.34 29.35 M121.93 135.63 C83.39 102.04, 44.64 68.3, -0.34 29.35 M128.32 135.89 C93.04 107.59, 59.39 80.3, 0.02 24.36 M128.32 135.89 C96.65 110.28, 66.36 84.33, 0.02 24.36 M133.97 135.5 C84.13 90.65, 33.93 46.41, -0.37 18.72 M133.97 135.5 C105.79 113.29, 78.68 88.28, -0.37 18.72 M140.36 135.76 C92.42 92.54, 43.23 50.66, -0.01 13.73 M140.36 135.76 C111.9 110.63, 82.09 84.81, -0.01 13.73 M146.01 135.36 C100.75 96.33, 55.77 58.87, 0.35 8.74 M146.01 135.36 C99.11 92.95, 51.87 52.02, 0.35 8.74 M152.41 135.63 C118.65 105.66, 84.52 76.45, -0.05 3.1 M152.41 135.63 C104.05 94.04, 55.37 53.57, -0.05 3.1 M158.8 135.89 C125.05 106.46, 88.6 75.26, 1.07 -1.23 M158.8 135.89 C104.54 91.29, 50.02 44.48, 1.07 -1.23 M164.45 135.49 C125.33 98.3, 83.28 63.02, 7.47 -0.97 M164.45 135.49 C109.65 86.39, 55.9 39.46, 7.47 -0.97 M170.84 135.75 C131.81 101.49, 92.14 65.82, 13.11 -1.36 M170.84 135.75 C110.65 82.59, 48.73 29.75, 13.11 -1.36 M176.49 135.36 C123.93 88.89, 70.8 41.97, 19.51 -1.1 M176.49 135.36 C144.16 107.48, 111.51 78.2, 19.51 -1.1 M182.88 135.62 C150.07 105.39, 116.23 78.48, 25.15 -1.5 M182.88 135.62 C124.02 85.88, 66.91 37.4, 25.15 -1.5 M189.28 135.88 C130.15 82.94, 70.88 32.73, 31.55 -1.23 M189.28 135.88 C154.98 107.94, 122.07 78.96, 31.55 -1.23 M194.93 135.49 C150.76 98.84, 109.34 62.28, 37.95 -0.97 M194.93 135.49 C160.05 105.95, 124.88 75.28, 37.95 -0.97 M201.32 135.75 C144.89 86.3, 86.65 35.36, 43.59 -1.37 M201.32 135.75 C140.19 83.3, 79.85 30.57, 43.59 -1.37 M206.97 135.35 C168.23 100.75, 128.26 69.02, 49.99 -1.11 M206.97 135.35 C162.16 94.89, 115.31 54.85, 49.99 -1.11 M213.36 135.62 C163.01 94, 111.77 48.34, 55.63 -1.5 M213.36 135.62 C154.86 86.22, 96.87 34.73, 55.63 -1.5 M219.76 135.88 C164.84 87.86, 114.61 42.45, 62.03 -1.24 M219.76 135.88 C163.93 85.23, 107.92 35.86, 62.03 -1.24 M225.41 135.48 C162.23 82.5, 101.41 30.7, 68.43 -0.98 M225.41 135.48 C174.69 90.44, 123.74 45.4, 68.43 -0.98 M231.8 135.74 C170.83 84.63, 113.08 35.81, 74.07 -1.37 M231.8 135.74 C173.48 85.01, 113.32 32.96, 74.07 -1.37 M237.45 135.35 C188.03 93.49, 141.54 49.46, 80.47 -1.11 M237.45 135.35 C202.98 103.11, 167.66 72.53, 80.47 -1.11 M243.84 135.61 C184.87 84.97, 124.13 32.47, 86.11 -1.51 M243.84 135.61 C188.07 85.53, 133.28 37.78, 86.11 -1.51 M250.24 135.87 C199.06 89.01, 147.14 44.81, 92.51 -1.24 M250.24 135.87 C195.32 87.14, 139.8 39.01, 92.51 -1.24 M255.88 135.48 C219.84 103.71, 183.87 74.66, 98.91 -0.98 M255.88 135.48 C213.4 96.86, 172.15 60.23, 98.91 -0.98 M262.28 135.74 C212.42 92.57, 162.97 48.03, 104.55 -1.38 M262.28 135.74 C231.68 107.23, 198.39 80.4, 104.55 -1.38 M267.93 135.34 C214.38 88.18, 160.82 39.47, 110.95 -1.12 M267.93 135.34 C207.62 82.1, 146.77 31.47, 110.95 -1.12 M274.32 135.61 C238.11 102.89, 200.58 68.44, 116.59 -1.51 M274.32 135.61 C211.79 81.44, 149.23 26.78, 116.59 -1.51 M280.72 135.87 C243.83 104.59, 210.95 73.79, 122.99 -1.25 M280.72 135.87 C233.97 97.23, 188.75 58.82, 122.99 -1.25 M286.36 135.47 C239.74 96.63, 194.96 58.57, 129.38 -0.99 M286.36 135.47 C229.14 86.43, 174.55 38.17, 129.38 -0.99 M292.76 135.73 C241.68 91.75, 193.29 49.22, 135.03 -1.38 M292.76 135.73 C250.65 101.33, 210.62 67.28, 135.03 -1.38 M298.41 135.34 C243.1 88.46, 187.39 38.32, 141.43 -1.12 M298.41 135.34 C264.89 106.43, 229.35 75.99, 141.43 -1.12 M303.29 134.29 C249.94 88.92, 197.79 43.34, 147.07 -1.52 M303.29 134.29 C252.48 88.98, 200.55 43.6, 147.07 -1.52 M302.9 128.65 C251.67 84.39, 197.21 34.89, 153.47 -1.25 M302.9 128.65 C249.32 81.69, 197.19 36.56, 153.47 -1.25 M303.26 123.66 C251.53 77.09, 197.32 33.7, 159.86 -0.99 M303.26 123.66 C274.28 96.65, 245 70.17, 159.86 -0.99 M302.86 118.02 C261.53 81.67, 220.96 46.14, 165.51 -1.39 M302.86 118.02 C273.12 93.83, 242.16 68.56, 165.51 -1.39 M303.22 113.03 C257.93 72.23, 212.78 36.94, 171.9 -1.13 M303.22 113.03 C257.07 74.58, 209.43 32.96, 171.9 -1.13 M302.83 107.39 C274.38 85.96, 245.62 60.54, 177.55 -1.52 M302.83 107.39 C265.82 76.96, 228.31 43.34, 177.55 -1.52 M303.19 102.4 C260.87 68.8, 218.6 29.68, 183.95 -1.26 M303.19 102.4 C269.96 72.9, 233.24 42.62, 183.95 -1.26 M302.8 96.76 C271.68 70.69, 243.61 47.42, 190.34 -1 M302.8 96.76 C258.8 57.52, 214.47 21.09, 190.34 -1 M303.16 91.77 C262.81 56.61, 226.11 25.64, 195.99 -1.39 M303.16 91.77 C268.68 60.77, 234.05 31.13, 195.99 -1.39 M302.76 86.13 C266.33 52.69, 231.16 22.56, 202.38 -1.13 M302.76 86.13 C270.27 58.13, 238.64 31.11, 202.38 -1.13 M303.12 81.14 C275.42 60.02, 248.53 35.52, 208.03 -1.52 M303.12 81.14 C266.29 48.63, 227.4 17.28, 208.03 -1.52 M303.48 76.15 C285.95 60.91, 265.68 47.26, 214.43 -1.26 M303.48 76.15 C269.1 47.07, 235.96 16.89, 214.43 -1.26 M303.09 70.51 C280.87 48.82, 255.27 26.42, 220.82 -1 M303.09 70.51 C283.26 53.71, 266.37 37.52, 220.82 -1 M303.45 65.52 C285.27 48.09, 268.82 31.93, 226.47 -1.4 M303.45 65.52 C276.39 42.86, 249.36 18.76, 226.47 -1.4 M303.05 59.88 C280.23 37.49, 254.62 16.92, 232.86 -1.14 M303.05 59.88 C287.92 45.94, 273.24 33.31, 232.86 -1.14 M303.41 54.89 C285.18 38.07, 270.04 24.97, 238.51 -1.53 M303.41 54.89 C285.82 40.23, 269.25 23.54, 238.51 -1.53 M303.02 49.25 C286.85 38.42, 272.02 25.53, 244.9 -1.27 M303.02 49.25 C285.84 34.04, 268.9 19.42, 244.9 -1.27 M303.38 44.26 C290.37 33.36, 276.51 20.19, 251.3 -1.01 M303.38 44.26 C284.25 26.85, 263.56 9.4, 251.3 -1.01 M302.98 38.62 C288.56 23.38, 270.72 12.19, 256.95 -1.4 M302.98 38.62 C289.57 27.74, 277.17 16.12, 256.95 -1.4 M303.34 33.63 C287.82 22.46, 275.38 9.73, 263.34 -1.14 M303.34 33.63 C290.55 22.14, 278.69 12.47, 263.34 -1.14 M302.95 27.99 C292.34 19.07, 282.78 13.84, 268.99 -1.53 M302.95 27.99 C289.64 17.34, 278.92 7.14, 268.99 -1.53 M303.31 23 C294.84 17.33, 287.72 8.59, 275.38 -1.27 M303.31 23 C297.27 16.56, 290.38 11.45, 275.38 -1.27 M302.91 17.36 C297.08 12.72, 292.89 10.61, 281.78 -1.01 M302.91 17.36 C296.18 10.49, 287.33 5.1, 281.78 -1.01 M303.27 12.37 C296.84 7.74, 292.56 0.78, 287.43 -1.41 M303.27 12.37 C300.27 9.32, 294.87 6.54, 287.43 -1.41 M302.88 6.73 C298.65 2.7, 296.67 0.88, 293.82 -1.14 M302.88 6.73 C300.81 3.98, 297.64 2.11, 293.82 -1.14 M303.24 1.74 C301.31 0.18, 300.27 -0.7, 299.47 -1.54 M303.24 1.74 C302.04 0.63, 301.09 -0.33, 299.47 -1.54" stroke="#ffec99" stroke-width="0.5" fill="none"></path><path d="M0 0 C89.41 1.08, 178.58 -0.03, 301.8 0 M0 0 C105.53 0.07, 210.97 0.36, 301.8 0 M301.8 0 C303.19 54.29, 303.73 104.59, 301.8 135.64 M301.8 0 C301.85 48.48, 301.46 95.16, 301.8 135.64 M301.8 135.64 C206.74 134.22, 111.51 133.42, 0 135.64 M301.8 135.64 C214.86 138.26, 128.28 137.3, 0 135.64 M0 135.64 C-0.75 97.93, 3.05 58.03, 0 0 M0 135.64 C1.24 92.79, 0.59 52.53, 0 0" stroke="#1e1e1e" stroke-width="1" fill="none"></path></g><g transform="translate(159.0353894008622 68.01299044241864) rotate(0 51.40625 17.5)"><text x="51.40625" y="0" font-family="Virgil, Segoe UI Emoji" font-size="28px" fill="#1971c2" text-anchor="middle" style="white-space: pre;" direction="ltr" dominant-baseline="text-before-edge">[outer]</text></g><g transform="translate(165.4224354230946 150.7793713284841) rotate(0 43.88541793823242 17.5)"><text x="43.88541793823242" y="0" font-family="Virgil, Segoe UI Emoji" font-size="28px" fill="#f08c00" text-anchor="middle" style="white-space: pre;" direction="ltr" dominant-baseline="text-before-edge">[inner]</text></g></svg>